G04 #@! TF.GenerationSoftware,KiCad,Pcbnew,(5.0.1)-3*
G04 #@! TF.CreationDate,2021-03-31T10:43:35+05:45*
G04 #@! TF.ProjectId,Power,506F7765722E6B696361645F70636200,rev?*
G04 #@! TF.SameCoordinates,Original*
G04 #@! TF.FileFunction,Copper,L2,Bot,Signal*
G04 #@! TF.FilePolarity,Positive*
%FSLAX46Y46*%
G04 Gerber Fmt 4.6, Leading zero omitted, Abs format (unit mm)*
G04 Created by KiCad (PCBNEW (5.0.1)-3) date 3/31/2021 10:43:35 AM*
%MOMM*%
%LPD*%
G01*
G04 APERTURE LIST*
G04 #@! TA.AperFunction,WasherPad*
%ADD10C,4.500000*%
G04 #@! TD*
G04 #@! TA.AperFunction,ComponentPad*
%ADD11C,3.000000*%
G04 #@! TD*
G04 #@! TA.AperFunction,ComponentPad*
%ADD12R,1.700000X1.700000*%
G04 #@! TD*
G04 #@! TA.AperFunction,ComponentPad*
%ADD13O,1.700000X1.700000*%
G04 #@! TD*
G04 #@! TA.AperFunction,ComponentPad*
%ADD14R,1.800000X1.800000*%
G04 #@! TD*
G04 #@! TA.AperFunction,ComponentPad*
%ADD15C,1.800000*%
G04 #@! TD*
G04 #@! TA.AperFunction,ComponentPad*
%ADD16R,1.900000X1.900000*%
G04 #@! TD*
G04 #@! TA.AperFunction,ComponentPad*
%ADD17C,1.900000*%
G04 #@! TD*
G04 #@! TA.AperFunction,ComponentPad*
%ADD18R,3.000000X3.000000*%
G04 #@! TD*
G04 #@! TA.AperFunction,ComponentPad*
%ADD19C,1.600000*%
G04 #@! TD*
G04 #@! TA.AperFunction,ComponentPad*
%ADD20R,1.600000X1.600000*%
G04 #@! TD*
G04 #@! TA.AperFunction,Conductor*
%ADD21C,2.000000*%
G04 #@! TD*
G04 #@! TA.AperFunction,Conductor*
%ADD22C,1.000000*%
G04 #@! TD*
G04 APERTURE END LIST*
D10*
G04 #@! TO.P,MH2,*
G04 #@! TO.N,*
X148000000Y-68000000D03*
G04 #@! TD*
G04 #@! TO.P,MH2,*
G04 #@! TO.N,*
X239000000Y-68000000D03*
G04 #@! TD*
G04 #@! TO.P,MH2,*
G04 #@! TO.N,*
X239000000Y-43000000D03*
G04 #@! TD*
D11*
G04 #@! TO.P,F1,1*
G04 #@! TO.N,Net-(F1-Pad1)*
X170000000Y-66500000D03*
G04 #@! TO.P,F1,2*
G04 #@! TO.N,Net-(F1-Pad2)*
X170000000Y-43900000D03*
G04 #@! TD*
D12*
G04 #@! TO.P,J1,1*
G04 #@! TO.N,5V*
X236000000Y-61000000D03*
D13*
G04 #@! TO.P,J1,2*
G04 #@! TO.N,GND*
X236000000Y-58460000D03*
G04 #@! TD*
D14*
G04 #@! TO.P,D1,1*
G04 #@! TO.N,GND*
X235930000Y-53920000D03*
D15*
G04 #@! TO.P,D1,2*
G04 #@! TO.N,Net-(D1-Pad2)*
X235930000Y-51380000D03*
G04 #@! TD*
D10*
G04 #@! TO.P,MH1,*
G04 #@! TO.N,*
X148000000Y-43000000D03*
G04 #@! TD*
D16*
G04 #@! TO.P,PS1,1*
G04 #@! TO.N,Net-(J2-Pad1)*
X186200000Y-52000000D03*
D17*
G04 #@! TO.P,PS1,2*
G04 #@! TO.N,Net-(F1-Pad1)*
X186200000Y-58000000D03*
G04 #@! TO.P,PS1,3*
G04 #@! TO.N,GND*
X219800000Y-46000000D03*
G04 #@! TO.P,PS1,4*
G04 #@! TO.N,5V*
X219800000Y-64000000D03*
G04 #@! TD*
D18*
G04 #@! TO.P,J2,1*
G04 #@! TO.N,Net-(J2-Pad1)*
X149000000Y-60000000D03*
G04 #@! TO.P,J2,2*
G04 #@! TO.N,Net-(F1-Pad2)*
X149000000Y-51000000D03*
G04 #@! TO.P,J2,1*
G04 #@! TO.N,Net-(J2-Pad1)*
X160500000Y-60000000D03*
G04 #@! TO.P,J2,2*
G04 #@! TO.N,Net-(F1-Pad2)*
X160500000Y-51000000D03*
G04 #@! TD*
D15*
G04 #@! TO.P,RV1,1*
G04 #@! TO.N,Net-(F1-Pad1)*
X178480000Y-58590000D03*
G04 #@! TO.P,RV1,2*
G04 #@! TO.N,Net-(J2-Pad1)*
X179880000Y-51090000D03*
G04 #@! TD*
D19*
G04 #@! TO.P,C3,2*
G04 #@! TO.N,GND*
X229500000Y-63000000D03*
D20*
G04 #@! TO.P,C3,1*
G04 #@! TO.N,5V*
X227000000Y-63000000D03*
G04 #@! TD*
G04 #@! TO.P,C4,1*
G04 #@! TO.N,5V*
X229000000Y-45000000D03*
D19*
G04 #@! TO.P,C4,2*
G04 #@! TO.N,GND*
X226500000Y-45000000D03*
G04 #@! TD*
D21*
G04 #@! TO.N,Net-(F1-Pad1)*
X178480000Y-62690000D02*
X178480000Y-58590000D01*
X174670000Y-66500000D02*
X178480000Y-62690000D01*
X170000000Y-66500000D02*
X174670000Y-66500000D01*
X185610000Y-58590000D02*
X186200000Y-58000000D01*
X178480000Y-58590000D02*
X185610000Y-58590000D01*
G04 #@! TO.N,Net-(F1-Pad2)*
X149000000Y-51000000D02*
X160500000Y-51000000D01*
X160500000Y-51000000D02*
X160500000Y-46010000D01*
X160500000Y-46010000D02*
X162650000Y-43860000D01*
X162690000Y-43900000D02*
X170000000Y-43900000D01*
D22*
X162650000Y-43860000D02*
X162690000Y-43900000D01*
D21*
G04 #@! TO.N,Net-(J2-Pad1)*
X149000000Y-60000000D02*
X160500000Y-60000000D01*
X160500000Y-60000000D02*
X164280000Y-60000000D01*
X164280000Y-60000000D02*
X173190000Y-51090000D01*
X173190000Y-51090000D02*
X179880000Y-51090000D01*
X185290000Y-51090000D02*
X186200000Y-52000000D01*
X179880000Y-51090000D02*
X185290000Y-51090000D01*
G04 #@! TD*
M02*
