G04 #@! TF.GenerationSoftware,KiCad,Pcbnew,(5.0.1)-3*
G04 #@! TF.CreationDate,2021-02-18T11:14:39+05:45*
G04 #@! TF.ProjectId,Battery-Charger,426174746572792D436861726765722E,rev?*
G04 #@! TF.SameCoordinates,Original*
G04 #@! TF.FileFunction,Copper,L1,Top,Signal*
G04 #@! TF.FilePolarity,Positive*
%FSLAX46Y46*%
G04 Gerber Fmt 4.6, Leading zero omitted, Abs format (unit mm)*
G04 Created by KiCad (PCBNEW (5.0.1)-3) date 2/18/2021 11:14:39 AM*
%MOMM*%
%LPD*%
G01*
G04 APERTURE LIST*
G04 #@! TA.AperFunction,ComponentPad*
%ADD10C,1.600000*%
G04 #@! TD*
G04 #@! TA.AperFunction,ComponentPad*
%ADD11R,1.600000X1.600000*%
G04 #@! TD*
G04 #@! TA.AperFunction,ComponentPad*
%ADD12R,2.200000X2.200000*%
G04 #@! TD*
G04 #@! TA.AperFunction,ComponentPad*
%ADD13O,2.200000X2.200000*%
G04 #@! TD*
G04 #@! TA.AperFunction,ComponentPad*
%ADD14R,1.800000X1.800000*%
G04 #@! TD*
G04 #@! TA.AperFunction,ComponentPad*
%ADD15C,1.800000*%
G04 #@! TD*
G04 #@! TA.AperFunction,ComponentPad*
%ADD16O,1.600000X1.600000*%
G04 #@! TD*
G04 #@! TA.AperFunction,ComponentPad*
%ADD17R,3.000000X3.000000*%
G04 #@! TD*
G04 #@! TA.AperFunction,ComponentPad*
%ADD18C,3.000000*%
G04 #@! TD*
G04 #@! TA.AperFunction,ComponentPad*
%ADD19O,1.400000X2.800000*%
G04 #@! TD*
G04 #@! TA.AperFunction,ComponentPad*
%ADD20O,2.800000X1.400000*%
G04 #@! TD*
G04 #@! TA.AperFunction,ComponentPad*
%ADD21O,1.050000X1.500000*%
G04 #@! TD*
G04 #@! TA.AperFunction,ComponentPad*
%ADD22R,1.050000X1.500000*%
G04 #@! TD*
G04 #@! TA.AperFunction,ComponentPad*
%ADD23R,1.860000X1.860000*%
G04 #@! TD*
G04 #@! TA.AperFunction,ComponentPad*
%ADD24C,1.860000*%
G04 #@! TD*
G04 #@! TA.AperFunction,SMDPad,CuDef*
%ADD25R,1.550000X0.600000*%
G04 #@! TD*
G04 #@! TA.AperFunction,ComponentPad*
%ADD26C,1.498000*%
G04 #@! TD*
G04 #@! TA.AperFunction,ComponentPad*
%ADD27R,1.498000X1.498000*%
G04 #@! TD*
G04 #@! TA.AperFunction,ComponentPad*
%ADD28C,2.400000*%
G04 #@! TD*
G04 #@! TA.AperFunction,ComponentPad*
%ADD29O,2.400000X2.400000*%
G04 #@! TD*
G04 #@! TA.AperFunction,ViaPad*
%ADD30C,0.800000*%
G04 #@! TD*
G04 #@! TA.AperFunction,Conductor*
%ADD31C,0.550000*%
G04 #@! TD*
G04 #@! TA.AperFunction,Conductor*
%ADD32C,1.500000*%
G04 #@! TD*
G04 #@! TA.AperFunction,Conductor*
%ADD33C,1.000000*%
G04 #@! TD*
G04 #@! TA.AperFunction,Conductor*
%ADD34C,0.254000*%
G04 #@! TD*
G04 APERTURE END LIST*
D10*
G04 #@! TO.P,C1,2*
G04 #@! TO.N,GND*
X132500000Y-101500000D03*
D11*
G04 #@! TO.P,C1,1*
G04 #@! TO.N,Net-(C1-Pad1)*
X130500000Y-101500000D03*
G04 #@! TD*
D12*
G04 #@! TO.P,D1,1*
G04 #@! TO.N,Net-(D1-Pad1)*
X133500000Y-86000000D03*
D13*
G04 #@! TO.P,D1,2*
G04 #@! TO.N,Net-(C1-Pad1)*
X133500000Y-96160000D03*
G04 #@! TD*
D14*
G04 #@! TO.P,D2,1*
G04 #@! TO.N,Net-(D2-Pad1)*
X159230000Y-99920000D03*
D15*
G04 #@! TO.P,D2,2*
G04 #@! TO.N,Net-(C1-Pad1)*
X161770000Y-99920000D03*
G04 #@! TD*
D11*
G04 #@! TO.P,D3,1*
G04 #@! TO.N,Net-(D3-Pad1)*
X138500000Y-95500000D03*
D16*
G04 #@! TO.P,D3,2*
G04 #@! TO.N,Net-(D3-Pad2)*
X146120000Y-95500000D03*
G04 #@! TD*
D17*
G04 #@! TO.P,J1,1*
G04 #@! TO.N,Net-(C3-Pad1)*
X175500000Y-90000000D03*
D18*
G04 #@! TO.P,J1,2*
G04 #@! TO.N,GND*
X175500000Y-84920000D03*
G04 #@! TD*
D19*
G04 #@! TO.P,J2,2*
G04 #@! TO.N,GND*
X126420000Y-72500000D03*
G04 #@! TO.P,J2,1*
G04 #@! TO.N,Net-(D1-Pad1)*
X132420000Y-72500000D03*
D20*
G04 #@! TO.P,J2,3*
G04 #@! TO.N,N/C*
X129920000Y-76500000D03*
G04 #@! TD*
D21*
G04 #@! TO.P,Q1,2*
G04 #@! TO.N,Net-(D3-Pad2)*
X152500000Y-102000000D03*
G04 #@! TO.P,Q1,3*
G04 #@! TO.N,GND*
X153770000Y-102000000D03*
D22*
G04 #@! TO.P,Q1,1*
G04 #@! TO.N,Net-(Q1-Pad1)*
X151230000Y-102000000D03*
G04 #@! TD*
D16*
G04 #@! TO.P,R2,2*
G04 #@! TO.N,Net-(C5-Pad1)*
X147160000Y-78000000D03*
D10*
G04 #@! TO.P,R2,1*
G04 #@! TO.N,Net-(C1-Pad1)*
X137000000Y-78000000D03*
G04 #@! TD*
G04 #@! TO.P,R3,1*
G04 #@! TO.N,Net-(C5-Pad1)*
X137000000Y-81500000D03*
D16*
G04 #@! TO.P,R3,2*
G04 #@! TO.N,Net-(C2-Pad1)*
X147160000Y-81500000D03*
G04 #@! TD*
D10*
G04 #@! TO.P,R4,1*
G04 #@! TO.N,Net-(D2-Pad1)*
X137000000Y-85000000D03*
D16*
G04 #@! TO.P,R4,2*
G04 #@! TO.N,Net-(Q1-Pad1)*
X147160000Y-85000000D03*
G04 #@! TD*
D10*
G04 #@! TO.P,R5,1*
G04 #@! TO.N,Net-(C2-Pad1)*
X137000000Y-88500000D03*
D16*
G04 #@! TO.P,R5,2*
G04 #@! TO.N,Net-(D3-Pad2)*
X147160000Y-88500000D03*
G04 #@! TD*
G04 #@! TO.P,R6,2*
G04 #@! TO.N,GND*
X147160000Y-92000000D03*
D10*
G04 #@! TO.P,R6,1*
G04 #@! TO.N,Net-(C2-Pad1)*
X137000000Y-92000000D03*
G04 #@! TD*
D23*
G04 #@! TO.P,U1,1*
G04 #@! TO.N,Net-(C2-Pad1)*
X128000000Y-93040000D03*
D24*
G04 #@! TO.P,U1,2*
G04 #@! TO.N,Net-(C1-Pad1)*
X128000000Y-90500000D03*
G04 #@! TO.P,U1,3*
G04 #@! TO.N,Net-(D1-Pad1)*
X128000000Y-87960000D03*
G04 #@! TD*
D25*
G04 #@! TO.P,U2,1*
G04 #@! TO.N,Net-(C4-Pad1)*
X154300000Y-87095000D03*
G04 #@! TO.P,U2,2*
G04 #@! TO.N,Net-(C3-Pad1)*
X154300000Y-88365000D03*
G04 #@! TO.P,U2,3*
G04 #@! TO.N,Net-(C5-Pad1)*
X154300000Y-89635000D03*
G04 #@! TO.P,U2,4*
G04 #@! TO.N,GND*
X154300000Y-90905000D03*
G04 #@! TO.P,U2,5*
G04 #@! TO.N,N/C*
X159700000Y-90905000D03*
G04 #@! TO.P,U2,6*
G04 #@! TO.N,Net-(D3-Pad1)*
X159700000Y-89635000D03*
G04 #@! TO.P,U2,7*
G04 #@! TO.N,Net-(C1-Pad1)*
X159700000Y-88365000D03*
G04 #@! TO.P,U2,8*
G04 #@! TO.N,Net-(C4-Pad2)*
X159700000Y-87095000D03*
G04 #@! TD*
D10*
G04 #@! TO.P,C2,1*
G04 #@! TO.N,Net-(C2-Pad1)*
X124000000Y-80500000D03*
G04 #@! TO.P,C2,2*
G04 #@! TO.N,GND*
X126500000Y-80500000D03*
G04 #@! TD*
G04 #@! TO.P,C3,1*
G04 #@! TO.N,Net-(C3-Pad1)*
X175500000Y-96500000D03*
G04 #@! TO.P,C3,2*
G04 #@! TO.N,GND*
X175500000Y-99000000D03*
G04 #@! TD*
G04 #@! TO.P,C4,2*
G04 #@! TO.N,Net-(C4-Pad2)*
X155500000Y-81000000D03*
G04 #@! TO.P,C4,1*
G04 #@! TO.N,Net-(C4-Pad1)*
X153000000Y-81000000D03*
G04 #@! TD*
D26*
G04 #@! TO.P,SW1,3*
G04 #@! TO.N,GND*
X146000000Y-69500000D03*
D27*
G04 #@! TO.P,SW1,1*
G04 #@! TO.N,Net-(C4-Pad1)*
X146000000Y-74000000D03*
D26*
G04 #@! TO.P,SW1,4*
G04 #@! TO.N,GND*
X139500000Y-69500000D03*
G04 #@! TO.P,SW1,2*
G04 #@! TO.N,Net-(C4-Pad1)*
X139500000Y-74000000D03*
G04 #@! TD*
D28*
G04 #@! TO.P,R1,1*
G04 #@! TO.N,Net-(C3-Pad1)*
X166750000Y-103070000D03*
D29*
G04 #@! TO.P,R1,2*
G04 #@! TO.N,Net-(C1-Pad1)*
X166750000Y-80670000D03*
G04 #@! TD*
D10*
G04 #@! TO.P,C5,2*
G04 #@! TO.N,GND*
X156000000Y-95000000D03*
G04 #@! TO.P,C5,1*
G04 #@! TO.N,Net-(C5-Pad1)*
X153500000Y-95000000D03*
G04 #@! TD*
G04 #@! TO.P,C6,1*
G04 #@! TO.N,Net-(C1-Pad1)*
X158940000Y-81090000D03*
G04 #@! TO.P,C6,2*
G04 #@! TO.N,GND*
X161440000Y-81090000D03*
G04 #@! TD*
D30*
G04 #@! TO.N,Net-(D2-Pad1)*
X139400000Y-82610000D03*
G04 #@! TO.N,Net-(D3-Pad1)*
X157458500Y-89635000D03*
G04 #@! TO.N,Net-(C5-Pad1)*
X149930000Y-91540000D03*
X149893719Y-87806281D03*
G04 #@! TD*
D31*
G04 #@! TO.N,GND*
X126500000Y-80500000D02*
X130872200Y-80500000D01*
X130872200Y-80500000D02*
X135550000Y-85177800D01*
X135550000Y-85177800D02*
X135550000Y-85374400D01*
X135550000Y-85374400D02*
X136925600Y-86750000D01*
X136925600Y-86750000D02*
X140560000Y-86750000D01*
X140560000Y-86750000D02*
X145810000Y-92000000D01*
X147160000Y-92000000D02*
X145810000Y-92000000D01*
X145810000Y-92000000D02*
X136310000Y-101500000D01*
X136310000Y-101500000D02*
X132500000Y-101500000D01*
X156410926Y-90905000D02*
X164400000Y-98894074D01*
X154300000Y-90905000D02*
X156410926Y-90905000D01*
X164400000Y-98894074D02*
X164400000Y-100500000D01*
X162900000Y-102000000D02*
X153770000Y-102000000D01*
X164400000Y-100500000D02*
X162900000Y-102000000D01*
G04 #@! TO.N,Net-(C1-Pad1)*
X138315900Y-76684100D02*
X137000000Y-78000000D01*
X130500000Y-101500000D02*
X130500000Y-100150000D01*
X159700000Y-88365000D02*
X161025000Y-88365000D01*
X161025000Y-88365000D02*
X161050000Y-88340000D01*
X161050000Y-88340000D02*
X165350000Y-88340000D01*
D32*
X166750000Y-86940000D02*
X166750000Y-80670000D01*
D31*
X165350000Y-88340000D02*
X166750000Y-86940000D01*
D32*
X166750000Y-78300000D02*
X165134100Y-76684100D01*
X166750000Y-80670000D02*
X166750000Y-78300000D01*
D31*
X130500000Y-100150000D02*
X130460000Y-100110000D01*
X130460000Y-100110000D02*
X130460000Y-96960000D01*
X131260000Y-96160000D02*
X133500000Y-96160000D01*
X130460000Y-96960000D02*
X131260000Y-96160000D01*
X161025000Y-88365000D02*
X161990000Y-87400000D01*
X161990000Y-84140000D02*
X158940000Y-81090000D01*
X161990000Y-87400000D02*
X161990000Y-84140000D01*
X144500000Y-76684100D02*
X145315900Y-76684100D01*
X144500000Y-76684100D02*
X138315900Y-76684100D01*
X145315900Y-76684100D02*
X146500000Y-75500000D01*
X156315900Y-75500000D02*
X157500000Y-76684100D01*
X146500000Y-75500000D02*
X156315900Y-75500000D01*
X165134100Y-76684100D02*
X157500000Y-76684100D01*
G04 #@! TO.N,Net-(C2-Pad1)*
X128000000Y-93040000D02*
X135960000Y-93040000D01*
X135960000Y-93040000D02*
X137000000Y-92000000D01*
G04 #@! TO.N,Net-(C3-Pad1)*
X155625000Y-89058400D02*
X155625000Y-88365000D01*
X154300000Y-88365000D02*
X155625000Y-88365000D01*
X157616600Y-91050000D02*
X155625000Y-89058400D01*
X171765000Y-92765000D02*
X171765000Y-95735000D01*
X172530000Y-96500000D02*
X175500000Y-96500000D01*
X171765000Y-95735000D02*
X172530000Y-96500000D01*
X172270000Y-90000000D02*
X175500000Y-90000000D01*
X171765000Y-92765000D02*
X171765000Y-90505000D01*
X171765000Y-90505000D02*
X172270000Y-90000000D01*
X158000000Y-91433400D02*
X159066600Y-92500000D01*
X158251600Y-91685000D02*
X158000000Y-91433400D01*
X159066600Y-92500000D02*
X162235000Y-92500000D01*
X162235000Y-92500000D02*
X162500000Y-92765000D01*
X162500000Y-92765000D02*
X171765000Y-92765000D01*
X158000000Y-91433400D02*
X157616600Y-91050000D01*
G04 #@! TO.N,Net-(C4-Pad1)*
X154300000Y-87095000D02*
X152975000Y-87095000D01*
X153000000Y-81000000D02*
X153000000Y-87070000D01*
X153000000Y-87070000D02*
X152975000Y-87095000D01*
D33*
X139500000Y-74000000D02*
X146000000Y-74000000D01*
D31*
G04 #@! TO.N,Net-(C4-Pad2)*
X159700000Y-86245000D02*
X159700000Y-87095000D01*
X159700000Y-84068630D02*
X159700000Y-86245000D01*
X156631370Y-81000000D02*
X159700000Y-84068630D01*
X155500000Y-81000000D02*
X156631370Y-81000000D01*
G04 #@! TO.N,Net-(D1-Pad1)*
X133500000Y-86000000D02*
X131850000Y-86000000D01*
X128000000Y-87960000D02*
X129890000Y-87960000D01*
X129890000Y-87960000D02*
X131850000Y-86000000D01*
G04 #@! TO.N,Net-(D2-Pad1)*
X139400000Y-82610000D02*
X139965685Y-82610000D01*
X139965685Y-82610000D02*
X143630686Y-86275001D01*
X143630686Y-86275001D02*
X143630686Y-86380686D01*
X143800000Y-86550000D02*
X147400000Y-86550000D01*
X143630686Y-86380686D02*
X143800000Y-86550000D01*
X153500000Y-92650000D02*
X156650000Y-92650000D01*
X147400000Y-86550000D02*
X153500000Y-92650000D01*
X159230000Y-95230000D02*
X159230000Y-99920000D01*
X156650000Y-92650000D02*
X159230000Y-95230000D01*
G04 #@! TO.N,Net-(D3-Pad1)*
X159700000Y-89635000D02*
X157458500Y-89635000D01*
G04 #@! TO.N,Net-(D3-Pad2)*
X152500000Y-101139998D02*
X152500000Y-102000000D01*
X152170000Y-100809998D02*
X152500000Y-101139998D01*
X152170000Y-98860000D02*
X152170000Y-100809998D01*
X148810000Y-95500000D02*
X152170000Y-98860000D01*
X146120000Y-95500000D02*
X148810000Y-95500000D01*
G04 #@! TO.N,Net-(C5-Pad1)*
X137000000Y-81500000D02*
X139150000Y-79350000D01*
X139150000Y-79350000D02*
X147160000Y-79350000D01*
X147160000Y-78000000D02*
X147160000Y-79350000D01*
X154300000Y-89635000D02*
X152975000Y-89635000D01*
X149384600Y-86044600D02*
X149384600Y-81574600D01*
X149384600Y-81574600D02*
X147160000Y-79350000D01*
X153500000Y-95000000D02*
X153390000Y-95000000D01*
X153390000Y-95000000D02*
X149930000Y-91540000D01*
X150120000Y-87014315D02*
X150120000Y-86780000D01*
X149893719Y-87240596D02*
X150120000Y-87014315D01*
X149893719Y-87806281D02*
X149893719Y-87240596D01*
X152975000Y-89635000D02*
X150120000Y-86780000D01*
X150120000Y-86780000D02*
X149384600Y-86044600D01*
G04 #@! TD*
D34*
G04 #@! TO.N,GND*
G36*
X138776679Y-68288370D02*
X138708813Y-68529207D01*
X139500000Y-69320395D01*
X140291187Y-68529207D01*
X140223321Y-68288370D01*
X140003068Y-68210000D01*
X145465879Y-68210000D01*
X145276679Y-68288370D01*
X145208813Y-68529207D01*
X146000000Y-69320395D01*
X146791187Y-68529207D01*
X146723321Y-68288370D01*
X146503068Y-68210000D01*
X172474281Y-68210000D01*
X173479908Y-68282967D01*
X174439294Y-68494780D01*
X175358047Y-68842864D01*
X176216931Y-69319931D01*
X176997953Y-69915988D01*
X177684751Y-70618548D01*
X178262934Y-71412889D01*
X178720391Y-72282374D01*
X179047546Y-73208797D01*
X179238318Y-74176700D01*
X179290000Y-75021698D01*
X179290001Y-104290000D01*
X168125082Y-104290000D01*
X168305638Y-104109444D01*
X168585000Y-103435004D01*
X168585000Y-102704996D01*
X168305638Y-102030556D01*
X167789444Y-101514362D01*
X167115004Y-101235000D01*
X166384996Y-101235000D01*
X165710556Y-101514362D01*
X165194362Y-102030556D01*
X164915000Y-102704996D01*
X164915000Y-103435004D01*
X165194362Y-104109444D01*
X165374918Y-104290000D01*
X127525719Y-104290000D01*
X126520093Y-104217033D01*
X125560710Y-104005222D01*
X124641953Y-103657136D01*
X123783069Y-103180069D01*
X123002046Y-102584011D01*
X122315249Y-101881452D01*
X121737068Y-101087113D01*
X121279609Y-100217625D01*
X121080885Y-99654887D01*
X123265000Y-99654887D01*
X123265000Y-100345113D01*
X123529138Y-100982799D01*
X124017201Y-101470862D01*
X124654887Y-101735000D01*
X125345113Y-101735000D01*
X125982799Y-101470862D01*
X126470862Y-100982799D01*
X126588001Y-100700000D01*
X129052560Y-100700000D01*
X129052560Y-102300000D01*
X129101843Y-102547765D01*
X129242191Y-102757809D01*
X129452235Y-102898157D01*
X129700000Y-102947440D01*
X131300000Y-102947440D01*
X131547765Y-102898157D01*
X131757516Y-102758005D01*
X132283223Y-102946965D01*
X132853454Y-102919778D01*
X133254005Y-102753864D01*
X133328139Y-102507745D01*
X132500000Y-101679605D01*
X132485858Y-101693748D01*
X132306253Y-101514143D01*
X132320395Y-101500000D01*
X132679605Y-101500000D01*
X133507745Y-102328139D01*
X133753864Y-102254005D01*
X133946965Y-101716777D01*
X133919778Y-101146546D01*
X133753864Y-100745995D01*
X133507745Y-100671861D01*
X132679605Y-101500000D01*
X132320395Y-101500000D01*
X132306253Y-101485858D01*
X132485858Y-101306252D01*
X132500000Y-101320395D01*
X133328139Y-100492255D01*
X133254005Y-100246136D01*
X132716777Y-100053035D01*
X132146546Y-100080222D01*
X131756933Y-100241605D01*
X131547765Y-100101843D01*
X131412912Y-100075019D01*
X131399904Y-100009622D01*
X131370000Y-99859286D01*
X131370000Y-97336933D01*
X131636934Y-97070000D01*
X132021376Y-97070000D01*
X132249135Y-97410865D01*
X132823037Y-97794334D01*
X133329120Y-97895000D01*
X133670880Y-97895000D01*
X134176963Y-97794334D01*
X134750865Y-97410865D01*
X135134334Y-96836963D01*
X135268990Y-96160000D01*
X135134334Y-95483037D01*
X134750865Y-94909135D01*
X134437873Y-94700000D01*
X137052560Y-94700000D01*
X137052560Y-96300000D01*
X137101843Y-96547765D01*
X137242191Y-96757809D01*
X137452235Y-96898157D01*
X137700000Y-96947440D01*
X139300000Y-96947440D01*
X139547765Y-96898157D01*
X139757809Y-96757809D01*
X139898157Y-96547765D01*
X139947440Y-96300000D01*
X139947440Y-95500000D01*
X144656887Y-95500000D01*
X144768260Y-96059909D01*
X145085423Y-96534577D01*
X145560091Y-96851740D01*
X145978667Y-96935000D01*
X146261333Y-96935000D01*
X146679909Y-96851740D01*
X147154577Y-96534577D01*
X147237817Y-96410000D01*
X148433067Y-96410000D01*
X151260000Y-99236934D01*
X151260001Y-100602560D01*
X150705000Y-100602560D01*
X150457235Y-100651843D01*
X150247191Y-100792191D01*
X150106843Y-101002235D01*
X150057560Y-101250000D01*
X150057560Y-102750000D01*
X150106843Y-102997765D01*
X150247191Y-103207809D01*
X150457235Y-103348157D01*
X150705000Y-103397440D01*
X151755000Y-103397440D01*
X152002765Y-103348157D01*
X152048134Y-103317842D01*
X152500000Y-103407725D01*
X152952609Y-103317695D01*
X153144996Y-103189146D01*
X153402664Y-103335266D01*
X153464190Y-103343964D01*
X153643000Y-103218163D01*
X153643000Y-102424709D01*
X153660000Y-102339245D01*
X153660000Y-102127000D01*
X153897000Y-102127000D01*
X153897000Y-103218163D01*
X154075810Y-103343964D01*
X154137336Y-103335266D01*
X154534255Y-103110179D01*
X154814823Y-102750331D01*
X154936326Y-102310506D01*
X154776593Y-102127000D01*
X153897000Y-102127000D01*
X153660000Y-102127000D01*
X153660000Y-101660754D01*
X153643000Y-101575290D01*
X153643000Y-100781837D01*
X153897000Y-100781837D01*
X153897000Y-101873000D01*
X154776593Y-101873000D01*
X154936326Y-101689494D01*
X154814823Y-101249669D01*
X154534255Y-100889821D01*
X154137336Y-100664734D01*
X154075810Y-100656036D01*
X153897000Y-100781837D01*
X153643000Y-100781837D01*
X153464190Y-100656036D01*
X153402664Y-100664734D01*
X153311448Y-100716461D01*
X153156073Y-100483925D01*
X153080093Y-100433157D01*
X153080000Y-100433064D01*
X153080000Y-98949622D01*
X153097827Y-98860000D01*
X153027200Y-98504936D01*
X152971679Y-98421843D01*
X152826073Y-98203927D01*
X152750093Y-98153159D01*
X149516843Y-94919910D01*
X149466073Y-94843927D01*
X149165064Y-94642800D01*
X148899622Y-94590000D01*
X148810000Y-94572173D01*
X148720378Y-94590000D01*
X147237817Y-94590000D01*
X147154577Y-94465423D01*
X146679909Y-94148260D01*
X146261333Y-94065000D01*
X145978667Y-94065000D01*
X145560091Y-94148260D01*
X145085423Y-94465423D01*
X144768260Y-94940091D01*
X144656887Y-95500000D01*
X139947440Y-95500000D01*
X139947440Y-94700000D01*
X139898157Y-94452235D01*
X139757809Y-94242191D01*
X139547765Y-94101843D01*
X139300000Y-94052560D01*
X137700000Y-94052560D01*
X137452235Y-94101843D01*
X137242191Y-94242191D01*
X137101843Y-94452235D01*
X137052560Y-94700000D01*
X134437873Y-94700000D01*
X134176963Y-94525666D01*
X133670880Y-94425000D01*
X133329120Y-94425000D01*
X132823037Y-94525666D01*
X132249135Y-94909135D01*
X132021376Y-95250000D01*
X131349622Y-95250000D01*
X131260000Y-95232173D01*
X131170378Y-95250000D01*
X130904936Y-95302800D01*
X130603927Y-95503927D01*
X130553159Y-95579907D01*
X129879908Y-96253159D01*
X129803928Y-96303927D01*
X129676307Y-96494926D01*
X129602800Y-96604937D01*
X129532173Y-96960000D01*
X129550001Y-97049626D01*
X129550000Y-100020378D01*
X129537156Y-100084951D01*
X129452235Y-100101843D01*
X129242191Y-100242191D01*
X129101843Y-100452235D01*
X129052560Y-100700000D01*
X126588001Y-100700000D01*
X126735000Y-100345113D01*
X126735000Y-99654887D01*
X126470862Y-99017201D01*
X125982799Y-98529138D01*
X125345113Y-98265000D01*
X124654887Y-98265000D01*
X124017201Y-98529138D01*
X123529138Y-99017201D01*
X123265000Y-99654887D01*
X121080885Y-99654887D01*
X120952454Y-99291203D01*
X120761682Y-98323300D01*
X120710000Y-97478302D01*
X120710000Y-92110000D01*
X126422560Y-92110000D01*
X126422560Y-93970000D01*
X126471843Y-94217765D01*
X126612191Y-94427809D01*
X126822235Y-94568157D01*
X127070000Y-94617440D01*
X128930000Y-94617440D01*
X129177765Y-94568157D01*
X129387809Y-94427809D01*
X129528157Y-94217765D01*
X129577440Y-93970000D01*
X129577440Y-93950000D01*
X135870378Y-93950000D01*
X135960000Y-93967827D01*
X136049622Y-93950000D01*
X136315064Y-93897200D01*
X136616073Y-93696073D01*
X136666843Y-93620090D01*
X136851933Y-93435000D01*
X137285439Y-93435000D01*
X137812862Y-93216534D01*
X138216534Y-92812862D01*
X138408655Y-92349039D01*
X145768096Y-92349039D01*
X145928959Y-92737423D01*
X146304866Y-93152389D01*
X146810959Y-93391914D01*
X147033000Y-93270629D01*
X147033000Y-92127000D01*
X147287000Y-92127000D01*
X147287000Y-93270629D01*
X147509041Y-93391914D01*
X148015134Y-93152389D01*
X148391041Y-92737423D01*
X148551904Y-92349039D01*
X148429915Y-92127000D01*
X147287000Y-92127000D01*
X147033000Y-92127000D01*
X145890085Y-92127000D01*
X145768096Y-92349039D01*
X138408655Y-92349039D01*
X138435000Y-92285439D01*
X138435000Y-91714561D01*
X138408656Y-91650961D01*
X145768096Y-91650961D01*
X145890085Y-91873000D01*
X147033000Y-91873000D01*
X147033000Y-90729371D01*
X147287000Y-90729371D01*
X147287000Y-91873000D01*
X148429915Y-91873000D01*
X148551904Y-91650961D01*
X148391041Y-91262577D01*
X148015134Y-90847611D01*
X147509041Y-90608086D01*
X147287000Y-90729371D01*
X147033000Y-90729371D01*
X146810959Y-90608086D01*
X146304866Y-90847611D01*
X145928959Y-91262577D01*
X145768096Y-91650961D01*
X138408656Y-91650961D01*
X138216534Y-91187138D01*
X137812862Y-90783466D01*
X137285439Y-90565000D01*
X136714561Y-90565000D01*
X136187138Y-90783466D01*
X135783466Y-91187138D01*
X135565000Y-91714561D01*
X135565000Y-92130000D01*
X129577440Y-92130000D01*
X129577440Y-92110000D01*
X129528157Y-91862235D01*
X129387809Y-91652191D01*
X129191934Y-91521310D01*
X129326743Y-91386501D01*
X129565000Y-90811298D01*
X129565000Y-90188702D01*
X129326743Y-89613499D01*
X128943244Y-89230000D01*
X129303244Y-88870000D01*
X129800378Y-88870000D01*
X129890000Y-88887827D01*
X129979622Y-88870000D01*
X130245064Y-88817200D01*
X130546073Y-88616073D01*
X130596843Y-88540090D01*
X130922372Y-88214561D01*
X135565000Y-88214561D01*
X135565000Y-88785439D01*
X135783466Y-89312862D01*
X136187138Y-89716534D01*
X136714561Y-89935000D01*
X137285439Y-89935000D01*
X137812862Y-89716534D01*
X138216534Y-89312862D01*
X138435000Y-88785439D01*
X138435000Y-88214561D01*
X138216534Y-87687138D01*
X137812862Y-87283466D01*
X137285439Y-87065000D01*
X136714561Y-87065000D01*
X136187138Y-87283466D01*
X135783466Y-87687138D01*
X135565000Y-88214561D01*
X130922372Y-88214561D01*
X131799740Y-87337193D01*
X131801843Y-87347765D01*
X131942191Y-87557809D01*
X132152235Y-87698157D01*
X132400000Y-87747440D01*
X134600000Y-87747440D01*
X134847765Y-87698157D01*
X135057809Y-87557809D01*
X135198157Y-87347765D01*
X135247440Y-87100000D01*
X135247440Y-84900000D01*
X135210555Y-84714561D01*
X135565000Y-84714561D01*
X135565000Y-85285439D01*
X135783466Y-85812862D01*
X136187138Y-86216534D01*
X136714561Y-86435000D01*
X137285439Y-86435000D01*
X137812862Y-86216534D01*
X138216534Y-85812862D01*
X138435000Y-85285439D01*
X138435000Y-84714561D01*
X138216534Y-84187138D01*
X137812862Y-83783466D01*
X137285439Y-83565000D01*
X136714561Y-83565000D01*
X136187138Y-83783466D01*
X135783466Y-84187138D01*
X135565000Y-84714561D01*
X135210555Y-84714561D01*
X135198157Y-84652235D01*
X135057809Y-84442191D01*
X134847765Y-84301843D01*
X134600000Y-84252560D01*
X132400000Y-84252560D01*
X132152235Y-84301843D01*
X131942191Y-84442191D01*
X131801843Y-84652235D01*
X131752560Y-84900000D01*
X131752560Y-85091555D01*
X131494936Y-85142800D01*
X131193927Y-85343927D01*
X131143159Y-85419907D01*
X129513067Y-87050000D01*
X129303244Y-87050000D01*
X128886501Y-86633257D01*
X128311298Y-86395000D01*
X127688702Y-86395000D01*
X127113499Y-86633257D01*
X126673257Y-87073499D01*
X126435000Y-87648702D01*
X126435000Y-88271298D01*
X126673257Y-88846501D01*
X127056756Y-89230000D01*
X126673257Y-89613499D01*
X126435000Y-90188702D01*
X126435000Y-90811298D01*
X126673257Y-91386501D01*
X126808066Y-91521310D01*
X126612191Y-91652191D01*
X126471843Y-91862235D01*
X126422560Y-92110000D01*
X120710000Y-92110000D01*
X120710000Y-80214561D01*
X122565000Y-80214561D01*
X122565000Y-80785439D01*
X122783466Y-81312862D01*
X123187138Y-81716534D01*
X123714561Y-81935000D01*
X124285439Y-81935000D01*
X124812862Y-81716534D01*
X125021651Y-81507745D01*
X125671861Y-81507745D01*
X125745995Y-81753864D01*
X126283223Y-81946965D01*
X126853454Y-81919778D01*
X127254005Y-81753864D01*
X127328139Y-81507745D01*
X126500000Y-80679605D01*
X125671861Y-81507745D01*
X125021651Y-81507745D01*
X125216534Y-81312862D01*
X125243525Y-81247701D01*
X125246136Y-81254005D01*
X125492255Y-81328139D01*
X126320395Y-80500000D01*
X126679605Y-80500000D01*
X127507745Y-81328139D01*
X127753864Y-81254005D01*
X127946965Y-80716777D01*
X127919778Y-80146546D01*
X127753864Y-79745995D01*
X127507745Y-79671861D01*
X126679605Y-80500000D01*
X126320395Y-80500000D01*
X125492255Y-79671861D01*
X125246136Y-79745995D01*
X125243710Y-79752746D01*
X125216534Y-79687138D01*
X125021651Y-79492255D01*
X125671861Y-79492255D01*
X126500000Y-80320395D01*
X127328139Y-79492255D01*
X127254005Y-79246136D01*
X126716777Y-79053035D01*
X126146546Y-79080222D01*
X125745995Y-79246136D01*
X125671861Y-79492255D01*
X125021651Y-79492255D01*
X124812862Y-79283466D01*
X124285439Y-79065000D01*
X123714561Y-79065000D01*
X123187138Y-79283466D01*
X122783466Y-79687138D01*
X122565000Y-80214561D01*
X120710000Y-80214561D01*
X120710000Y-76500000D01*
X127858846Y-76500000D01*
X127962458Y-77020891D01*
X128257519Y-77462481D01*
X128699109Y-77757542D01*
X129088515Y-77835000D01*
X130751485Y-77835000D01*
X131140891Y-77757542D01*
X131205216Y-77714561D01*
X135565000Y-77714561D01*
X135565000Y-78285439D01*
X135783466Y-78812862D01*
X136187138Y-79216534D01*
X136714561Y-79435000D01*
X137285439Y-79435000D01*
X137812862Y-79216534D01*
X138216534Y-78812862D01*
X138435000Y-78285439D01*
X138435000Y-77851934D01*
X138692834Y-77594100D01*
X145226278Y-77594100D01*
X145315900Y-77611927D01*
X145405522Y-77594100D01*
X145670964Y-77541300D01*
X145806087Y-77451014D01*
X145696887Y-78000000D01*
X145784409Y-78440000D01*
X139239620Y-78440000D01*
X139149999Y-78422173D01*
X139060379Y-78440000D01*
X139060378Y-78440000D01*
X138794936Y-78492800D01*
X138493927Y-78693927D01*
X138443159Y-78769907D01*
X137148067Y-80065000D01*
X136714561Y-80065000D01*
X136187138Y-80283466D01*
X135783466Y-80687138D01*
X135565000Y-81214561D01*
X135565000Y-81785439D01*
X135783466Y-82312862D01*
X136187138Y-82716534D01*
X136714561Y-82935000D01*
X137285439Y-82935000D01*
X137812862Y-82716534D01*
X138216534Y-82312862D01*
X138435000Y-81785439D01*
X138435000Y-81351933D01*
X139526934Y-80260000D01*
X146432860Y-80260000D01*
X146125423Y-80465423D01*
X145808260Y-80940091D01*
X145696887Y-81500000D01*
X145808260Y-82059909D01*
X146125423Y-82534577D01*
X146600091Y-82851740D01*
X147018667Y-82935000D01*
X147301333Y-82935000D01*
X147719909Y-82851740D01*
X148194577Y-82534577D01*
X148474601Y-82115492D01*
X148474600Y-84384508D01*
X148194577Y-83965423D01*
X147719909Y-83648260D01*
X147301333Y-83565000D01*
X147018667Y-83565000D01*
X146600091Y-83648260D01*
X146125423Y-83965423D01*
X145808260Y-84440091D01*
X145696887Y-85000000D01*
X145808260Y-85559909D01*
X145861775Y-85640000D01*
X144300839Y-85640000D01*
X144286759Y-85618928D01*
X144210779Y-85568160D01*
X140672528Y-82029910D01*
X140621758Y-81953927D01*
X140320749Y-81752800D01*
X140055307Y-81700000D01*
X139965685Y-81682173D01*
X139897403Y-81695755D01*
X139605874Y-81575000D01*
X139194126Y-81575000D01*
X138813720Y-81732569D01*
X138522569Y-82023720D01*
X138365000Y-82404126D01*
X138365000Y-82815874D01*
X138522569Y-83196280D01*
X138813720Y-83487431D01*
X139194126Y-83645000D01*
X139605874Y-83645000D01*
X139682155Y-83613403D01*
X142765785Y-86697034D01*
X142773486Y-86735750D01*
X142974613Y-87036759D01*
X143050596Y-87087529D01*
X143093157Y-87130090D01*
X143143927Y-87206073D01*
X143444936Y-87407200D01*
X143710378Y-87460000D01*
X143710379Y-87460000D01*
X143799999Y-87477827D01*
X143889620Y-87460000D01*
X146133539Y-87460000D01*
X146125423Y-87465423D01*
X145808260Y-87940091D01*
X145696887Y-88500000D01*
X145808260Y-89059909D01*
X146125423Y-89534577D01*
X146600091Y-89851740D01*
X147018667Y-89935000D01*
X147301333Y-89935000D01*
X147719909Y-89851740D01*
X148194577Y-89534577D01*
X148511740Y-89059909D01*
X148530195Y-88967129D01*
X150068066Y-90505000D01*
X149724126Y-90505000D01*
X149343720Y-90662569D01*
X149052569Y-90953720D01*
X148895000Y-91334126D01*
X148895000Y-91745874D01*
X149052569Y-92126280D01*
X149343720Y-92417431D01*
X149645498Y-92542431D01*
X152065000Y-94961934D01*
X152065000Y-95285439D01*
X152283466Y-95812862D01*
X152687138Y-96216534D01*
X153214561Y-96435000D01*
X153785439Y-96435000D01*
X154312862Y-96216534D01*
X154521651Y-96007745D01*
X155171861Y-96007745D01*
X155245995Y-96253864D01*
X155783223Y-96446965D01*
X156353454Y-96419778D01*
X156754005Y-96253864D01*
X156828139Y-96007745D01*
X156000000Y-95179605D01*
X155171861Y-96007745D01*
X154521651Y-96007745D01*
X154716534Y-95812862D01*
X154743525Y-95747701D01*
X154746136Y-95754005D01*
X154992255Y-95828139D01*
X155820395Y-95000000D01*
X154992255Y-94171861D01*
X154746136Y-94245995D01*
X154743710Y-94252746D01*
X154716534Y-94187138D01*
X154312862Y-93783466D01*
X153785439Y-93565000D01*
X153564485Y-93565000D01*
X153589622Y-93560000D01*
X156070690Y-93560000D01*
X155646546Y-93580222D01*
X155245995Y-93746136D01*
X155171861Y-93992255D01*
X156000000Y-94820395D01*
X156014142Y-94806252D01*
X156193748Y-94985858D01*
X156179605Y-95000000D01*
X157007745Y-95828139D01*
X157253864Y-95754005D01*
X157446965Y-95216777D01*
X157422790Y-94709724D01*
X158320000Y-95606934D01*
X158320001Y-98374549D01*
X158082235Y-98421843D01*
X157872191Y-98562191D01*
X157731843Y-98772235D01*
X157682560Y-99020000D01*
X157682560Y-100820000D01*
X157731843Y-101067765D01*
X157872191Y-101277809D01*
X158082235Y-101418157D01*
X158330000Y-101467440D01*
X160130000Y-101467440D01*
X160377765Y-101418157D01*
X160587809Y-101277809D01*
X160728157Y-101067765D01*
X160731275Y-101052092D01*
X160900493Y-101221310D01*
X161464670Y-101455000D01*
X162075330Y-101455000D01*
X162639507Y-101221310D01*
X163071310Y-100789507D01*
X163305000Y-100225330D01*
X163305000Y-100007745D01*
X174671861Y-100007745D01*
X174745995Y-100253864D01*
X175283223Y-100446965D01*
X175853454Y-100419778D01*
X176254005Y-100253864D01*
X176328139Y-100007745D01*
X175500000Y-99179605D01*
X174671861Y-100007745D01*
X163305000Y-100007745D01*
X163305000Y-99614670D01*
X163071310Y-99050493D01*
X162804040Y-98783223D01*
X174053035Y-98783223D01*
X174080222Y-99353454D01*
X174246136Y-99754005D01*
X174492255Y-99828139D01*
X175320395Y-99000000D01*
X175679605Y-99000000D01*
X176507745Y-99828139D01*
X176753864Y-99754005D01*
X176946965Y-99216777D01*
X176919778Y-98646546D01*
X176753864Y-98245995D01*
X176507745Y-98171861D01*
X175679605Y-99000000D01*
X175320395Y-99000000D01*
X174492255Y-98171861D01*
X174246136Y-98245995D01*
X174053035Y-98783223D01*
X162804040Y-98783223D01*
X162639507Y-98618690D01*
X162075330Y-98385000D01*
X161464670Y-98385000D01*
X160900493Y-98618690D01*
X160731275Y-98787908D01*
X160728157Y-98772235D01*
X160587809Y-98562191D01*
X160377765Y-98421843D01*
X160140000Y-98374549D01*
X160140000Y-95319622D01*
X160157827Y-95230000D01*
X160087200Y-94874936D01*
X160066481Y-94843928D01*
X159886073Y-94573927D01*
X159810093Y-94523159D01*
X158508409Y-93221475D01*
X158711536Y-93357200D01*
X158976978Y-93410000D01*
X158976979Y-93410000D01*
X159066599Y-93427827D01*
X159156220Y-93410000D01*
X161836528Y-93410000D01*
X161843927Y-93421073D01*
X162144936Y-93622200D01*
X162410378Y-93675000D01*
X162500000Y-93692827D01*
X162589622Y-93675000D01*
X170855000Y-93675000D01*
X170855001Y-95645374D01*
X170837173Y-95735000D01*
X170907800Y-96090063D01*
X170981307Y-96200074D01*
X171108928Y-96391073D01*
X171184907Y-96441840D01*
X171823160Y-97080095D01*
X171873927Y-97156073D01*
X172174936Y-97357200D01*
X172440378Y-97410000D01*
X172529999Y-97427827D01*
X172619620Y-97410000D01*
X174380604Y-97410000D01*
X174687138Y-97716534D01*
X174752299Y-97743525D01*
X174745995Y-97746136D01*
X174671861Y-97992255D01*
X175500000Y-98820395D01*
X176328139Y-97992255D01*
X176254005Y-97746136D01*
X176247254Y-97743710D01*
X176312862Y-97716534D01*
X176716534Y-97312862D01*
X176935000Y-96785439D01*
X176935000Y-96214561D01*
X176716534Y-95687138D01*
X176312862Y-95283466D01*
X175785439Y-95065000D01*
X175214561Y-95065000D01*
X174687138Y-95283466D01*
X174380604Y-95590000D01*
X172906934Y-95590000D01*
X172675000Y-95358066D01*
X172675000Y-92854621D01*
X172692827Y-92765000D01*
X172675000Y-92675378D01*
X172675000Y-90910000D01*
X173352560Y-90910000D01*
X173352560Y-91500000D01*
X173401843Y-91747765D01*
X173542191Y-91957809D01*
X173752235Y-92098157D01*
X174000000Y-92147440D01*
X177000000Y-92147440D01*
X177247765Y-92098157D01*
X177457809Y-91957809D01*
X177598157Y-91747765D01*
X177647440Y-91500000D01*
X177647440Y-88500000D01*
X177598157Y-88252235D01*
X177457809Y-88042191D01*
X177247765Y-87901843D01*
X177000000Y-87852560D01*
X174000000Y-87852560D01*
X173752235Y-87901843D01*
X173542191Y-88042191D01*
X173401843Y-88252235D01*
X173352560Y-88500000D01*
X173352560Y-89090000D01*
X172359622Y-89090000D01*
X172270000Y-89072173D01*
X172180378Y-89090000D01*
X171914936Y-89142800D01*
X171613927Y-89343927D01*
X171563157Y-89419910D01*
X171184908Y-89798159D01*
X171108928Y-89848927D01*
X171014624Y-89990063D01*
X170907800Y-90149937D01*
X170837173Y-90505000D01*
X170855001Y-90594626D01*
X170855000Y-91855000D01*
X162898472Y-91855000D01*
X162891073Y-91843927D01*
X162590064Y-91642800D01*
X162324622Y-91590000D01*
X162235000Y-91572173D01*
X162145378Y-91590000D01*
X160981459Y-91590000D01*
X161073157Y-91452765D01*
X161122440Y-91205000D01*
X161122440Y-90605000D01*
X161073157Y-90357235D01*
X161014868Y-90270000D01*
X161073157Y-90182765D01*
X161122440Y-89935000D01*
X161122440Y-89335000D01*
X161110662Y-89275788D01*
X161114622Y-89275000D01*
X161240305Y-89250000D01*
X165260378Y-89250000D01*
X165350000Y-89267827D01*
X165439622Y-89250000D01*
X165705064Y-89197200D01*
X166006073Y-88996073D01*
X166056843Y-88920090D01*
X166645572Y-88331361D01*
X166750000Y-88352133D01*
X167290399Y-88244641D01*
X167748528Y-87938529D01*
X168054641Y-87480400D01*
X168135000Y-87076407D01*
X168135000Y-86433970D01*
X174165635Y-86433970D01*
X174325418Y-86752739D01*
X175116187Y-87062723D01*
X175965387Y-87046497D01*
X176674582Y-86752739D01*
X176834365Y-86433970D01*
X175500000Y-85099605D01*
X174165635Y-86433970D01*
X168135000Y-86433970D01*
X168135000Y-84536187D01*
X173357277Y-84536187D01*
X173373503Y-85385387D01*
X173667261Y-86094582D01*
X173986030Y-86254365D01*
X175320395Y-84920000D01*
X175679605Y-84920000D01*
X177013970Y-86254365D01*
X177332739Y-86094582D01*
X177642723Y-85303813D01*
X177626497Y-84454613D01*
X177332739Y-83745418D01*
X177013970Y-83585635D01*
X175679605Y-84920000D01*
X175320395Y-84920000D01*
X173986030Y-83585635D01*
X173667261Y-83745418D01*
X173357277Y-84536187D01*
X168135000Y-84536187D01*
X168135000Y-83406030D01*
X174165635Y-83406030D01*
X175500000Y-84740395D01*
X176834365Y-83406030D01*
X176674582Y-83087261D01*
X175883813Y-82777277D01*
X175034613Y-82793503D01*
X174325418Y-83087261D01*
X174165635Y-83406030D01*
X168135000Y-83406030D01*
X168135000Y-81900113D01*
X168478531Y-81385981D01*
X168620949Y-80670000D01*
X168478531Y-79954019D01*
X168135000Y-79439887D01*
X168135000Y-78436407D01*
X168162133Y-78300000D01*
X168054641Y-77759600D01*
X167925942Y-77566988D01*
X167748529Y-77301471D01*
X167632888Y-77224202D01*
X166016988Y-75608303D01*
X165674499Y-75379459D01*
X165134100Y-75271967D01*
X164593701Y-75379459D01*
X164135572Y-75685572D01*
X164076419Y-75774100D01*
X157876934Y-75774100D01*
X157022743Y-74919909D01*
X156971973Y-74843927D01*
X156670964Y-74642800D01*
X156405522Y-74590000D01*
X156315900Y-74572173D01*
X156226278Y-74590000D01*
X147396440Y-74590000D01*
X147396440Y-73251000D01*
X147347157Y-73003235D01*
X147206809Y-72793191D01*
X146996765Y-72652843D01*
X146749000Y-72603560D01*
X145251000Y-72603560D01*
X145003235Y-72652843D01*
X144793191Y-72793191D01*
X144745209Y-72865000D01*
X140322271Y-72865000D01*
X140283973Y-72826702D01*
X139775295Y-72616000D01*
X139224705Y-72616000D01*
X138716027Y-72826702D01*
X138326702Y-73216027D01*
X138116000Y-73724705D01*
X138116000Y-74275295D01*
X138326702Y-74783973D01*
X138716027Y-75173298D01*
X139224705Y-75384000D01*
X139775295Y-75384000D01*
X140283973Y-75173298D01*
X140322271Y-75135000D01*
X144745209Y-75135000D01*
X144793191Y-75206809D01*
X145003235Y-75347157D01*
X145251000Y-75396440D01*
X145316626Y-75396440D01*
X144938966Y-75774100D01*
X138405522Y-75774100D01*
X138315900Y-75756273D01*
X138226278Y-75774100D01*
X137960836Y-75826900D01*
X137659827Y-76028027D01*
X137609060Y-76104006D01*
X137148066Y-76565000D01*
X136714561Y-76565000D01*
X136187138Y-76783466D01*
X135783466Y-77187138D01*
X135565000Y-77714561D01*
X131205216Y-77714561D01*
X131582481Y-77462481D01*
X131877542Y-77020891D01*
X131981154Y-76500000D01*
X131877542Y-75979109D01*
X131582481Y-75537519D01*
X131140891Y-75242458D01*
X130751485Y-75165000D01*
X129088515Y-75165000D01*
X128699109Y-75242458D01*
X128257519Y-75537519D01*
X127962458Y-75979109D01*
X127858846Y-76500000D01*
X120710000Y-76500000D01*
X120710000Y-72627000D01*
X125085000Y-72627000D01*
X125085000Y-73327000D01*
X125235222Y-73828215D01*
X125565815Y-74233790D01*
X126026450Y-74481980D01*
X126086671Y-74492716D01*
X126293000Y-74369374D01*
X126293000Y-72627000D01*
X126547000Y-72627000D01*
X126547000Y-74369374D01*
X126753329Y-74492716D01*
X126813550Y-74481980D01*
X127274185Y-74233790D01*
X127604778Y-73828215D01*
X127755000Y-73327000D01*
X127755000Y-72627000D01*
X126547000Y-72627000D01*
X126293000Y-72627000D01*
X125085000Y-72627000D01*
X120710000Y-72627000D01*
X120710000Y-71673000D01*
X125085000Y-71673000D01*
X125085000Y-72373000D01*
X126293000Y-72373000D01*
X126293000Y-70630626D01*
X126547000Y-70630626D01*
X126547000Y-72373000D01*
X127755000Y-72373000D01*
X127755000Y-71673000D01*
X127753656Y-71668515D01*
X131085000Y-71668515D01*
X131085000Y-73331484D01*
X131162458Y-73720890D01*
X131457519Y-74162480D01*
X131899109Y-74457542D01*
X132420000Y-74561154D01*
X132940890Y-74457542D01*
X133382480Y-74162481D01*
X133677542Y-73720891D01*
X133755000Y-73331485D01*
X133755000Y-72154887D01*
X173265000Y-72154887D01*
X173265000Y-72845113D01*
X173529138Y-73482799D01*
X174017201Y-73970862D01*
X174654887Y-74235000D01*
X175345113Y-74235000D01*
X175982799Y-73970862D01*
X176470862Y-73482799D01*
X176735000Y-72845113D01*
X176735000Y-72154887D01*
X176470862Y-71517201D01*
X175982799Y-71029138D01*
X175345113Y-70765000D01*
X174654887Y-70765000D01*
X174017201Y-71029138D01*
X173529138Y-71517201D01*
X173265000Y-72154887D01*
X133755000Y-72154887D01*
X133755000Y-71668515D01*
X133677542Y-71279109D01*
X133382481Y-70837519D01*
X132940891Y-70542458D01*
X132580608Y-70470793D01*
X138708813Y-70470793D01*
X138776679Y-70711630D01*
X139295410Y-70896204D01*
X139845287Y-70868218D01*
X140223321Y-70711630D01*
X140291187Y-70470793D01*
X145208813Y-70470793D01*
X145276679Y-70711630D01*
X145795410Y-70896204D01*
X146345287Y-70868218D01*
X146723321Y-70711630D01*
X146791187Y-70470793D01*
X146000000Y-69679605D01*
X145208813Y-70470793D01*
X140291187Y-70470793D01*
X139500000Y-69679605D01*
X138708813Y-70470793D01*
X132580608Y-70470793D01*
X132420000Y-70438846D01*
X131899110Y-70542458D01*
X131457520Y-70837519D01*
X131162459Y-71279109D01*
X131085000Y-71668515D01*
X127753656Y-71668515D01*
X127604778Y-71171785D01*
X127274185Y-70766210D01*
X126813550Y-70518020D01*
X126753329Y-70507284D01*
X126547000Y-70630626D01*
X126293000Y-70630626D01*
X126086671Y-70507284D01*
X126026450Y-70518020D01*
X125565815Y-70766210D01*
X125235222Y-71171785D01*
X125085000Y-71673000D01*
X120710000Y-71673000D01*
X120710000Y-69295410D01*
X138103796Y-69295410D01*
X138131782Y-69845287D01*
X138288370Y-70223321D01*
X138529207Y-70291187D01*
X139320395Y-69500000D01*
X139679605Y-69500000D01*
X140470793Y-70291187D01*
X140711630Y-70223321D01*
X140896204Y-69704590D01*
X140875379Y-69295410D01*
X144603796Y-69295410D01*
X144631782Y-69845287D01*
X144788370Y-70223321D01*
X145029207Y-70291187D01*
X145820395Y-69500000D01*
X146179605Y-69500000D01*
X146970793Y-70291187D01*
X147211630Y-70223321D01*
X147396204Y-69704590D01*
X147368218Y-69154713D01*
X147211630Y-68776679D01*
X146970793Y-68708813D01*
X146179605Y-69500000D01*
X145820395Y-69500000D01*
X145029207Y-68708813D01*
X144788370Y-68776679D01*
X144603796Y-69295410D01*
X140875379Y-69295410D01*
X140868218Y-69154713D01*
X140711630Y-68776679D01*
X140470793Y-68708813D01*
X139679605Y-69500000D01*
X139320395Y-69500000D01*
X138529207Y-68708813D01*
X138288370Y-68776679D01*
X138103796Y-69295410D01*
X120710000Y-69295410D01*
X120710000Y-68210000D01*
X138965879Y-68210000D01*
X138776679Y-68288370D01*
X138776679Y-68288370D01*
G37*
X138776679Y-68288370D02*
X138708813Y-68529207D01*
X139500000Y-69320395D01*
X140291187Y-68529207D01*
X140223321Y-68288370D01*
X140003068Y-68210000D01*
X145465879Y-68210000D01*
X145276679Y-68288370D01*
X145208813Y-68529207D01*
X146000000Y-69320395D01*
X146791187Y-68529207D01*
X146723321Y-68288370D01*
X146503068Y-68210000D01*
X172474281Y-68210000D01*
X173479908Y-68282967D01*
X174439294Y-68494780D01*
X175358047Y-68842864D01*
X176216931Y-69319931D01*
X176997953Y-69915988D01*
X177684751Y-70618548D01*
X178262934Y-71412889D01*
X178720391Y-72282374D01*
X179047546Y-73208797D01*
X179238318Y-74176700D01*
X179290000Y-75021698D01*
X179290001Y-104290000D01*
X168125082Y-104290000D01*
X168305638Y-104109444D01*
X168585000Y-103435004D01*
X168585000Y-102704996D01*
X168305638Y-102030556D01*
X167789444Y-101514362D01*
X167115004Y-101235000D01*
X166384996Y-101235000D01*
X165710556Y-101514362D01*
X165194362Y-102030556D01*
X164915000Y-102704996D01*
X164915000Y-103435004D01*
X165194362Y-104109444D01*
X165374918Y-104290000D01*
X127525719Y-104290000D01*
X126520093Y-104217033D01*
X125560710Y-104005222D01*
X124641953Y-103657136D01*
X123783069Y-103180069D01*
X123002046Y-102584011D01*
X122315249Y-101881452D01*
X121737068Y-101087113D01*
X121279609Y-100217625D01*
X121080885Y-99654887D01*
X123265000Y-99654887D01*
X123265000Y-100345113D01*
X123529138Y-100982799D01*
X124017201Y-101470862D01*
X124654887Y-101735000D01*
X125345113Y-101735000D01*
X125982799Y-101470862D01*
X126470862Y-100982799D01*
X126588001Y-100700000D01*
X129052560Y-100700000D01*
X129052560Y-102300000D01*
X129101843Y-102547765D01*
X129242191Y-102757809D01*
X129452235Y-102898157D01*
X129700000Y-102947440D01*
X131300000Y-102947440D01*
X131547765Y-102898157D01*
X131757516Y-102758005D01*
X132283223Y-102946965D01*
X132853454Y-102919778D01*
X133254005Y-102753864D01*
X133328139Y-102507745D01*
X132500000Y-101679605D01*
X132485858Y-101693748D01*
X132306253Y-101514143D01*
X132320395Y-101500000D01*
X132679605Y-101500000D01*
X133507745Y-102328139D01*
X133753864Y-102254005D01*
X133946965Y-101716777D01*
X133919778Y-101146546D01*
X133753864Y-100745995D01*
X133507745Y-100671861D01*
X132679605Y-101500000D01*
X132320395Y-101500000D01*
X132306253Y-101485858D01*
X132485858Y-101306252D01*
X132500000Y-101320395D01*
X133328139Y-100492255D01*
X133254005Y-100246136D01*
X132716777Y-100053035D01*
X132146546Y-100080222D01*
X131756933Y-100241605D01*
X131547765Y-100101843D01*
X131412912Y-100075019D01*
X131399904Y-100009622D01*
X131370000Y-99859286D01*
X131370000Y-97336933D01*
X131636934Y-97070000D01*
X132021376Y-97070000D01*
X132249135Y-97410865D01*
X132823037Y-97794334D01*
X133329120Y-97895000D01*
X133670880Y-97895000D01*
X134176963Y-97794334D01*
X134750865Y-97410865D01*
X135134334Y-96836963D01*
X135268990Y-96160000D01*
X135134334Y-95483037D01*
X134750865Y-94909135D01*
X134437873Y-94700000D01*
X137052560Y-94700000D01*
X137052560Y-96300000D01*
X137101843Y-96547765D01*
X137242191Y-96757809D01*
X137452235Y-96898157D01*
X137700000Y-96947440D01*
X139300000Y-96947440D01*
X139547765Y-96898157D01*
X139757809Y-96757809D01*
X139898157Y-96547765D01*
X139947440Y-96300000D01*
X139947440Y-95500000D01*
X144656887Y-95500000D01*
X144768260Y-96059909D01*
X145085423Y-96534577D01*
X145560091Y-96851740D01*
X145978667Y-96935000D01*
X146261333Y-96935000D01*
X146679909Y-96851740D01*
X147154577Y-96534577D01*
X147237817Y-96410000D01*
X148433067Y-96410000D01*
X151260000Y-99236934D01*
X151260001Y-100602560D01*
X150705000Y-100602560D01*
X150457235Y-100651843D01*
X150247191Y-100792191D01*
X150106843Y-101002235D01*
X150057560Y-101250000D01*
X150057560Y-102750000D01*
X150106843Y-102997765D01*
X150247191Y-103207809D01*
X150457235Y-103348157D01*
X150705000Y-103397440D01*
X151755000Y-103397440D01*
X152002765Y-103348157D01*
X152048134Y-103317842D01*
X152500000Y-103407725D01*
X152952609Y-103317695D01*
X153144996Y-103189146D01*
X153402664Y-103335266D01*
X153464190Y-103343964D01*
X153643000Y-103218163D01*
X153643000Y-102424709D01*
X153660000Y-102339245D01*
X153660000Y-102127000D01*
X153897000Y-102127000D01*
X153897000Y-103218163D01*
X154075810Y-103343964D01*
X154137336Y-103335266D01*
X154534255Y-103110179D01*
X154814823Y-102750331D01*
X154936326Y-102310506D01*
X154776593Y-102127000D01*
X153897000Y-102127000D01*
X153660000Y-102127000D01*
X153660000Y-101660754D01*
X153643000Y-101575290D01*
X153643000Y-100781837D01*
X153897000Y-100781837D01*
X153897000Y-101873000D01*
X154776593Y-101873000D01*
X154936326Y-101689494D01*
X154814823Y-101249669D01*
X154534255Y-100889821D01*
X154137336Y-100664734D01*
X154075810Y-100656036D01*
X153897000Y-100781837D01*
X153643000Y-100781837D01*
X153464190Y-100656036D01*
X153402664Y-100664734D01*
X153311448Y-100716461D01*
X153156073Y-100483925D01*
X153080093Y-100433157D01*
X153080000Y-100433064D01*
X153080000Y-98949622D01*
X153097827Y-98860000D01*
X153027200Y-98504936D01*
X152971679Y-98421843D01*
X152826073Y-98203927D01*
X152750093Y-98153159D01*
X149516843Y-94919910D01*
X149466073Y-94843927D01*
X149165064Y-94642800D01*
X148899622Y-94590000D01*
X148810000Y-94572173D01*
X148720378Y-94590000D01*
X147237817Y-94590000D01*
X147154577Y-94465423D01*
X146679909Y-94148260D01*
X146261333Y-94065000D01*
X145978667Y-94065000D01*
X145560091Y-94148260D01*
X145085423Y-94465423D01*
X144768260Y-94940091D01*
X144656887Y-95500000D01*
X139947440Y-95500000D01*
X139947440Y-94700000D01*
X139898157Y-94452235D01*
X139757809Y-94242191D01*
X139547765Y-94101843D01*
X139300000Y-94052560D01*
X137700000Y-94052560D01*
X137452235Y-94101843D01*
X137242191Y-94242191D01*
X137101843Y-94452235D01*
X137052560Y-94700000D01*
X134437873Y-94700000D01*
X134176963Y-94525666D01*
X133670880Y-94425000D01*
X133329120Y-94425000D01*
X132823037Y-94525666D01*
X132249135Y-94909135D01*
X132021376Y-95250000D01*
X131349622Y-95250000D01*
X131260000Y-95232173D01*
X131170378Y-95250000D01*
X130904936Y-95302800D01*
X130603927Y-95503927D01*
X130553159Y-95579907D01*
X129879908Y-96253159D01*
X129803928Y-96303927D01*
X129676307Y-96494926D01*
X129602800Y-96604937D01*
X129532173Y-96960000D01*
X129550001Y-97049626D01*
X129550000Y-100020378D01*
X129537156Y-100084951D01*
X129452235Y-100101843D01*
X129242191Y-100242191D01*
X129101843Y-100452235D01*
X129052560Y-100700000D01*
X126588001Y-100700000D01*
X126735000Y-100345113D01*
X126735000Y-99654887D01*
X126470862Y-99017201D01*
X125982799Y-98529138D01*
X125345113Y-98265000D01*
X124654887Y-98265000D01*
X124017201Y-98529138D01*
X123529138Y-99017201D01*
X123265000Y-99654887D01*
X121080885Y-99654887D01*
X120952454Y-99291203D01*
X120761682Y-98323300D01*
X120710000Y-97478302D01*
X120710000Y-92110000D01*
X126422560Y-92110000D01*
X126422560Y-93970000D01*
X126471843Y-94217765D01*
X126612191Y-94427809D01*
X126822235Y-94568157D01*
X127070000Y-94617440D01*
X128930000Y-94617440D01*
X129177765Y-94568157D01*
X129387809Y-94427809D01*
X129528157Y-94217765D01*
X129577440Y-93970000D01*
X129577440Y-93950000D01*
X135870378Y-93950000D01*
X135960000Y-93967827D01*
X136049622Y-93950000D01*
X136315064Y-93897200D01*
X136616073Y-93696073D01*
X136666843Y-93620090D01*
X136851933Y-93435000D01*
X137285439Y-93435000D01*
X137812862Y-93216534D01*
X138216534Y-92812862D01*
X138408655Y-92349039D01*
X145768096Y-92349039D01*
X145928959Y-92737423D01*
X146304866Y-93152389D01*
X146810959Y-93391914D01*
X147033000Y-93270629D01*
X147033000Y-92127000D01*
X147287000Y-92127000D01*
X147287000Y-93270629D01*
X147509041Y-93391914D01*
X148015134Y-93152389D01*
X148391041Y-92737423D01*
X148551904Y-92349039D01*
X148429915Y-92127000D01*
X147287000Y-92127000D01*
X147033000Y-92127000D01*
X145890085Y-92127000D01*
X145768096Y-92349039D01*
X138408655Y-92349039D01*
X138435000Y-92285439D01*
X138435000Y-91714561D01*
X138408656Y-91650961D01*
X145768096Y-91650961D01*
X145890085Y-91873000D01*
X147033000Y-91873000D01*
X147033000Y-90729371D01*
X147287000Y-90729371D01*
X147287000Y-91873000D01*
X148429915Y-91873000D01*
X148551904Y-91650961D01*
X148391041Y-91262577D01*
X148015134Y-90847611D01*
X147509041Y-90608086D01*
X147287000Y-90729371D01*
X147033000Y-90729371D01*
X146810959Y-90608086D01*
X146304866Y-90847611D01*
X145928959Y-91262577D01*
X145768096Y-91650961D01*
X138408656Y-91650961D01*
X138216534Y-91187138D01*
X137812862Y-90783466D01*
X137285439Y-90565000D01*
X136714561Y-90565000D01*
X136187138Y-90783466D01*
X135783466Y-91187138D01*
X135565000Y-91714561D01*
X135565000Y-92130000D01*
X129577440Y-92130000D01*
X129577440Y-92110000D01*
X129528157Y-91862235D01*
X129387809Y-91652191D01*
X129191934Y-91521310D01*
X129326743Y-91386501D01*
X129565000Y-90811298D01*
X129565000Y-90188702D01*
X129326743Y-89613499D01*
X128943244Y-89230000D01*
X129303244Y-88870000D01*
X129800378Y-88870000D01*
X129890000Y-88887827D01*
X129979622Y-88870000D01*
X130245064Y-88817200D01*
X130546073Y-88616073D01*
X130596843Y-88540090D01*
X130922372Y-88214561D01*
X135565000Y-88214561D01*
X135565000Y-88785439D01*
X135783466Y-89312862D01*
X136187138Y-89716534D01*
X136714561Y-89935000D01*
X137285439Y-89935000D01*
X137812862Y-89716534D01*
X138216534Y-89312862D01*
X138435000Y-88785439D01*
X138435000Y-88214561D01*
X138216534Y-87687138D01*
X137812862Y-87283466D01*
X137285439Y-87065000D01*
X136714561Y-87065000D01*
X136187138Y-87283466D01*
X135783466Y-87687138D01*
X135565000Y-88214561D01*
X130922372Y-88214561D01*
X131799740Y-87337193D01*
X131801843Y-87347765D01*
X131942191Y-87557809D01*
X132152235Y-87698157D01*
X132400000Y-87747440D01*
X134600000Y-87747440D01*
X134847765Y-87698157D01*
X135057809Y-87557809D01*
X135198157Y-87347765D01*
X135247440Y-87100000D01*
X135247440Y-84900000D01*
X135210555Y-84714561D01*
X135565000Y-84714561D01*
X135565000Y-85285439D01*
X135783466Y-85812862D01*
X136187138Y-86216534D01*
X136714561Y-86435000D01*
X137285439Y-86435000D01*
X137812862Y-86216534D01*
X138216534Y-85812862D01*
X138435000Y-85285439D01*
X138435000Y-84714561D01*
X138216534Y-84187138D01*
X137812862Y-83783466D01*
X137285439Y-83565000D01*
X136714561Y-83565000D01*
X136187138Y-83783466D01*
X135783466Y-84187138D01*
X135565000Y-84714561D01*
X135210555Y-84714561D01*
X135198157Y-84652235D01*
X135057809Y-84442191D01*
X134847765Y-84301843D01*
X134600000Y-84252560D01*
X132400000Y-84252560D01*
X132152235Y-84301843D01*
X131942191Y-84442191D01*
X131801843Y-84652235D01*
X131752560Y-84900000D01*
X131752560Y-85091555D01*
X131494936Y-85142800D01*
X131193927Y-85343927D01*
X131143159Y-85419907D01*
X129513067Y-87050000D01*
X129303244Y-87050000D01*
X128886501Y-86633257D01*
X128311298Y-86395000D01*
X127688702Y-86395000D01*
X127113499Y-86633257D01*
X126673257Y-87073499D01*
X126435000Y-87648702D01*
X126435000Y-88271298D01*
X126673257Y-88846501D01*
X127056756Y-89230000D01*
X126673257Y-89613499D01*
X126435000Y-90188702D01*
X126435000Y-90811298D01*
X126673257Y-91386501D01*
X126808066Y-91521310D01*
X126612191Y-91652191D01*
X126471843Y-91862235D01*
X126422560Y-92110000D01*
X120710000Y-92110000D01*
X120710000Y-80214561D01*
X122565000Y-80214561D01*
X122565000Y-80785439D01*
X122783466Y-81312862D01*
X123187138Y-81716534D01*
X123714561Y-81935000D01*
X124285439Y-81935000D01*
X124812862Y-81716534D01*
X125021651Y-81507745D01*
X125671861Y-81507745D01*
X125745995Y-81753864D01*
X126283223Y-81946965D01*
X126853454Y-81919778D01*
X127254005Y-81753864D01*
X127328139Y-81507745D01*
X126500000Y-80679605D01*
X125671861Y-81507745D01*
X125021651Y-81507745D01*
X125216534Y-81312862D01*
X125243525Y-81247701D01*
X125246136Y-81254005D01*
X125492255Y-81328139D01*
X126320395Y-80500000D01*
X126679605Y-80500000D01*
X127507745Y-81328139D01*
X127753864Y-81254005D01*
X127946965Y-80716777D01*
X127919778Y-80146546D01*
X127753864Y-79745995D01*
X127507745Y-79671861D01*
X126679605Y-80500000D01*
X126320395Y-80500000D01*
X125492255Y-79671861D01*
X125246136Y-79745995D01*
X125243710Y-79752746D01*
X125216534Y-79687138D01*
X125021651Y-79492255D01*
X125671861Y-79492255D01*
X126500000Y-80320395D01*
X127328139Y-79492255D01*
X127254005Y-79246136D01*
X126716777Y-79053035D01*
X126146546Y-79080222D01*
X125745995Y-79246136D01*
X125671861Y-79492255D01*
X125021651Y-79492255D01*
X124812862Y-79283466D01*
X124285439Y-79065000D01*
X123714561Y-79065000D01*
X123187138Y-79283466D01*
X122783466Y-79687138D01*
X122565000Y-80214561D01*
X120710000Y-80214561D01*
X120710000Y-76500000D01*
X127858846Y-76500000D01*
X127962458Y-77020891D01*
X128257519Y-77462481D01*
X128699109Y-77757542D01*
X129088515Y-77835000D01*
X130751485Y-77835000D01*
X131140891Y-77757542D01*
X131205216Y-77714561D01*
X135565000Y-77714561D01*
X135565000Y-78285439D01*
X135783466Y-78812862D01*
X136187138Y-79216534D01*
X136714561Y-79435000D01*
X137285439Y-79435000D01*
X137812862Y-79216534D01*
X138216534Y-78812862D01*
X138435000Y-78285439D01*
X138435000Y-77851934D01*
X138692834Y-77594100D01*
X145226278Y-77594100D01*
X145315900Y-77611927D01*
X145405522Y-77594100D01*
X145670964Y-77541300D01*
X145806087Y-77451014D01*
X145696887Y-78000000D01*
X145784409Y-78440000D01*
X139239620Y-78440000D01*
X139149999Y-78422173D01*
X139060379Y-78440000D01*
X139060378Y-78440000D01*
X138794936Y-78492800D01*
X138493927Y-78693927D01*
X138443159Y-78769907D01*
X137148067Y-80065000D01*
X136714561Y-80065000D01*
X136187138Y-80283466D01*
X135783466Y-80687138D01*
X135565000Y-81214561D01*
X135565000Y-81785439D01*
X135783466Y-82312862D01*
X136187138Y-82716534D01*
X136714561Y-82935000D01*
X137285439Y-82935000D01*
X137812862Y-82716534D01*
X138216534Y-82312862D01*
X138435000Y-81785439D01*
X138435000Y-81351933D01*
X139526934Y-80260000D01*
X146432860Y-80260000D01*
X146125423Y-80465423D01*
X145808260Y-80940091D01*
X145696887Y-81500000D01*
X145808260Y-82059909D01*
X146125423Y-82534577D01*
X146600091Y-82851740D01*
X147018667Y-82935000D01*
X147301333Y-82935000D01*
X147719909Y-82851740D01*
X148194577Y-82534577D01*
X148474601Y-82115492D01*
X148474600Y-84384508D01*
X148194577Y-83965423D01*
X147719909Y-83648260D01*
X147301333Y-83565000D01*
X147018667Y-83565000D01*
X146600091Y-83648260D01*
X146125423Y-83965423D01*
X145808260Y-84440091D01*
X145696887Y-85000000D01*
X145808260Y-85559909D01*
X145861775Y-85640000D01*
X144300839Y-85640000D01*
X144286759Y-85618928D01*
X144210779Y-85568160D01*
X140672528Y-82029910D01*
X140621758Y-81953927D01*
X140320749Y-81752800D01*
X140055307Y-81700000D01*
X139965685Y-81682173D01*
X139897403Y-81695755D01*
X139605874Y-81575000D01*
X139194126Y-81575000D01*
X138813720Y-81732569D01*
X138522569Y-82023720D01*
X138365000Y-82404126D01*
X138365000Y-82815874D01*
X138522569Y-83196280D01*
X138813720Y-83487431D01*
X139194126Y-83645000D01*
X139605874Y-83645000D01*
X139682155Y-83613403D01*
X142765785Y-86697034D01*
X142773486Y-86735750D01*
X142974613Y-87036759D01*
X143050596Y-87087529D01*
X143093157Y-87130090D01*
X143143927Y-87206073D01*
X143444936Y-87407200D01*
X143710378Y-87460000D01*
X143710379Y-87460000D01*
X143799999Y-87477827D01*
X143889620Y-87460000D01*
X146133539Y-87460000D01*
X146125423Y-87465423D01*
X145808260Y-87940091D01*
X145696887Y-88500000D01*
X145808260Y-89059909D01*
X146125423Y-89534577D01*
X146600091Y-89851740D01*
X147018667Y-89935000D01*
X147301333Y-89935000D01*
X147719909Y-89851740D01*
X148194577Y-89534577D01*
X148511740Y-89059909D01*
X148530195Y-88967129D01*
X150068066Y-90505000D01*
X149724126Y-90505000D01*
X149343720Y-90662569D01*
X149052569Y-90953720D01*
X148895000Y-91334126D01*
X148895000Y-91745874D01*
X149052569Y-92126280D01*
X149343720Y-92417431D01*
X149645498Y-92542431D01*
X152065000Y-94961934D01*
X152065000Y-95285439D01*
X152283466Y-95812862D01*
X152687138Y-96216534D01*
X153214561Y-96435000D01*
X153785439Y-96435000D01*
X154312862Y-96216534D01*
X154521651Y-96007745D01*
X155171861Y-96007745D01*
X155245995Y-96253864D01*
X155783223Y-96446965D01*
X156353454Y-96419778D01*
X156754005Y-96253864D01*
X156828139Y-96007745D01*
X156000000Y-95179605D01*
X155171861Y-96007745D01*
X154521651Y-96007745D01*
X154716534Y-95812862D01*
X154743525Y-95747701D01*
X154746136Y-95754005D01*
X154992255Y-95828139D01*
X155820395Y-95000000D01*
X154992255Y-94171861D01*
X154746136Y-94245995D01*
X154743710Y-94252746D01*
X154716534Y-94187138D01*
X154312862Y-93783466D01*
X153785439Y-93565000D01*
X153564485Y-93565000D01*
X153589622Y-93560000D01*
X156070690Y-93560000D01*
X155646546Y-93580222D01*
X155245995Y-93746136D01*
X155171861Y-93992255D01*
X156000000Y-94820395D01*
X156014142Y-94806252D01*
X156193748Y-94985858D01*
X156179605Y-95000000D01*
X157007745Y-95828139D01*
X157253864Y-95754005D01*
X157446965Y-95216777D01*
X157422790Y-94709724D01*
X158320000Y-95606934D01*
X158320001Y-98374549D01*
X158082235Y-98421843D01*
X157872191Y-98562191D01*
X157731843Y-98772235D01*
X157682560Y-99020000D01*
X157682560Y-100820000D01*
X157731843Y-101067765D01*
X157872191Y-101277809D01*
X158082235Y-101418157D01*
X158330000Y-101467440D01*
X160130000Y-101467440D01*
X160377765Y-101418157D01*
X160587809Y-101277809D01*
X160728157Y-101067765D01*
X160731275Y-101052092D01*
X160900493Y-101221310D01*
X161464670Y-101455000D01*
X162075330Y-101455000D01*
X162639507Y-101221310D01*
X163071310Y-100789507D01*
X163305000Y-100225330D01*
X163305000Y-100007745D01*
X174671861Y-100007745D01*
X174745995Y-100253864D01*
X175283223Y-100446965D01*
X175853454Y-100419778D01*
X176254005Y-100253864D01*
X176328139Y-100007745D01*
X175500000Y-99179605D01*
X174671861Y-100007745D01*
X163305000Y-100007745D01*
X163305000Y-99614670D01*
X163071310Y-99050493D01*
X162804040Y-98783223D01*
X174053035Y-98783223D01*
X174080222Y-99353454D01*
X174246136Y-99754005D01*
X174492255Y-99828139D01*
X175320395Y-99000000D01*
X175679605Y-99000000D01*
X176507745Y-99828139D01*
X176753864Y-99754005D01*
X176946965Y-99216777D01*
X176919778Y-98646546D01*
X176753864Y-98245995D01*
X176507745Y-98171861D01*
X175679605Y-99000000D01*
X175320395Y-99000000D01*
X174492255Y-98171861D01*
X174246136Y-98245995D01*
X174053035Y-98783223D01*
X162804040Y-98783223D01*
X162639507Y-98618690D01*
X162075330Y-98385000D01*
X161464670Y-98385000D01*
X160900493Y-98618690D01*
X160731275Y-98787908D01*
X160728157Y-98772235D01*
X160587809Y-98562191D01*
X160377765Y-98421843D01*
X160140000Y-98374549D01*
X160140000Y-95319622D01*
X160157827Y-95230000D01*
X160087200Y-94874936D01*
X160066481Y-94843928D01*
X159886073Y-94573927D01*
X159810093Y-94523159D01*
X158508409Y-93221475D01*
X158711536Y-93357200D01*
X158976978Y-93410000D01*
X158976979Y-93410000D01*
X159066599Y-93427827D01*
X159156220Y-93410000D01*
X161836528Y-93410000D01*
X161843927Y-93421073D01*
X162144936Y-93622200D01*
X162410378Y-93675000D01*
X162500000Y-93692827D01*
X162589622Y-93675000D01*
X170855000Y-93675000D01*
X170855001Y-95645374D01*
X170837173Y-95735000D01*
X170907800Y-96090063D01*
X170981307Y-96200074D01*
X171108928Y-96391073D01*
X171184907Y-96441840D01*
X171823160Y-97080095D01*
X171873927Y-97156073D01*
X172174936Y-97357200D01*
X172440378Y-97410000D01*
X172529999Y-97427827D01*
X172619620Y-97410000D01*
X174380604Y-97410000D01*
X174687138Y-97716534D01*
X174752299Y-97743525D01*
X174745995Y-97746136D01*
X174671861Y-97992255D01*
X175500000Y-98820395D01*
X176328139Y-97992255D01*
X176254005Y-97746136D01*
X176247254Y-97743710D01*
X176312862Y-97716534D01*
X176716534Y-97312862D01*
X176935000Y-96785439D01*
X176935000Y-96214561D01*
X176716534Y-95687138D01*
X176312862Y-95283466D01*
X175785439Y-95065000D01*
X175214561Y-95065000D01*
X174687138Y-95283466D01*
X174380604Y-95590000D01*
X172906934Y-95590000D01*
X172675000Y-95358066D01*
X172675000Y-92854621D01*
X172692827Y-92765000D01*
X172675000Y-92675378D01*
X172675000Y-90910000D01*
X173352560Y-90910000D01*
X173352560Y-91500000D01*
X173401843Y-91747765D01*
X173542191Y-91957809D01*
X173752235Y-92098157D01*
X174000000Y-92147440D01*
X177000000Y-92147440D01*
X177247765Y-92098157D01*
X177457809Y-91957809D01*
X177598157Y-91747765D01*
X177647440Y-91500000D01*
X177647440Y-88500000D01*
X177598157Y-88252235D01*
X177457809Y-88042191D01*
X177247765Y-87901843D01*
X177000000Y-87852560D01*
X174000000Y-87852560D01*
X173752235Y-87901843D01*
X173542191Y-88042191D01*
X173401843Y-88252235D01*
X173352560Y-88500000D01*
X173352560Y-89090000D01*
X172359622Y-89090000D01*
X172270000Y-89072173D01*
X172180378Y-89090000D01*
X171914936Y-89142800D01*
X171613927Y-89343927D01*
X171563157Y-89419910D01*
X171184908Y-89798159D01*
X171108928Y-89848927D01*
X171014624Y-89990063D01*
X170907800Y-90149937D01*
X170837173Y-90505000D01*
X170855001Y-90594626D01*
X170855000Y-91855000D01*
X162898472Y-91855000D01*
X162891073Y-91843927D01*
X162590064Y-91642800D01*
X162324622Y-91590000D01*
X162235000Y-91572173D01*
X162145378Y-91590000D01*
X160981459Y-91590000D01*
X161073157Y-91452765D01*
X161122440Y-91205000D01*
X161122440Y-90605000D01*
X161073157Y-90357235D01*
X161014868Y-90270000D01*
X161073157Y-90182765D01*
X161122440Y-89935000D01*
X161122440Y-89335000D01*
X161110662Y-89275788D01*
X161114622Y-89275000D01*
X161240305Y-89250000D01*
X165260378Y-89250000D01*
X165350000Y-89267827D01*
X165439622Y-89250000D01*
X165705064Y-89197200D01*
X166006073Y-88996073D01*
X166056843Y-88920090D01*
X166645572Y-88331361D01*
X166750000Y-88352133D01*
X167290399Y-88244641D01*
X167748528Y-87938529D01*
X168054641Y-87480400D01*
X168135000Y-87076407D01*
X168135000Y-86433970D01*
X174165635Y-86433970D01*
X174325418Y-86752739D01*
X175116187Y-87062723D01*
X175965387Y-87046497D01*
X176674582Y-86752739D01*
X176834365Y-86433970D01*
X175500000Y-85099605D01*
X174165635Y-86433970D01*
X168135000Y-86433970D01*
X168135000Y-84536187D01*
X173357277Y-84536187D01*
X173373503Y-85385387D01*
X173667261Y-86094582D01*
X173986030Y-86254365D01*
X175320395Y-84920000D01*
X175679605Y-84920000D01*
X177013970Y-86254365D01*
X177332739Y-86094582D01*
X177642723Y-85303813D01*
X177626497Y-84454613D01*
X177332739Y-83745418D01*
X177013970Y-83585635D01*
X175679605Y-84920000D01*
X175320395Y-84920000D01*
X173986030Y-83585635D01*
X173667261Y-83745418D01*
X173357277Y-84536187D01*
X168135000Y-84536187D01*
X168135000Y-83406030D01*
X174165635Y-83406030D01*
X175500000Y-84740395D01*
X176834365Y-83406030D01*
X176674582Y-83087261D01*
X175883813Y-82777277D01*
X175034613Y-82793503D01*
X174325418Y-83087261D01*
X174165635Y-83406030D01*
X168135000Y-83406030D01*
X168135000Y-81900113D01*
X168478531Y-81385981D01*
X168620949Y-80670000D01*
X168478531Y-79954019D01*
X168135000Y-79439887D01*
X168135000Y-78436407D01*
X168162133Y-78300000D01*
X168054641Y-77759600D01*
X167925942Y-77566988D01*
X167748529Y-77301471D01*
X167632888Y-77224202D01*
X166016988Y-75608303D01*
X165674499Y-75379459D01*
X165134100Y-75271967D01*
X164593701Y-75379459D01*
X164135572Y-75685572D01*
X164076419Y-75774100D01*
X157876934Y-75774100D01*
X157022743Y-74919909D01*
X156971973Y-74843927D01*
X156670964Y-74642800D01*
X156405522Y-74590000D01*
X156315900Y-74572173D01*
X156226278Y-74590000D01*
X147396440Y-74590000D01*
X147396440Y-73251000D01*
X147347157Y-73003235D01*
X147206809Y-72793191D01*
X146996765Y-72652843D01*
X146749000Y-72603560D01*
X145251000Y-72603560D01*
X145003235Y-72652843D01*
X144793191Y-72793191D01*
X144745209Y-72865000D01*
X140322271Y-72865000D01*
X140283973Y-72826702D01*
X139775295Y-72616000D01*
X139224705Y-72616000D01*
X138716027Y-72826702D01*
X138326702Y-73216027D01*
X138116000Y-73724705D01*
X138116000Y-74275295D01*
X138326702Y-74783973D01*
X138716027Y-75173298D01*
X139224705Y-75384000D01*
X139775295Y-75384000D01*
X140283973Y-75173298D01*
X140322271Y-75135000D01*
X144745209Y-75135000D01*
X144793191Y-75206809D01*
X145003235Y-75347157D01*
X145251000Y-75396440D01*
X145316626Y-75396440D01*
X144938966Y-75774100D01*
X138405522Y-75774100D01*
X138315900Y-75756273D01*
X138226278Y-75774100D01*
X137960836Y-75826900D01*
X137659827Y-76028027D01*
X137609060Y-76104006D01*
X137148066Y-76565000D01*
X136714561Y-76565000D01*
X136187138Y-76783466D01*
X135783466Y-77187138D01*
X135565000Y-77714561D01*
X131205216Y-77714561D01*
X131582481Y-77462481D01*
X131877542Y-77020891D01*
X131981154Y-76500000D01*
X131877542Y-75979109D01*
X131582481Y-75537519D01*
X131140891Y-75242458D01*
X130751485Y-75165000D01*
X129088515Y-75165000D01*
X128699109Y-75242458D01*
X128257519Y-75537519D01*
X127962458Y-75979109D01*
X127858846Y-76500000D01*
X120710000Y-76500000D01*
X120710000Y-72627000D01*
X125085000Y-72627000D01*
X125085000Y-73327000D01*
X125235222Y-73828215D01*
X125565815Y-74233790D01*
X126026450Y-74481980D01*
X126086671Y-74492716D01*
X126293000Y-74369374D01*
X126293000Y-72627000D01*
X126547000Y-72627000D01*
X126547000Y-74369374D01*
X126753329Y-74492716D01*
X126813550Y-74481980D01*
X127274185Y-74233790D01*
X127604778Y-73828215D01*
X127755000Y-73327000D01*
X127755000Y-72627000D01*
X126547000Y-72627000D01*
X126293000Y-72627000D01*
X125085000Y-72627000D01*
X120710000Y-72627000D01*
X120710000Y-71673000D01*
X125085000Y-71673000D01*
X125085000Y-72373000D01*
X126293000Y-72373000D01*
X126293000Y-70630626D01*
X126547000Y-70630626D01*
X126547000Y-72373000D01*
X127755000Y-72373000D01*
X127755000Y-71673000D01*
X127753656Y-71668515D01*
X131085000Y-71668515D01*
X131085000Y-73331484D01*
X131162458Y-73720890D01*
X131457519Y-74162480D01*
X131899109Y-74457542D01*
X132420000Y-74561154D01*
X132940890Y-74457542D01*
X133382480Y-74162481D01*
X133677542Y-73720891D01*
X133755000Y-73331485D01*
X133755000Y-72154887D01*
X173265000Y-72154887D01*
X173265000Y-72845113D01*
X173529138Y-73482799D01*
X174017201Y-73970862D01*
X174654887Y-74235000D01*
X175345113Y-74235000D01*
X175982799Y-73970862D01*
X176470862Y-73482799D01*
X176735000Y-72845113D01*
X176735000Y-72154887D01*
X176470862Y-71517201D01*
X175982799Y-71029138D01*
X175345113Y-70765000D01*
X174654887Y-70765000D01*
X174017201Y-71029138D01*
X173529138Y-71517201D01*
X173265000Y-72154887D01*
X133755000Y-72154887D01*
X133755000Y-71668515D01*
X133677542Y-71279109D01*
X133382481Y-70837519D01*
X132940891Y-70542458D01*
X132580608Y-70470793D01*
X138708813Y-70470793D01*
X138776679Y-70711630D01*
X139295410Y-70896204D01*
X139845287Y-70868218D01*
X140223321Y-70711630D01*
X140291187Y-70470793D01*
X145208813Y-70470793D01*
X145276679Y-70711630D01*
X145795410Y-70896204D01*
X146345287Y-70868218D01*
X146723321Y-70711630D01*
X146791187Y-70470793D01*
X146000000Y-69679605D01*
X145208813Y-70470793D01*
X140291187Y-70470793D01*
X139500000Y-69679605D01*
X138708813Y-70470793D01*
X132580608Y-70470793D01*
X132420000Y-70438846D01*
X131899110Y-70542458D01*
X131457520Y-70837519D01*
X131162459Y-71279109D01*
X131085000Y-71668515D01*
X127753656Y-71668515D01*
X127604778Y-71171785D01*
X127274185Y-70766210D01*
X126813550Y-70518020D01*
X126753329Y-70507284D01*
X126547000Y-70630626D01*
X126293000Y-70630626D01*
X126086671Y-70507284D01*
X126026450Y-70518020D01*
X125565815Y-70766210D01*
X125235222Y-71171785D01*
X125085000Y-71673000D01*
X120710000Y-71673000D01*
X120710000Y-69295410D01*
X138103796Y-69295410D01*
X138131782Y-69845287D01*
X138288370Y-70223321D01*
X138529207Y-70291187D01*
X139320395Y-69500000D01*
X139679605Y-69500000D01*
X140470793Y-70291187D01*
X140711630Y-70223321D01*
X140896204Y-69704590D01*
X140875379Y-69295410D01*
X144603796Y-69295410D01*
X144631782Y-69845287D01*
X144788370Y-70223321D01*
X145029207Y-70291187D01*
X145820395Y-69500000D01*
X146179605Y-69500000D01*
X146970793Y-70291187D01*
X147211630Y-70223321D01*
X147396204Y-69704590D01*
X147368218Y-69154713D01*
X147211630Y-68776679D01*
X146970793Y-68708813D01*
X146179605Y-69500000D01*
X145820395Y-69500000D01*
X145029207Y-68708813D01*
X144788370Y-68776679D01*
X144603796Y-69295410D01*
X140875379Y-69295410D01*
X140868218Y-69154713D01*
X140711630Y-68776679D01*
X140470793Y-68708813D01*
X139679605Y-69500000D01*
X139320395Y-69500000D01*
X138529207Y-68708813D01*
X138288370Y-68776679D01*
X138103796Y-69295410D01*
X120710000Y-69295410D01*
X120710000Y-68210000D01*
X138965879Y-68210000D01*
X138776679Y-68288370D01*
G36*
X157036505Y-91756839D02*
X157208191Y-91928525D01*
X157005064Y-91792800D01*
X156739622Y-91740000D01*
X156650000Y-91722173D01*
X156560378Y-91740000D01*
X155438025Y-91740000D01*
X155613327Y-91564699D01*
X155710000Y-91331310D01*
X155710000Y-91190750D01*
X155551250Y-91032000D01*
X154427000Y-91032000D01*
X154427000Y-91052000D01*
X154173000Y-91052000D01*
X154173000Y-91032000D01*
X154153000Y-91032000D01*
X154153000Y-90778000D01*
X154173000Y-90778000D01*
X154173000Y-90758000D01*
X154427000Y-90758000D01*
X154427000Y-90778000D01*
X155551250Y-90778000D01*
X155710000Y-90619250D01*
X155710000Y-90478690D01*
X155675807Y-90396140D01*
X157036505Y-91756839D01*
X157036505Y-91756839D01*
G37*
X157036505Y-91756839D02*
X157208191Y-91928525D01*
X157005064Y-91792800D01*
X156739622Y-91740000D01*
X156650000Y-91722173D01*
X156560378Y-91740000D01*
X155438025Y-91740000D01*
X155613327Y-91564699D01*
X155710000Y-91331310D01*
X155710000Y-91190750D01*
X155551250Y-91032000D01*
X154427000Y-91032000D01*
X154427000Y-91052000D01*
X154173000Y-91052000D01*
X154173000Y-91032000D01*
X154153000Y-91032000D01*
X154153000Y-90778000D01*
X154173000Y-90778000D01*
X154173000Y-90758000D01*
X154427000Y-90758000D01*
X154427000Y-90778000D01*
X155551250Y-90778000D01*
X155710000Y-90619250D01*
X155710000Y-90478690D01*
X155675807Y-90396140D01*
X157036505Y-91756839D01*
G36*
X156793161Y-77264195D02*
X156843927Y-77340173D01*
X157144936Y-77541300D01*
X157410378Y-77594100D01*
X157410379Y-77594100D01*
X157499999Y-77611927D01*
X157589620Y-77594100D01*
X164085415Y-77594100D01*
X165365001Y-78873686D01*
X165365001Y-79439886D01*
X165021469Y-79954019D01*
X164879051Y-80670000D01*
X165021469Y-81385981D01*
X165365001Y-81900114D01*
X165365000Y-87038067D01*
X164973067Y-87430000D01*
X162911860Y-87430000D01*
X162917827Y-87400001D01*
X162900000Y-87310379D01*
X162900000Y-84229620D01*
X162917827Y-84139999D01*
X162900000Y-84050378D01*
X162847200Y-83784936D01*
X162646073Y-83483927D01*
X162570096Y-83433161D01*
X161653390Y-82516456D01*
X161793454Y-82509778D01*
X162194005Y-82343864D01*
X162268139Y-82097745D01*
X161440000Y-81269605D01*
X161425858Y-81283748D01*
X161246252Y-81104142D01*
X161260395Y-81090000D01*
X161619605Y-81090000D01*
X162447745Y-81918139D01*
X162693864Y-81844005D01*
X162886965Y-81306777D01*
X162859778Y-80736546D01*
X162693864Y-80335995D01*
X162447745Y-80261861D01*
X161619605Y-81090000D01*
X161260395Y-81090000D01*
X160432255Y-80261861D01*
X160186136Y-80335995D01*
X160183710Y-80342746D01*
X160156534Y-80277138D01*
X159961651Y-80082255D01*
X160611861Y-80082255D01*
X161440000Y-80910395D01*
X162268139Y-80082255D01*
X162194005Y-79836136D01*
X161656777Y-79643035D01*
X161086546Y-79670222D01*
X160685995Y-79836136D01*
X160611861Y-80082255D01*
X159961651Y-80082255D01*
X159752862Y-79873466D01*
X159225439Y-79655000D01*
X158654561Y-79655000D01*
X158127138Y-79873466D01*
X157723466Y-80277138D01*
X157568811Y-80650508D01*
X157338213Y-80419910D01*
X157287443Y-80343927D01*
X156986434Y-80142800D01*
X156720992Y-80090000D01*
X156631370Y-80072173D01*
X156606513Y-80077117D01*
X156312862Y-79783466D01*
X155785439Y-79565000D01*
X155214561Y-79565000D01*
X154687138Y-79783466D01*
X154283466Y-80187138D01*
X154250000Y-80267932D01*
X154216534Y-80187138D01*
X153812862Y-79783466D01*
X153285439Y-79565000D01*
X152714561Y-79565000D01*
X152187138Y-79783466D01*
X151783466Y-80187138D01*
X151565000Y-80714561D01*
X151565000Y-81285439D01*
X151783466Y-81812862D01*
X152090000Y-82119396D01*
X152090001Y-86879690D01*
X152047173Y-87095000D01*
X152117800Y-87450064D01*
X152199962Y-87573028D01*
X150826843Y-86199910D01*
X150776073Y-86123927D01*
X150700093Y-86073159D01*
X150294600Y-85667667D01*
X150294600Y-81664216D01*
X150312426Y-81574599D01*
X150294600Y-81484982D01*
X150294600Y-81484978D01*
X150241800Y-81219536D01*
X150040673Y-80918527D01*
X149964696Y-80867761D01*
X148156771Y-79059838D01*
X148194577Y-79034577D01*
X148511740Y-78559909D01*
X148623113Y-78000000D01*
X148511740Y-77440091D01*
X148194577Y-76965423D01*
X147719909Y-76648260D01*
X147301333Y-76565000D01*
X147018667Y-76565000D01*
X146648254Y-76638680D01*
X146876934Y-76410000D01*
X155938966Y-76410000D01*
X156793161Y-77264195D01*
X156793161Y-77264195D01*
G37*
X156793161Y-77264195D02*
X156843927Y-77340173D01*
X157144936Y-77541300D01*
X157410378Y-77594100D01*
X157410379Y-77594100D01*
X157499999Y-77611927D01*
X157589620Y-77594100D01*
X164085415Y-77594100D01*
X165365001Y-78873686D01*
X165365001Y-79439886D01*
X165021469Y-79954019D01*
X164879051Y-80670000D01*
X165021469Y-81385981D01*
X165365001Y-81900114D01*
X165365000Y-87038067D01*
X164973067Y-87430000D01*
X162911860Y-87430000D01*
X162917827Y-87400001D01*
X162900000Y-87310379D01*
X162900000Y-84229620D01*
X162917827Y-84139999D01*
X162900000Y-84050378D01*
X162847200Y-83784936D01*
X162646073Y-83483927D01*
X162570096Y-83433161D01*
X161653390Y-82516456D01*
X161793454Y-82509778D01*
X162194005Y-82343864D01*
X162268139Y-82097745D01*
X161440000Y-81269605D01*
X161425858Y-81283748D01*
X161246252Y-81104142D01*
X161260395Y-81090000D01*
X161619605Y-81090000D01*
X162447745Y-81918139D01*
X162693864Y-81844005D01*
X162886965Y-81306777D01*
X162859778Y-80736546D01*
X162693864Y-80335995D01*
X162447745Y-80261861D01*
X161619605Y-81090000D01*
X161260395Y-81090000D01*
X160432255Y-80261861D01*
X160186136Y-80335995D01*
X160183710Y-80342746D01*
X160156534Y-80277138D01*
X159961651Y-80082255D01*
X160611861Y-80082255D01*
X161440000Y-80910395D01*
X162268139Y-80082255D01*
X162194005Y-79836136D01*
X161656777Y-79643035D01*
X161086546Y-79670222D01*
X160685995Y-79836136D01*
X160611861Y-80082255D01*
X159961651Y-80082255D01*
X159752862Y-79873466D01*
X159225439Y-79655000D01*
X158654561Y-79655000D01*
X158127138Y-79873466D01*
X157723466Y-80277138D01*
X157568811Y-80650508D01*
X157338213Y-80419910D01*
X157287443Y-80343927D01*
X156986434Y-80142800D01*
X156720992Y-80090000D01*
X156631370Y-80072173D01*
X156606513Y-80077117D01*
X156312862Y-79783466D01*
X155785439Y-79565000D01*
X155214561Y-79565000D01*
X154687138Y-79783466D01*
X154283466Y-80187138D01*
X154250000Y-80267932D01*
X154216534Y-80187138D01*
X153812862Y-79783466D01*
X153285439Y-79565000D01*
X152714561Y-79565000D01*
X152187138Y-79783466D01*
X151783466Y-80187138D01*
X151565000Y-80714561D01*
X151565000Y-81285439D01*
X151783466Y-81812862D01*
X152090000Y-82119396D01*
X152090001Y-86879690D01*
X152047173Y-87095000D01*
X152117800Y-87450064D01*
X152199962Y-87573028D01*
X150826843Y-86199910D01*
X150776073Y-86123927D01*
X150700093Y-86073159D01*
X150294600Y-85667667D01*
X150294600Y-81664216D01*
X150312426Y-81574599D01*
X150294600Y-81484982D01*
X150294600Y-81484978D01*
X150241800Y-81219536D01*
X150040673Y-80918527D01*
X149964696Y-80867761D01*
X148156771Y-79059838D01*
X148194577Y-79034577D01*
X148511740Y-78559909D01*
X148623113Y-78000000D01*
X148511740Y-77440091D01*
X148194577Y-76965423D01*
X147719909Y-76648260D01*
X147301333Y-76565000D01*
X147018667Y-76565000D01*
X146648254Y-76638680D01*
X146876934Y-76410000D01*
X155938966Y-76410000D01*
X156793161Y-77264195D01*
G04 #@! TD*
M02*
