G04 #@! TF.GenerationSoftware,KiCad,Pcbnew,(5.0.1)-3*
G04 #@! TF.CreationDate,2021-02-18T11:14:39+05:45*
G04 #@! TF.ProjectId,Battery-Charger,426174746572792D436861726765722E,rev?*
G04 #@! TF.SameCoordinates,Original*
G04 #@! TF.FileFunction,Copper,L2,Bot,Signal*
G04 #@! TF.FilePolarity,Positive*
%FSLAX46Y46*%
G04 Gerber Fmt 4.6, Leading zero omitted, Abs format (unit mm)*
G04 Created by KiCad (PCBNEW (5.0.1)-3) date 2/18/2021 11:14:39 AM*
%MOMM*%
%LPD*%
G01*
G04 APERTURE LIST*
G04 #@! TA.AperFunction,ComponentPad*
%ADD10C,1.600000*%
G04 #@! TD*
G04 #@! TA.AperFunction,ComponentPad*
%ADD11R,1.600000X1.600000*%
G04 #@! TD*
G04 #@! TA.AperFunction,ComponentPad*
%ADD12R,2.200000X2.200000*%
G04 #@! TD*
G04 #@! TA.AperFunction,ComponentPad*
%ADD13O,2.200000X2.200000*%
G04 #@! TD*
G04 #@! TA.AperFunction,ComponentPad*
%ADD14R,1.800000X1.800000*%
G04 #@! TD*
G04 #@! TA.AperFunction,ComponentPad*
%ADD15C,1.800000*%
G04 #@! TD*
G04 #@! TA.AperFunction,ComponentPad*
%ADD16O,1.600000X1.600000*%
G04 #@! TD*
G04 #@! TA.AperFunction,ComponentPad*
%ADD17R,3.000000X3.000000*%
G04 #@! TD*
G04 #@! TA.AperFunction,ComponentPad*
%ADD18C,3.000000*%
G04 #@! TD*
G04 #@! TA.AperFunction,ComponentPad*
%ADD19O,1.400000X2.800000*%
G04 #@! TD*
G04 #@! TA.AperFunction,ComponentPad*
%ADD20O,2.800000X1.400000*%
G04 #@! TD*
G04 #@! TA.AperFunction,ComponentPad*
%ADD21O,1.050000X1.500000*%
G04 #@! TD*
G04 #@! TA.AperFunction,ComponentPad*
%ADD22R,1.050000X1.500000*%
G04 #@! TD*
G04 #@! TA.AperFunction,ComponentPad*
%ADD23R,1.860000X1.860000*%
G04 #@! TD*
G04 #@! TA.AperFunction,ComponentPad*
%ADD24C,1.860000*%
G04 #@! TD*
G04 #@! TA.AperFunction,ComponentPad*
%ADD25C,1.498000*%
G04 #@! TD*
G04 #@! TA.AperFunction,ComponentPad*
%ADD26R,1.498000X1.498000*%
G04 #@! TD*
G04 #@! TA.AperFunction,ComponentPad*
%ADD27C,2.400000*%
G04 #@! TD*
G04 #@! TA.AperFunction,ComponentPad*
%ADD28O,2.400000X2.400000*%
G04 #@! TD*
G04 #@! TA.AperFunction,ViaPad*
%ADD29C,0.800000*%
G04 #@! TD*
G04 #@! TA.AperFunction,Conductor*
%ADD30C,0.550000*%
G04 #@! TD*
G04 #@! TA.AperFunction,Conductor*
%ADD31C,1.000000*%
G04 #@! TD*
G04 #@! TA.AperFunction,Conductor*
%ADD32C,1.500000*%
G04 #@! TD*
G04 #@! TA.AperFunction,Conductor*
%ADD33C,1.400000*%
G04 #@! TD*
G04 #@! TA.AperFunction,Conductor*
%ADD34C,0.254000*%
G04 #@! TD*
G04 APERTURE END LIST*
D10*
G04 #@! TO.P,C1,2*
G04 #@! TO.N,GND*
X132500000Y-101500000D03*
D11*
G04 #@! TO.P,C1,1*
G04 #@! TO.N,Net-(C1-Pad1)*
X130500000Y-101500000D03*
G04 #@! TD*
D12*
G04 #@! TO.P,D1,1*
G04 #@! TO.N,Net-(D1-Pad1)*
X133500000Y-86000000D03*
D13*
G04 #@! TO.P,D1,2*
G04 #@! TO.N,Net-(C1-Pad1)*
X133500000Y-96160000D03*
G04 #@! TD*
D14*
G04 #@! TO.P,D2,1*
G04 #@! TO.N,Net-(D2-Pad1)*
X159230000Y-99920000D03*
D15*
G04 #@! TO.P,D2,2*
G04 #@! TO.N,Net-(C1-Pad1)*
X161770000Y-99920000D03*
G04 #@! TD*
D11*
G04 #@! TO.P,D3,1*
G04 #@! TO.N,Net-(D3-Pad1)*
X138500000Y-95500000D03*
D16*
G04 #@! TO.P,D3,2*
G04 #@! TO.N,Net-(D3-Pad2)*
X146120000Y-95500000D03*
G04 #@! TD*
D17*
G04 #@! TO.P,J1,1*
G04 #@! TO.N,Net-(C3-Pad1)*
X175500000Y-90000000D03*
D18*
G04 #@! TO.P,J1,2*
G04 #@! TO.N,GND*
X175500000Y-84920000D03*
G04 #@! TD*
D19*
G04 #@! TO.P,J2,2*
G04 #@! TO.N,GND*
X126420000Y-72500000D03*
G04 #@! TO.P,J2,1*
G04 #@! TO.N,Net-(D1-Pad1)*
X132420000Y-72500000D03*
D20*
G04 #@! TO.P,J2,3*
G04 #@! TO.N,N/C*
X129920000Y-76500000D03*
G04 #@! TD*
D21*
G04 #@! TO.P,Q1,2*
G04 #@! TO.N,Net-(D3-Pad2)*
X152500000Y-102000000D03*
G04 #@! TO.P,Q1,3*
G04 #@! TO.N,GND*
X153770000Y-102000000D03*
D22*
G04 #@! TO.P,Q1,1*
G04 #@! TO.N,Net-(Q1-Pad1)*
X151230000Y-102000000D03*
G04 #@! TD*
D16*
G04 #@! TO.P,R2,2*
G04 #@! TO.N,Net-(C5-Pad1)*
X147160000Y-78000000D03*
D10*
G04 #@! TO.P,R2,1*
G04 #@! TO.N,Net-(C1-Pad1)*
X137000000Y-78000000D03*
G04 #@! TD*
G04 #@! TO.P,R3,1*
G04 #@! TO.N,Net-(C5-Pad1)*
X137000000Y-81500000D03*
D16*
G04 #@! TO.P,R3,2*
G04 #@! TO.N,Net-(C2-Pad1)*
X147160000Y-81500000D03*
G04 #@! TD*
D10*
G04 #@! TO.P,R4,1*
G04 #@! TO.N,Net-(D2-Pad1)*
X137000000Y-85000000D03*
D16*
G04 #@! TO.P,R4,2*
G04 #@! TO.N,Net-(Q1-Pad1)*
X147160000Y-85000000D03*
G04 #@! TD*
D10*
G04 #@! TO.P,R5,1*
G04 #@! TO.N,Net-(C2-Pad1)*
X137000000Y-88500000D03*
D16*
G04 #@! TO.P,R5,2*
G04 #@! TO.N,Net-(D3-Pad2)*
X147160000Y-88500000D03*
G04 #@! TD*
G04 #@! TO.P,R6,2*
G04 #@! TO.N,GND*
X147160000Y-92000000D03*
D10*
G04 #@! TO.P,R6,1*
G04 #@! TO.N,Net-(C2-Pad1)*
X137000000Y-92000000D03*
G04 #@! TD*
D23*
G04 #@! TO.P,U1,1*
G04 #@! TO.N,Net-(C2-Pad1)*
X128000000Y-93040000D03*
D24*
G04 #@! TO.P,U1,2*
G04 #@! TO.N,Net-(C1-Pad1)*
X128000000Y-90500000D03*
G04 #@! TO.P,U1,3*
G04 #@! TO.N,Net-(D1-Pad1)*
X128000000Y-87960000D03*
G04 #@! TD*
D10*
G04 #@! TO.P,C2,1*
G04 #@! TO.N,Net-(C2-Pad1)*
X124000000Y-80500000D03*
G04 #@! TO.P,C2,2*
G04 #@! TO.N,GND*
X126500000Y-80500000D03*
G04 #@! TD*
G04 #@! TO.P,C3,1*
G04 #@! TO.N,Net-(C3-Pad1)*
X175500000Y-96500000D03*
G04 #@! TO.P,C3,2*
G04 #@! TO.N,GND*
X175500000Y-99000000D03*
G04 #@! TD*
G04 #@! TO.P,C4,2*
G04 #@! TO.N,Net-(C4-Pad2)*
X155500000Y-81000000D03*
G04 #@! TO.P,C4,1*
G04 #@! TO.N,Net-(C4-Pad1)*
X153000000Y-81000000D03*
G04 #@! TD*
D25*
G04 #@! TO.P,SW1,3*
G04 #@! TO.N,GND*
X146000000Y-69500000D03*
D26*
G04 #@! TO.P,SW1,1*
G04 #@! TO.N,Net-(C4-Pad1)*
X146000000Y-74000000D03*
D25*
G04 #@! TO.P,SW1,4*
G04 #@! TO.N,GND*
X139500000Y-69500000D03*
G04 #@! TO.P,SW1,2*
G04 #@! TO.N,Net-(C4-Pad1)*
X139500000Y-74000000D03*
G04 #@! TD*
D27*
G04 #@! TO.P,R1,1*
G04 #@! TO.N,Net-(C3-Pad1)*
X166750000Y-103070000D03*
D28*
G04 #@! TO.P,R1,2*
G04 #@! TO.N,Net-(C1-Pad1)*
X166750000Y-80670000D03*
G04 #@! TD*
D10*
G04 #@! TO.P,C5,2*
G04 #@! TO.N,GND*
X156000000Y-95000000D03*
G04 #@! TO.P,C5,1*
G04 #@! TO.N,Net-(C5-Pad1)*
X153500000Y-95000000D03*
G04 #@! TD*
G04 #@! TO.P,C6,1*
G04 #@! TO.N,Net-(C1-Pad1)*
X158940000Y-81090000D03*
G04 #@! TO.P,C6,2*
G04 #@! TO.N,GND*
X161440000Y-81090000D03*
G04 #@! TD*
D29*
G04 #@! TO.N,Net-(D2-Pad1)*
X139400000Y-82610000D03*
G04 #@! TO.N,Net-(D3-Pad1)*
X157458500Y-89635000D03*
G04 #@! TO.N,Net-(C5-Pad1)*
X149930000Y-91540000D03*
X149893719Y-87806281D03*
G04 #@! TD*
D30*
G04 #@! TO.N,GND*
X126420000Y-72500000D02*
X126420000Y-80420000D01*
X126420000Y-80420000D02*
X126500000Y-80500000D01*
G04 #@! TO.N,Net-(C1-Pad1)*
X129874600Y-90500000D02*
X129874600Y-90884600D01*
X129874600Y-90884600D02*
X133500000Y-94510000D01*
X137000000Y-78000000D02*
X129874600Y-85125400D01*
X129874600Y-85125400D02*
X129874600Y-90500000D01*
X129874600Y-90500000D02*
X128000000Y-90500000D01*
X166750000Y-80670000D02*
X166750000Y-94940000D01*
X166750000Y-94940000D02*
X161770000Y-99920000D01*
X133500000Y-96160000D02*
X133500000Y-94510000D01*
G04 #@! TO.N,Net-(C2-Pad1)*
X137000000Y-88500000D02*
X137000000Y-92000000D01*
D31*
X128000000Y-93040000D02*
X125050000Y-93040000D01*
X124000000Y-91990000D02*
X124000000Y-87450000D01*
X125050000Y-93040000D02*
X124000000Y-91990000D01*
X124000000Y-87450000D02*
X124000000Y-80500000D01*
D30*
X138131370Y-88500000D02*
X140730000Y-85901370D01*
X137000000Y-88500000D02*
X138131370Y-88500000D01*
X140730000Y-84960000D02*
X144190000Y-81500000D01*
X140730000Y-85901370D02*
X140730000Y-84960000D01*
X144190000Y-81500000D02*
X147160000Y-81500000D01*
D32*
G04 #@! TO.N,Net-(C3-Pad1)*
X166750000Y-103070000D02*
X173320000Y-96500000D01*
D33*
X173320000Y-96500000D02*
X175500000Y-96500000D01*
D30*
G04 #@! TO.N,Net-(C4-Pad1)*
X146000000Y-74000000D02*
X148290000Y-74000000D01*
X153000000Y-78710000D02*
X153000000Y-81000000D01*
X148290000Y-74000000D02*
X153000000Y-78710000D01*
D31*
G04 #@! TO.N,Net-(D1-Pad1)*
X132420000Y-74450000D02*
X133360000Y-75390000D01*
X132420000Y-72500000D02*
X132420000Y-74450000D01*
X133360000Y-75390000D02*
X133360000Y-78910000D01*
X128000000Y-84270000D02*
X128000000Y-87960000D01*
X133360000Y-78910000D02*
X128000000Y-84270000D01*
D30*
G04 #@! TO.N,Net-(D2-Pad1)*
X137000000Y-85000000D02*
X137010000Y-85000000D01*
X137010000Y-85000000D02*
X139400000Y-82610000D01*
G04 #@! TO.N,Net-(D3-Pad1)*
X151541500Y-83718000D02*
X157458500Y-89635000D01*
X146614300Y-83718000D02*
X151541500Y-83718000D01*
X141690000Y-88642300D02*
X146614300Y-83718000D01*
X141690000Y-93660000D02*
X141690000Y-88642300D01*
X139850000Y-95500000D02*
X141690000Y-93660000D01*
X138500000Y-95500000D02*
X139850000Y-95500000D01*
G04 #@! TO.N,Net-(D3-Pad2)*
X146028630Y-88500000D02*
X144690000Y-89838630D01*
X147160000Y-88500000D02*
X146028630Y-88500000D01*
X144690000Y-94070000D02*
X146120000Y-95500000D01*
X144690000Y-89838630D02*
X144690000Y-94070000D01*
G04 #@! TO.N,Net-(Q1-Pad1)*
X151230000Y-100490000D02*
X151230000Y-102000000D01*
X150900000Y-100160000D02*
X151230000Y-100490000D01*
X150900000Y-85900000D02*
X150900000Y-100160000D01*
X150000000Y-85000000D02*
X150900000Y-85900000D01*
X147160000Y-85000000D02*
X150000000Y-85000000D01*
G04 #@! TO.N,Net-(C5-Pad1)*
X149930000Y-91540000D02*
X149930000Y-87842562D01*
X149930000Y-87842562D02*
X149893719Y-87806281D01*
G04 #@! TD*
D34*
G04 #@! TO.N,GND*
G36*
X138776679Y-68288370D02*
X138708813Y-68529207D01*
X139500000Y-69320395D01*
X140291187Y-68529207D01*
X140223321Y-68288370D01*
X140003068Y-68210000D01*
X145465879Y-68210000D01*
X145276679Y-68288370D01*
X145208813Y-68529207D01*
X146000000Y-69320395D01*
X146791187Y-68529207D01*
X146723321Y-68288370D01*
X146503068Y-68210000D01*
X172474281Y-68210000D01*
X173479908Y-68282967D01*
X174439294Y-68494780D01*
X175358047Y-68842864D01*
X176216931Y-69319931D01*
X176997953Y-69915988D01*
X177684751Y-70618548D01*
X178262934Y-71412889D01*
X178720391Y-72282374D01*
X179047546Y-73208797D01*
X179238318Y-74176700D01*
X179290000Y-75021698D01*
X179290001Y-104290000D01*
X168125082Y-104290000D01*
X168305638Y-104109444D01*
X168585000Y-103435004D01*
X168585000Y-103193685D01*
X171770940Y-100007745D01*
X174671861Y-100007745D01*
X174745995Y-100253864D01*
X175283223Y-100446965D01*
X175853454Y-100419778D01*
X176254005Y-100253864D01*
X176328139Y-100007745D01*
X175500000Y-99179605D01*
X174671861Y-100007745D01*
X171770940Y-100007745D01*
X172995462Y-98783223D01*
X174053035Y-98783223D01*
X174080222Y-99353454D01*
X174246136Y-99754005D01*
X174492255Y-99828139D01*
X175320395Y-99000000D01*
X175679605Y-99000000D01*
X176507745Y-99828139D01*
X176753864Y-99754005D01*
X176946965Y-99216777D01*
X176919778Y-98646546D01*
X176753864Y-98245995D01*
X176507745Y-98171861D01*
X175679605Y-99000000D01*
X175320395Y-99000000D01*
X174492255Y-98171861D01*
X174246136Y-98245995D01*
X174053035Y-98783223D01*
X172995462Y-98783223D01*
X173943686Y-97835000D01*
X174719228Y-97835000D01*
X174671861Y-97992255D01*
X175500000Y-98820395D01*
X176328139Y-97992255D01*
X176254005Y-97746136D01*
X176247254Y-97743710D01*
X176312862Y-97716534D01*
X176716534Y-97312862D01*
X176935000Y-96785439D01*
X176935000Y-96214561D01*
X176716534Y-95687138D01*
X176312862Y-95283466D01*
X175785439Y-95065000D01*
X175214561Y-95065000D01*
X174973140Y-95165000D01*
X173707770Y-95165000D01*
X173319999Y-95087867D01*
X172779599Y-95195360D01*
X172437111Y-95424203D01*
X166626315Y-101235000D01*
X166384996Y-101235000D01*
X165710556Y-101514362D01*
X165194362Y-102030556D01*
X164915000Y-102704996D01*
X164915000Y-103435004D01*
X165194362Y-104109444D01*
X165374918Y-104290000D01*
X127525719Y-104290000D01*
X126520093Y-104217033D01*
X125560710Y-104005222D01*
X124641953Y-103657136D01*
X123783069Y-103180069D01*
X123002046Y-102584011D01*
X122315249Y-101881452D01*
X121737068Y-101087113D01*
X121279609Y-100217625D01*
X121080885Y-99654887D01*
X123265000Y-99654887D01*
X123265000Y-100345113D01*
X123529138Y-100982799D01*
X124017201Y-101470862D01*
X124654887Y-101735000D01*
X125345113Y-101735000D01*
X125982799Y-101470862D01*
X126470862Y-100982799D01*
X126588001Y-100700000D01*
X129052560Y-100700000D01*
X129052560Y-102300000D01*
X129101843Y-102547765D01*
X129242191Y-102757809D01*
X129452235Y-102898157D01*
X129700000Y-102947440D01*
X131300000Y-102947440D01*
X131547765Y-102898157D01*
X131757516Y-102758005D01*
X132283223Y-102946965D01*
X132853454Y-102919778D01*
X133254005Y-102753864D01*
X133328139Y-102507745D01*
X132500000Y-101679605D01*
X132485858Y-101693748D01*
X132306253Y-101514143D01*
X132320395Y-101500000D01*
X132679605Y-101500000D01*
X133507745Y-102328139D01*
X133753864Y-102254005D01*
X133946965Y-101716777D01*
X133919778Y-101146546D01*
X133753864Y-100745995D01*
X133507745Y-100671861D01*
X132679605Y-101500000D01*
X132320395Y-101500000D01*
X132306253Y-101485858D01*
X132485858Y-101306252D01*
X132500000Y-101320395D01*
X133328139Y-100492255D01*
X133254005Y-100246136D01*
X132716777Y-100053035D01*
X132146546Y-100080222D01*
X131756933Y-100241605D01*
X131547765Y-100101843D01*
X131300000Y-100052560D01*
X129700000Y-100052560D01*
X129452235Y-100101843D01*
X129242191Y-100242191D01*
X129101843Y-100452235D01*
X129052560Y-100700000D01*
X126588001Y-100700000D01*
X126735000Y-100345113D01*
X126735000Y-99654887D01*
X126470862Y-99017201D01*
X125982799Y-98529138D01*
X125345113Y-98265000D01*
X124654887Y-98265000D01*
X124017201Y-98529138D01*
X123529138Y-99017201D01*
X123265000Y-99654887D01*
X121080885Y-99654887D01*
X120952454Y-99291203D01*
X120761682Y-98323300D01*
X120710000Y-97478302D01*
X120710000Y-80214561D01*
X122565000Y-80214561D01*
X122565000Y-80785439D01*
X122783466Y-81312862D01*
X122865001Y-81394397D01*
X122865000Y-87561782D01*
X122865001Y-87561787D01*
X122865000Y-91878217D01*
X122842765Y-91990000D01*
X122888855Y-92221711D01*
X122930854Y-92432854D01*
X123181711Y-92808289D01*
X123276481Y-92871613D01*
X124168389Y-93763521D01*
X124231711Y-93858289D01*
X124607145Y-94109146D01*
X124938217Y-94175000D01*
X125049999Y-94197235D01*
X125161781Y-94175000D01*
X126463337Y-94175000D01*
X126471843Y-94217765D01*
X126612191Y-94427809D01*
X126822235Y-94568157D01*
X127070000Y-94617440D01*
X128930000Y-94617440D01*
X129177765Y-94568157D01*
X129387809Y-94427809D01*
X129528157Y-94217765D01*
X129577440Y-93970000D01*
X129577440Y-92110000D01*
X129528157Y-91862235D01*
X129453358Y-91750291D01*
X132466777Y-94763711D01*
X132249135Y-94909135D01*
X131865666Y-95483037D01*
X131731010Y-96160000D01*
X131865666Y-96836963D01*
X132249135Y-97410865D01*
X132823037Y-97794334D01*
X133329120Y-97895000D01*
X133670880Y-97895000D01*
X134176963Y-97794334D01*
X134750865Y-97410865D01*
X135134334Y-96836963D01*
X135268990Y-96160000D01*
X135134334Y-95483037D01*
X134750865Y-94909135D01*
X134410000Y-94681376D01*
X134410000Y-94599622D01*
X134427827Y-94510000D01*
X134357200Y-94154936D01*
X134326604Y-94109146D01*
X134156073Y-93853927D01*
X134080093Y-93803159D01*
X130798197Y-90521264D01*
X130802427Y-90500000D01*
X130784600Y-90410378D01*
X130784600Y-88214561D01*
X135565000Y-88214561D01*
X135565000Y-88785439D01*
X135783466Y-89312862D01*
X136090000Y-89619396D01*
X136090001Y-90880603D01*
X135783466Y-91187138D01*
X135565000Y-91714561D01*
X135565000Y-92285439D01*
X135783466Y-92812862D01*
X136187138Y-93216534D01*
X136714561Y-93435000D01*
X137285439Y-93435000D01*
X137812862Y-93216534D01*
X138216534Y-92812862D01*
X138435000Y-92285439D01*
X138435000Y-91714561D01*
X138216534Y-91187138D01*
X137910000Y-90880604D01*
X137910000Y-89619396D01*
X138106513Y-89422883D01*
X138131370Y-89427827D01*
X138220992Y-89410000D01*
X138486434Y-89357200D01*
X138787443Y-89156073D01*
X138838213Y-89080090D01*
X141310093Y-86608211D01*
X141386073Y-86557443D01*
X141587200Y-86256434D01*
X141640000Y-85990992D01*
X141640000Y-85990991D01*
X141657827Y-85901370D01*
X141640000Y-85811748D01*
X141640000Y-85336933D01*
X144566934Y-82410000D01*
X146042183Y-82410000D01*
X146125423Y-82534577D01*
X146532347Y-82806475D01*
X146524678Y-82808000D01*
X146259236Y-82860800D01*
X145958227Y-83061927D01*
X145907459Y-83137907D01*
X141109908Y-87935459D01*
X141033928Y-87986227D01*
X140927882Y-88144937D01*
X140832800Y-88287237D01*
X140762173Y-88642300D01*
X140780001Y-88731927D01*
X140780000Y-93283066D01*
X139783070Y-94279997D01*
X139757809Y-94242191D01*
X139547765Y-94101843D01*
X139300000Y-94052560D01*
X137700000Y-94052560D01*
X137452235Y-94101843D01*
X137242191Y-94242191D01*
X137101843Y-94452235D01*
X137052560Y-94700000D01*
X137052560Y-96300000D01*
X137101843Y-96547765D01*
X137242191Y-96757809D01*
X137452235Y-96898157D01*
X137700000Y-96947440D01*
X139300000Y-96947440D01*
X139547765Y-96898157D01*
X139757809Y-96757809D01*
X139898157Y-96547765D01*
X139924981Y-96412912D01*
X139939622Y-96410000D01*
X140205064Y-96357200D01*
X140506073Y-96156073D01*
X140556843Y-96080090D01*
X142270093Y-94366841D01*
X142346073Y-94316073D01*
X142547200Y-94015064D01*
X142600000Y-93749622D01*
X142600000Y-93749621D01*
X142617827Y-93660000D01*
X142600000Y-93570378D01*
X142600000Y-89838630D01*
X143762173Y-89838630D01*
X143780000Y-89928252D01*
X143780001Y-93980374D01*
X143762173Y-94070000D01*
X143832800Y-94425063D01*
X143832801Y-94425064D01*
X144033928Y-94726073D01*
X144109908Y-94776841D01*
X144686117Y-95353051D01*
X144656887Y-95500000D01*
X144768260Y-96059909D01*
X145085423Y-96534577D01*
X145560091Y-96851740D01*
X145978667Y-96935000D01*
X146261333Y-96935000D01*
X146679909Y-96851740D01*
X147154577Y-96534577D01*
X147471740Y-96059909D01*
X147583113Y-95500000D01*
X147471740Y-94940091D01*
X147154577Y-94465423D01*
X146679909Y-94148260D01*
X146261333Y-94065000D01*
X145978667Y-94065000D01*
X145973051Y-94066117D01*
X145600000Y-93693067D01*
X145600000Y-92349039D01*
X145768096Y-92349039D01*
X145928959Y-92737423D01*
X146304866Y-93152389D01*
X146810959Y-93391914D01*
X147033000Y-93270629D01*
X147033000Y-92127000D01*
X147287000Y-92127000D01*
X147287000Y-93270629D01*
X147509041Y-93391914D01*
X148015134Y-93152389D01*
X148391041Y-92737423D01*
X148551904Y-92349039D01*
X148429915Y-92127000D01*
X147287000Y-92127000D01*
X147033000Y-92127000D01*
X145890085Y-92127000D01*
X145768096Y-92349039D01*
X145600000Y-92349039D01*
X145600000Y-91650961D01*
X145768096Y-91650961D01*
X145890085Y-91873000D01*
X147033000Y-91873000D01*
X147033000Y-90729371D01*
X147287000Y-90729371D01*
X147287000Y-91873000D01*
X148429915Y-91873000D01*
X148551904Y-91650961D01*
X148391041Y-91262577D01*
X148015134Y-90847611D01*
X147509041Y-90608086D01*
X147287000Y-90729371D01*
X147033000Y-90729371D01*
X146810959Y-90608086D01*
X146304866Y-90847611D01*
X145928959Y-91262577D01*
X145768096Y-91650961D01*
X145600000Y-91650961D01*
X145600000Y-90215563D01*
X146218677Y-89596887D01*
X146600091Y-89851740D01*
X147018667Y-89935000D01*
X147301333Y-89935000D01*
X147719909Y-89851740D01*
X148194577Y-89534577D01*
X148511740Y-89059909D01*
X148623113Y-88500000D01*
X148511740Y-87940091D01*
X148194577Y-87465423D01*
X147719909Y-87148260D01*
X147301333Y-87065000D01*
X147018667Y-87065000D01*
X146600091Y-87148260D01*
X146125423Y-87465423D01*
X146051107Y-87576644D01*
X146028630Y-87572173D01*
X145939008Y-87590000D01*
X145673566Y-87642800D01*
X145372557Y-87843927D01*
X145321790Y-87919906D01*
X144109910Y-89131787D01*
X144033927Y-89182557D01*
X143881956Y-89410000D01*
X143832800Y-89483567D01*
X143762173Y-89838630D01*
X142600000Y-89838630D01*
X142600000Y-89019233D01*
X145908822Y-85710411D01*
X146125423Y-86034577D01*
X146600091Y-86351740D01*
X147018667Y-86435000D01*
X147301333Y-86435000D01*
X147719909Y-86351740D01*
X148194577Y-86034577D01*
X148277817Y-85910000D01*
X149623067Y-85910000D01*
X149990000Y-86276934D01*
X149990000Y-86771281D01*
X149687845Y-86771281D01*
X149307439Y-86928850D01*
X149016288Y-87220001D01*
X148858719Y-87600407D01*
X148858719Y-88012155D01*
X149016288Y-88392561D01*
X149020001Y-88396274D01*
X149020000Y-91032348D01*
X148895000Y-91334126D01*
X148895000Y-91745874D01*
X149052569Y-92126280D01*
X149343720Y-92417431D01*
X149724126Y-92575000D01*
X149990000Y-92575000D01*
X149990001Y-100070373D01*
X149972173Y-100160000D01*
X150042800Y-100515063D01*
X150101264Y-100602560D01*
X150237581Y-100806574D01*
X150106843Y-101002235D01*
X150057560Y-101250000D01*
X150057560Y-102750000D01*
X150106843Y-102997765D01*
X150247191Y-103207809D01*
X150457235Y-103348157D01*
X150705000Y-103397440D01*
X151755000Y-103397440D01*
X152002765Y-103348157D01*
X152048134Y-103317842D01*
X152500000Y-103407725D01*
X152952609Y-103317695D01*
X153144996Y-103189146D01*
X153402664Y-103335266D01*
X153464190Y-103343964D01*
X153643000Y-103218163D01*
X153643000Y-102424709D01*
X153660000Y-102339245D01*
X153660000Y-102127000D01*
X153897000Y-102127000D01*
X153897000Y-103218163D01*
X154075810Y-103343964D01*
X154137336Y-103335266D01*
X154534255Y-103110179D01*
X154814823Y-102750331D01*
X154936326Y-102310506D01*
X154776593Y-102127000D01*
X153897000Y-102127000D01*
X153660000Y-102127000D01*
X153660000Y-101660754D01*
X153643000Y-101575290D01*
X153643000Y-100781837D01*
X153897000Y-100781837D01*
X153897000Y-101873000D01*
X154776593Y-101873000D01*
X154936326Y-101689494D01*
X154814823Y-101249669D01*
X154534255Y-100889821D01*
X154137336Y-100664734D01*
X154075810Y-100656036D01*
X153897000Y-100781837D01*
X153643000Y-100781837D01*
X153464190Y-100656036D01*
X153402664Y-100664734D01*
X153144996Y-100810854D01*
X152952608Y-100682305D01*
X152500000Y-100592275D01*
X152140000Y-100663884D01*
X152140000Y-100579616D01*
X152157826Y-100489999D01*
X152140000Y-100400382D01*
X152140000Y-100400378D01*
X152087200Y-100134936D01*
X151886073Y-99833927D01*
X151810093Y-99783159D01*
X151810000Y-99783066D01*
X151810000Y-99020000D01*
X157682560Y-99020000D01*
X157682560Y-100820000D01*
X157731843Y-101067765D01*
X157872191Y-101277809D01*
X158082235Y-101418157D01*
X158330000Y-101467440D01*
X160130000Y-101467440D01*
X160377765Y-101418157D01*
X160587809Y-101277809D01*
X160728157Y-101067765D01*
X160731275Y-101052092D01*
X160900493Y-101221310D01*
X161464670Y-101455000D01*
X162075330Y-101455000D01*
X162639507Y-101221310D01*
X163071310Y-100789507D01*
X163305000Y-100225330D01*
X163305000Y-99671933D01*
X167330093Y-95646841D01*
X167406073Y-95596073D01*
X167607200Y-95295064D01*
X167660000Y-95029622D01*
X167677827Y-94940000D01*
X167660000Y-94850378D01*
X167660000Y-88500000D01*
X173352560Y-88500000D01*
X173352560Y-91500000D01*
X173401843Y-91747765D01*
X173542191Y-91957809D01*
X173752235Y-92098157D01*
X174000000Y-92147440D01*
X177000000Y-92147440D01*
X177247765Y-92098157D01*
X177457809Y-91957809D01*
X177598157Y-91747765D01*
X177647440Y-91500000D01*
X177647440Y-88500000D01*
X177598157Y-88252235D01*
X177457809Y-88042191D01*
X177247765Y-87901843D01*
X177000000Y-87852560D01*
X174000000Y-87852560D01*
X173752235Y-87901843D01*
X173542191Y-88042191D01*
X173401843Y-88252235D01*
X173352560Y-88500000D01*
X167660000Y-88500000D01*
X167660000Y-86433970D01*
X174165635Y-86433970D01*
X174325418Y-86752739D01*
X175116187Y-87062723D01*
X175965387Y-87046497D01*
X176674582Y-86752739D01*
X176834365Y-86433970D01*
X175500000Y-85099605D01*
X174165635Y-86433970D01*
X167660000Y-86433970D01*
X167660000Y-84536187D01*
X173357277Y-84536187D01*
X173373503Y-85385387D01*
X173667261Y-86094582D01*
X173986030Y-86254365D01*
X175320395Y-84920000D01*
X175679605Y-84920000D01*
X177013970Y-86254365D01*
X177332739Y-86094582D01*
X177642723Y-85303813D01*
X177626497Y-84454613D01*
X177332739Y-83745418D01*
X177013970Y-83585635D01*
X175679605Y-84920000D01*
X175320395Y-84920000D01*
X173986030Y-83585635D01*
X173667261Y-83745418D01*
X173357277Y-84536187D01*
X167660000Y-84536187D01*
X167660000Y-83406030D01*
X174165635Y-83406030D01*
X175500000Y-84740395D01*
X176834365Y-83406030D01*
X176674582Y-83087261D01*
X175883813Y-82777277D01*
X175034613Y-82793503D01*
X174325418Y-83087261D01*
X174165635Y-83406030D01*
X167660000Y-83406030D01*
X167660000Y-82268892D01*
X168072961Y-81992961D01*
X168478531Y-81385981D01*
X168620949Y-80670000D01*
X168478531Y-79954019D01*
X168072961Y-79347039D01*
X167465981Y-78941469D01*
X166930727Y-78835000D01*
X166569273Y-78835000D01*
X166034019Y-78941469D01*
X165427039Y-79347039D01*
X165021469Y-79954019D01*
X164879051Y-80670000D01*
X165021469Y-81385981D01*
X165427039Y-81992961D01*
X165840000Y-82268892D01*
X165840001Y-94563065D01*
X162018067Y-98385000D01*
X161464670Y-98385000D01*
X160900493Y-98618690D01*
X160731275Y-98787908D01*
X160728157Y-98772235D01*
X160587809Y-98562191D01*
X160377765Y-98421843D01*
X160130000Y-98372560D01*
X158330000Y-98372560D01*
X158082235Y-98421843D01*
X157872191Y-98562191D01*
X157731843Y-98772235D01*
X157682560Y-99020000D01*
X151810000Y-99020000D01*
X151810000Y-94714561D01*
X152065000Y-94714561D01*
X152065000Y-95285439D01*
X152283466Y-95812862D01*
X152687138Y-96216534D01*
X153214561Y-96435000D01*
X153785439Y-96435000D01*
X154312862Y-96216534D01*
X154521651Y-96007745D01*
X155171861Y-96007745D01*
X155245995Y-96253864D01*
X155783223Y-96446965D01*
X156353454Y-96419778D01*
X156754005Y-96253864D01*
X156828139Y-96007745D01*
X156000000Y-95179605D01*
X155171861Y-96007745D01*
X154521651Y-96007745D01*
X154716534Y-95812862D01*
X154743525Y-95747701D01*
X154746136Y-95754005D01*
X154992255Y-95828139D01*
X155820395Y-95000000D01*
X156179605Y-95000000D01*
X157007745Y-95828139D01*
X157253864Y-95754005D01*
X157446965Y-95216777D01*
X157419778Y-94646546D01*
X157253864Y-94245995D01*
X157007745Y-94171861D01*
X156179605Y-95000000D01*
X155820395Y-95000000D01*
X154992255Y-94171861D01*
X154746136Y-94245995D01*
X154743710Y-94252746D01*
X154716534Y-94187138D01*
X154521651Y-93992255D01*
X155171861Y-93992255D01*
X156000000Y-94820395D01*
X156828139Y-93992255D01*
X156754005Y-93746136D01*
X156216777Y-93553035D01*
X155646546Y-93580222D01*
X155245995Y-93746136D01*
X155171861Y-93992255D01*
X154521651Y-93992255D01*
X154312862Y-93783466D01*
X153785439Y-93565000D01*
X153214561Y-93565000D01*
X152687138Y-93783466D01*
X152283466Y-94187138D01*
X152065000Y-94714561D01*
X151810000Y-94714561D01*
X151810000Y-85989620D01*
X151827827Y-85899999D01*
X151804250Y-85781472D01*
X151757200Y-85544936D01*
X151556073Y-85243927D01*
X151480093Y-85193159D01*
X150914933Y-84628000D01*
X151164567Y-84628000D01*
X156456069Y-89919503D01*
X156581069Y-90221280D01*
X156872220Y-90512431D01*
X157252626Y-90670000D01*
X157664374Y-90670000D01*
X158044780Y-90512431D01*
X158335931Y-90221280D01*
X158493500Y-89840874D01*
X158493500Y-89429126D01*
X158335931Y-89048720D01*
X158044780Y-88757569D01*
X157743003Y-88632569D01*
X152248343Y-83137910D01*
X152197573Y-83061927D01*
X151896564Y-82860800D01*
X151631122Y-82808000D01*
X151541500Y-82790173D01*
X151451878Y-82808000D01*
X147785371Y-82808000D01*
X148194577Y-82534577D01*
X148511740Y-82059909D01*
X148623113Y-81500000D01*
X148511740Y-80940091D01*
X148194577Y-80465423D01*
X147719909Y-80148260D01*
X147301333Y-80065000D01*
X147018667Y-80065000D01*
X146600091Y-80148260D01*
X146125423Y-80465423D01*
X146042183Y-80590000D01*
X144279622Y-80590000D01*
X144190000Y-80572173D01*
X144100378Y-80590000D01*
X143834936Y-80642800D01*
X143533927Y-80843927D01*
X143483159Y-80919907D01*
X140149908Y-84253159D01*
X140073928Y-84303927D01*
X139981543Y-84442191D01*
X139872800Y-84604937D01*
X139802173Y-84960000D01*
X139820001Y-85049626D01*
X139820000Y-85524436D01*
X137936916Y-87407520D01*
X137812862Y-87283466D01*
X137285439Y-87065000D01*
X136714561Y-87065000D01*
X136187138Y-87283466D01*
X135783466Y-87687138D01*
X135565000Y-88214561D01*
X130784600Y-88214561D01*
X130784600Y-85502333D01*
X131386933Y-84900000D01*
X131752560Y-84900000D01*
X131752560Y-87100000D01*
X131801843Y-87347765D01*
X131942191Y-87557809D01*
X132152235Y-87698157D01*
X132400000Y-87747440D01*
X134600000Y-87747440D01*
X134847765Y-87698157D01*
X135057809Y-87557809D01*
X135198157Y-87347765D01*
X135247440Y-87100000D01*
X135247440Y-84900000D01*
X135210555Y-84714561D01*
X135565000Y-84714561D01*
X135565000Y-85285439D01*
X135783466Y-85812862D01*
X136187138Y-86216534D01*
X136714561Y-86435000D01*
X137285439Y-86435000D01*
X137812862Y-86216534D01*
X138216534Y-85812862D01*
X138435000Y-85285439D01*
X138435000Y-84861934D01*
X139684504Y-83612430D01*
X139986280Y-83487431D01*
X140277431Y-83196280D01*
X140435000Y-82815874D01*
X140435000Y-82404126D01*
X140277431Y-82023720D01*
X139986280Y-81732569D01*
X139605874Y-81575000D01*
X139194126Y-81575000D01*
X138813720Y-81732569D01*
X138522569Y-82023720D01*
X138397570Y-82325496D01*
X137158066Y-83565000D01*
X136714561Y-83565000D01*
X136187138Y-83783466D01*
X135783466Y-84187138D01*
X135565000Y-84714561D01*
X135210555Y-84714561D01*
X135198157Y-84652235D01*
X135057809Y-84442191D01*
X134847765Y-84301843D01*
X134600000Y-84252560D01*
X132400000Y-84252560D01*
X132152235Y-84301843D01*
X131942191Y-84442191D01*
X131801843Y-84652235D01*
X131752560Y-84900000D01*
X131386933Y-84900000D01*
X135072373Y-81214561D01*
X135565000Y-81214561D01*
X135565000Y-81785439D01*
X135783466Y-82312862D01*
X136187138Y-82716534D01*
X136714561Y-82935000D01*
X137285439Y-82935000D01*
X137812862Y-82716534D01*
X138216534Y-82312862D01*
X138435000Y-81785439D01*
X138435000Y-81214561D01*
X138216534Y-80687138D01*
X137812862Y-80283466D01*
X137285439Y-80065000D01*
X136714561Y-80065000D01*
X136187138Y-80283466D01*
X135783466Y-80687138D01*
X135565000Y-81214561D01*
X135072373Y-81214561D01*
X136851935Y-79435000D01*
X137285439Y-79435000D01*
X137812862Y-79216534D01*
X138216534Y-78812862D01*
X138435000Y-78285439D01*
X138435000Y-78000000D01*
X145696887Y-78000000D01*
X145808260Y-78559909D01*
X146125423Y-79034577D01*
X146600091Y-79351740D01*
X147018667Y-79435000D01*
X147301333Y-79435000D01*
X147719909Y-79351740D01*
X148194577Y-79034577D01*
X148511740Y-78559909D01*
X148623113Y-78000000D01*
X148511740Y-77440091D01*
X148194577Y-76965423D01*
X147719909Y-76648260D01*
X147301333Y-76565000D01*
X147018667Y-76565000D01*
X146600091Y-76648260D01*
X146125423Y-76965423D01*
X145808260Y-77440091D01*
X145696887Y-78000000D01*
X138435000Y-78000000D01*
X138435000Y-77714561D01*
X138216534Y-77187138D01*
X137812862Y-76783466D01*
X137285439Y-76565000D01*
X136714561Y-76565000D01*
X136187138Y-76783466D01*
X135783466Y-77187138D01*
X135565000Y-77714561D01*
X135565000Y-78148065D01*
X134446263Y-79266803D01*
X134495000Y-79021783D01*
X134517235Y-78910000D01*
X134495000Y-78798217D01*
X134495000Y-75501783D01*
X134517235Y-75390000D01*
X134429146Y-74947145D01*
X134417740Y-74930075D01*
X134178289Y-74571711D01*
X134083521Y-74508389D01*
X133555000Y-73979869D01*
X133555000Y-73904287D01*
X133674993Y-73724705D01*
X138116000Y-73724705D01*
X138116000Y-74275295D01*
X138326702Y-74783973D01*
X138716027Y-75173298D01*
X139224705Y-75384000D01*
X139775295Y-75384000D01*
X140283973Y-75173298D01*
X140673298Y-74783973D01*
X140884000Y-74275295D01*
X140884000Y-73724705D01*
X140687785Y-73251000D01*
X144603560Y-73251000D01*
X144603560Y-74749000D01*
X144652843Y-74996765D01*
X144793191Y-75206809D01*
X145003235Y-75347157D01*
X145251000Y-75396440D01*
X146749000Y-75396440D01*
X146996765Y-75347157D01*
X147206809Y-75206809D01*
X147347157Y-74996765D01*
X147364415Y-74910000D01*
X147913067Y-74910000D01*
X152090000Y-79086934D01*
X152090001Y-79880603D01*
X151783466Y-80187138D01*
X151565000Y-80714561D01*
X151565000Y-81285439D01*
X151783466Y-81812862D01*
X152187138Y-82216534D01*
X152714561Y-82435000D01*
X153285439Y-82435000D01*
X153812862Y-82216534D01*
X154216534Y-81812862D01*
X154250000Y-81732068D01*
X154283466Y-81812862D01*
X154687138Y-82216534D01*
X155214561Y-82435000D01*
X155785439Y-82435000D01*
X156312862Y-82216534D01*
X156716534Y-81812862D01*
X156935000Y-81285439D01*
X156935000Y-80804561D01*
X157505000Y-80804561D01*
X157505000Y-81375439D01*
X157723466Y-81902862D01*
X158127138Y-82306534D01*
X158654561Y-82525000D01*
X159225439Y-82525000D01*
X159752862Y-82306534D01*
X159961651Y-82097745D01*
X160611861Y-82097745D01*
X160685995Y-82343864D01*
X161223223Y-82536965D01*
X161793454Y-82509778D01*
X162194005Y-82343864D01*
X162268139Y-82097745D01*
X161440000Y-81269605D01*
X160611861Y-82097745D01*
X159961651Y-82097745D01*
X160156534Y-81902862D01*
X160183525Y-81837701D01*
X160186136Y-81844005D01*
X160432255Y-81918139D01*
X161260395Y-81090000D01*
X161619605Y-81090000D01*
X162447745Y-81918139D01*
X162693864Y-81844005D01*
X162886965Y-81306777D01*
X162859778Y-80736546D01*
X162693864Y-80335995D01*
X162447745Y-80261861D01*
X161619605Y-81090000D01*
X161260395Y-81090000D01*
X160432255Y-80261861D01*
X160186136Y-80335995D01*
X160183710Y-80342746D01*
X160156534Y-80277138D01*
X159961651Y-80082255D01*
X160611861Y-80082255D01*
X161440000Y-80910395D01*
X162268139Y-80082255D01*
X162194005Y-79836136D01*
X161656777Y-79643035D01*
X161086546Y-79670222D01*
X160685995Y-79836136D01*
X160611861Y-80082255D01*
X159961651Y-80082255D01*
X159752862Y-79873466D01*
X159225439Y-79655000D01*
X158654561Y-79655000D01*
X158127138Y-79873466D01*
X157723466Y-80277138D01*
X157505000Y-80804561D01*
X156935000Y-80804561D01*
X156935000Y-80714561D01*
X156716534Y-80187138D01*
X156312862Y-79783466D01*
X155785439Y-79565000D01*
X155214561Y-79565000D01*
X154687138Y-79783466D01*
X154283466Y-80187138D01*
X154250000Y-80267932D01*
X154216534Y-80187138D01*
X153910000Y-79880604D01*
X153910000Y-78799622D01*
X153927827Y-78710000D01*
X153857200Y-78354936D01*
X153810764Y-78285439D01*
X153656073Y-78053927D01*
X153580093Y-78003159D01*
X148996843Y-73419910D01*
X148946073Y-73343927D01*
X148645064Y-73142800D01*
X148379622Y-73090000D01*
X148290000Y-73072173D01*
X148200378Y-73090000D01*
X147364415Y-73090000D01*
X147347157Y-73003235D01*
X147206809Y-72793191D01*
X146996765Y-72652843D01*
X146749000Y-72603560D01*
X145251000Y-72603560D01*
X145003235Y-72652843D01*
X144793191Y-72793191D01*
X144652843Y-73003235D01*
X144603560Y-73251000D01*
X140687785Y-73251000D01*
X140673298Y-73216027D01*
X140283973Y-72826702D01*
X139775295Y-72616000D01*
X139224705Y-72616000D01*
X138716027Y-72826702D01*
X138326702Y-73216027D01*
X138116000Y-73724705D01*
X133674993Y-73724705D01*
X133677542Y-73720891D01*
X133755000Y-73331485D01*
X133755000Y-72154887D01*
X173265000Y-72154887D01*
X173265000Y-72845113D01*
X173529138Y-73482799D01*
X174017201Y-73970862D01*
X174654887Y-74235000D01*
X175345113Y-74235000D01*
X175982799Y-73970862D01*
X176470862Y-73482799D01*
X176735000Y-72845113D01*
X176735000Y-72154887D01*
X176470862Y-71517201D01*
X175982799Y-71029138D01*
X175345113Y-70765000D01*
X174654887Y-70765000D01*
X174017201Y-71029138D01*
X173529138Y-71517201D01*
X173265000Y-72154887D01*
X133755000Y-72154887D01*
X133755000Y-71668515D01*
X133677542Y-71279109D01*
X133382481Y-70837519D01*
X132940891Y-70542458D01*
X132580608Y-70470793D01*
X138708813Y-70470793D01*
X138776679Y-70711630D01*
X139295410Y-70896204D01*
X139845287Y-70868218D01*
X140223321Y-70711630D01*
X140291187Y-70470793D01*
X145208813Y-70470793D01*
X145276679Y-70711630D01*
X145795410Y-70896204D01*
X146345287Y-70868218D01*
X146723321Y-70711630D01*
X146791187Y-70470793D01*
X146000000Y-69679605D01*
X145208813Y-70470793D01*
X140291187Y-70470793D01*
X139500000Y-69679605D01*
X138708813Y-70470793D01*
X132580608Y-70470793D01*
X132420000Y-70438846D01*
X131899110Y-70542458D01*
X131457520Y-70837519D01*
X131162459Y-71279109D01*
X131085000Y-71668515D01*
X131085000Y-73331484D01*
X131162458Y-73720890D01*
X131285001Y-73904288D01*
X131285001Y-74338212D01*
X131262765Y-74450000D01*
X131350854Y-74892854D01*
X131387130Y-74947145D01*
X131601712Y-75268289D01*
X131696479Y-75331611D01*
X132225000Y-75860132D01*
X132225001Y-78439867D01*
X127276482Y-83388387D01*
X127181711Y-83451711D01*
X127003783Y-83718000D01*
X126930854Y-83827146D01*
X126842765Y-84270000D01*
X126865000Y-84381783D01*
X126865001Y-86881755D01*
X126673257Y-87073499D01*
X126435000Y-87648702D01*
X126435000Y-88271298D01*
X126673257Y-88846501D01*
X127056756Y-89230000D01*
X126673257Y-89613499D01*
X126435000Y-90188702D01*
X126435000Y-90811298D01*
X126673257Y-91386501D01*
X126808066Y-91521310D01*
X126612191Y-91652191D01*
X126471843Y-91862235D01*
X126463337Y-91905000D01*
X125520132Y-91905000D01*
X125135000Y-91519869D01*
X125135000Y-81507745D01*
X125671861Y-81507745D01*
X125745995Y-81753864D01*
X126283223Y-81946965D01*
X126853454Y-81919778D01*
X127254005Y-81753864D01*
X127328139Y-81507745D01*
X126500000Y-80679605D01*
X125671861Y-81507745D01*
X125135000Y-81507745D01*
X125135000Y-81394396D01*
X125216534Y-81312862D01*
X125243525Y-81247701D01*
X125246136Y-81254005D01*
X125492255Y-81328139D01*
X126320395Y-80500000D01*
X126679605Y-80500000D01*
X127507745Y-81328139D01*
X127753864Y-81254005D01*
X127946965Y-80716777D01*
X127919778Y-80146546D01*
X127753864Y-79745995D01*
X127507745Y-79671861D01*
X126679605Y-80500000D01*
X126320395Y-80500000D01*
X125492255Y-79671861D01*
X125246136Y-79745995D01*
X125243710Y-79752746D01*
X125216534Y-79687138D01*
X125021651Y-79492255D01*
X125671861Y-79492255D01*
X126500000Y-80320395D01*
X127328139Y-79492255D01*
X127254005Y-79246136D01*
X126716777Y-79053035D01*
X126146546Y-79080222D01*
X125745995Y-79246136D01*
X125671861Y-79492255D01*
X125021651Y-79492255D01*
X124812862Y-79283466D01*
X124285439Y-79065000D01*
X123714561Y-79065000D01*
X123187138Y-79283466D01*
X122783466Y-79687138D01*
X122565000Y-80214561D01*
X120710000Y-80214561D01*
X120710000Y-76500000D01*
X127858846Y-76500000D01*
X127962458Y-77020891D01*
X128257519Y-77462481D01*
X128699109Y-77757542D01*
X129088515Y-77835000D01*
X130751485Y-77835000D01*
X131140891Y-77757542D01*
X131582481Y-77462481D01*
X131877542Y-77020891D01*
X131981154Y-76500000D01*
X131877542Y-75979109D01*
X131582481Y-75537519D01*
X131140891Y-75242458D01*
X130751485Y-75165000D01*
X129088515Y-75165000D01*
X128699109Y-75242458D01*
X128257519Y-75537519D01*
X127962458Y-75979109D01*
X127858846Y-76500000D01*
X120710000Y-76500000D01*
X120710000Y-72627000D01*
X125085000Y-72627000D01*
X125085000Y-73327000D01*
X125235222Y-73828215D01*
X125565815Y-74233790D01*
X126026450Y-74481980D01*
X126086671Y-74492716D01*
X126293000Y-74369374D01*
X126293000Y-72627000D01*
X126547000Y-72627000D01*
X126547000Y-74369374D01*
X126753329Y-74492716D01*
X126813550Y-74481980D01*
X127274185Y-74233790D01*
X127604778Y-73828215D01*
X127755000Y-73327000D01*
X127755000Y-72627000D01*
X126547000Y-72627000D01*
X126293000Y-72627000D01*
X125085000Y-72627000D01*
X120710000Y-72627000D01*
X120710000Y-71673000D01*
X125085000Y-71673000D01*
X125085000Y-72373000D01*
X126293000Y-72373000D01*
X126293000Y-70630626D01*
X126547000Y-70630626D01*
X126547000Y-72373000D01*
X127755000Y-72373000D01*
X127755000Y-71673000D01*
X127604778Y-71171785D01*
X127274185Y-70766210D01*
X126813550Y-70518020D01*
X126753329Y-70507284D01*
X126547000Y-70630626D01*
X126293000Y-70630626D01*
X126086671Y-70507284D01*
X126026450Y-70518020D01*
X125565815Y-70766210D01*
X125235222Y-71171785D01*
X125085000Y-71673000D01*
X120710000Y-71673000D01*
X120710000Y-69295410D01*
X138103796Y-69295410D01*
X138131782Y-69845287D01*
X138288370Y-70223321D01*
X138529207Y-70291187D01*
X139320395Y-69500000D01*
X139679605Y-69500000D01*
X140470793Y-70291187D01*
X140711630Y-70223321D01*
X140896204Y-69704590D01*
X140875379Y-69295410D01*
X144603796Y-69295410D01*
X144631782Y-69845287D01*
X144788370Y-70223321D01*
X145029207Y-70291187D01*
X145820395Y-69500000D01*
X146179605Y-69500000D01*
X146970793Y-70291187D01*
X147211630Y-70223321D01*
X147396204Y-69704590D01*
X147368218Y-69154713D01*
X147211630Y-68776679D01*
X146970793Y-68708813D01*
X146179605Y-69500000D01*
X145820395Y-69500000D01*
X145029207Y-68708813D01*
X144788370Y-68776679D01*
X144603796Y-69295410D01*
X140875379Y-69295410D01*
X140868218Y-69154713D01*
X140711630Y-68776679D01*
X140470793Y-68708813D01*
X139679605Y-69500000D01*
X139320395Y-69500000D01*
X138529207Y-68708813D01*
X138288370Y-68776679D01*
X138103796Y-69295410D01*
X120710000Y-69295410D01*
X120710000Y-68210000D01*
X138965879Y-68210000D01*
X138776679Y-68288370D01*
X138776679Y-68288370D01*
G37*
X138776679Y-68288370D02*
X138708813Y-68529207D01*
X139500000Y-69320395D01*
X140291187Y-68529207D01*
X140223321Y-68288370D01*
X140003068Y-68210000D01*
X145465879Y-68210000D01*
X145276679Y-68288370D01*
X145208813Y-68529207D01*
X146000000Y-69320395D01*
X146791187Y-68529207D01*
X146723321Y-68288370D01*
X146503068Y-68210000D01*
X172474281Y-68210000D01*
X173479908Y-68282967D01*
X174439294Y-68494780D01*
X175358047Y-68842864D01*
X176216931Y-69319931D01*
X176997953Y-69915988D01*
X177684751Y-70618548D01*
X178262934Y-71412889D01*
X178720391Y-72282374D01*
X179047546Y-73208797D01*
X179238318Y-74176700D01*
X179290000Y-75021698D01*
X179290001Y-104290000D01*
X168125082Y-104290000D01*
X168305638Y-104109444D01*
X168585000Y-103435004D01*
X168585000Y-103193685D01*
X171770940Y-100007745D01*
X174671861Y-100007745D01*
X174745995Y-100253864D01*
X175283223Y-100446965D01*
X175853454Y-100419778D01*
X176254005Y-100253864D01*
X176328139Y-100007745D01*
X175500000Y-99179605D01*
X174671861Y-100007745D01*
X171770940Y-100007745D01*
X172995462Y-98783223D01*
X174053035Y-98783223D01*
X174080222Y-99353454D01*
X174246136Y-99754005D01*
X174492255Y-99828139D01*
X175320395Y-99000000D01*
X175679605Y-99000000D01*
X176507745Y-99828139D01*
X176753864Y-99754005D01*
X176946965Y-99216777D01*
X176919778Y-98646546D01*
X176753864Y-98245995D01*
X176507745Y-98171861D01*
X175679605Y-99000000D01*
X175320395Y-99000000D01*
X174492255Y-98171861D01*
X174246136Y-98245995D01*
X174053035Y-98783223D01*
X172995462Y-98783223D01*
X173943686Y-97835000D01*
X174719228Y-97835000D01*
X174671861Y-97992255D01*
X175500000Y-98820395D01*
X176328139Y-97992255D01*
X176254005Y-97746136D01*
X176247254Y-97743710D01*
X176312862Y-97716534D01*
X176716534Y-97312862D01*
X176935000Y-96785439D01*
X176935000Y-96214561D01*
X176716534Y-95687138D01*
X176312862Y-95283466D01*
X175785439Y-95065000D01*
X175214561Y-95065000D01*
X174973140Y-95165000D01*
X173707770Y-95165000D01*
X173319999Y-95087867D01*
X172779599Y-95195360D01*
X172437111Y-95424203D01*
X166626315Y-101235000D01*
X166384996Y-101235000D01*
X165710556Y-101514362D01*
X165194362Y-102030556D01*
X164915000Y-102704996D01*
X164915000Y-103435004D01*
X165194362Y-104109444D01*
X165374918Y-104290000D01*
X127525719Y-104290000D01*
X126520093Y-104217033D01*
X125560710Y-104005222D01*
X124641953Y-103657136D01*
X123783069Y-103180069D01*
X123002046Y-102584011D01*
X122315249Y-101881452D01*
X121737068Y-101087113D01*
X121279609Y-100217625D01*
X121080885Y-99654887D01*
X123265000Y-99654887D01*
X123265000Y-100345113D01*
X123529138Y-100982799D01*
X124017201Y-101470862D01*
X124654887Y-101735000D01*
X125345113Y-101735000D01*
X125982799Y-101470862D01*
X126470862Y-100982799D01*
X126588001Y-100700000D01*
X129052560Y-100700000D01*
X129052560Y-102300000D01*
X129101843Y-102547765D01*
X129242191Y-102757809D01*
X129452235Y-102898157D01*
X129700000Y-102947440D01*
X131300000Y-102947440D01*
X131547765Y-102898157D01*
X131757516Y-102758005D01*
X132283223Y-102946965D01*
X132853454Y-102919778D01*
X133254005Y-102753864D01*
X133328139Y-102507745D01*
X132500000Y-101679605D01*
X132485858Y-101693748D01*
X132306253Y-101514143D01*
X132320395Y-101500000D01*
X132679605Y-101500000D01*
X133507745Y-102328139D01*
X133753864Y-102254005D01*
X133946965Y-101716777D01*
X133919778Y-101146546D01*
X133753864Y-100745995D01*
X133507745Y-100671861D01*
X132679605Y-101500000D01*
X132320395Y-101500000D01*
X132306253Y-101485858D01*
X132485858Y-101306252D01*
X132500000Y-101320395D01*
X133328139Y-100492255D01*
X133254005Y-100246136D01*
X132716777Y-100053035D01*
X132146546Y-100080222D01*
X131756933Y-100241605D01*
X131547765Y-100101843D01*
X131300000Y-100052560D01*
X129700000Y-100052560D01*
X129452235Y-100101843D01*
X129242191Y-100242191D01*
X129101843Y-100452235D01*
X129052560Y-100700000D01*
X126588001Y-100700000D01*
X126735000Y-100345113D01*
X126735000Y-99654887D01*
X126470862Y-99017201D01*
X125982799Y-98529138D01*
X125345113Y-98265000D01*
X124654887Y-98265000D01*
X124017201Y-98529138D01*
X123529138Y-99017201D01*
X123265000Y-99654887D01*
X121080885Y-99654887D01*
X120952454Y-99291203D01*
X120761682Y-98323300D01*
X120710000Y-97478302D01*
X120710000Y-80214561D01*
X122565000Y-80214561D01*
X122565000Y-80785439D01*
X122783466Y-81312862D01*
X122865001Y-81394397D01*
X122865000Y-87561782D01*
X122865001Y-87561787D01*
X122865000Y-91878217D01*
X122842765Y-91990000D01*
X122888855Y-92221711D01*
X122930854Y-92432854D01*
X123181711Y-92808289D01*
X123276481Y-92871613D01*
X124168389Y-93763521D01*
X124231711Y-93858289D01*
X124607145Y-94109146D01*
X124938217Y-94175000D01*
X125049999Y-94197235D01*
X125161781Y-94175000D01*
X126463337Y-94175000D01*
X126471843Y-94217765D01*
X126612191Y-94427809D01*
X126822235Y-94568157D01*
X127070000Y-94617440D01*
X128930000Y-94617440D01*
X129177765Y-94568157D01*
X129387809Y-94427809D01*
X129528157Y-94217765D01*
X129577440Y-93970000D01*
X129577440Y-92110000D01*
X129528157Y-91862235D01*
X129453358Y-91750291D01*
X132466777Y-94763711D01*
X132249135Y-94909135D01*
X131865666Y-95483037D01*
X131731010Y-96160000D01*
X131865666Y-96836963D01*
X132249135Y-97410865D01*
X132823037Y-97794334D01*
X133329120Y-97895000D01*
X133670880Y-97895000D01*
X134176963Y-97794334D01*
X134750865Y-97410865D01*
X135134334Y-96836963D01*
X135268990Y-96160000D01*
X135134334Y-95483037D01*
X134750865Y-94909135D01*
X134410000Y-94681376D01*
X134410000Y-94599622D01*
X134427827Y-94510000D01*
X134357200Y-94154936D01*
X134326604Y-94109146D01*
X134156073Y-93853927D01*
X134080093Y-93803159D01*
X130798197Y-90521264D01*
X130802427Y-90500000D01*
X130784600Y-90410378D01*
X130784600Y-88214561D01*
X135565000Y-88214561D01*
X135565000Y-88785439D01*
X135783466Y-89312862D01*
X136090000Y-89619396D01*
X136090001Y-90880603D01*
X135783466Y-91187138D01*
X135565000Y-91714561D01*
X135565000Y-92285439D01*
X135783466Y-92812862D01*
X136187138Y-93216534D01*
X136714561Y-93435000D01*
X137285439Y-93435000D01*
X137812862Y-93216534D01*
X138216534Y-92812862D01*
X138435000Y-92285439D01*
X138435000Y-91714561D01*
X138216534Y-91187138D01*
X137910000Y-90880604D01*
X137910000Y-89619396D01*
X138106513Y-89422883D01*
X138131370Y-89427827D01*
X138220992Y-89410000D01*
X138486434Y-89357200D01*
X138787443Y-89156073D01*
X138838213Y-89080090D01*
X141310093Y-86608211D01*
X141386073Y-86557443D01*
X141587200Y-86256434D01*
X141640000Y-85990992D01*
X141640000Y-85990991D01*
X141657827Y-85901370D01*
X141640000Y-85811748D01*
X141640000Y-85336933D01*
X144566934Y-82410000D01*
X146042183Y-82410000D01*
X146125423Y-82534577D01*
X146532347Y-82806475D01*
X146524678Y-82808000D01*
X146259236Y-82860800D01*
X145958227Y-83061927D01*
X145907459Y-83137907D01*
X141109908Y-87935459D01*
X141033928Y-87986227D01*
X140927882Y-88144937D01*
X140832800Y-88287237D01*
X140762173Y-88642300D01*
X140780001Y-88731927D01*
X140780000Y-93283066D01*
X139783070Y-94279997D01*
X139757809Y-94242191D01*
X139547765Y-94101843D01*
X139300000Y-94052560D01*
X137700000Y-94052560D01*
X137452235Y-94101843D01*
X137242191Y-94242191D01*
X137101843Y-94452235D01*
X137052560Y-94700000D01*
X137052560Y-96300000D01*
X137101843Y-96547765D01*
X137242191Y-96757809D01*
X137452235Y-96898157D01*
X137700000Y-96947440D01*
X139300000Y-96947440D01*
X139547765Y-96898157D01*
X139757809Y-96757809D01*
X139898157Y-96547765D01*
X139924981Y-96412912D01*
X139939622Y-96410000D01*
X140205064Y-96357200D01*
X140506073Y-96156073D01*
X140556843Y-96080090D01*
X142270093Y-94366841D01*
X142346073Y-94316073D01*
X142547200Y-94015064D01*
X142600000Y-93749622D01*
X142600000Y-93749621D01*
X142617827Y-93660000D01*
X142600000Y-93570378D01*
X142600000Y-89838630D01*
X143762173Y-89838630D01*
X143780000Y-89928252D01*
X143780001Y-93980374D01*
X143762173Y-94070000D01*
X143832800Y-94425063D01*
X143832801Y-94425064D01*
X144033928Y-94726073D01*
X144109908Y-94776841D01*
X144686117Y-95353051D01*
X144656887Y-95500000D01*
X144768260Y-96059909D01*
X145085423Y-96534577D01*
X145560091Y-96851740D01*
X145978667Y-96935000D01*
X146261333Y-96935000D01*
X146679909Y-96851740D01*
X147154577Y-96534577D01*
X147471740Y-96059909D01*
X147583113Y-95500000D01*
X147471740Y-94940091D01*
X147154577Y-94465423D01*
X146679909Y-94148260D01*
X146261333Y-94065000D01*
X145978667Y-94065000D01*
X145973051Y-94066117D01*
X145600000Y-93693067D01*
X145600000Y-92349039D01*
X145768096Y-92349039D01*
X145928959Y-92737423D01*
X146304866Y-93152389D01*
X146810959Y-93391914D01*
X147033000Y-93270629D01*
X147033000Y-92127000D01*
X147287000Y-92127000D01*
X147287000Y-93270629D01*
X147509041Y-93391914D01*
X148015134Y-93152389D01*
X148391041Y-92737423D01*
X148551904Y-92349039D01*
X148429915Y-92127000D01*
X147287000Y-92127000D01*
X147033000Y-92127000D01*
X145890085Y-92127000D01*
X145768096Y-92349039D01*
X145600000Y-92349039D01*
X145600000Y-91650961D01*
X145768096Y-91650961D01*
X145890085Y-91873000D01*
X147033000Y-91873000D01*
X147033000Y-90729371D01*
X147287000Y-90729371D01*
X147287000Y-91873000D01*
X148429915Y-91873000D01*
X148551904Y-91650961D01*
X148391041Y-91262577D01*
X148015134Y-90847611D01*
X147509041Y-90608086D01*
X147287000Y-90729371D01*
X147033000Y-90729371D01*
X146810959Y-90608086D01*
X146304866Y-90847611D01*
X145928959Y-91262577D01*
X145768096Y-91650961D01*
X145600000Y-91650961D01*
X145600000Y-90215563D01*
X146218677Y-89596887D01*
X146600091Y-89851740D01*
X147018667Y-89935000D01*
X147301333Y-89935000D01*
X147719909Y-89851740D01*
X148194577Y-89534577D01*
X148511740Y-89059909D01*
X148623113Y-88500000D01*
X148511740Y-87940091D01*
X148194577Y-87465423D01*
X147719909Y-87148260D01*
X147301333Y-87065000D01*
X147018667Y-87065000D01*
X146600091Y-87148260D01*
X146125423Y-87465423D01*
X146051107Y-87576644D01*
X146028630Y-87572173D01*
X145939008Y-87590000D01*
X145673566Y-87642800D01*
X145372557Y-87843927D01*
X145321790Y-87919906D01*
X144109910Y-89131787D01*
X144033927Y-89182557D01*
X143881956Y-89410000D01*
X143832800Y-89483567D01*
X143762173Y-89838630D01*
X142600000Y-89838630D01*
X142600000Y-89019233D01*
X145908822Y-85710411D01*
X146125423Y-86034577D01*
X146600091Y-86351740D01*
X147018667Y-86435000D01*
X147301333Y-86435000D01*
X147719909Y-86351740D01*
X148194577Y-86034577D01*
X148277817Y-85910000D01*
X149623067Y-85910000D01*
X149990000Y-86276934D01*
X149990000Y-86771281D01*
X149687845Y-86771281D01*
X149307439Y-86928850D01*
X149016288Y-87220001D01*
X148858719Y-87600407D01*
X148858719Y-88012155D01*
X149016288Y-88392561D01*
X149020001Y-88396274D01*
X149020000Y-91032348D01*
X148895000Y-91334126D01*
X148895000Y-91745874D01*
X149052569Y-92126280D01*
X149343720Y-92417431D01*
X149724126Y-92575000D01*
X149990000Y-92575000D01*
X149990001Y-100070373D01*
X149972173Y-100160000D01*
X150042800Y-100515063D01*
X150101264Y-100602560D01*
X150237581Y-100806574D01*
X150106843Y-101002235D01*
X150057560Y-101250000D01*
X150057560Y-102750000D01*
X150106843Y-102997765D01*
X150247191Y-103207809D01*
X150457235Y-103348157D01*
X150705000Y-103397440D01*
X151755000Y-103397440D01*
X152002765Y-103348157D01*
X152048134Y-103317842D01*
X152500000Y-103407725D01*
X152952609Y-103317695D01*
X153144996Y-103189146D01*
X153402664Y-103335266D01*
X153464190Y-103343964D01*
X153643000Y-103218163D01*
X153643000Y-102424709D01*
X153660000Y-102339245D01*
X153660000Y-102127000D01*
X153897000Y-102127000D01*
X153897000Y-103218163D01*
X154075810Y-103343964D01*
X154137336Y-103335266D01*
X154534255Y-103110179D01*
X154814823Y-102750331D01*
X154936326Y-102310506D01*
X154776593Y-102127000D01*
X153897000Y-102127000D01*
X153660000Y-102127000D01*
X153660000Y-101660754D01*
X153643000Y-101575290D01*
X153643000Y-100781837D01*
X153897000Y-100781837D01*
X153897000Y-101873000D01*
X154776593Y-101873000D01*
X154936326Y-101689494D01*
X154814823Y-101249669D01*
X154534255Y-100889821D01*
X154137336Y-100664734D01*
X154075810Y-100656036D01*
X153897000Y-100781837D01*
X153643000Y-100781837D01*
X153464190Y-100656036D01*
X153402664Y-100664734D01*
X153144996Y-100810854D01*
X152952608Y-100682305D01*
X152500000Y-100592275D01*
X152140000Y-100663884D01*
X152140000Y-100579616D01*
X152157826Y-100489999D01*
X152140000Y-100400382D01*
X152140000Y-100400378D01*
X152087200Y-100134936D01*
X151886073Y-99833927D01*
X151810093Y-99783159D01*
X151810000Y-99783066D01*
X151810000Y-99020000D01*
X157682560Y-99020000D01*
X157682560Y-100820000D01*
X157731843Y-101067765D01*
X157872191Y-101277809D01*
X158082235Y-101418157D01*
X158330000Y-101467440D01*
X160130000Y-101467440D01*
X160377765Y-101418157D01*
X160587809Y-101277809D01*
X160728157Y-101067765D01*
X160731275Y-101052092D01*
X160900493Y-101221310D01*
X161464670Y-101455000D01*
X162075330Y-101455000D01*
X162639507Y-101221310D01*
X163071310Y-100789507D01*
X163305000Y-100225330D01*
X163305000Y-99671933D01*
X167330093Y-95646841D01*
X167406073Y-95596073D01*
X167607200Y-95295064D01*
X167660000Y-95029622D01*
X167677827Y-94940000D01*
X167660000Y-94850378D01*
X167660000Y-88500000D01*
X173352560Y-88500000D01*
X173352560Y-91500000D01*
X173401843Y-91747765D01*
X173542191Y-91957809D01*
X173752235Y-92098157D01*
X174000000Y-92147440D01*
X177000000Y-92147440D01*
X177247765Y-92098157D01*
X177457809Y-91957809D01*
X177598157Y-91747765D01*
X177647440Y-91500000D01*
X177647440Y-88500000D01*
X177598157Y-88252235D01*
X177457809Y-88042191D01*
X177247765Y-87901843D01*
X177000000Y-87852560D01*
X174000000Y-87852560D01*
X173752235Y-87901843D01*
X173542191Y-88042191D01*
X173401843Y-88252235D01*
X173352560Y-88500000D01*
X167660000Y-88500000D01*
X167660000Y-86433970D01*
X174165635Y-86433970D01*
X174325418Y-86752739D01*
X175116187Y-87062723D01*
X175965387Y-87046497D01*
X176674582Y-86752739D01*
X176834365Y-86433970D01*
X175500000Y-85099605D01*
X174165635Y-86433970D01*
X167660000Y-86433970D01*
X167660000Y-84536187D01*
X173357277Y-84536187D01*
X173373503Y-85385387D01*
X173667261Y-86094582D01*
X173986030Y-86254365D01*
X175320395Y-84920000D01*
X175679605Y-84920000D01*
X177013970Y-86254365D01*
X177332739Y-86094582D01*
X177642723Y-85303813D01*
X177626497Y-84454613D01*
X177332739Y-83745418D01*
X177013970Y-83585635D01*
X175679605Y-84920000D01*
X175320395Y-84920000D01*
X173986030Y-83585635D01*
X173667261Y-83745418D01*
X173357277Y-84536187D01*
X167660000Y-84536187D01*
X167660000Y-83406030D01*
X174165635Y-83406030D01*
X175500000Y-84740395D01*
X176834365Y-83406030D01*
X176674582Y-83087261D01*
X175883813Y-82777277D01*
X175034613Y-82793503D01*
X174325418Y-83087261D01*
X174165635Y-83406030D01*
X167660000Y-83406030D01*
X167660000Y-82268892D01*
X168072961Y-81992961D01*
X168478531Y-81385981D01*
X168620949Y-80670000D01*
X168478531Y-79954019D01*
X168072961Y-79347039D01*
X167465981Y-78941469D01*
X166930727Y-78835000D01*
X166569273Y-78835000D01*
X166034019Y-78941469D01*
X165427039Y-79347039D01*
X165021469Y-79954019D01*
X164879051Y-80670000D01*
X165021469Y-81385981D01*
X165427039Y-81992961D01*
X165840000Y-82268892D01*
X165840001Y-94563065D01*
X162018067Y-98385000D01*
X161464670Y-98385000D01*
X160900493Y-98618690D01*
X160731275Y-98787908D01*
X160728157Y-98772235D01*
X160587809Y-98562191D01*
X160377765Y-98421843D01*
X160130000Y-98372560D01*
X158330000Y-98372560D01*
X158082235Y-98421843D01*
X157872191Y-98562191D01*
X157731843Y-98772235D01*
X157682560Y-99020000D01*
X151810000Y-99020000D01*
X151810000Y-94714561D01*
X152065000Y-94714561D01*
X152065000Y-95285439D01*
X152283466Y-95812862D01*
X152687138Y-96216534D01*
X153214561Y-96435000D01*
X153785439Y-96435000D01*
X154312862Y-96216534D01*
X154521651Y-96007745D01*
X155171861Y-96007745D01*
X155245995Y-96253864D01*
X155783223Y-96446965D01*
X156353454Y-96419778D01*
X156754005Y-96253864D01*
X156828139Y-96007745D01*
X156000000Y-95179605D01*
X155171861Y-96007745D01*
X154521651Y-96007745D01*
X154716534Y-95812862D01*
X154743525Y-95747701D01*
X154746136Y-95754005D01*
X154992255Y-95828139D01*
X155820395Y-95000000D01*
X156179605Y-95000000D01*
X157007745Y-95828139D01*
X157253864Y-95754005D01*
X157446965Y-95216777D01*
X157419778Y-94646546D01*
X157253864Y-94245995D01*
X157007745Y-94171861D01*
X156179605Y-95000000D01*
X155820395Y-95000000D01*
X154992255Y-94171861D01*
X154746136Y-94245995D01*
X154743710Y-94252746D01*
X154716534Y-94187138D01*
X154521651Y-93992255D01*
X155171861Y-93992255D01*
X156000000Y-94820395D01*
X156828139Y-93992255D01*
X156754005Y-93746136D01*
X156216777Y-93553035D01*
X155646546Y-93580222D01*
X155245995Y-93746136D01*
X155171861Y-93992255D01*
X154521651Y-93992255D01*
X154312862Y-93783466D01*
X153785439Y-93565000D01*
X153214561Y-93565000D01*
X152687138Y-93783466D01*
X152283466Y-94187138D01*
X152065000Y-94714561D01*
X151810000Y-94714561D01*
X151810000Y-85989620D01*
X151827827Y-85899999D01*
X151804250Y-85781472D01*
X151757200Y-85544936D01*
X151556073Y-85243927D01*
X151480093Y-85193159D01*
X150914933Y-84628000D01*
X151164567Y-84628000D01*
X156456069Y-89919503D01*
X156581069Y-90221280D01*
X156872220Y-90512431D01*
X157252626Y-90670000D01*
X157664374Y-90670000D01*
X158044780Y-90512431D01*
X158335931Y-90221280D01*
X158493500Y-89840874D01*
X158493500Y-89429126D01*
X158335931Y-89048720D01*
X158044780Y-88757569D01*
X157743003Y-88632569D01*
X152248343Y-83137910D01*
X152197573Y-83061927D01*
X151896564Y-82860800D01*
X151631122Y-82808000D01*
X151541500Y-82790173D01*
X151451878Y-82808000D01*
X147785371Y-82808000D01*
X148194577Y-82534577D01*
X148511740Y-82059909D01*
X148623113Y-81500000D01*
X148511740Y-80940091D01*
X148194577Y-80465423D01*
X147719909Y-80148260D01*
X147301333Y-80065000D01*
X147018667Y-80065000D01*
X146600091Y-80148260D01*
X146125423Y-80465423D01*
X146042183Y-80590000D01*
X144279622Y-80590000D01*
X144190000Y-80572173D01*
X144100378Y-80590000D01*
X143834936Y-80642800D01*
X143533927Y-80843927D01*
X143483159Y-80919907D01*
X140149908Y-84253159D01*
X140073928Y-84303927D01*
X139981543Y-84442191D01*
X139872800Y-84604937D01*
X139802173Y-84960000D01*
X139820001Y-85049626D01*
X139820000Y-85524436D01*
X137936916Y-87407520D01*
X137812862Y-87283466D01*
X137285439Y-87065000D01*
X136714561Y-87065000D01*
X136187138Y-87283466D01*
X135783466Y-87687138D01*
X135565000Y-88214561D01*
X130784600Y-88214561D01*
X130784600Y-85502333D01*
X131386933Y-84900000D01*
X131752560Y-84900000D01*
X131752560Y-87100000D01*
X131801843Y-87347765D01*
X131942191Y-87557809D01*
X132152235Y-87698157D01*
X132400000Y-87747440D01*
X134600000Y-87747440D01*
X134847765Y-87698157D01*
X135057809Y-87557809D01*
X135198157Y-87347765D01*
X135247440Y-87100000D01*
X135247440Y-84900000D01*
X135210555Y-84714561D01*
X135565000Y-84714561D01*
X135565000Y-85285439D01*
X135783466Y-85812862D01*
X136187138Y-86216534D01*
X136714561Y-86435000D01*
X137285439Y-86435000D01*
X137812862Y-86216534D01*
X138216534Y-85812862D01*
X138435000Y-85285439D01*
X138435000Y-84861934D01*
X139684504Y-83612430D01*
X139986280Y-83487431D01*
X140277431Y-83196280D01*
X140435000Y-82815874D01*
X140435000Y-82404126D01*
X140277431Y-82023720D01*
X139986280Y-81732569D01*
X139605874Y-81575000D01*
X139194126Y-81575000D01*
X138813720Y-81732569D01*
X138522569Y-82023720D01*
X138397570Y-82325496D01*
X137158066Y-83565000D01*
X136714561Y-83565000D01*
X136187138Y-83783466D01*
X135783466Y-84187138D01*
X135565000Y-84714561D01*
X135210555Y-84714561D01*
X135198157Y-84652235D01*
X135057809Y-84442191D01*
X134847765Y-84301843D01*
X134600000Y-84252560D01*
X132400000Y-84252560D01*
X132152235Y-84301843D01*
X131942191Y-84442191D01*
X131801843Y-84652235D01*
X131752560Y-84900000D01*
X131386933Y-84900000D01*
X135072373Y-81214561D01*
X135565000Y-81214561D01*
X135565000Y-81785439D01*
X135783466Y-82312862D01*
X136187138Y-82716534D01*
X136714561Y-82935000D01*
X137285439Y-82935000D01*
X137812862Y-82716534D01*
X138216534Y-82312862D01*
X138435000Y-81785439D01*
X138435000Y-81214561D01*
X138216534Y-80687138D01*
X137812862Y-80283466D01*
X137285439Y-80065000D01*
X136714561Y-80065000D01*
X136187138Y-80283466D01*
X135783466Y-80687138D01*
X135565000Y-81214561D01*
X135072373Y-81214561D01*
X136851935Y-79435000D01*
X137285439Y-79435000D01*
X137812862Y-79216534D01*
X138216534Y-78812862D01*
X138435000Y-78285439D01*
X138435000Y-78000000D01*
X145696887Y-78000000D01*
X145808260Y-78559909D01*
X146125423Y-79034577D01*
X146600091Y-79351740D01*
X147018667Y-79435000D01*
X147301333Y-79435000D01*
X147719909Y-79351740D01*
X148194577Y-79034577D01*
X148511740Y-78559909D01*
X148623113Y-78000000D01*
X148511740Y-77440091D01*
X148194577Y-76965423D01*
X147719909Y-76648260D01*
X147301333Y-76565000D01*
X147018667Y-76565000D01*
X146600091Y-76648260D01*
X146125423Y-76965423D01*
X145808260Y-77440091D01*
X145696887Y-78000000D01*
X138435000Y-78000000D01*
X138435000Y-77714561D01*
X138216534Y-77187138D01*
X137812862Y-76783466D01*
X137285439Y-76565000D01*
X136714561Y-76565000D01*
X136187138Y-76783466D01*
X135783466Y-77187138D01*
X135565000Y-77714561D01*
X135565000Y-78148065D01*
X134446263Y-79266803D01*
X134495000Y-79021783D01*
X134517235Y-78910000D01*
X134495000Y-78798217D01*
X134495000Y-75501783D01*
X134517235Y-75390000D01*
X134429146Y-74947145D01*
X134417740Y-74930075D01*
X134178289Y-74571711D01*
X134083521Y-74508389D01*
X133555000Y-73979869D01*
X133555000Y-73904287D01*
X133674993Y-73724705D01*
X138116000Y-73724705D01*
X138116000Y-74275295D01*
X138326702Y-74783973D01*
X138716027Y-75173298D01*
X139224705Y-75384000D01*
X139775295Y-75384000D01*
X140283973Y-75173298D01*
X140673298Y-74783973D01*
X140884000Y-74275295D01*
X140884000Y-73724705D01*
X140687785Y-73251000D01*
X144603560Y-73251000D01*
X144603560Y-74749000D01*
X144652843Y-74996765D01*
X144793191Y-75206809D01*
X145003235Y-75347157D01*
X145251000Y-75396440D01*
X146749000Y-75396440D01*
X146996765Y-75347157D01*
X147206809Y-75206809D01*
X147347157Y-74996765D01*
X147364415Y-74910000D01*
X147913067Y-74910000D01*
X152090000Y-79086934D01*
X152090001Y-79880603D01*
X151783466Y-80187138D01*
X151565000Y-80714561D01*
X151565000Y-81285439D01*
X151783466Y-81812862D01*
X152187138Y-82216534D01*
X152714561Y-82435000D01*
X153285439Y-82435000D01*
X153812862Y-82216534D01*
X154216534Y-81812862D01*
X154250000Y-81732068D01*
X154283466Y-81812862D01*
X154687138Y-82216534D01*
X155214561Y-82435000D01*
X155785439Y-82435000D01*
X156312862Y-82216534D01*
X156716534Y-81812862D01*
X156935000Y-81285439D01*
X156935000Y-80804561D01*
X157505000Y-80804561D01*
X157505000Y-81375439D01*
X157723466Y-81902862D01*
X158127138Y-82306534D01*
X158654561Y-82525000D01*
X159225439Y-82525000D01*
X159752862Y-82306534D01*
X159961651Y-82097745D01*
X160611861Y-82097745D01*
X160685995Y-82343864D01*
X161223223Y-82536965D01*
X161793454Y-82509778D01*
X162194005Y-82343864D01*
X162268139Y-82097745D01*
X161440000Y-81269605D01*
X160611861Y-82097745D01*
X159961651Y-82097745D01*
X160156534Y-81902862D01*
X160183525Y-81837701D01*
X160186136Y-81844005D01*
X160432255Y-81918139D01*
X161260395Y-81090000D01*
X161619605Y-81090000D01*
X162447745Y-81918139D01*
X162693864Y-81844005D01*
X162886965Y-81306777D01*
X162859778Y-80736546D01*
X162693864Y-80335995D01*
X162447745Y-80261861D01*
X161619605Y-81090000D01*
X161260395Y-81090000D01*
X160432255Y-80261861D01*
X160186136Y-80335995D01*
X160183710Y-80342746D01*
X160156534Y-80277138D01*
X159961651Y-80082255D01*
X160611861Y-80082255D01*
X161440000Y-80910395D01*
X162268139Y-80082255D01*
X162194005Y-79836136D01*
X161656777Y-79643035D01*
X161086546Y-79670222D01*
X160685995Y-79836136D01*
X160611861Y-80082255D01*
X159961651Y-80082255D01*
X159752862Y-79873466D01*
X159225439Y-79655000D01*
X158654561Y-79655000D01*
X158127138Y-79873466D01*
X157723466Y-80277138D01*
X157505000Y-80804561D01*
X156935000Y-80804561D01*
X156935000Y-80714561D01*
X156716534Y-80187138D01*
X156312862Y-79783466D01*
X155785439Y-79565000D01*
X155214561Y-79565000D01*
X154687138Y-79783466D01*
X154283466Y-80187138D01*
X154250000Y-80267932D01*
X154216534Y-80187138D01*
X153910000Y-79880604D01*
X153910000Y-78799622D01*
X153927827Y-78710000D01*
X153857200Y-78354936D01*
X153810764Y-78285439D01*
X153656073Y-78053927D01*
X153580093Y-78003159D01*
X148996843Y-73419910D01*
X148946073Y-73343927D01*
X148645064Y-73142800D01*
X148379622Y-73090000D01*
X148290000Y-73072173D01*
X148200378Y-73090000D01*
X147364415Y-73090000D01*
X147347157Y-73003235D01*
X147206809Y-72793191D01*
X146996765Y-72652843D01*
X146749000Y-72603560D01*
X145251000Y-72603560D01*
X145003235Y-72652843D01*
X144793191Y-72793191D01*
X144652843Y-73003235D01*
X144603560Y-73251000D01*
X140687785Y-73251000D01*
X140673298Y-73216027D01*
X140283973Y-72826702D01*
X139775295Y-72616000D01*
X139224705Y-72616000D01*
X138716027Y-72826702D01*
X138326702Y-73216027D01*
X138116000Y-73724705D01*
X133674993Y-73724705D01*
X133677542Y-73720891D01*
X133755000Y-73331485D01*
X133755000Y-72154887D01*
X173265000Y-72154887D01*
X173265000Y-72845113D01*
X173529138Y-73482799D01*
X174017201Y-73970862D01*
X174654887Y-74235000D01*
X175345113Y-74235000D01*
X175982799Y-73970862D01*
X176470862Y-73482799D01*
X176735000Y-72845113D01*
X176735000Y-72154887D01*
X176470862Y-71517201D01*
X175982799Y-71029138D01*
X175345113Y-70765000D01*
X174654887Y-70765000D01*
X174017201Y-71029138D01*
X173529138Y-71517201D01*
X173265000Y-72154887D01*
X133755000Y-72154887D01*
X133755000Y-71668515D01*
X133677542Y-71279109D01*
X133382481Y-70837519D01*
X132940891Y-70542458D01*
X132580608Y-70470793D01*
X138708813Y-70470793D01*
X138776679Y-70711630D01*
X139295410Y-70896204D01*
X139845287Y-70868218D01*
X140223321Y-70711630D01*
X140291187Y-70470793D01*
X145208813Y-70470793D01*
X145276679Y-70711630D01*
X145795410Y-70896204D01*
X146345287Y-70868218D01*
X146723321Y-70711630D01*
X146791187Y-70470793D01*
X146000000Y-69679605D01*
X145208813Y-70470793D01*
X140291187Y-70470793D01*
X139500000Y-69679605D01*
X138708813Y-70470793D01*
X132580608Y-70470793D01*
X132420000Y-70438846D01*
X131899110Y-70542458D01*
X131457520Y-70837519D01*
X131162459Y-71279109D01*
X131085000Y-71668515D01*
X131085000Y-73331484D01*
X131162458Y-73720890D01*
X131285001Y-73904288D01*
X131285001Y-74338212D01*
X131262765Y-74450000D01*
X131350854Y-74892854D01*
X131387130Y-74947145D01*
X131601712Y-75268289D01*
X131696479Y-75331611D01*
X132225000Y-75860132D01*
X132225001Y-78439867D01*
X127276482Y-83388387D01*
X127181711Y-83451711D01*
X127003783Y-83718000D01*
X126930854Y-83827146D01*
X126842765Y-84270000D01*
X126865000Y-84381783D01*
X126865001Y-86881755D01*
X126673257Y-87073499D01*
X126435000Y-87648702D01*
X126435000Y-88271298D01*
X126673257Y-88846501D01*
X127056756Y-89230000D01*
X126673257Y-89613499D01*
X126435000Y-90188702D01*
X126435000Y-90811298D01*
X126673257Y-91386501D01*
X126808066Y-91521310D01*
X126612191Y-91652191D01*
X126471843Y-91862235D01*
X126463337Y-91905000D01*
X125520132Y-91905000D01*
X125135000Y-91519869D01*
X125135000Y-81507745D01*
X125671861Y-81507745D01*
X125745995Y-81753864D01*
X126283223Y-81946965D01*
X126853454Y-81919778D01*
X127254005Y-81753864D01*
X127328139Y-81507745D01*
X126500000Y-80679605D01*
X125671861Y-81507745D01*
X125135000Y-81507745D01*
X125135000Y-81394396D01*
X125216534Y-81312862D01*
X125243525Y-81247701D01*
X125246136Y-81254005D01*
X125492255Y-81328139D01*
X126320395Y-80500000D01*
X126679605Y-80500000D01*
X127507745Y-81328139D01*
X127753864Y-81254005D01*
X127946965Y-80716777D01*
X127919778Y-80146546D01*
X127753864Y-79745995D01*
X127507745Y-79671861D01*
X126679605Y-80500000D01*
X126320395Y-80500000D01*
X125492255Y-79671861D01*
X125246136Y-79745995D01*
X125243710Y-79752746D01*
X125216534Y-79687138D01*
X125021651Y-79492255D01*
X125671861Y-79492255D01*
X126500000Y-80320395D01*
X127328139Y-79492255D01*
X127254005Y-79246136D01*
X126716777Y-79053035D01*
X126146546Y-79080222D01*
X125745995Y-79246136D01*
X125671861Y-79492255D01*
X125021651Y-79492255D01*
X124812862Y-79283466D01*
X124285439Y-79065000D01*
X123714561Y-79065000D01*
X123187138Y-79283466D01*
X122783466Y-79687138D01*
X122565000Y-80214561D01*
X120710000Y-80214561D01*
X120710000Y-76500000D01*
X127858846Y-76500000D01*
X127962458Y-77020891D01*
X128257519Y-77462481D01*
X128699109Y-77757542D01*
X129088515Y-77835000D01*
X130751485Y-77835000D01*
X131140891Y-77757542D01*
X131582481Y-77462481D01*
X131877542Y-77020891D01*
X131981154Y-76500000D01*
X131877542Y-75979109D01*
X131582481Y-75537519D01*
X131140891Y-75242458D01*
X130751485Y-75165000D01*
X129088515Y-75165000D01*
X128699109Y-75242458D01*
X128257519Y-75537519D01*
X127962458Y-75979109D01*
X127858846Y-76500000D01*
X120710000Y-76500000D01*
X120710000Y-72627000D01*
X125085000Y-72627000D01*
X125085000Y-73327000D01*
X125235222Y-73828215D01*
X125565815Y-74233790D01*
X126026450Y-74481980D01*
X126086671Y-74492716D01*
X126293000Y-74369374D01*
X126293000Y-72627000D01*
X126547000Y-72627000D01*
X126547000Y-74369374D01*
X126753329Y-74492716D01*
X126813550Y-74481980D01*
X127274185Y-74233790D01*
X127604778Y-73828215D01*
X127755000Y-73327000D01*
X127755000Y-72627000D01*
X126547000Y-72627000D01*
X126293000Y-72627000D01*
X125085000Y-72627000D01*
X120710000Y-72627000D01*
X120710000Y-71673000D01*
X125085000Y-71673000D01*
X125085000Y-72373000D01*
X126293000Y-72373000D01*
X126293000Y-70630626D01*
X126547000Y-70630626D01*
X126547000Y-72373000D01*
X127755000Y-72373000D01*
X127755000Y-71673000D01*
X127604778Y-71171785D01*
X127274185Y-70766210D01*
X126813550Y-70518020D01*
X126753329Y-70507284D01*
X126547000Y-70630626D01*
X126293000Y-70630626D01*
X126086671Y-70507284D01*
X126026450Y-70518020D01*
X125565815Y-70766210D01*
X125235222Y-71171785D01*
X125085000Y-71673000D01*
X120710000Y-71673000D01*
X120710000Y-69295410D01*
X138103796Y-69295410D01*
X138131782Y-69845287D01*
X138288370Y-70223321D01*
X138529207Y-70291187D01*
X139320395Y-69500000D01*
X139679605Y-69500000D01*
X140470793Y-70291187D01*
X140711630Y-70223321D01*
X140896204Y-69704590D01*
X140875379Y-69295410D01*
X144603796Y-69295410D01*
X144631782Y-69845287D01*
X144788370Y-70223321D01*
X145029207Y-70291187D01*
X145820395Y-69500000D01*
X146179605Y-69500000D01*
X146970793Y-70291187D01*
X147211630Y-70223321D01*
X147396204Y-69704590D01*
X147368218Y-69154713D01*
X147211630Y-68776679D01*
X146970793Y-68708813D01*
X146179605Y-69500000D01*
X145820395Y-69500000D01*
X145029207Y-68708813D01*
X144788370Y-68776679D01*
X144603796Y-69295410D01*
X140875379Y-69295410D01*
X140868218Y-69154713D01*
X140711630Y-68776679D01*
X140470793Y-68708813D01*
X139679605Y-69500000D01*
X139320395Y-69500000D01*
X138529207Y-68708813D01*
X138288370Y-68776679D01*
X138103796Y-69295410D01*
X120710000Y-69295410D01*
X120710000Y-68210000D01*
X138965879Y-68210000D01*
X138776679Y-68288370D01*
G04 #@! TD*
M02*
