M48
;DRILL file {KiCad (5.0.1)-3} date 2/18/2021 11:14:41 AM
;FORMAT={-:-/ absolute / metric / decimal}
FMAT,2
METRIC,TZ
T1C0.400
T2C0.750
T3C0.800
T4C0.900
T5C0.990
T6C1.100
T7C1.200
T8C1.240
T9C1.520
%
G90
G05
M71
T1
X139.4Y-82.61
X149.894Y-87.806
X149.93Y-91.54
X157.458Y-89.635
T2
X151.23Y-102.
X152.5Y-102.
X153.77Y-102.
T3
X175.5Y-96.5
X175.5Y-99.
X130.5Y-101.5
X132.5Y-101.5
X137.Y-78.
X147.16Y-78.
X138.5Y-95.5
X146.12Y-95.5
X137.Y-92.
X147.16Y-92.
X158.94Y-81.09
X161.44Y-81.09
X137.Y-88.5
X147.16Y-88.5
X153.5Y-95.
X156.Y-95.
X137.Y-81.5
X147.16Y-81.5
X124.Y-80.5
X126.5Y-80.5
X153.Y-81.
X155.5Y-81.
X137.Y-85.
X147.16Y-85.
T4
X159.23Y-99.92
X161.77Y-99.92
T5
X139.5Y-69.5
X139.5Y-74.
X146.Y-69.5
X146.Y-74.
T6
X133.5Y-86.
X133.5Y-96.16
T7
X166.75Y-80.67
X166.75Y-103.07
T8
X128.Y-87.96
X128.Y-90.5
X128.Y-93.04
T9
X175.5Y-84.92
X175.5Y-90.
T3
X126.42Y-72.85G85X126.42Y-72.15
G05
X130.27Y-76.5G85X129.57Y-76.5
G05
X132.42Y-72.85G85X132.42Y-72.15
G05
T0
M30
