G04 #@! TF.GenerationSoftware,KiCad,Pcbnew,(5.0.1)-3*
G04 #@! TF.CreationDate,2021-02-18T11:14:39+05:45*
G04 #@! TF.ProjectId,Battery-Charger,426174746572792D436861726765722E,rev?*
G04 #@! TF.SameCoordinates,Original*
G04 #@! TF.FileFunction,Soldermask,Bot*
G04 #@! TF.FilePolarity,Negative*
%FSLAX46Y46*%
G04 Gerber Fmt 4.6, Leading zero omitted, Abs format (unit mm)*
G04 Created by KiCad (PCBNEW (5.0.1)-3) date 2/18/2021 11:14:39 AM*
%MOMM*%
%LPD*%
G01*
G04 APERTURE LIST*
%ADD10C,0.100000*%
G04 APERTURE END LIST*
D10*
G36*
X166933635Y-101831019D02*
X167114903Y-101867075D01*
X167342571Y-101961378D01*
X167546542Y-102097668D01*
X167547469Y-102098287D01*
X167721713Y-102272531D01*
X167721715Y-102272534D01*
X167858622Y-102477429D01*
X167952925Y-102705097D01*
X168001000Y-102946787D01*
X168001000Y-103193213D01*
X167952925Y-103434903D01*
X167858622Y-103662571D01*
X167722332Y-103866542D01*
X167721713Y-103867469D01*
X167547469Y-104041713D01*
X167547466Y-104041715D01*
X167342571Y-104178622D01*
X167114903Y-104272925D01*
X166933635Y-104308981D01*
X166873214Y-104321000D01*
X166626786Y-104321000D01*
X166566365Y-104308981D01*
X166385097Y-104272925D01*
X166157429Y-104178622D01*
X165952534Y-104041715D01*
X165952531Y-104041713D01*
X165778287Y-103867469D01*
X165777668Y-103866542D01*
X165641378Y-103662571D01*
X165547075Y-103434903D01*
X165499000Y-103193213D01*
X165499000Y-102946787D01*
X165547075Y-102705097D01*
X165641378Y-102477429D01*
X165778285Y-102272534D01*
X165778287Y-102272531D01*
X165952531Y-102098287D01*
X165953458Y-102097668D01*
X166157429Y-101961378D01*
X166385097Y-101867075D01*
X166566365Y-101831019D01*
X166626786Y-101819000D01*
X166873214Y-101819000D01*
X166933635Y-101831019D01*
X166933635Y-101831019D01*
G37*
G36*
X153882915Y-101207334D02*
X153991491Y-101240271D01*
X154091556Y-101293756D01*
X154179264Y-101365736D01*
X154251244Y-101453443D01*
X154304729Y-101553508D01*
X154337666Y-101662084D01*
X154346000Y-101746702D01*
X154346000Y-102253297D01*
X154337666Y-102337916D01*
X154304729Y-102446492D01*
X154251244Y-102546557D01*
X154179264Y-102634264D01*
X154091557Y-102706244D01*
X153991492Y-102759729D01*
X153882916Y-102792666D01*
X153770000Y-102803787D01*
X153657085Y-102792666D01*
X153548509Y-102759729D01*
X153448444Y-102706244D01*
X153360737Y-102634264D01*
X153288757Y-102546557D01*
X153245240Y-102465143D01*
X153231627Y-102444768D01*
X153214299Y-102427441D01*
X153193925Y-102413827D01*
X153171286Y-102404450D01*
X153147253Y-102399669D01*
X153122748Y-102399669D01*
X153098715Y-102404449D01*
X153076076Y-102413827D01*
X153055701Y-102427440D01*
X153038374Y-102444768D01*
X153024760Y-102465143D01*
X152981244Y-102546557D01*
X152909264Y-102634264D01*
X152821557Y-102706244D01*
X152721492Y-102759729D01*
X152612916Y-102792666D01*
X152500000Y-102803787D01*
X152387085Y-102792666D01*
X152278509Y-102759729D01*
X152178444Y-102706244D01*
X152090737Y-102634264D01*
X152027626Y-102557364D01*
X152010299Y-102540036D01*
X151989924Y-102526423D01*
X151967285Y-102517045D01*
X151943252Y-102512265D01*
X151918748Y-102512265D01*
X151894714Y-102517046D01*
X151872075Y-102526423D01*
X151851701Y-102540037D01*
X151834373Y-102557364D01*
X151820760Y-102577739D01*
X151811382Y-102600378D01*
X151806000Y-102636663D01*
X151806000Y-102801000D01*
X150654000Y-102801000D01*
X150654000Y-101199000D01*
X151806000Y-101199000D01*
X151806000Y-101363337D01*
X151808402Y-101387723D01*
X151815515Y-101411172D01*
X151827066Y-101432783D01*
X151842612Y-101451725D01*
X151861554Y-101467271D01*
X151883165Y-101478822D01*
X151906614Y-101485935D01*
X151931000Y-101488337D01*
X151955386Y-101485935D01*
X151978835Y-101478822D01*
X152000446Y-101467271D01*
X152027626Y-101442636D01*
X152035712Y-101432783D01*
X152090736Y-101365736D01*
X152178443Y-101293756D01*
X152278508Y-101240271D01*
X152387084Y-101207334D01*
X152500000Y-101196213D01*
X152612915Y-101207334D01*
X152721491Y-101240271D01*
X152821556Y-101293756D01*
X152909264Y-101365736D01*
X152981244Y-101453443D01*
X153024767Y-101534869D01*
X153038373Y-101555232D01*
X153055700Y-101572560D01*
X153076075Y-101586174D01*
X153098713Y-101595551D01*
X153122747Y-101600332D01*
X153147251Y-101600332D01*
X153171285Y-101595552D01*
X153193924Y-101586175D01*
X153214298Y-101572561D01*
X153231626Y-101555234D01*
X153245240Y-101534858D01*
X153288756Y-101453444D01*
X153305712Y-101432783D01*
X153360736Y-101365736D01*
X153448443Y-101293756D01*
X153548508Y-101240271D01*
X153657084Y-101207334D01*
X153770000Y-101196213D01*
X153882915Y-101207334D01*
X153882915Y-101207334D01*
G37*
G36*
X132748228Y-100681703D02*
X132903100Y-100745853D01*
X133042481Y-100838985D01*
X133161015Y-100957519D01*
X133254147Y-101096900D01*
X133318297Y-101251772D01*
X133351000Y-101416184D01*
X133351000Y-101583816D01*
X133318297Y-101748228D01*
X133254147Y-101903100D01*
X133161015Y-102042481D01*
X133042481Y-102161015D01*
X132903100Y-102254147D01*
X132748228Y-102318297D01*
X132583816Y-102351000D01*
X132416184Y-102351000D01*
X132251772Y-102318297D01*
X132096900Y-102254147D01*
X131957519Y-102161015D01*
X131838985Y-102042481D01*
X131745853Y-101903100D01*
X131681703Y-101748228D01*
X131649000Y-101583816D01*
X131649000Y-101416184D01*
X131681703Y-101251772D01*
X131745853Y-101096900D01*
X131838985Y-100957519D01*
X131957519Y-100838985D01*
X132096900Y-100745853D01*
X132251772Y-100681703D01*
X132416184Y-100649000D01*
X132583816Y-100649000D01*
X132748228Y-100681703D01*
X132748228Y-100681703D01*
G37*
G36*
X131351000Y-102351000D02*
X129649000Y-102351000D01*
X129649000Y-100649000D01*
X131351000Y-100649000D01*
X131351000Y-102351000D01*
X131351000Y-102351000D01*
G37*
G36*
X125335734Y-98893232D02*
X125545202Y-98979996D01*
X125733723Y-99105962D01*
X125894038Y-99266277D01*
X126020004Y-99454798D01*
X126106768Y-99664266D01*
X126151000Y-99886635D01*
X126151000Y-100113365D01*
X126106768Y-100335734D01*
X126020004Y-100545202D01*
X125894038Y-100733723D01*
X125733723Y-100894038D01*
X125545202Y-101020004D01*
X125335734Y-101106768D01*
X125113365Y-101151000D01*
X124886635Y-101151000D01*
X124664266Y-101106768D01*
X124454798Y-101020004D01*
X124266277Y-100894038D01*
X124105962Y-100733723D01*
X123979996Y-100545202D01*
X123893232Y-100335734D01*
X123849000Y-100113365D01*
X123849000Y-99886635D01*
X123893232Y-99664266D01*
X123979996Y-99454798D01*
X124105962Y-99266277D01*
X124266277Y-99105962D01*
X124454798Y-98979996D01*
X124664266Y-98893232D01*
X124886635Y-98849000D01*
X125113365Y-98849000D01*
X125335734Y-98893232D01*
X125335734Y-98893232D01*
G37*
G36*
X162047396Y-99005546D02*
X162220466Y-99077234D01*
X162376230Y-99181312D01*
X162508688Y-99313770D01*
X162612766Y-99469534D01*
X162684454Y-99642604D01*
X162721000Y-99826333D01*
X162721000Y-100013667D01*
X162684454Y-100197396D01*
X162612766Y-100370466D01*
X162508688Y-100526230D01*
X162376230Y-100658688D01*
X162220466Y-100762766D01*
X162047396Y-100834454D01*
X161863667Y-100871000D01*
X161676333Y-100871000D01*
X161492604Y-100834454D01*
X161319534Y-100762766D01*
X161163770Y-100658688D01*
X161031312Y-100526230D01*
X160927234Y-100370466D01*
X160855546Y-100197396D01*
X160819000Y-100013667D01*
X160819000Y-99826333D01*
X160855546Y-99642604D01*
X160927234Y-99469534D01*
X161031312Y-99313770D01*
X161163770Y-99181312D01*
X161319534Y-99077234D01*
X161492604Y-99005546D01*
X161676333Y-98969000D01*
X161863667Y-98969000D01*
X162047396Y-99005546D01*
X162047396Y-99005546D01*
G37*
G36*
X160181000Y-100871000D02*
X158279000Y-100871000D01*
X158279000Y-98969000D01*
X160181000Y-98969000D01*
X160181000Y-100871000D01*
X160181000Y-100871000D01*
G37*
G36*
X175748228Y-98181703D02*
X175903100Y-98245853D01*
X176042481Y-98338985D01*
X176161015Y-98457519D01*
X176254147Y-98596900D01*
X176318297Y-98751772D01*
X176351000Y-98916184D01*
X176351000Y-99083816D01*
X176318297Y-99248228D01*
X176254147Y-99403100D01*
X176161015Y-99542481D01*
X176042481Y-99661015D01*
X175903100Y-99754147D01*
X175748228Y-99818297D01*
X175583816Y-99851000D01*
X175416184Y-99851000D01*
X175251772Y-99818297D01*
X175096900Y-99754147D01*
X174957519Y-99661015D01*
X174838985Y-99542481D01*
X174745853Y-99403100D01*
X174681703Y-99248228D01*
X174649000Y-99083816D01*
X174649000Y-98916184D01*
X174681703Y-98751772D01*
X174745853Y-98596900D01*
X174838985Y-98457519D01*
X174957519Y-98338985D01*
X175096900Y-98245853D01*
X175251772Y-98181703D01*
X175416184Y-98149000D01*
X175583816Y-98149000D01*
X175748228Y-98181703D01*
X175748228Y-98181703D01*
G37*
G36*
X175748228Y-95681703D02*
X175903100Y-95745853D01*
X176042481Y-95838985D01*
X176161015Y-95957519D01*
X176254147Y-96096900D01*
X176318297Y-96251772D01*
X176351000Y-96416184D01*
X176351000Y-96583816D01*
X176318297Y-96748228D01*
X176254147Y-96903100D01*
X176161015Y-97042481D01*
X176042481Y-97161015D01*
X175903100Y-97254147D01*
X175748228Y-97318297D01*
X175583816Y-97351000D01*
X175416184Y-97351000D01*
X175251772Y-97318297D01*
X175096900Y-97254147D01*
X174957519Y-97161015D01*
X174838985Y-97042481D01*
X174745853Y-96903100D01*
X174681703Y-96748228D01*
X174649000Y-96583816D01*
X174649000Y-96416184D01*
X174681703Y-96251772D01*
X174745853Y-96096900D01*
X174838985Y-95957519D01*
X174957519Y-95838985D01*
X175096900Y-95745853D01*
X175251772Y-95681703D01*
X175416184Y-95649000D01*
X175583816Y-95649000D01*
X175748228Y-95681703D01*
X175748228Y-95681703D01*
G37*
G36*
X133624180Y-95015662D02*
X133725635Y-95025654D01*
X133942600Y-95091470D01*
X133942602Y-95091471D01*
X133942605Y-95091472D01*
X134142556Y-95198347D01*
X134317818Y-95342182D01*
X134461653Y-95517444D01*
X134568528Y-95717395D01*
X134568529Y-95717398D01*
X134568530Y-95717400D01*
X134634346Y-95934365D01*
X134656569Y-96160000D01*
X134634346Y-96385635D01*
X134574228Y-96583816D01*
X134568528Y-96602605D01*
X134461653Y-96802556D01*
X134317818Y-96977818D01*
X134142556Y-97121653D01*
X133942605Y-97228528D01*
X133942602Y-97228529D01*
X133942600Y-97228530D01*
X133725635Y-97294346D01*
X133624180Y-97304338D01*
X133556545Y-97311000D01*
X133443455Y-97311000D01*
X133375820Y-97304338D01*
X133274365Y-97294346D01*
X133057400Y-97228530D01*
X133057398Y-97228529D01*
X133057395Y-97228528D01*
X132857444Y-97121653D01*
X132682182Y-96977818D01*
X132538347Y-96802556D01*
X132431472Y-96602605D01*
X132425772Y-96583816D01*
X132365654Y-96385635D01*
X132343431Y-96160000D01*
X132365654Y-95934365D01*
X132431470Y-95717400D01*
X132431471Y-95717398D01*
X132431472Y-95717395D01*
X132538347Y-95517444D01*
X132682182Y-95342182D01*
X132857444Y-95198347D01*
X133057395Y-95091472D01*
X133057398Y-95091471D01*
X133057400Y-95091470D01*
X133274365Y-95025654D01*
X133375820Y-95015662D01*
X133443455Y-95009000D01*
X133556545Y-95009000D01*
X133624180Y-95015662D01*
X133624180Y-95015662D01*
G37*
G36*
X146286821Y-94661313D02*
X146286824Y-94661314D01*
X146286825Y-94661314D01*
X146447239Y-94709975D01*
X146447241Y-94709976D01*
X146447244Y-94709977D01*
X146595078Y-94788995D01*
X146724659Y-94895341D01*
X146831005Y-95024922D01*
X146910023Y-95172756D01*
X146910024Y-95172759D01*
X146910025Y-95172761D01*
X146958686Y-95333175D01*
X146958687Y-95333179D01*
X146975117Y-95500000D01*
X146958687Y-95666821D01*
X146958686Y-95666824D01*
X146958686Y-95666825D01*
X146912738Y-95818297D01*
X146910023Y-95827244D01*
X146831005Y-95975078D01*
X146724659Y-96104659D01*
X146595078Y-96211005D01*
X146447244Y-96290023D01*
X146447241Y-96290024D01*
X146447239Y-96290025D01*
X146286825Y-96338686D01*
X146286824Y-96338686D01*
X146286821Y-96338687D01*
X146161804Y-96351000D01*
X146078196Y-96351000D01*
X145953179Y-96338687D01*
X145953176Y-96338686D01*
X145953175Y-96338686D01*
X145792761Y-96290025D01*
X145792759Y-96290024D01*
X145792756Y-96290023D01*
X145644922Y-96211005D01*
X145515341Y-96104659D01*
X145408995Y-95975078D01*
X145329977Y-95827244D01*
X145327263Y-95818297D01*
X145281314Y-95666825D01*
X145281314Y-95666824D01*
X145281313Y-95666821D01*
X145264883Y-95500000D01*
X145281313Y-95333179D01*
X145281314Y-95333175D01*
X145329975Y-95172761D01*
X145329976Y-95172759D01*
X145329977Y-95172756D01*
X145408995Y-95024922D01*
X145515341Y-94895341D01*
X145644922Y-94788995D01*
X145792756Y-94709977D01*
X145792759Y-94709976D01*
X145792761Y-94709975D01*
X145953175Y-94661314D01*
X145953176Y-94661314D01*
X145953179Y-94661313D01*
X146078196Y-94649000D01*
X146161804Y-94649000D01*
X146286821Y-94661313D01*
X146286821Y-94661313D01*
G37*
G36*
X139351000Y-96351000D02*
X137649000Y-96351000D01*
X137649000Y-94649000D01*
X139351000Y-94649000D01*
X139351000Y-96351000D01*
X139351000Y-96351000D01*
G37*
G36*
X156248228Y-94181703D02*
X156403100Y-94245853D01*
X156542481Y-94338985D01*
X156661015Y-94457519D01*
X156754147Y-94596900D01*
X156818297Y-94751772D01*
X156851000Y-94916184D01*
X156851000Y-95083816D01*
X156818297Y-95248228D01*
X156754147Y-95403100D01*
X156661015Y-95542481D01*
X156542481Y-95661015D01*
X156403100Y-95754147D01*
X156248228Y-95818297D01*
X156083816Y-95851000D01*
X155916184Y-95851000D01*
X155751772Y-95818297D01*
X155596900Y-95754147D01*
X155457519Y-95661015D01*
X155338985Y-95542481D01*
X155245853Y-95403100D01*
X155181703Y-95248228D01*
X155149000Y-95083816D01*
X155149000Y-94916184D01*
X155181703Y-94751772D01*
X155245853Y-94596900D01*
X155338985Y-94457519D01*
X155457519Y-94338985D01*
X155596900Y-94245853D01*
X155751772Y-94181703D01*
X155916184Y-94149000D01*
X156083816Y-94149000D01*
X156248228Y-94181703D01*
X156248228Y-94181703D01*
G37*
G36*
X153748228Y-94181703D02*
X153903100Y-94245853D01*
X154042481Y-94338985D01*
X154161015Y-94457519D01*
X154254147Y-94596900D01*
X154318297Y-94751772D01*
X154351000Y-94916184D01*
X154351000Y-95083816D01*
X154318297Y-95248228D01*
X154254147Y-95403100D01*
X154161015Y-95542481D01*
X154042481Y-95661015D01*
X153903100Y-95754147D01*
X153748228Y-95818297D01*
X153583816Y-95851000D01*
X153416184Y-95851000D01*
X153251772Y-95818297D01*
X153096900Y-95754147D01*
X152957519Y-95661015D01*
X152838985Y-95542481D01*
X152745853Y-95403100D01*
X152681703Y-95248228D01*
X152649000Y-95083816D01*
X152649000Y-94916184D01*
X152681703Y-94751772D01*
X152745853Y-94596900D01*
X152838985Y-94457519D01*
X152957519Y-94338985D01*
X153096900Y-94245853D01*
X153251772Y-94181703D01*
X153416184Y-94149000D01*
X153583816Y-94149000D01*
X153748228Y-94181703D01*
X153748228Y-94181703D01*
G37*
G36*
X128981000Y-94021000D02*
X127019000Y-94021000D01*
X127019000Y-92059000D01*
X128981000Y-92059000D01*
X128981000Y-94021000D01*
X128981000Y-94021000D01*
G37*
G36*
X147326821Y-91161313D02*
X147326824Y-91161314D01*
X147326825Y-91161314D01*
X147487239Y-91209975D01*
X147487241Y-91209976D01*
X147487244Y-91209977D01*
X147635078Y-91288995D01*
X147764659Y-91395341D01*
X147871005Y-91524922D01*
X147950023Y-91672756D01*
X147950024Y-91672759D01*
X147950025Y-91672761D01*
X147998686Y-91833175D01*
X147998687Y-91833179D01*
X148015117Y-92000000D01*
X147998687Y-92166821D01*
X147998686Y-92166824D01*
X147998686Y-92166825D01*
X147973993Y-92248228D01*
X147950023Y-92327244D01*
X147871005Y-92475078D01*
X147764659Y-92604659D01*
X147635078Y-92711005D01*
X147487244Y-92790023D01*
X147487241Y-92790024D01*
X147487239Y-92790025D01*
X147326825Y-92838686D01*
X147326824Y-92838686D01*
X147326821Y-92838687D01*
X147201804Y-92851000D01*
X147118196Y-92851000D01*
X146993179Y-92838687D01*
X146993176Y-92838686D01*
X146993175Y-92838686D01*
X146832761Y-92790025D01*
X146832759Y-92790024D01*
X146832756Y-92790023D01*
X146684922Y-92711005D01*
X146555341Y-92604659D01*
X146448995Y-92475078D01*
X146369977Y-92327244D01*
X146346008Y-92248228D01*
X146321314Y-92166825D01*
X146321314Y-92166824D01*
X146321313Y-92166821D01*
X146304883Y-92000000D01*
X146321313Y-91833179D01*
X146321314Y-91833175D01*
X146369975Y-91672761D01*
X146369976Y-91672759D01*
X146369977Y-91672756D01*
X146448995Y-91524922D01*
X146555341Y-91395341D01*
X146684922Y-91288995D01*
X146832756Y-91209977D01*
X146832759Y-91209976D01*
X146832761Y-91209975D01*
X146993175Y-91161314D01*
X146993176Y-91161314D01*
X146993179Y-91161313D01*
X147118196Y-91149000D01*
X147201804Y-91149000D01*
X147326821Y-91161313D01*
X147326821Y-91161313D01*
G37*
G36*
X137248228Y-91181703D02*
X137403100Y-91245853D01*
X137542481Y-91338985D01*
X137661015Y-91457519D01*
X137754147Y-91596900D01*
X137818297Y-91751772D01*
X137851000Y-91916184D01*
X137851000Y-92083816D01*
X137818297Y-92248228D01*
X137754147Y-92403100D01*
X137661015Y-92542481D01*
X137542481Y-92661015D01*
X137403100Y-92754147D01*
X137248228Y-92818297D01*
X137083816Y-92851000D01*
X136916184Y-92851000D01*
X136751772Y-92818297D01*
X136596900Y-92754147D01*
X136457519Y-92661015D01*
X136338985Y-92542481D01*
X136245853Y-92403100D01*
X136181703Y-92248228D01*
X136149000Y-92083816D01*
X136149000Y-91916184D01*
X136181703Y-91751772D01*
X136245853Y-91596900D01*
X136338985Y-91457519D01*
X136457519Y-91338985D01*
X136596900Y-91245853D01*
X136751772Y-91181703D01*
X136916184Y-91149000D01*
X137083816Y-91149000D01*
X137248228Y-91181703D01*
X137248228Y-91181703D01*
G37*
G36*
X177051000Y-91551000D02*
X173949000Y-91551000D01*
X173949000Y-88449000D01*
X177051000Y-88449000D01*
X177051000Y-91551000D01*
X177051000Y-91551000D01*
G37*
G36*
X128144002Y-89528425D02*
X128286147Y-89556699D01*
X128464678Y-89630649D01*
X128625351Y-89738007D01*
X128761993Y-89874649D01*
X128869351Y-90035322D01*
X128943301Y-90213853D01*
X128981000Y-90403380D01*
X128981000Y-90596620D01*
X128943301Y-90786147D01*
X128869351Y-90964678D01*
X128761993Y-91125351D01*
X128625351Y-91261993D01*
X128464678Y-91369351D01*
X128286147Y-91443301D01*
X128144002Y-91471575D01*
X128096621Y-91481000D01*
X127903379Y-91481000D01*
X127855998Y-91471575D01*
X127713853Y-91443301D01*
X127535322Y-91369351D01*
X127374649Y-91261993D01*
X127238007Y-91125351D01*
X127130649Y-90964678D01*
X127056699Y-90786147D01*
X127019000Y-90596620D01*
X127019000Y-90403380D01*
X127056699Y-90213853D01*
X127130649Y-90035322D01*
X127238007Y-89874649D01*
X127374649Y-89738007D01*
X127535322Y-89630649D01*
X127713853Y-89556699D01*
X127855998Y-89528425D01*
X127903379Y-89519000D01*
X128096621Y-89519000D01*
X128144002Y-89528425D01*
X128144002Y-89528425D01*
G37*
G36*
X137248228Y-87681703D02*
X137403100Y-87745853D01*
X137542481Y-87838985D01*
X137661015Y-87957519D01*
X137754147Y-88096900D01*
X137818297Y-88251772D01*
X137851000Y-88416184D01*
X137851000Y-88583816D01*
X137818297Y-88748228D01*
X137754147Y-88903100D01*
X137661015Y-89042481D01*
X137542481Y-89161015D01*
X137403100Y-89254147D01*
X137248228Y-89318297D01*
X137083816Y-89351000D01*
X136916184Y-89351000D01*
X136751772Y-89318297D01*
X136596900Y-89254147D01*
X136457519Y-89161015D01*
X136338985Y-89042481D01*
X136245853Y-88903100D01*
X136181703Y-88748228D01*
X136149000Y-88583816D01*
X136149000Y-88416184D01*
X136181703Y-88251772D01*
X136245853Y-88096900D01*
X136338985Y-87957519D01*
X136457519Y-87838985D01*
X136596900Y-87745853D01*
X136751772Y-87681703D01*
X136916184Y-87649000D01*
X137083816Y-87649000D01*
X137248228Y-87681703D01*
X137248228Y-87681703D01*
G37*
G36*
X147326821Y-87661313D02*
X147326824Y-87661314D01*
X147326825Y-87661314D01*
X147487239Y-87709975D01*
X147487241Y-87709976D01*
X147487244Y-87709977D01*
X147635078Y-87788995D01*
X147764659Y-87895341D01*
X147871005Y-88024922D01*
X147950023Y-88172756D01*
X147950024Y-88172759D01*
X147950025Y-88172761D01*
X147998686Y-88333175D01*
X147998687Y-88333179D01*
X148015117Y-88500000D01*
X147998687Y-88666821D01*
X147998686Y-88666824D01*
X147998686Y-88666825D01*
X147973993Y-88748228D01*
X147950023Y-88827244D01*
X147871005Y-88975078D01*
X147764659Y-89104659D01*
X147635078Y-89211005D01*
X147487244Y-89290023D01*
X147487241Y-89290024D01*
X147487239Y-89290025D01*
X147326825Y-89338686D01*
X147326824Y-89338686D01*
X147326821Y-89338687D01*
X147201804Y-89351000D01*
X147118196Y-89351000D01*
X146993179Y-89338687D01*
X146993176Y-89338686D01*
X146993175Y-89338686D01*
X146832761Y-89290025D01*
X146832759Y-89290024D01*
X146832756Y-89290023D01*
X146684922Y-89211005D01*
X146555341Y-89104659D01*
X146448995Y-88975078D01*
X146369977Y-88827244D01*
X146346008Y-88748228D01*
X146321314Y-88666825D01*
X146321314Y-88666824D01*
X146321313Y-88666821D01*
X146304883Y-88500000D01*
X146321313Y-88333179D01*
X146321314Y-88333175D01*
X146369975Y-88172761D01*
X146369976Y-88172759D01*
X146369977Y-88172756D01*
X146448995Y-88024922D01*
X146555341Y-87895341D01*
X146684922Y-87788995D01*
X146832756Y-87709977D01*
X146832759Y-87709976D01*
X146832761Y-87709975D01*
X146993175Y-87661314D01*
X146993176Y-87661314D01*
X146993179Y-87661313D01*
X147118196Y-87649000D01*
X147201804Y-87649000D01*
X147326821Y-87661313D01*
X147326821Y-87661313D01*
G37*
G36*
X128144002Y-86988425D02*
X128286147Y-87016699D01*
X128464678Y-87090649D01*
X128625351Y-87198007D01*
X128761993Y-87334649D01*
X128869351Y-87495322D01*
X128943301Y-87673853D01*
X128981000Y-87863380D01*
X128981000Y-88056620D01*
X128943301Y-88246147D01*
X128869351Y-88424678D01*
X128761993Y-88585351D01*
X128625351Y-88721993D01*
X128464678Y-88829351D01*
X128286147Y-88903301D01*
X128144002Y-88931575D01*
X128096621Y-88941000D01*
X127903379Y-88941000D01*
X127855998Y-88931575D01*
X127713853Y-88903301D01*
X127535322Y-88829351D01*
X127374649Y-88721993D01*
X127238007Y-88585351D01*
X127130649Y-88424678D01*
X127056699Y-88246147D01*
X127019000Y-88056620D01*
X127019000Y-87863380D01*
X127056699Y-87673853D01*
X127130649Y-87495322D01*
X127238007Y-87334649D01*
X127374649Y-87198007D01*
X127535322Y-87090649D01*
X127713853Y-87016699D01*
X127855998Y-86988425D01*
X127903379Y-86979000D01*
X128096621Y-86979000D01*
X128144002Y-86988425D01*
X128144002Y-86988425D01*
G37*
G36*
X134651000Y-87151000D02*
X132349000Y-87151000D01*
X132349000Y-84849000D01*
X134651000Y-84849000D01*
X134651000Y-87151000D01*
X134651000Y-87151000D01*
G37*
G36*
X175852527Y-83408736D02*
X175952410Y-83428604D01*
X176234674Y-83545521D01*
X176488705Y-83715259D01*
X176704741Y-83931295D01*
X176874479Y-84185326D01*
X176987224Y-84457519D01*
X176991396Y-84467591D01*
X177051000Y-84767238D01*
X177051000Y-85072762D01*
X177016097Y-85248228D01*
X176991396Y-85372410D01*
X176874479Y-85654674D01*
X176704741Y-85908705D01*
X176488705Y-86124741D01*
X176234674Y-86294479D01*
X175952410Y-86411396D01*
X175852527Y-86431264D01*
X175652762Y-86471000D01*
X175347238Y-86471000D01*
X175147473Y-86431264D01*
X175047590Y-86411396D01*
X174765326Y-86294479D01*
X174511295Y-86124741D01*
X174295259Y-85908705D01*
X174125521Y-85654674D01*
X174008604Y-85372410D01*
X173983903Y-85248228D01*
X173949000Y-85072762D01*
X173949000Y-84767238D01*
X174008604Y-84467591D01*
X174012776Y-84457519D01*
X174125521Y-84185326D01*
X174295259Y-83931295D01*
X174511295Y-83715259D01*
X174765326Y-83545521D01*
X175047590Y-83428604D01*
X175147473Y-83408736D01*
X175347238Y-83369000D01*
X175652762Y-83369000D01*
X175852527Y-83408736D01*
X175852527Y-83408736D01*
G37*
G36*
X137248228Y-84181703D02*
X137403100Y-84245853D01*
X137542481Y-84338985D01*
X137661015Y-84457519D01*
X137754147Y-84596900D01*
X137818297Y-84751772D01*
X137851000Y-84916184D01*
X137851000Y-85083816D01*
X137818297Y-85248228D01*
X137754147Y-85403100D01*
X137661015Y-85542481D01*
X137542481Y-85661015D01*
X137403100Y-85754147D01*
X137248228Y-85818297D01*
X137083816Y-85851000D01*
X136916184Y-85851000D01*
X136751772Y-85818297D01*
X136596900Y-85754147D01*
X136457519Y-85661015D01*
X136338985Y-85542481D01*
X136245853Y-85403100D01*
X136181703Y-85248228D01*
X136149000Y-85083816D01*
X136149000Y-84916184D01*
X136181703Y-84751772D01*
X136245853Y-84596900D01*
X136338985Y-84457519D01*
X136457519Y-84338985D01*
X136596900Y-84245853D01*
X136751772Y-84181703D01*
X136916184Y-84149000D01*
X137083816Y-84149000D01*
X137248228Y-84181703D01*
X137248228Y-84181703D01*
G37*
G36*
X147326821Y-84161313D02*
X147326824Y-84161314D01*
X147326825Y-84161314D01*
X147487239Y-84209975D01*
X147487241Y-84209976D01*
X147487244Y-84209977D01*
X147635078Y-84288995D01*
X147764659Y-84395341D01*
X147871005Y-84524922D01*
X147950023Y-84672756D01*
X147950024Y-84672759D01*
X147950025Y-84672761D01*
X147978684Y-84767238D01*
X147998687Y-84833179D01*
X148015117Y-85000000D01*
X147998687Y-85166821D01*
X147998686Y-85166824D01*
X147998686Y-85166825D01*
X147973993Y-85248228D01*
X147950023Y-85327244D01*
X147871005Y-85475078D01*
X147764659Y-85604659D01*
X147635078Y-85711005D01*
X147487244Y-85790023D01*
X147487241Y-85790024D01*
X147487239Y-85790025D01*
X147326825Y-85838686D01*
X147326824Y-85838686D01*
X147326821Y-85838687D01*
X147201804Y-85851000D01*
X147118196Y-85851000D01*
X146993179Y-85838687D01*
X146993176Y-85838686D01*
X146993175Y-85838686D01*
X146832761Y-85790025D01*
X146832759Y-85790024D01*
X146832756Y-85790023D01*
X146684922Y-85711005D01*
X146555341Y-85604659D01*
X146448995Y-85475078D01*
X146369977Y-85327244D01*
X146346008Y-85248228D01*
X146321314Y-85166825D01*
X146321314Y-85166824D01*
X146321313Y-85166821D01*
X146304883Y-85000000D01*
X146321313Y-84833179D01*
X146341316Y-84767238D01*
X146369975Y-84672761D01*
X146369976Y-84672759D01*
X146369977Y-84672756D01*
X146448995Y-84524922D01*
X146555341Y-84395341D01*
X146684922Y-84288995D01*
X146832756Y-84209977D01*
X146832759Y-84209976D01*
X146832761Y-84209975D01*
X146993175Y-84161314D01*
X146993176Y-84161314D01*
X146993179Y-84161313D01*
X147118196Y-84149000D01*
X147201804Y-84149000D01*
X147326821Y-84161313D01*
X147326821Y-84161313D01*
G37*
G36*
X147326821Y-80661313D02*
X147326824Y-80661314D01*
X147326825Y-80661314D01*
X147487239Y-80709975D01*
X147487241Y-80709976D01*
X147487244Y-80709977D01*
X147635078Y-80788995D01*
X147764659Y-80895341D01*
X147871005Y-81024922D01*
X147950023Y-81172756D01*
X147950024Y-81172759D01*
X147950025Y-81172761D01*
X147994173Y-81318297D01*
X147998687Y-81333179D01*
X148015117Y-81500000D01*
X147998687Y-81666821D01*
X147998686Y-81666824D01*
X147998686Y-81666825D01*
X147952738Y-81818297D01*
X147950023Y-81827244D01*
X147871005Y-81975078D01*
X147764659Y-82104659D01*
X147635078Y-82211005D01*
X147487244Y-82290023D01*
X147487241Y-82290024D01*
X147487239Y-82290025D01*
X147326825Y-82338686D01*
X147326824Y-82338686D01*
X147326821Y-82338687D01*
X147201804Y-82351000D01*
X147118196Y-82351000D01*
X146993179Y-82338687D01*
X146993176Y-82338686D01*
X146993175Y-82338686D01*
X146832761Y-82290025D01*
X146832759Y-82290024D01*
X146832756Y-82290023D01*
X146684922Y-82211005D01*
X146555341Y-82104659D01*
X146448995Y-81975078D01*
X146369977Y-81827244D01*
X146367263Y-81818297D01*
X146321314Y-81666825D01*
X146321314Y-81666824D01*
X146321313Y-81666821D01*
X146304883Y-81500000D01*
X146321313Y-81333179D01*
X146325827Y-81318297D01*
X146369975Y-81172761D01*
X146369976Y-81172759D01*
X146369977Y-81172756D01*
X146448995Y-81024922D01*
X146555341Y-80895341D01*
X146684922Y-80788995D01*
X146832756Y-80709977D01*
X146832759Y-80709976D01*
X146832761Y-80709975D01*
X146993175Y-80661314D01*
X146993176Y-80661314D01*
X146993179Y-80661313D01*
X147118196Y-80649000D01*
X147201804Y-80649000D01*
X147326821Y-80661313D01*
X147326821Y-80661313D01*
G37*
G36*
X137248228Y-80681703D02*
X137403100Y-80745853D01*
X137542481Y-80838985D01*
X137661015Y-80957519D01*
X137754147Y-81096900D01*
X137818297Y-81251772D01*
X137851000Y-81416184D01*
X137851000Y-81583816D01*
X137818297Y-81748228D01*
X137754147Y-81903100D01*
X137661015Y-82042481D01*
X137542481Y-82161015D01*
X137403100Y-82254147D01*
X137248228Y-82318297D01*
X137083816Y-82351000D01*
X136916184Y-82351000D01*
X136751772Y-82318297D01*
X136596900Y-82254147D01*
X136457519Y-82161015D01*
X136338985Y-82042481D01*
X136245853Y-81903100D01*
X136181703Y-81748228D01*
X136149000Y-81583816D01*
X136149000Y-81416184D01*
X136181703Y-81251772D01*
X136245853Y-81096900D01*
X136338985Y-80957519D01*
X136457519Y-80838985D01*
X136596900Y-80745853D01*
X136751772Y-80681703D01*
X136916184Y-80649000D01*
X137083816Y-80649000D01*
X137248228Y-80681703D01*
X137248228Y-80681703D01*
G37*
G36*
X161688228Y-80271703D02*
X161843100Y-80335853D01*
X161982481Y-80428985D01*
X162101015Y-80547519D01*
X162194147Y-80686900D01*
X162258297Y-80841772D01*
X162291000Y-81006184D01*
X162291000Y-81173816D01*
X162258297Y-81338228D01*
X162194147Y-81493100D01*
X162101015Y-81632481D01*
X161982481Y-81751015D01*
X161843100Y-81844147D01*
X161688228Y-81908297D01*
X161523816Y-81941000D01*
X161356184Y-81941000D01*
X161191772Y-81908297D01*
X161036900Y-81844147D01*
X160897519Y-81751015D01*
X160778985Y-81632481D01*
X160685853Y-81493100D01*
X160621703Y-81338228D01*
X160589000Y-81173816D01*
X160589000Y-81006184D01*
X160621703Y-80841772D01*
X160685853Y-80686900D01*
X160778985Y-80547519D01*
X160897519Y-80428985D01*
X161036900Y-80335853D01*
X161191772Y-80271703D01*
X161356184Y-80239000D01*
X161523816Y-80239000D01*
X161688228Y-80271703D01*
X161688228Y-80271703D01*
G37*
G36*
X159188228Y-80271703D02*
X159343100Y-80335853D01*
X159482481Y-80428985D01*
X159601015Y-80547519D01*
X159694147Y-80686900D01*
X159758297Y-80841772D01*
X159791000Y-81006184D01*
X159791000Y-81173816D01*
X159758297Y-81338228D01*
X159694147Y-81493100D01*
X159601015Y-81632481D01*
X159482481Y-81751015D01*
X159343100Y-81844147D01*
X159188228Y-81908297D01*
X159023816Y-81941000D01*
X158856184Y-81941000D01*
X158691772Y-81908297D01*
X158536900Y-81844147D01*
X158397519Y-81751015D01*
X158278985Y-81632481D01*
X158185853Y-81493100D01*
X158121703Y-81338228D01*
X158089000Y-81173816D01*
X158089000Y-81006184D01*
X158121703Y-80841772D01*
X158185853Y-80686900D01*
X158278985Y-80547519D01*
X158397519Y-80428985D01*
X158536900Y-80335853D01*
X158691772Y-80271703D01*
X158856184Y-80239000D01*
X159023816Y-80239000D01*
X159188228Y-80271703D01*
X159188228Y-80271703D01*
G37*
G36*
X166995239Y-79437101D02*
X167231053Y-79508634D01*
X167448381Y-79624799D01*
X167638871Y-79781129D01*
X167795201Y-79971619D01*
X167911366Y-80188947D01*
X167982899Y-80424761D01*
X168007053Y-80670000D01*
X167982899Y-80915239D01*
X167911366Y-81151053D01*
X167795201Y-81368381D01*
X167638871Y-81558871D01*
X167448381Y-81715201D01*
X167231053Y-81831366D01*
X166995239Y-81902899D01*
X166811457Y-81921000D01*
X166688543Y-81921000D01*
X166504761Y-81902899D01*
X166268947Y-81831366D01*
X166051619Y-81715201D01*
X165861129Y-81558871D01*
X165704799Y-81368381D01*
X165588634Y-81151053D01*
X165517101Y-80915239D01*
X165492947Y-80670000D01*
X165517101Y-80424761D01*
X165588634Y-80188947D01*
X165704799Y-79971619D01*
X165861129Y-79781129D01*
X166051619Y-79624799D01*
X166268947Y-79508634D01*
X166504761Y-79437101D01*
X166688543Y-79419000D01*
X166811457Y-79419000D01*
X166995239Y-79437101D01*
X166995239Y-79437101D01*
G37*
G36*
X153248228Y-80181703D02*
X153403100Y-80245853D01*
X153542481Y-80338985D01*
X153661015Y-80457519D01*
X153754147Y-80596900D01*
X153818297Y-80751772D01*
X153851000Y-80916184D01*
X153851000Y-81083816D01*
X153818297Y-81248228D01*
X153754147Y-81403100D01*
X153661015Y-81542481D01*
X153542481Y-81661015D01*
X153403100Y-81754147D01*
X153248228Y-81818297D01*
X153083816Y-81851000D01*
X152916184Y-81851000D01*
X152751772Y-81818297D01*
X152596900Y-81754147D01*
X152457519Y-81661015D01*
X152338985Y-81542481D01*
X152245853Y-81403100D01*
X152181703Y-81248228D01*
X152149000Y-81083816D01*
X152149000Y-80916184D01*
X152181703Y-80751772D01*
X152245853Y-80596900D01*
X152338985Y-80457519D01*
X152457519Y-80338985D01*
X152596900Y-80245853D01*
X152751772Y-80181703D01*
X152916184Y-80149000D01*
X153083816Y-80149000D01*
X153248228Y-80181703D01*
X153248228Y-80181703D01*
G37*
G36*
X155748228Y-80181703D02*
X155903100Y-80245853D01*
X156042481Y-80338985D01*
X156161015Y-80457519D01*
X156254147Y-80596900D01*
X156318297Y-80751772D01*
X156351000Y-80916184D01*
X156351000Y-81083816D01*
X156318297Y-81248228D01*
X156254147Y-81403100D01*
X156161015Y-81542481D01*
X156042481Y-81661015D01*
X155903100Y-81754147D01*
X155748228Y-81818297D01*
X155583816Y-81851000D01*
X155416184Y-81851000D01*
X155251772Y-81818297D01*
X155096900Y-81754147D01*
X154957519Y-81661015D01*
X154838985Y-81542481D01*
X154745853Y-81403100D01*
X154681703Y-81248228D01*
X154649000Y-81083816D01*
X154649000Y-80916184D01*
X154681703Y-80751772D01*
X154745853Y-80596900D01*
X154838985Y-80457519D01*
X154957519Y-80338985D01*
X155096900Y-80245853D01*
X155251772Y-80181703D01*
X155416184Y-80149000D01*
X155583816Y-80149000D01*
X155748228Y-80181703D01*
X155748228Y-80181703D01*
G37*
G36*
X124248228Y-79681703D02*
X124403100Y-79745853D01*
X124542481Y-79838985D01*
X124661015Y-79957519D01*
X124754147Y-80096900D01*
X124818297Y-80251772D01*
X124851000Y-80416184D01*
X124851000Y-80583816D01*
X124818297Y-80748228D01*
X124754147Y-80903100D01*
X124661015Y-81042481D01*
X124542481Y-81161015D01*
X124403100Y-81254147D01*
X124248228Y-81318297D01*
X124083816Y-81351000D01*
X123916184Y-81351000D01*
X123751772Y-81318297D01*
X123596900Y-81254147D01*
X123457519Y-81161015D01*
X123338985Y-81042481D01*
X123245853Y-80903100D01*
X123181703Y-80748228D01*
X123149000Y-80583816D01*
X123149000Y-80416184D01*
X123181703Y-80251772D01*
X123245853Y-80096900D01*
X123338985Y-79957519D01*
X123457519Y-79838985D01*
X123596900Y-79745853D01*
X123751772Y-79681703D01*
X123916184Y-79649000D01*
X124083816Y-79649000D01*
X124248228Y-79681703D01*
X124248228Y-79681703D01*
G37*
G36*
X126748228Y-79681703D02*
X126903100Y-79745853D01*
X127042481Y-79838985D01*
X127161015Y-79957519D01*
X127254147Y-80096900D01*
X127318297Y-80251772D01*
X127351000Y-80416184D01*
X127351000Y-80583816D01*
X127318297Y-80748228D01*
X127254147Y-80903100D01*
X127161015Y-81042481D01*
X127042481Y-81161015D01*
X126903100Y-81254147D01*
X126748228Y-81318297D01*
X126583816Y-81351000D01*
X126416184Y-81351000D01*
X126251772Y-81318297D01*
X126096900Y-81254147D01*
X125957519Y-81161015D01*
X125838985Y-81042481D01*
X125745853Y-80903100D01*
X125681703Y-80748228D01*
X125649000Y-80583816D01*
X125649000Y-80416184D01*
X125681703Y-80251772D01*
X125745853Y-80096900D01*
X125838985Y-79957519D01*
X125957519Y-79838985D01*
X126096900Y-79745853D01*
X126251772Y-79681703D01*
X126416184Y-79649000D01*
X126583816Y-79649000D01*
X126748228Y-79681703D01*
X126748228Y-79681703D01*
G37*
G36*
X137248228Y-77181703D02*
X137403100Y-77245853D01*
X137542481Y-77338985D01*
X137661015Y-77457519D01*
X137754147Y-77596900D01*
X137818297Y-77751772D01*
X137851000Y-77916184D01*
X137851000Y-78083816D01*
X137818297Y-78248228D01*
X137754147Y-78403100D01*
X137661015Y-78542481D01*
X137542481Y-78661015D01*
X137403100Y-78754147D01*
X137248228Y-78818297D01*
X137083816Y-78851000D01*
X136916184Y-78851000D01*
X136751772Y-78818297D01*
X136596900Y-78754147D01*
X136457519Y-78661015D01*
X136338985Y-78542481D01*
X136245853Y-78403100D01*
X136181703Y-78248228D01*
X136149000Y-78083816D01*
X136149000Y-77916184D01*
X136181703Y-77751772D01*
X136245853Y-77596900D01*
X136338985Y-77457519D01*
X136457519Y-77338985D01*
X136596900Y-77245853D01*
X136751772Y-77181703D01*
X136916184Y-77149000D01*
X137083816Y-77149000D01*
X137248228Y-77181703D01*
X137248228Y-77181703D01*
G37*
G36*
X147326821Y-77161313D02*
X147326824Y-77161314D01*
X147326825Y-77161314D01*
X147487239Y-77209975D01*
X147487241Y-77209976D01*
X147487244Y-77209977D01*
X147635078Y-77288995D01*
X147764659Y-77395341D01*
X147871005Y-77524922D01*
X147950023Y-77672756D01*
X147950024Y-77672759D01*
X147950025Y-77672761D01*
X147998686Y-77833175D01*
X147998687Y-77833179D01*
X148015117Y-78000000D01*
X147998687Y-78166821D01*
X147998686Y-78166824D01*
X147998686Y-78166825D01*
X147973993Y-78248228D01*
X147950023Y-78327244D01*
X147871005Y-78475078D01*
X147764659Y-78604659D01*
X147635078Y-78711005D01*
X147487244Y-78790023D01*
X147487241Y-78790024D01*
X147487239Y-78790025D01*
X147326825Y-78838686D01*
X147326824Y-78838686D01*
X147326821Y-78838687D01*
X147201804Y-78851000D01*
X147118196Y-78851000D01*
X146993179Y-78838687D01*
X146993176Y-78838686D01*
X146993175Y-78838686D01*
X146832761Y-78790025D01*
X146832759Y-78790024D01*
X146832756Y-78790023D01*
X146684922Y-78711005D01*
X146555341Y-78604659D01*
X146448995Y-78475078D01*
X146369977Y-78327244D01*
X146346008Y-78248228D01*
X146321314Y-78166825D01*
X146321314Y-78166824D01*
X146321313Y-78166821D01*
X146304883Y-78000000D01*
X146321313Y-77833179D01*
X146321314Y-77833175D01*
X146369975Y-77672761D01*
X146369976Y-77672759D01*
X146369977Y-77672756D01*
X146448995Y-77524922D01*
X146555341Y-77395341D01*
X146684922Y-77288995D01*
X146832756Y-77209977D01*
X146832759Y-77209976D01*
X146832761Y-77209975D01*
X146993175Y-77161314D01*
X146993176Y-77161314D01*
X146993179Y-77161313D01*
X147118196Y-77149000D01*
X147201804Y-77149000D01*
X147326821Y-77161313D01*
X147326821Y-77161313D01*
G37*
G36*
X130693665Y-75752622D02*
X130767222Y-75759867D01*
X130908786Y-75802810D01*
X131039252Y-75872546D01*
X131153606Y-75966394D01*
X131247454Y-76080748D01*
X131317190Y-76211214D01*
X131360133Y-76352778D01*
X131374633Y-76500000D01*
X131360133Y-76647222D01*
X131317190Y-76788786D01*
X131247454Y-76919252D01*
X131153606Y-77033606D01*
X131039252Y-77127454D01*
X130908786Y-77197190D01*
X130767222Y-77240133D01*
X130709135Y-77245854D01*
X130656888Y-77251000D01*
X129183112Y-77251000D01*
X129130865Y-77245854D01*
X129072778Y-77240133D01*
X128931214Y-77197190D01*
X128800748Y-77127454D01*
X128686394Y-77033606D01*
X128592546Y-76919252D01*
X128522810Y-76788786D01*
X128479867Y-76647222D01*
X128465367Y-76500000D01*
X128479867Y-76352778D01*
X128522810Y-76211214D01*
X128592546Y-76080748D01*
X128686394Y-75966394D01*
X128800748Y-75872546D01*
X128931214Y-75802810D01*
X129072778Y-75759867D01*
X129146335Y-75752622D01*
X129183112Y-75749000D01*
X130656888Y-75749000D01*
X130693665Y-75752622D01*
X130693665Y-75752622D01*
G37*
G36*
X146800000Y-74800000D02*
X145200000Y-74800000D01*
X145200000Y-73200000D01*
X146800000Y-73200000D01*
X146800000Y-74800000D01*
X146800000Y-74800000D01*
G37*
G36*
X139733352Y-73230743D02*
X139878941Y-73291048D01*
X140009973Y-73378601D01*
X140121399Y-73490027D01*
X140208952Y-73621059D01*
X140269257Y-73766648D01*
X140300000Y-73921205D01*
X140300000Y-74078795D01*
X140269257Y-74233352D01*
X140208952Y-74378941D01*
X140121399Y-74509973D01*
X140009973Y-74621399D01*
X139878941Y-74708952D01*
X139733352Y-74769257D01*
X139578795Y-74800000D01*
X139421205Y-74800000D01*
X139266648Y-74769257D01*
X139121059Y-74708952D01*
X138990027Y-74621399D01*
X138878601Y-74509973D01*
X138791048Y-74378941D01*
X138730743Y-74233352D01*
X138700000Y-74078795D01*
X138700000Y-73921205D01*
X138730743Y-73766648D01*
X138791048Y-73621059D01*
X138878601Y-73490027D01*
X138990027Y-73378601D01*
X139121059Y-73291048D01*
X139266648Y-73230743D01*
X139421205Y-73200000D01*
X139578795Y-73200000D01*
X139733352Y-73230743D01*
X139733352Y-73230743D01*
G37*
G36*
X132469074Y-71050200D02*
X132567222Y-71059867D01*
X132708786Y-71102810D01*
X132839252Y-71172546D01*
X132953606Y-71266394D01*
X133047454Y-71380748D01*
X133117190Y-71511214D01*
X133160133Y-71652778D01*
X133171000Y-71763113D01*
X133171000Y-73236887D01*
X133160133Y-73347222D01*
X133117190Y-73488786D01*
X133047455Y-73619251D01*
X133047453Y-73619253D01*
X132953606Y-73733606D01*
X132839253Y-73827453D01*
X132839251Y-73827454D01*
X132708785Y-73897190D01*
X132567221Y-73940133D01*
X132420000Y-73954633D01*
X132419999Y-73954633D01*
X132370926Y-73949800D01*
X132272778Y-73940133D01*
X132131214Y-73897190D01*
X132000748Y-73827454D01*
X131886394Y-73733606D01*
X131792547Y-73619253D01*
X131722810Y-73488785D01*
X131679867Y-73347221D01*
X131669000Y-73236886D01*
X131669001Y-71763113D01*
X131679868Y-71652778D01*
X131722811Y-71511214D01*
X131792547Y-71380748D01*
X131886395Y-71266394D01*
X132000749Y-71172546D01*
X132131215Y-71102810D01*
X132272779Y-71059867D01*
X132420000Y-71045367D01*
X132420001Y-71045367D01*
X132469074Y-71050200D01*
X132469074Y-71050200D01*
G37*
G36*
X126469074Y-71050200D02*
X126567222Y-71059867D01*
X126708786Y-71102810D01*
X126839252Y-71172546D01*
X126953606Y-71266394D01*
X127047454Y-71380748D01*
X127117190Y-71511214D01*
X127160133Y-71652778D01*
X127171000Y-71763113D01*
X127171000Y-73236887D01*
X127160133Y-73347222D01*
X127117190Y-73488786D01*
X127047455Y-73619251D01*
X127047453Y-73619253D01*
X126953606Y-73733606D01*
X126839253Y-73827453D01*
X126839251Y-73827454D01*
X126708785Y-73897190D01*
X126567221Y-73940133D01*
X126420000Y-73954633D01*
X126419999Y-73954633D01*
X126370926Y-73949800D01*
X126272778Y-73940133D01*
X126131214Y-73897190D01*
X126000748Y-73827454D01*
X125886394Y-73733606D01*
X125792547Y-73619253D01*
X125722810Y-73488785D01*
X125679867Y-73347221D01*
X125669000Y-73236886D01*
X125669001Y-71763113D01*
X125679868Y-71652778D01*
X125722811Y-71511214D01*
X125792547Y-71380748D01*
X125886395Y-71266394D01*
X126000749Y-71172546D01*
X126131215Y-71102810D01*
X126272779Y-71059867D01*
X126420000Y-71045367D01*
X126420001Y-71045367D01*
X126469074Y-71050200D01*
X126469074Y-71050200D01*
G37*
G36*
X175335734Y-71393232D02*
X175545202Y-71479996D01*
X175733723Y-71605962D01*
X175894038Y-71766277D01*
X176020004Y-71954798D01*
X176106768Y-72164266D01*
X176151000Y-72386635D01*
X176151000Y-72613365D01*
X176106768Y-72835734D01*
X176020004Y-73045202D01*
X175894038Y-73233723D01*
X175733723Y-73394038D01*
X175545202Y-73520004D01*
X175335734Y-73606768D01*
X175113365Y-73651000D01*
X174886635Y-73651000D01*
X174664266Y-73606768D01*
X174454798Y-73520004D01*
X174266277Y-73394038D01*
X174105962Y-73233723D01*
X173979996Y-73045202D01*
X173893232Y-72835734D01*
X173849000Y-72613365D01*
X173849000Y-72386635D01*
X173893232Y-72164266D01*
X173979996Y-71954798D01*
X174105962Y-71766277D01*
X174266277Y-71605962D01*
X174454798Y-71479996D01*
X174664266Y-71393232D01*
X174886635Y-71349000D01*
X175113365Y-71349000D01*
X175335734Y-71393232D01*
X175335734Y-71393232D01*
G37*
G36*
X139733352Y-68730743D02*
X139878941Y-68791048D01*
X140009973Y-68878601D01*
X140121399Y-68990027D01*
X140208952Y-69121059D01*
X140269257Y-69266648D01*
X140300000Y-69421205D01*
X140300000Y-69578795D01*
X140269257Y-69733352D01*
X140208952Y-69878941D01*
X140121399Y-70009973D01*
X140009973Y-70121399D01*
X139878941Y-70208952D01*
X139733352Y-70269257D01*
X139578795Y-70300000D01*
X139421205Y-70300000D01*
X139266648Y-70269257D01*
X139121059Y-70208952D01*
X138990027Y-70121399D01*
X138878601Y-70009973D01*
X138791048Y-69878941D01*
X138730743Y-69733352D01*
X138700000Y-69578795D01*
X138700000Y-69421205D01*
X138730743Y-69266648D01*
X138791048Y-69121059D01*
X138878601Y-68990027D01*
X138990027Y-68878601D01*
X139121059Y-68791048D01*
X139266648Y-68730743D01*
X139421205Y-68700000D01*
X139578795Y-68700000D01*
X139733352Y-68730743D01*
X139733352Y-68730743D01*
G37*
G36*
X146233352Y-68730743D02*
X146378941Y-68791048D01*
X146509973Y-68878601D01*
X146621399Y-68990027D01*
X146708952Y-69121059D01*
X146769257Y-69266648D01*
X146800000Y-69421205D01*
X146800000Y-69578795D01*
X146769257Y-69733352D01*
X146708952Y-69878941D01*
X146621399Y-70009973D01*
X146509973Y-70121399D01*
X146378941Y-70208952D01*
X146233352Y-70269257D01*
X146078795Y-70300000D01*
X145921205Y-70300000D01*
X145766648Y-70269257D01*
X145621059Y-70208952D01*
X145490027Y-70121399D01*
X145378601Y-70009973D01*
X145291048Y-69878941D01*
X145230743Y-69733352D01*
X145200000Y-69578795D01*
X145200000Y-69421205D01*
X145230743Y-69266648D01*
X145291048Y-69121059D01*
X145378601Y-68990027D01*
X145490027Y-68878601D01*
X145621059Y-68791048D01*
X145766648Y-68730743D01*
X145921205Y-68700000D01*
X146078795Y-68700000D01*
X146233352Y-68730743D01*
X146233352Y-68730743D01*
G37*
M02*
