G04 #@! TF.GenerationSoftware,KiCad,Pcbnew,(5.0.1)-3*
G04 #@! TF.CreationDate,2021-03-31T10:43:35+05:45*
G04 #@! TF.ProjectId,Power,506F7765722E6B696361645F70636200,rev?*
G04 #@! TF.SameCoordinates,Original*
G04 #@! TF.FileFunction,Paste,Top*
G04 #@! TF.FilePolarity,Positive*
%FSLAX46Y46*%
G04 Gerber Fmt 4.6, Leading zero omitted, Abs format (unit mm)*
G04 Created by KiCad (PCBNEW (5.0.1)-3) date 3/31/2021 10:43:35 AM*
%MOMM*%
%LPD*%
G01*
G04 APERTURE LIST*
%ADD10C,0.100000*%
%ADD11C,0.975000*%
G04 APERTURE END LIST*
D10*
G04 #@! TO.C,R1*
G36*
X235170142Y-47231174D02*
X235193803Y-47234684D01*
X235217007Y-47240496D01*
X235239529Y-47248554D01*
X235261153Y-47258782D01*
X235281670Y-47271079D01*
X235300883Y-47285329D01*
X235318607Y-47301393D01*
X235334671Y-47319117D01*
X235348921Y-47338330D01*
X235361218Y-47358847D01*
X235371446Y-47380471D01*
X235379504Y-47402993D01*
X235385316Y-47426197D01*
X235388826Y-47449858D01*
X235390000Y-47473750D01*
X235390000Y-48386250D01*
X235388826Y-48410142D01*
X235385316Y-48433803D01*
X235379504Y-48457007D01*
X235371446Y-48479529D01*
X235361218Y-48501153D01*
X235348921Y-48521670D01*
X235334671Y-48540883D01*
X235318607Y-48558607D01*
X235300883Y-48574671D01*
X235281670Y-48588921D01*
X235261153Y-48601218D01*
X235239529Y-48611446D01*
X235217007Y-48619504D01*
X235193803Y-48625316D01*
X235170142Y-48628826D01*
X235146250Y-48630000D01*
X234658750Y-48630000D01*
X234634858Y-48628826D01*
X234611197Y-48625316D01*
X234587993Y-48619504D01*
X234565471Y-48611446D01*
X234543847Y-48601218D01*
X234523330Y-48588921D01*
X234504117Y-48574671D01*
X234486393Y-48558607D01*
X234470329Y-48540883D01*
X234456079Y-48521670D01*
X234443782Y-48501153D01*
X234433554Y-48479529D01*
X234425496Y-48457007D01*
X234419684Y-48433803D01*
X234416174Y-48410142D01*
X234415000Y-48386250D01*
X234415000Y-47473750D01*
X234416174Y-47449858D01*
X234419684Y-47426197D01*
X234425496Y-47402993D01*
X234433554Y-47380471D01*
X234443782Y-47358847D01*
X234456079Y-47338330D01*
X234470329Y-47319117D01*
X234486393Y-47301393D01*
X234504117Y-47285329D01*
X234523330Y-47271079D01*
X234543847Y-47258782D01*
X234565471Y-47248554D01*
X234587993Y-47240496D01*
X234611197Y-47234684D01*
X234634858Y-47231174D01*
X234658750Y-47230000D01*
X235146250Y-47230000D01*
X235170142Y-47231174D01*
X235170142Y-47231174D01*
G37*
D11*
X234902500Y-47930000D03*
D10*
G36*
X237045142Y-47231174D02*
X237068803Y-47234684D01*
X237092007Y-47240496D01*
X237114529Y-47248554D01*
X237136153Y-47258782D01*
X237156670Y-47271079D01*
X237175883Y-47285329D01*
X237193607Y-47301393D01*
X237209671Y-47319117D01*
X237223921Y-47338330D01*
X237236218Y-47358847D01*
X237246446Y-47380471D01*
X237254504Y-47402993D01*
X237260316Y-47426197D01*
X237263826Y-47449858D01*
X237265000Y-47473750D01*
X237265000Y-48386250D01*
X237263826Y-48410142D01*
X237260316Y-48433803D01*
X237254504Y-48457007D01*
X237246446Y-48479529D01*
X237236218Y-48501153D01*
X237223921Y-48521670D01*
X237209671Y-48540883D01*
X237193607Y-48558607D01*
X237175883Y-48574671D01*
X237156670Y-48588921D01*
X237136153Y-48601218D01*
X237114529Y-48611446D01*
X237092007Y-48619504D01*
X237068803Y-48625316D01*
X237045142Y-48628826D01*
X237021250Y-48630000D01*
X236533750Y-48630000D01*
X236509858Y-48628826D01*
X236486197Y-48625316D01*
X236462993Y-48619504D01*
X236440471Y-48611446D01*
X236418847Y-48601218D01*
X236398330Y-48588921D01*
X236379117Y-48574671D01*
X236361393Y-48558607D01*
X236345329Y-48540883D01*
X236331079Y-48521670D01*
X236318782Y-48501153D01*
X236308554Y-48479529D01*
X236300496Y-48457007D01*
X236294684Y-48433803D01*
X236291174Y-48410142D01*
X236290000Y-48386250D01*
X236290000Y-47473750D01*
X236291174Y-47449858D01*
X236294684Y-47426197D01*
X236300496Y-47402993D01*
X236308554Y-47380471D01*
X236318782Y-47358847D01*
X236331079Y-47338330D01*
X236345329Y-47319117D01*
X236361393Y-47301393D01*
X236379117Y-47285329D01*
X236398330Y-47271079D01*
X236418847Y-47258782D01*
X236440471Y-47248554D01*
X236462993Y-47240496D01*
X236486197Y-47234684D01*
X236509858Y-47231174D01*
X236533750Y-47230000D01*
X237021250Y-47230000D01*
X237045142Y-47231174D01*
X237045142Y-47231174D01*
G37*
D11*
X236777500Y-47930000D03*
G04 #@! TD*
M02*
