M48
;DRILL file {KiCad (5.0.1)-3} date 3/31/2021 10:43:38 AM
;FORMAT={-:-/ absolute / metric / decimal}
FMAT,2
METRIC,TZ
T1C0.800
T2C0.900
T3C1.000
T4C1.300
T5C1.360
T6C1.500
%
G90
G05
M71
T1
X226.5Y-45.
X229.Y-45.
X178.48Y-58.59
X179.88Y-51.09
X227.Y-63.
X229.5Y-63.
T2
X235.93Y-51.38
X235.93Y-53.92
T3
X236.Y-58.46
X236.Y-61.
T4
X186.2Y-52.
X186.2Y-58.
X219.8Y-46.
X219.8Y-64.
T6
X170.Y-43.9
X170.Y-66.5
T5
X149.Y-51.32G85X149.Y-50.68
G05
X149.Y-60.32G85X149.Y-59.68
G05
X160.5Y-51.32G85X160.5Y-50.68
G05
X160.5Y-60.32G85X160.5Y-59.68
G05
T0
M30
