G04 #@! TF.GenerationSoftware,KiCad,Pcbnew,(5.0.1)-3*
G04 #@! TF.CreationDate,2021-03-31T10:43:35+05:45*
G04 #@! TF.ProjectId,Power,506F7765722E6B696361645F70636200,rev?*
G04 #@! TF.SameCoordinates,Original*
G04 #@! TF.FileFunction,Copper,L1,Top,Signal*
G04 #@! TF.FilePolarity,Positive*
%FSLAX46Y46*%
G04 Gerber Fmt 4.6, Leading zero omitted, Abs format (unit mm)*
G04 Created by KiCad (PCBNEW (5.0.1)-3) date 3/31/2021 10:43:35 AM*
%MOMM*%
%LPD*%
G01*
G04 APERTURE LIST*
G04 #@! TA.AperFunction,WasherPad*
%ADD10C,4.500000*%
G04 #@! TD*
G04 #@! TA.AperFunction,ComponentPad*
%ADD11C,3.000000*%
G04 #@! TD*
G04 #@! TA.AperFunction,Conductor*
%ADD12C,0.100000*%
G04 #@! TD*
G04 #@! TA.AperFunction,SMDPad,CuDef*
%ADD13C,0.975000*%
G04 #@! TD*
G04 #@! TA.AperFunction,ComponentPad*
%ADD14R,1.700000X1.700000*%
G04 #@! TD*
G04 #@! TA.AperFunction,ComponentPad*
%ADD15O,1.700000X1.700000*%
G04 #@! TD*
G04 #@! TA.AperFunction,ComponentPad*
%ADD16R,1.800000X1.800000*%
G04 #@! TD*
G04 #@! TA.AperFunction,ComponentPad*
%ADD17C,1.800000*%
G04 #@! TD*
G04 #@! TA.AperFunction,ComponentPad*
%ADD18R,1.900000X1.900000*%
G04 #@! TD*
G04 #@! TA.AperFunction,ComponentPad*
%ADD19C,1.900000*%
G04 #@! TD*
G04 #@! TA.AperFunction,ComponentPad*
%ADD20R,3.000000X3.000000*%
G04 #@! TD*
G04 #@! TA.AperFunction,ComponentPad*
%ADD21C,1.600000*%
G04 #@! TD*
G04 #@! TA.AperFunction,ComponentPad*
%ADD22R,1.600000X1.600000*%
G04 #@! TD*
G04 #@! TA.AperFunction,Conductor*
%ADD23C,0.700000*%
G04 #@! TD*
G04 #@! TA.AperFunction,Conductor*
%ADD24C,0.254000*%
G04 #@! TD*
G04 APERTURE END LIST*
D10*
G04 #@! TO.P,MH2,*
G04 #@! TO.N,*
X148000000Y-68000000D03*
G04 #@! TD*
G04 #@! TO.P,MH2,*
G04 #@! TO.N,*
X239000000Y-68000000D03*
G04 #@! TD*
G04 #@! TO.P,MH2,*
G04 #@! TO.N,*
X239000000Y-43000000D03*
G04 #@! TD*
D11*
G04 #@! TO.P,F1,1*
G04 #@! TO.N,Net-(F1-Pad1)*
X170000000Y-66500000D03*
G04 #@! TO.P,F1,2*
G04 #@! TO.N,Net-(F1-Pad2)*
X170000000Y-43900000D03*
G04 #@! TD*
D12*
G04 #@! TO.N,Net-(D1-Pad2)*
G04 #@! TO.C,R1*
G36*
X235170142Y-47231174D02*
X235193803Y-47234684D01*
X235217007Y-47240496D01*
X235239529Y-47248554D01*
X235261153Y-47258782D01*
X235281670Y-47271079D01*
X235300883Y-47285329D01*
X235318607Y-47301393D01*
X235334671Y-47319117D01*
X235348921Y-47338330D01*
X235361218Y-47358847D01*
X235371446Y-47380471D01*
X235379504Y-47402993D01*
X235385316Y-47426197D01*
X235388826Y-47449858D01*
X235390000Y-47473750D01*
X235390000Y-48386250D01*
X235388826Y-48410142D01*
X235385316Y-48433803D01*
X235379504Y-48457007D01*
X235371446Y-48479529D01*
X235361218Y-48501153D01*
X235348921Y-48521670D01*
X235334671Y-48540883D01*
X235318607Y-48558607D01*
X235300883Y-48574671D01*
X235281670Y-48588921D01*
X235261153Y-48601218D01*
X235239529Y-48611446D01*
X235217007Y-48619504D01*
X235193803Y-48625316D01*
X235170142Y-48628826D01*
X235146250Y-48630000D01*
X234658750Y-48630000D01*
X234634858Y-48628826D01*
X234611197Y-48625316D01*
X234587993Y-48619504D01*
X234565471Y-48611446D01*
X234543847Y-48601218D01*
X234523330Y-48588921D01*
X234504117Y-48574671D01*
X234486393Y-48558607D01*
X234470329Y-48540883D01*
X234456079Y-48521670D01*
X234443782Y-48501153D01*
X234433554Y-48479529D01*
X234425496Y-48457007D01*
X234419684Y-48433803D01*
X234416174Y-48410142D01*
X234415000Y-48386250D01*
X234415000Y-47473750D01*
X234416174Y-47449858D01*
X234419684Y-47426197D01*
X234425496Y-47402993D01*
X234433554Y-47380471D01*
X234443782Y-47358847D01*
X234456079Y-47338330D01*
X234470329Y-47319117D01*
X234486393Y-47301393D01*
X234504117Y-47285329D01*
X234523330Y-47271079D01*
X234543847Y-47258782D01*
X234565471Y-47248554D01*
X234587993Y-47240496D01*
X234611197Y-47234684D01*
X234634858Y-47231174D01*
X234658750Y-47230000D01*
X235146250Y-47230000D01*
X235170142Y-47231174D01*
X235170142Y-47231174D01*
G37*
D13*
G04 #@! TD*
G04 #@! TO.P,R1,1*
G04 #@! TO.N,Net-(D1-Pad2)*
X234902500Y-47930000D03*
D12*
G04 #@! TO.N,5V*
G04 #@! TO.C,R1*
G36*
X237045142Y-47231174D02*
X237068803Y-47234684D01*
X237092007Y-47240496D01*
X237114529Y-47248554D01*
X237136153Y-47258782D01*
X237156670Y-47271079D01*
X237175883Y-47285329D01*
X237193607Y-47301393D01*
X237209671Y-47319117D01*
X237223921Y-47338330D01*
X237236218Y-47358847D01*
X237246446Y-47380471D01*
X237254504Y-47402993D01*
X237260316Y-47426197D01*
X237263826Y-47449858D01*
X237265000Y-47473750D01*
X237265000Y-48386250D01*
X237263826Y-48410142D01*
X237260316Y-48433803D01*
X237254504Y-48457007D01*
X237246446Y-48479529D01*
X237236218Y-48501153D01*
X237223921Y-48521670D01*
X237209671Y-48540883D01*
X237193607Y-48558607D01*
X237175883Y-48574671D01*
X237156670Y-48588921D01*
X237136153Y-48601218D01*
X237114529Y-48611446D01*
X237092007Y-48619504D01*
X237068803Y-48625316D01*
X237045142Y-48628826D01*
X237021250Y-48630000D01*
X236533750Y-48630000D01*
X236509858Y-48628826D01*
X236486197Y-48625316D01*
X236462993Y-48619504D01*
X236440471Y-48611446D01*
X236418847Y-48601218D01*
X236398330Y-48588921D01*
X236379117Y-48574671D01*
X236361393Y-48558607D01*
X236345329Y-48540883D01*
X236331079Y-48521670D01*
X236318782Y-48501153D01*
X236308554Y-48479529D01*
X236300496Y-48457007D01*
X236294684Y-48433803D01*
X236291174Y-48410142D01*
X236290000Y-48386250D01*
X236290000Y-47473750D01*
X236291174Y-47449858D01*
X236294684Y-47426197D01*
X236300496Y-47402993D01*
X236308554Y-47380471D01*
X236318782Y-47358847D01*
X236331079Y-47338330D01*
X236345329Y-47319117D01*
X236361393Y-47301393D01*
X236379117Y-47285329D01*
X236398330Y-47271079D01*
X236418847Y-47258782D01*
X236440471Y-47248554D01*
X236462993Y-47240496D01*
X236486197Y-47234684D01*
X236509858Y-47231174D01*
X236533750Y-47230000D01*
X237021250Y-47230000D01*
X237045142Y-47231174D01*
X237045142Y-47231174D01*
G37*
D13*
G04 #@! TD*
G04 #@! TO.P,R1,2*
G04 #@! TO.N,5V*
X236777500Y-47930000D03*
D14*
G04 #@! TO.P,J1,1*
G04 #@! TO.N,5V*
X236000000Y-61000000D03*
D15*
G04 #@! TO.P,J1,2*
G04 #@! TO.N,GND*
X236000000Y-58460000D03*
G04 #@! TD*
D16*
G04 #@! TO.P,D1,1*
G04 #@! TO.N,GND*
X235930000Y-53920000D03*
D17*
G04 #@! TO.P,D1,2*
G04 #@! TO.N,Net-(D1-Pad2)*
X235930000Y-51380000D03*
G04 #@! TD*
D10*
G04 #@! TO.P,MH1,*
G04 #@! TO.N,*
X148000000Y-43000000D03*
G04 #@! TD*
D18*
G04 #@! TO.P,PS1,1*
G04 #@! TO.N,Net-(J2-Pad1)*
X186200000Y-52000000D03*
D19*
G04 #@! TO.P,PS1,2*
G04 #@! TO.N,Net-(F1-Pad1)*
X186200000Y-58000000D03*
G04 #@! TO.P,PS1,3*
G04 #@! TO.N,GND*
X219800000Y-46000000D03*
G04 #@! TO.P,PS1,4*
G04 #@! TO.N,5V*
X219800000Y-64000000D03*
G04 #@! TD*
D20*
G04 #@! TO.P,J2,1*
G04 #@! TO.N,Net-(J2-Pad1)*
X149000000Y-60000000D03*
G04 #@! TO.P,J2,2*
G04 #@! TO.N,Net-(F1-Pad2)*
X149000000Y-51000000D03*
G04 #@! TO.P,J2,1*
G04 #@! TO.N,Net-(J2-Pad1)*
X160500000Y-60000000D03*
G04 #@! TO.P,J2,2*
G04 #@! TO.N,Net-(F1-Pad2)*
X160500000Y-51000000D03*
G04 #@! TD*
D17*
G04 #@! TO.P,RV1,1*
G04 #@! TO.N,Net-(F1-Pad1)*
X178480000Y-58590000D03*
G04 #@! TO.P,RV1,2*
G04 #@! TO.N,Net-(J2-Pad1)*
X179880000Y-51090000D03*
G04 #@! TD*
D21*
G04 #@! TO.P,C3,2*
G04 #@! TO.N,GND*
X229500000Y-63000000D03*
D22*
G04 #@! TO.P,C3,1*
G04 #@! TO.N,5V*
X227000000Y-63000000D03*
G04 #@! TD*
G04 #@! TO.P,C4,1*
G04 #@! TO.N,5V*
X229000000Y-45000000D03*
D21*
G04 #@! TO.P,C4,2*
G04 #@! TO.N,GND*
X226500000Y-45000000D03*
G04 #@! TD*
D23*
G04 #@! TO.N,5V*
X229000000Y-45000000D02*
X236000000Y-45000000D01*
X236777500Y-45777500D02*
X236000000Y-45000000D01*
X236777500Y-47930000D02*
X236777500Y-45777500D01*
X237365000Y-47930000D02*
X238910000Y-49475000D01*
X236777500Y-47930000D02*
X237365000Y-47930000D01*
X238910000Y-49475000D02*
X238910000Y-60120000D01*
X238030000Y-61000000D02*
X236000000Y-61000000D01*
X238910000Y-60120000D02*
X238030000Y-61000000D01*
X220800000Y-63000000D02*
X219800000Y-64000000D01*
X227000000Y-63000000D02*
X220800000Y-63000000D01*
X219800000Y-64000000D02*
X219800000Y-61600000D01*
X219800000Y-61600000D02*
X221510000Y-59890000D01*
X221510000Y-59890000D02*
X231890000Y-59890000D01*
X233000000Y-61000000D02*
X236000000Y-61000000D01*
X231890000Y-59890000D02*
X233000000Y-61000000D01*
G04 #@! TO.N,Net-(D1-Pad2)*
X234902500Y-50352500D02*
X235930000Y-51380000D01*
X234902500Y-47930000D02*
X234902500Y-50352500D01*
G04 #@! TD*
D24*
G04 #@! TO.N,GND*
G36*
X236554216Y-41365779D02*
X236115000Y-42426138D01*
X236115000Y-43573862D01*
X236315748Y-44058510D01*
X236097012Y-44015000D01*
X236097008Y-44015000D01*
X236000000Y-43995704D01*
X235902992Y-44015000D01*
X230410642Y-44015000D01*
X230398157Y-43952235D01*
X230257809Y-43742191D01*
X230047765Y-43601843D01*
X229800000Y-43552560D01*
X228200000Y-43552560D01*
X227952235Y-43601843D01*
X227742191Y-43742191D01*
X227601843Y-43952235D01*
X227555307Y-44186187D01*
X227507745Y-44171861D01*
X226679605Y-45000000D01*
X227507745Y-45828139D01*
X227555307Y-45813813D01*
X227601843Y-46047765D01*
X227742191Y-46257809D01*
X227952235Y-46398157D01*
X228200000Y-46447440D01*
X229800000Y-46447440D01*
X230047765Y-46398157D01*
X230257809Y-46257809D01*
X230398157Y-46047765D01*
X230410642Y-45985000D01*
X235592000Y-45985000D01*
X235792501Y-46185501D01*
X235792500Y-46867656D01*
X235776416Y-46843584D01*
X235487294Y-46650398D01*
X235146250Y-46582560D01*
X234658750Y-46582560D01*
X234317706Y-46650398D01*
X234028584Y-46843584D01*
X233835398Y-47132706D01*
X233767560Y-47473750D01*
X233767560Y-48386250D01*
X233835398Y-48727294D01*
X233917500Y-48850168D01*
X233917501Y-50255487D01*
X233898204Y-50352500D01*
X233974651Y-50736827D01*
X234137402Y-50980402D01*
X234137405Y-50980405D01*
X234192356Y-51062645D01*
X234274596Y-51117596D01*
X234395000Y-51238000D01*
X234395000Y-51685330D01*
X234628690Y-52249507D01*
X234805044Y-52425861D01*
X234670301Y-52481673D01*
X234491673Y-52660302D01*
X234395000Y-52893691D01*
X234395000Y-53634250D01*
X234553750Y-53793000D01*
X235803000Y-53793000D01*
X235803000Y-53773000D01*
X236057000Y-53773000D01*
X236057000Y-53793000D01*
X237306250Y-53793000D01*
X237465000Y-53634250D01*
X237465000Y-52893691D01*
X237368327Y-52660302D01*
X237189699Y-52481673D01*
X237054956Y-52425861D01*
X237231310Y-52249507D01*
X237465000Y-51685330D01*
X237465000Y-51074670D01*
X237231310Y-50510493D01*
X236799507Y-50078690D01*
X236235330Y-49845000D01*
X235887500Y-49845000D01*
X235887500Y-48992345D01*
X235903584Y-49016416D01*
X236192706Y-49209602D01*
X236533750Y-49277440D01*
X237021250Y-49277440D01*
X237269967Y-49227967D01*
X237925000Y-49883001D01*
X237925001Y-59711998D01*
X237622000Y-60015000D01*
X237470587Y-60015000D01*
X237448157Y-59902235D01*
X237307809Y-59692191D01*
X237097765Y-59551843D01*
X236994292Y-59531261D01*
X237271645Y-59226924D01*
X237441476Y-58816890D01*
X237320155Y-58587000D01*
X236127000Y-58587000D01*
X236127000Y-58607000D01*
X235873000Y-58607000D01*
X235873000Y-58587000D01*
X234679845Y-58587000D01*
X234558524Y-58816890D01*
X234728355Y-59226924D01*
X235005708Y-59531261D01*
X234902235Y-59551843D01*
X234692191Y-59692191D01*
X234551843Y-59902235D01*
X234529413Y-60015000D01*
X233408000Y-60015000D01*
X232655098Y-59262098D01*
X232600145Y-59179855D01*
X232274328Y-58962151D01*
X231987012Y-58905000D01*
X231987008Y-58905000D01*
X231890000Y-58885704D01*
X231792992Y-58905000D01*
X221607007Y-58905000D01*
X221509999Y-58885704D01*
X221412991Y-58905000D01*
X221412988Y-58905000D01*
X221125672Y-58962151D01*
X220799855Y-59179855D01*
X220744902Y-59262098D01*
X219172096Y-60834904D01*
X219089856Y-60889855D01*
X219034905Y-60972095D01*
X219034902Y-60972098D01*
X218872151Y-61215673D01*
X218795704Y-61600000D01*
X218815001Y-61697013D01*
X218815001Y-62743471D01*
X218456302Y-63102170D01*
X218215000Y-63684724D01*
X218215000Y-64315276D01*
X218456302Y-64897830D01*
X218902170Y-65343698D01*
X219484724Y-65585000D01*
X220115276Y-65585000D01*
X220697830Y-65343698D01*
X221143698Y-64897830D01*
X221385000Y-64315276D01*
X221385000Y-63985000D01*
X225589358Y-63985000D01*
X225601843Y-64047765D01*
X225742191Y-64257809D01*
X225952235Y-64398157D01*
X226200000Y-64447440D01*
X227800000Y-64447440D01*
X228047765Y-64398157D01*
X228257809Y-64257809D01*
X228398157Y-64047765D01*
X228406117Y-64007745D01*
X228671861Y-64007745D01*
X228745995Y-64253864D01*
X229283223Y-64446965D01*
X229853454Y-64419778D01*
X230254005Y-64253864D01*
X230328139Y-64007745D01*
X229500000Y-63179605D01*
X228671861Y-64007745D01*
X228406117Y-64007745D01*
X228444693Y-63813813D01*
X228492255Y-63828139D01*
X229320395Y-63000000D01*
X229679605Y-63000000D01*
X230507745Y-63828139D01*
X230753864Y-63754005D01*
X230946965Y-63216777D01*
X230919778Y-62646546D01*
X230753864Y-62245995D01*
X230507745Y-62171861D01*
X229679605Y-63000000D01*
X229320395Y-63000000D01*
X228492255Y-62171861D01*
X228444693Y-62186187D01*
X228406118Y-61992255D01*
X228671861Y-61992255D01*
X229500000Y-62820395D01*
X230328139Y-61992255D01*
X230254005Y-61746136D01*
X229716777Y-61553035D01*
X229146546Y-61580222D01*
X228745995Y-61746136D01*
X228671861Y-61992255D01*
X228406118Y-61992255D01*
X228398157Y-61952235D01*
X228257809Y-61742191D01*
X228047765Y-61601843D01*
X227800000Y-61552560D01*
X226200000Y-61552560D01*
X225952235Y-61601843D01*
X225742191Y-61742191D01*
X225601843Y-61952235D01*
X225589358Y-62015000D01*
X220897008Y-62015000D01*
X220800000Y-61995704D01*
X220796625Y-61996375D01*
X221918000Y-60875000D01*
X231482000Y-60875000D01*
X232234902Y-61627902D01*
X232289855Y-61710145D01*
X232615672Y-61927849D01*
X232902988Y-61985000D01*
X232902991Y-61985000D01*
X232999999Y-62004296D01*
X233097007Y-61985000D01*
X234529413Y-61985000D01*
X234551843Y-62097765D01*
X234692191Y-62307809D01*
X234902235Y-62448157D01*
X235150000Y-62497440D01*
X236850000Y-62497440D01*
X237097765Y-62448157D01*
X237307809Y-62307809D01*
X237448157Y-62097765D01*
X237470587Y-61985000D01*
X237932992Y-61985000D01*
X238030000Y-62004296D01*
X238127008Y-61985000D01*
X238127012Y-61985000D01*
X238414328Y-61927849D01*
X238740145Y-61710145D01*
X238795098Y-61627902D01*
X239537905Y-60885096D01*
X239620145Y-60830145D01*
X239675096Y-60747905D01*
X239675098Y-60747903D01*
X239837849Y-60504328D01*
X239864151Y-60372098D01*
X239895000Y-60217012D01*
X239895000Y-60217008D01*
X239914296Y-60120000D01*
X239895000Y-60022992D01*
X239895000Y-49572008D01*
X239914296Y-49475000D01*
X239895000Y-49377992D01*
X239895000Y-49377988D01*
X239837849Y-49090672D01*
X239682282Y-48857849D01*
X239675098Y-48847097D01*
X239675096Y-48847095D01*
X239620145Y-48764855D01*
X239537905Y-48709904D01*
X238130098Y-47302098D01*
X238075145Y-47219855D01*
X237763852Y-47011856D01*
X237762500Y-47009832D01*
X237762500Y-45874507D01*
X237781796Y-45777499D01*
X237762500Y-45680491D01*
X237762500Y-45680488D01*
X237747244Y-45603792D01*
X238426138Y-45885000D01*
X239573862Y-45885000D01*
X240634221Y-45445784D01*
X241290000Y-44790005D01*
X241290001Y-66209996D01*
X240634221Y-65554216D01*
X239573862Y-65115000D01*
X238426138Y-65115000D01*
X237365779Y-65554216D01*
X236554216Y-66365779D01*
X236115000Y-67426138D01*
X236115000Y-68573862D01*
X236554216Y-69634221D01*
X237209995Y-70290000D01*
X212127000Y-70290000D01*
X212127000Y-58103110D01*
X234558524Y-58103110D01*
X234679845Y-58333000D01*
X235873000Y-58333000D01*
X235873000Y-57139181D01*
X236127000Y-57139181D01*
X236127000Y-58333000D01*
X237320155Y-58333000D01*
X237441476Y-58103110D01*
X237271645Y-57693076D01*
X236881358Y-57264817D01*
X236356892Y-57018514D01*
X236127000Y-57139181D01*
X235873000Y-57139181D01*
X235643108Y-57018514D01*
X235118642Y-57264817D01*
X234728355Y-57693076D01*
X234558524Y-58103110D01*
X212127000Y-58103110D01*
X212127000Y-54205750D01*
X234395000Y-54205750D01*
X234395000Y-54946309D01*
X234491673Y-55179698D01*
X234670301Y-55358327D01*
X234903690Y-55455000D01*
X235644250Y-55455000D01*
X235803000Y-55296250D01*
X235803000Y-54047000D01*
X236057000Y-54047000D01*
X236057000Y-55296250D01*
X236215750Y-55455000D01*
X236956310Y-55455000D01*
X237189699Y-55358327D01*
X237368327Y-55179698D01*
X237465000Y-54946309D01*
X237465000Y-54205750D01*
X237306250Y-54047000D01*
X236057000Y-54047000D01*
X235803000Y-54047000D01*
X234553750Y-54047000D01*
X234395000Y-54205750D01*
X212127000Y-54205750D01*
X212127000Y-47116350D01*
X218863255Y-47116350D01*
X218955792Y-47378019D01*
X219547398Y-47596188D01*
X220177461Y-47571352D01*
X220644208Y-47378019D01*
X220736745Y-47116350D01*
X219800000Y-46179605D01*
X218863255Y-47116350D01*
X212127000Y-47116350D01*
X212127000Y-45747398D01*
X218203812Y-45747398D01*
X218228648Y-46377461D01*
X218421981Y-46844208D01*
X218683650Y-46936745D01*
X219620395Y-46000000D01*
X219979605Y-46000000D01*
X220916350Y-46936745D01*
X221178019Y-46844208D01*
X221396188Y-46252602D01*
X221386537Y-46007745D01*
X225671861Y-46007745D01*
X225745995Y-46253864D01*
X226283223Y-46446965D01*
X226853454Y-46419778D01*
X227254005Y-46253864D01*
X227328139Y-46007745D01*
X226500000Y-45179605D01*
X225671861Y-46007745D01*
X221386537Y-46007745D01*
X221371352Y-45622539D01*
X221178019Y-45155792D01*
X220916350Y-45063255D01*
X219979605Y-46000000D01*
X219620395Y-46000000D01*
X218683650Y-45063255D01*
X218421981Y-45155792D01*
X218203812Y-45747398D01*
X212127000Y-45747398D01*
X212127000Y-44883650D01*
X218863255Y-44883650D01*
X219800000Y-45820395D01*
X220736745Y-44883650D01*
X220701230Y-44783223D01*
X225053035Y-44783223D01*
X225080222Y-45353454D01*
X225246136Y-45754005D01*
X225492255Y-45828139D01*
X226320395Y-45000000D01*
X225492255Y-44171861D01*
X225246136Y-44245995D01*
X225053035Y-44783223D01*
X220701230Y-44783223D01*
X220644208Y-44621981D01*
X220052602Y-44403812D01*
X219422539Y-44428648D01*
X218955792Y-44621981D01*
X218863255Y-44883650D01*
X212127000Y-44883650D01*
X212127000Y-43992255D01*
X225671861Y-43992255D01*
X226500000Y-44820395D01*
X227328139Y-43992255D01*
X227254005Y-43746136D01*
X226716777Y-43553035D01*
X226146546Y-43580222D01*
X225745995Y-43746136D01*
X225671861Y-43992255D01*
X212127000Y-43992255D01*
X212127000Y-40710000D01*
X237209995Y-40710000D01*
X236554216Y-41365779D01*
X236554216Y-41365779D01*
G37*
X236554216Y-41365779D02*
X236115000Y-42426138D01*
X236115000Y-43573862D01*
X236315748Y-44058510D01*
X236097012Y-44015000D01*
X236097008Y-44015000D01*
X236000000Y-43995704D01*
X235902992Y-44015000D01*
X230410642Y-44015000D01*
X230398157Y-43952235D01*
X230257809Y-43742191D01*
X230047765Y-43601843D01*
X229800000Y-43552560D01*
X228200000Y-43552560D01*
X227952235Y-43601843D01*
X227742191Y-43742191D01*
X227601843Y-43952235D01*
X227555307Y-44186187D01*
X227507745Y-44171861D01*
X226679605Y-45000000D01*
X227507745Y-45828139D01*
X227555307Y-45813813D01*
X227601843Y-46047765D01*
X227742191Y-46257809D01*
X227952235Y-46398157D01*
X228200000Y-46447440D01*
X229800000Y-46447440D01*
X230047765Y-46398157D01*
X230257809Y-46257809D01*
X230398157Y-46047765D01*
X230410642Y-45985000D01*
X235592000Y-45985000D01*
X235792501Y-46185501D01*
X235792500Y-46867656D01*
X235776416Y-46843584D01*
X235487294Y-46650398D01*
X235146250Y-46582560D01*
X234658750Y-46582560D01*
X234317706Y-46650398D01*
X234028584Y-46843584D01*
X233835398Y-47132706D01*
X233767560Y-47473750D01*
X233767560Y-48386250D01*
X233835398Y-48727294D01*
X233917500Y-48850168D01*
X233917501Y-50255487D01*
X233898204Y-50352500D01*
X233974651Y-50736827D01*
X234137402Y-50980402D01*
X234137405Y-50980405D01*
X234192356Y-51062645D01*
X234274596Y-51117596D01*
X234395000Y-51238000D01*
X234395000Y-51685330D01*
X234628690Y-52249507D01*
X234805044Y-52425861D01*
X234670301Y-52481673D01*
X234491673Y-52660302D01*
X234395000Y-52893691D01*
X234395000Y-53634250D01*
X234553750Y-53793000D01*
X235803000Y-53793000D01*
X235803000Y-53773000D01*
X236057000Y-53773000D01*
X236057000Y-53793000D01*
X237306250Y-53793000D01*
X237465000Y-53634250D01*
X237465000Y-52893691D01*
X237368327Y-52660302D01*
X237189699Y-52481673D01*
X237054956Y-52425861D01*
X237231310Y-52249507D01*
X237465000Y-51685330D01*
X237465000Y-51074670D01*
X237231310Y-50510493D01*
X236799507Y-50078690D01*
X236235330Y-49845000D01*
X235887500Y-49845000D01*
X235887500Y-48992345D01*
X235903584Y-49016416D01*
X236192706Y-49209602D01*
X236533750Y-49277440D01*
X237021250Y-49277440D01*
X237269967Y-49227967D01*
X237925000Y-49883001D01*
X237925001Y-59711998D01*
X237622000Y-60015000D01*
X237470587Y-60015000D01*
X237448157Y-59902235D01*
X237307809Y-59692191D01*
X237097765Y-59551843D01*
X236994292Y-59531261D01*
X237271645Y-59226924D01*
X237441476Y-58816890D01*
X237320155Y-58587000D01*
X236127000Y-58587000D01*
X236127000Y-58607000D01*
X235873000Y-58607000D01*
X235873000Y-58587000D01*
X234679845Y-58587000D01*
X234558524Y-58816890D01*
X234728355Y-59226924D01*
X235005708Y-59531261D01*
X234902235Y-59551843D01*
X234692191Y-59692191D01*
X234551843Y-59902235D01*
X234529413Y-60015000D01*
X233408000Y-60015000D01*
X232655098Y-59262098D01*
X232600145Y-59179855D01*
X232274328Y-58962151D01*
X231987012Y-58905000D01*
X231987008Y-58905000D01*
X231890000Y-58885704D01*
X231792992Y-58905000D01*
X221607007Y-58905000D01*
X221509999Y-58885704D01*
X221412991Y-58905000D01*
X221412988Y-58905000D01*
X221125672Y-58962151D01*
X220799855Y-59179855D01*
X220744902Y-59262098D01*
X219172096Y-60834904D01*
X219089856Y-60889855D01*
X219034905Y-60972095D01*
X219034902Y-60972098D01*
X218872151Y-61215673D01*
X218795704Y-61600000D01*
X218815001Y-61697013D01*
X218815001Y-62743471D01*
X218456302Y-63102170D01*
X218215000Y-63684724D01*
X218215000Y-64315276D01*
X218456302Y-64897830D01*
X218902170Y-65343698D01*
X219484724Y-65585000D01*
X220115276Y-65585000D01*
X220697830Y-65343698D01*
X221143698Y-64897830D01*
X221385000Y-64315276D01*
X221385000Y-63985000D01*
X225589358Y-63985000D01*
X225601843Y-64047765D01*
X225742191Y-64257809D01*
X225952235Y-64398157D01*
X226200000Y-64447440D01*
X227800000Y-64447440D01*
X228047765Y-64398157D01*
X228257809Y-64257809D01*
X228398157Y-64047765D01*
X228406117Y-64007745D01*
X228671861Y-64007745D01*
X228745995Y-64253864D01*
X229283223Y-64446965D01*
X229853454Y-64419778D01*
X230254005Y-64253864D01*
X230328139Y-64007745D01*
X229500000Y-63179605D01*
X228671861Y-64007745D01*
X228406117Y-64007745D01*
X228444693Y-63813813D01*
X228492255Y-63828139D01*
X229320395Y-63000000D01*
X229679605Y-63000000D01*
X230507745Y-63828139D01*
X230753864Y-63754005D01*
X230946965Y-63216777D01*
X230919778Y-62646546D01*
X230753864Y-62245995D01*
X230507745Y-62171861D01*
X229679605Y-63000000D01*
X229320395Y-63000000D01*
X228492255Y-62171861D01*
X228444693Y-62186187D01*
X228406118Y-61992255D01*
X228671861Y-61992255D01*
X229500000Y-62820395D01*
X230328139Y-61992255D01*
X230254005Y-61746136D01*
X229716777Y-61553035D01*
X229146546Y-61580222D01*
X228745995Y-61746136D01*
X228671861Y-61992255D01*
X228406118Y-61992255D01*
X228398157Y-61952235D01*
X228257809Y-61742191D01*
X228047765Y-61601843D01*
X227800000Y-61552560D01*
X226200000Y-61552560D01*
X225952235Y-61601843D01*
X225742191Y-61742191D01*
X225601843Y-61952235D01*
X225589358Y-62015000D01*
X220897008Y-62015000D01*
X220800000Y-61995704D01*
X220796625Y-61996375D01*
X221918000Y-60875000D01*
X231482000Y-60875000D01*
X232234902Y-61627902D01*
X232289855Y-61710145D01*
X232615672Y-61927849D01*
X232902988Y-61985000D01*
X232902991Y-61985000D01*
X232999999Y-62004296D01*
X233097007Y-61985000D01*
X234529413Y-61985000D01*
X234551843Y-62097765D01*
X234692191Y-62307809D01*
X234902235Y-62448157D01*
X235150000Y-62497440D01*
X236850000Y-62497440D01*
X237097765Y-62448157D01*
X237307809Y-62307809D01*
X237448157Y-62097765D01*
X237470587Y-61985000D01*
X237932992Y-61985000D01*
X238030000Y-62004296D01*
X238127008Y-61985000D01*
X238127012Y-61985000D01*
X238414328Y-61927849D01*
X238740145Y-61710145D01*
X238795098Y-61627902D01*
X239537905Y-60885096D01*
X239620145Y-60830145D01*
X239675096Y-60747905D01*
X239675098Y-60747903D01*
X239837849Y-60504328D01*
X239864151Y-60372098D01*
X239895000Y-60217012D01*
X239895000Y-60217008D01*
X239914296Y-60120000D01*
X239895000Y-60022992D01*
X239895000Y-49572008D01*
X239914296Y-49475000D01*
X239895000Y-49377992D01*
X239895000Y-49377988D01*
X239837849Y-49090672D01*
X239682282Y-48857849D01*
X239675098Y-48847097D01*
X239675096Y-48847095D01*
X239620145Y-48764855D01*
X239537905Y-48709904D01*
X238130098Y-47302098D01*
X238075145Y-47219855D01*
X237763852Y-47011856D01*
X237762500Y-47009832D01*
X237762500Y-45874507D01*
X237781796Y-45777499D01*
X237762500Y-45680491D01*
X237762500Y-45680488D01*
X237747244Y-45603792D01*
X238426138Y-45885000D01*
X239573862Y-45885000D01*
X240634221Y-45445784D01*
X241290000Y-44790005D01*
X241290001Y-66209996D01*
X240634221Y-65554216D01*
X239573862Y-65115000D01*
X238426138Y-65115000D01*
X237365779Y-65554216D01*
X236554216Y-66365779D01*
X236115000Y-67426138D01*
X236115000Y-68573862D01*
X236554216Y-69634221D01*
X237209995Y-70290000D01*
X212127000Y-70290000D01*
X212127000Y-58103110D01*
X234558524Y-58103110D01*
X234679845Y-58333000D01*
X235873000Y-58333000D01*
X235873000Y-57139181D01*
X236127000Y-57139181D01*
X236127000Y-58333000D01*
X237320155Y-58333000D01*
X237441476Y-58103110D01*
X237271645Y-57693076D01*
X236881358Y-57264817D01*
X236356892Y-57018514D01*
X236127000Y-57139181D01*
X235873000Y-57139181D01*
X235643108Y-57018514D01*
X235118642Y-57264817D01*
X234728355Y-57693076D01*
X234558524Y-58103110D01*
X212127000Y-58103110D01*
X212127000Y-54205750D01*
X234395000Y-54205750D01*
X234395000Y-54946309D01*
X234491673Y-55179698D01*
X234670301Y-55358327D01*
X234903690Y-55455000D01*
X235644250Y-55455000D01*
X235803000Y-55296250D01*
X235803000Y-54047000D01*
X236057000Y-54047000D01*
X236057000Y-55296250D01*
X236215750Y-55455000D01*
X236956310Y-55455000D01*
X237189699Y-55358327D01*
X237368327Y-55179698D01*
X237465000Y-54946309D01*
X237465000Y-54205750D01*
X237306250Y-54047000D01*
X236057000Y-54047000D01*
X235803000Y-54047000D01*
X234553750Y-54047000D01*
X234395000Y-54205750D01*
X212127000Y-54205750D01*
X212127000Y-47116350D01*
X218863255Y-47116350D01*
X218955792Y-47378019D01*
X219547398Y-47596188D01*
X220177461Y-47571352D01*
X220644208Y-47378019D01*
X220736745Y-47116350D01*
X219800000Y-46179605D01*
X218863255Y-47116350D01*
X212127000Y-47116350D01*
X212127000Y-45747398D01*
X218203812Y-45747398D01*
X218228648Y-46377461D01*
X218421981Y-46844208D01*
X218683650Y-46936745D01*
X219620395Y-46000000D01*
X219979605Y-46000000D01*
X220916350Y-46936745D01*
X221178019Y-46844208D01*
X221396188Y-46252602D01*
X221386537Y-46007745D01*
X225671861Y-46007745D01*
X225745995Y-46253864D01*
X226283223Y-46446965D01*
X226853454Y-46419778D01*
X227254005Y-46253864D01*
X227328139Y-46007745D01*
X226500000Y-45179605D01*
X225671861Y-46007745D01*
X221386537Y-46007745D01*
X221371352Y-45622539D01*
X221178019Y-45155792D01*
X220916350Y-45063255D01*
X219979605Y-46000000D01*
X219620395Y-46000000D01*
X218683650Y-45063255D01*
X218421981Y-45155792D01*
X218203812Y-45747398D01*
X212127000Y-45747398D01*
X212127000Y-44883650D01*
X218863255Y-44883650D01*
X219800000Y-45820395D01*
X220736745Y-44883650D01*
X220701230Y-44783223D01*
X225053035Y-44783223D01*
X225080222Y-45353454D01*
X225246136Y-45754005D01*
X225492255Y-45828139D01*
X226320395Y-45000000D01*
X225492255Y-44171861D01*
X225246136Y-44245995D01*
X225053035Y-44783223D01*
X220701230Y-44783223D01*
X220644208Y-44621981D01*
X220052602Y-44403812D01*
X219422539Y-44428648D01*
X218955792Y-44621981D01*
X218863255Y-44883650D01*
X212127000Y-44883650D01*
X212127000Y-43992255D01*
X225671861Y-43992255D01*
X226500000Y-44820395D01*
X227328139Y-43992255D01*
X227254005Y-43746136D01*
X226716777Y-43553035D01*
X226146546Y-43580222D01*
X225745995Y-43746136D01*
X225671861Y-43992255D01*
X212127000Y-43992255D01*
X212127000Y-40710000D01*
X237209995Y-40710000D01*
X236554216Y-41365779D01*
G04 #@! TD*
M02*
