G04 #@! TF.GenerationSoftware,KiCad,Pcbnew,(5.0.1)-3*
G04 #@! TF.CreationDate,2021-03-31T10:43:35+05:45*
G04 #@! TF.ProjectId,Power,506F7765722E6B696361645F70636200,rev?*
G04 #@! TF.SameCoordinates,Original*
G04 #@! TF.FileFunction,Soldermask,Bot*
G04 #@! TF.FilePolarity,Negative*
%FSLAX46Y46*%
G04 Gerber Fmt 4.6, Leading zero omitted, Abs format (unit mm)*
G04 Created by KiCad (PCBNEW (5.0.1)-3) date 3/31/2021 10:43:35 AM*
%MOMM*%
%LPD*%
G01*
G04 APERTURE LIST*
%ADD10C,0.100000*%
G04 APERTURE END LIST*
D10*
G36*
X239448903Y-65743213D02*
X239671177Y-65787426D01*
X240089932Y-65960880D01*
X240466802Y-66212696D01*
X240787304Y-66533198D01*
X241039120Y-66910068D01*
X241212574Y-67328823D01*
X241301000Y-67773371D01*
X241301000Y-68226629D01*
X241212574Y-68671177D01*
X241039120Y-69089932D01*
X240787304Y-69466802D01*
X240466802Y-69787304D01*
X240089932Y-70039120D01*
X239671177Y-70212574D01*
X239448903Y-70256787D01*
X239226630Y-70301000D01*
X238773370Y-70301000D01*
X238551097Y-70256787D01*
X238328823Y-70212574D01*
X237910068Y-70039120D01*
X237533198Y-69787304D01*
X237212696Y-69466802D01*
X236960880Y-69089932D01*
X236787426Y-68671177D01*
X236699000Y-68226629D01*
X236699000Y-67773371D01*
X236787426Y-67328823D01*
X236960880Y-66910068D01*
X237212696Y-66533198D01*
X237533198Y-66212696D01*
X237910068Y-65960880D01*
X238328823Y-65787426D01*
X238551097Y-65743213D01*
X238773370Y-65699000D01*
X239226630Y-65699000D01*
X239448903Y-65743213D01*
X239448903Y-65743213D01*
G37*
G36*
X148448903Y-65743213D02*
X148671177Y-65787426D01*
X149089932Y-65960880D01*
X149466802Y-66212696D01*
X149787304Y-66533198D01*
X150039120Y-66910068D01*
X150212574Y-67328823D01*
X150301000Y-67773371D01*
X150301000Y-68226629D01*
X150212574Y-68671177D01*
X150039120Y-69089932D01*
X149787304Y-69466802D01*
X149466802Y-69787304D01*
X149089932Y-70039120D01*
X148671177Y-70212574D01*
X148448903Y-70256787D01*
X148226630Y-70301000D01*
X147773370Y-70301000D01*
X147551097Y-70256787D01*
X147328823Y-70212574D01*
X146910068Y-70039120D01*
X146533198Y-69787304D01*
X146212696Y-69466802D01*
X145960880Y-69089932D01*
X145787426Y-68671177D01*
X145699000Y-68226629D01*
X145699000Y-67773371D01*
X145787426Y-67328823D01*
X145960880Y-66910068D01*
X146212696Y-66533198D01*
X146533198Y-66212696D01*
X146910068Y-65960880D01*
X147328823Y-65787426D01*
X147551097Y-65743213D01*
X147773370Y-65699000D01*
X148226630Y-65699000D01*
X148448903Y-65743213D01*
X148448903Y-65743213D01*
G37*
G36*
X170352527Y-64988736D02*
X170452410Y-65008604D01*
X170734674Y-65125521D01*
X170988705Y-65295259D01*
X171204741Y-65511295D01*
X171374479Y-65765326D01*
X171491396Y-66047590D01*
X171551000Y-66347240D01*
X171551000Y-66652760D01*
X171491396Y-66952410D01*
X171374479Y-67234674D01*
X171204741Y-67488705D01*
X170988705Y-67704741D01*
X170734674Y-67874479D01*
X170452410Y-67991396D01*
X170352527Y-68011264D01*
X170152762Y-68051000D01*
X169847238Y-68051000D01*
X169647473Y-68011264D01*
X169547590Y-67991396D01*
X169265326Y-67874479D01*
X169011295Y-67704741D01*
X168795259Y-67488705D01*
X168625521Y-67234674D01*
X168508604Y-66952410D01*
X168449000Y-66652760D01*
X168449000Y-66347240D01*
X168508604Y-66047590D01*
X168625521Y-65765326D01*
X168795259Y-65511295D01*
X169011295Y-65295259D01*
X169265326Y-65125521D01*
X169547590Y-65008604D01*
X169647473Y-64988736D01*
X169847238Y-64949000D01*
X170152762Y-64949000D01*
X170352527Y-64988736D01*
X170352527Y-64988736D01*
G37*
G36*
X220091981Y-63037468D02*
X220274150Y-63112925D01*
X220438103Y-63222475D01*
X220577525Y-63361897D01*
X220687075Y-63525850D01*
X220762532Y-63708019D01*
X220801000Y-63901410D01*
X220801000Y-64098590D01*
X220762532Y-64291981D01*
X220687075Y-64474150D01*
X220577525Y-64638103D01*
X220438103Y-64777525D01*
X220274150Y-64887075D01*
X220091981Y-64962532D01*
X219898590Y-65001000D01*
X219701410Y-65001000D01*
X219508019Y-64962532D01*
X219325850Y-64887075D01*
X219161897Y-64777525D01*
X219022475Y-64638103D01*
X218912925Y-64474150D01*
X218837468Y-64291981D01*
X218799000Y-64098590D01*
X218799000Y-63901410D01*
X218837468Y-63708019D01*
X218912925Y-63525850D01*
X219022475Y-63361897D01*
X219161897Y-63222475D01*
X219325850Y-63112925D01*
X219508019Y-63037468D01*
X219701410Y-62999000D01*
X219898590Y-62999000D01*
X220091981Y-63037468D01*
X220091981Y-63037468D01*
G37*
G36*
X229748228Y-62181703D02*
X229903100Y-62245853D01*
X230042481Y-62338985D01*
X230161015Y-62457519D01*
X230254147Y-62596900D01*
X230318297Y-62751772D01*
X230351000Y-62916184D01*
X230351000Y-63083816D01*
X230318297Y-63248228D01*
X230254147Y-63403100D01*
X230161015Y-63542481D01*
X230042481Y-63661015D01*
X229903100Y-63754147D01*
X229748228Y-63818297D01*
X229583816Y-63851000D01*
X229416184Y-63851000D01*
X229251772Y-63818297D01*
X229096900Y-63754147D01*
X228957519Y-63661015D01*
X228838985Y-63542481D01*
X228745853Y-63403100D01*
X228681703Y-63248228D01*
X228649000Y-63083816D01*
X228649000Y-62916184D01*
X228681703Y-62751772D01*
X228745853Y-62596900D01*
X228838985Y-62457519D01*
X228957519Y-62338985D01*
X229096900Y-62245853D01*
X229251772Y-62181703D01*
X229416184Y-62149000D01*
X229583816Y-62149000D01*
X229748228Y-62181703D01*
X229748228Y-62181703D01*
G37*
G36*
X227851000Y-63851000D02*
X226149000Y-63851000D01*
X226149000Y-62149000D01*
X227851000Y-62149000D01*
X227851000Y-63851000D01*
X227851000Y-63851000D01*
G37*
G36*
X236901000Y-61901000D02*
X235099000Y-61901000D01*
X235099000Y-60099000D01*
X236901000Y-60099000D01*
X236901000Y-61901000D01*
X236901000Y-61901000D01*
G37*
G36*
X162051000Y-61551000D02*
X158949000Y-61551000D01*
X158949000Y-58449000D01*
X162051000Y-58449000D01*
X162051000Y-61551000D01*
X162051000Y-61551000D01*
G37*
G36*
X150551000Y-61551000D02*
X147449000Y-61551000D01*
X147449000Y-58449000D01*
X150551000Y-58449000D01*
X150551000Y-61551000D01*
X150551000Y-61551000D01*
G37*
G36*
X178757396Y-57675546D02*
X178930466Y-57747234D01*
X179086230Y-57851312D01*
X179218688Y-57983770D01*
X179322766Y-58139534D01*
X179394454Y-58312604D01*
X179431000Y-58496333D01*
X179431000Y-58683667D01*
X179394454Y-58867396D01*
X179322766Y-59040466D01*
X179218688Y-59196230D01*
X179086230Y-59328688D01*
X178930466Y-59432766D01*
X178757396Y-59504454D01*
X178573667Y-59541000D01*
X178386333Y-59541000D01*
X178202604Y-59504454D01*
X178029534Y-59432766D01*
X177873770Y-59328688D01*
X177741312Y-59196230D01*
X177637234Y-59040466D01*
X177565546Y-58867396D01*
X177529000Y-58683667D01*
X177529000Y-58496333D01*
X177565546Y-58312604D01*
X177637234Y-58139534D01*
X177741312Y-57983770D01*
X177873770Y-57851312D01*
X178029534Y-57747234D01*
X178202604Y-57675546D01*
X178386333Y-57639000D01*
X178573667Y-57639000D01*
X178757396Y-57675546D01*
X178757396Y-57675546D01*
G37*
G36*
X236110442Y-57565518D02*
X236176627Y-57572037D01*
X236289853Y-57606384D01*
X236346467Y-57623557D01*
X236375358Y-57639000D01*
X236502991Y-57707222D01*
X236538729Y-57736552D01*
X236640186Y-57819814D01*
X236707149Y-57901410D01*
X236752778Y-57957009D01*
X236752779Y-57957011D01*
X236836443Y-58113533D01*
X236836443Y-58113534D01*
X236887963Y-58283373D01*
X236905359Y-58460000D01*
X236887963Y-58636627D01*
X236853616Y-58749853D01*
X236836443Y-58806467D01*
X236803875Y-58867396D01*
X236752778Y-58962991D01*
X236723448Y-58998729D01*
X236640186Y-59100186D01*
X236538729Y-59183448D01*
X236502991Y-59212778D01*
X236502989Y-59212779D01*
X236346467Y-59296443D01*
X236289853Y-59313616D01*
X236176627Y-59347963D01*
X236110442Y-59354482D01*
X236044260Y-59361000D01*
X235955740Y-59361000D01*
X235889558Y-59354482D01*
X235823373Y-59347963D01*
X235710147Y-59313616D01*
X235653533Y-59296443D01*
X235497011Y-59212779D01*
X235497009Y-59212778D01*
X235461271Y-59183448D01*
X235359814Y-59100186D01*
X235276552Y-58998729D01*
X235247222Y-58962991D01*
X235196125Y-58867396D01*
X235163557Y-58806467D01*
X235146384Y-58749853D01*
X235112037Y-58636627D01*
X235094641Y-58460000D01*
X235112037Y-58283373D01*
X235163557Y-58113534D01*
X235163557Y-58113533D01*
X235247221Y-57957011D01*
X235247222Y-57957009D01*
X235292851Y-57901410D01*
X235359814Y-57819814D01*
X235461271Y-57736552D01*
X235497009Y-57707222D01*
X235624642Y-57639000D01*
X235653533Y-57623557D01*
X235710147Y-57606384D01*
X235823373Y-57572037D01*
X235889558Y-57565518D01*
X235955740Y-57559000D01*
X236044260Y-57559000D01*
X236110442Y-57565518D01*
X236110442Y-57565518D01*
G37*
G36*
X186491981Y-57037468D02*
X186674150Y-57112925D01*
X186838103Y-57222475D01*
X186977525Y-57361897D01*
X187087075Y-57525850D01*
X187162532Y-57708019D01*
X187201000Y-57901410D01*
X187201000Y-58098590D01*
X187162532Y-58291981D01*
X187087075Y-58474150D01*
X186977525Y-58638103D01*
X186838103Y-58777525D01*
X186674150Y-58887075D01*
X186491981Y-58962532D01*
X186298590Y-59001000D01*
X186101410Y-59001000D01*
X185908019Y-58962532D01*
X185725850Y-58887075D01*
X185561897Y-58777525D01*
X185422475Y-58638103D01*
X185312925Y-58474150D01*
X185237468Y-58291981D01*
X185199000Y-58098590D01*
X185199000Y-57901410D01*
X185237468Y-57708019D01*
X185312925Y-57525850D01*
X185422475Y-57361897D01*
X185561897Y-57222475D01*
X185725850Y-57112925D01*
X185908019Y-57037468D01*
X186101410Y-56999000D01*
X186298590Y-56999000D01*
X186491981Y-57037468D01*
X186491981Y-57037468D01*
G37*
G36*
X236881000Y-54871000D02*
X234979000Y-54871000D01*
X234979000Y-52969000D01*
X236881000Y-52969000D01*
X236881000Y-54871000D01*
X236881000Y-54871000D01*
G37*
G36*
X187201000Y-53001000D02*
X185199000Y-53001000D01*
X185199000Y-50999000D01*
X187201000Y-50999000D01*
X187201000Y-53001000D01*
X187201000Y-53001000D01*
G37*
G36*
X162051000Y-52551000D02*
X158949000Y-52551000D01*
X158949000Y-49449000D01*
X162051000Y-49449000D01*
X162051000Y-52551000D01*
X162051000Y-52551000D01*
G37*
G36*
X150551000Y-52551000D02*
X147449000Y-52551000D01*
X147449000Y-49449000D01*
X150551000Y-49449000D01*
X150551000Y-52551000D01*
X150551000Y-52551000D01*
G37*
G36*
X236207396Y-50465546D02*
X236380466Y-50537234D01*
X236536230Y-50641312D01*
X236668688Y-50773770D01*
X236772766Y-50929534D01*
X236844454Y-51102604D01*
X236881000Y-51286333D01*
X236881000Y-51473667D01*
X236844454Y-51657396D01*
X236772766Y-51830466D01*
X236668688Y-51986230D01*
X236536230Y-52118688D01*
X236380466Y-52222766D01*
X236207396Y-52294454D01*
X236023667Y-52331000D01*
X235836333Y-52331000D01*
X235652604Y-52294454D01*
X235479534Y-52222766D01*
X235323770Y-52118688D01*
X235191312Y-51986230D01*
X235087234Y-51830466D01*
X235015546Y-51657396D01*
X234979000Y-51473667D01*
X234979000Y-51286333D01*
X235015546Y-51102604D01*
X235087234Y-50929534D01*
X235191312Y-50773770D01*
X235323770Y-50641312D01*
X235479534Y-50537234D01*
X235652604Y-50465546D01*
X235836333Y-50429000D01*
X236023667Y-50429000D01*
X236207396Y-50465546D01*
X236207396Y-50465546D01*
G37*
G36*
X180157396Y-50175546D02*
X180330466Y-50247234D01*
X180486230Y-50351312D01*
X180618688Y-50483770D01*
X180722766Y-50639534D01*
X180794454Y-50812604D01*
X180831000Y-50996333D01*
X180831000Y-51183667D01*
X180794454Y-51367396D01*
X180722766Y-51540466D01*
X180618688Y-51696230D01*
X180486230Y-51828688D01*
X180330466Y-51932766D01*
X180157396Y-52004454D01*
X179973667Y-52041000D01*
X179786333Y-52041000D01*
X179602604Y-52004454D01*
X179429534Y-51932766D01*
X179273770Y-51828688D01*
X179141312Y-51696230D01*
X179037234Y-51540466D01*
X178965546Y-51367396D01*
X178929000Y-51183667D01*
X178929000Y-50996333D01*
X178965546Y-50812604D01*
X179037234Y-50639534D01*
X179141312Y-50483770D01*
X179273770Y-50351312D01*
X179429534Y-50247234D01*
X179602604Y-50175546D01*
X179786333Y-50139000D01*
X179973667Y-50139000D01*
X180157396Y-50175546D01*
X180157396Y-50175546D01*
G37*
G36*
X220091981Y-45037468D02*
X220274150Y-45112925D01*
X220438103Y-45222475D01*
X220577525Y-45361897D01*
X220687075Y-45525850D01*
X220762532Y-45708019D01*
X220801000Y-45901410D01*
X220801000Y-46098590D01*
X220762532Y-46291981D01*
X220687075Y-46474150D01*
X220577525Y-46638103D01*
X220438103Y-46777525D01*
X220274150Y-46887075D01*
X220091981Y-46962532D01*
X219898590Y-47001000D01*
X219701410Y-47001000D01*
X219508019Y-46962532D01*
X219325850Y-46887075D01*
X219161897Y-46777525D01*
X219022475Y-46638103D01*
X218912925Y-46474150D01*
X218837468Y-46291981D01*
X218799000Y-46098590D01*
X218799000Y-45901410D01*
X218837468Y-45708019D01*
X218912925Y-45525850D01*
X219022475Y-45361897D01*
X219161897Y-45222475D01*
X219325850Y-45112925D01*
X219508019Y-45037468D01*
X219701410Y-44999000D01*
X219898590Y-44999000D01*
X220091981Y-45037468D01*
X220091981Y-45037468D01*
G37*
G36*
X226748228Y-44181703D02*
X226903100Y-44245853D01*
X227042481Y-44338985D01*
X227161015Y-44457519D01*
X227254147Y-44596900D01*
X227318297Y-44751772D01*
X227351000Y-44916184D01*
X227351000Y-45083816D01*
X227318297Y-45248228D01*
X227254147Y-45403100D01*
X227161015Y-45542481D01*
X227042481Y-45661015D01*
X226903100Y-45754147D01*
X226748228Y-45818297D01*
X226583816Y-45851000D01*
X226416184Y-45851000D01*
X226251772Y-45818297D01*
X226096900Y-45754147D01*
X225957519Y-45661015D01*
X225838985Y-45542481D01*
X225745853Y-45403100D01*
X225681703Y-45248228D01*
X225649000Y-45083816D01*
X225649000Y-44916184D01*
X225681703Y-44751772D01*
X225745853Y-44596900D01*
X225838985Y-44457519D01*
X225957519Y-44338985D01*
X226096900Y-44245853D01*
X226251772Y-44181703D01*
X226416184Y-44149000D01*
X226583816Y-44149000D01*
X226748228Y-44181703D01*
X226748228Y-44181703D01*
G37*
G36*
X229851000Y-45851000D02*
X228149000Y-45851000D01*
X228149000Y-44149000D01*
X229851000Y-44149000D01*
X229851000Y-45851000D01*
X229851000Y-45851000D01*
G37*
G36*
X170352527Y-42388736D02*
X170452410Y-42408604D01*
X170734674Y-42525521D01*
X170988705Y-42695259D01*
X171204741Y-42911295D01*
X171374479Y-43165326D01*
X171491396Y-43447590D01*
X171491396Y-43447591D01*
X171551000Y-43747238D01*
X171551000Y-44052762D01*
X171512591Y-44245853D01*
X171491396Y-44352410D01*
X171374479Y-44634674D01*
X171204741Y-44888705D01*
X170988705Y-45104741D01*
X170734674Y-45274479D01*
X170452410Y-45391396D01*
X170393570Y-45403100D01*
X170152762Y-45451000D01*
X169847238Y-45451000D01*
X169606430Y-45403100D01*
X169547590Y-45391396D01*
X169265326Y-45274479D01*
X169011295Y-45104741D01*
X168795259Y-44888705D01*
X168625521Y-44634674D01*
X168508604Y-44352410D01*
X168487409Y-44245853D01*
X168449000Y-44052762D01*
X168449000Y-43747238D01*
X168508604Y-43447591D01*
X168508604Y-43447590D01*
X168625521Y-43165326D01*
X168795259Y-42911295D01*
X169011295Y-42695259D01*
X169265326Y-42525521D01*
X169547590Y-42408604D01*
X169647473Y-42388736D01*
X169847238Y-42349000D01*
X170152762Y-42349000D01*
X170352527Y-42388736D01*
X170352527Y-42388736D01*
G37*
G36*
X148448903Y-40743213D02*
X148671177Y-40787426D01*
X149089932Y-40960880D01*
X149466802Y-41212696D01*
X149787304Y-41533198D01*
X150039120Y-41910068D01*
X150212574Y-42328823D01*
X150301000Y-42773371D01*
X150301000Y-43226629D01*
X150212574Y-43671177D01*
X150039120Y-44089932D01*
X149787304Y-44466802D01*
X149466802Y-44787304D01*
X149089932Y-45039120D01*
X148671177Y-45212574D01*
X148491932Y-45248228D01*
X148226630Y-45301000D01*
X147773370Y-45301000D01*
X147508068Y-45248228D01*
X147328823Y-45212574D01*
X146910068Y-45039120D01*
X146533198Y-44787304D01*
X146212696Y-44466802D01*
X145960880Y-44089932D01*
X145787426Y-43671177D01*
X145699000Y-43226629D01*
X145699000Y-42773371D01*
X145787426Y-42328823D01*
X145960880Y-41910068D01*
X146212696Y-41533198D01*
X146533198Y-41212696D01*
X146910068Y-40960880D01*
X147328823Y-40787426D01*
X147551097Y-40743213D01*
X147773370Y-40699000D01*
X148226630Y-40699000D01*
X148448903Y-40743213D01*
X148448903Y-40743213D01*
G37*
G36*
X239448903Y-40743213D02*
X239671177Y-40787426D01*
X240089932Y-40960880D01*
X240466802Y-41212696D01*
X240787304Y-41533198D01*
X241039120Y-41910068D01*
X241212574Y-42328823D01*
X241301000Y-42773371D01*
X241301000Y-43226629D01*
X241212574Y-43671177D01*
X241039120Y-44089932D01*
X240787304Y-44466802D01*
X240466802Y-44787304D01*
X240089932Y-45039120D01*
X239671177Y-45212574D01*
X239491932Y-45248228D01*
X239226630Y-45301000D01*
X238773370Y-45301000D01*
X238508068Y-45248228D01*
X238328823Y-45212574D01*
X237910068Y-45039120D01*
X237533198Y-44787304D01*
X237212696Y-44466802D01*
X236960880Y-44089932D01*
X236787426Y-43671177D01*
X236699000Y-43226629D01*
X236699000Y-42773371D01*
X236787426Y-42328823D01*
X236960880Y-41910068D01*
X237212696Y-41533198D01*
X237533198Y-41212696D01*
X237910068Y-40960880D01*
X238328823Y-40787426D01*
X238551097Y-40743213D01*
X238773370Y-40699000D01*
X239226630Y-40699000D01*
X239448903Y-40743213D01*
X239448903Y-40743213D01*
G37*
M02*
