G04 #@! TF.GenerationSoftware,KiCad,Pcbnew,(5.0.1)-3*
G04 #@! TF.CreationDate,2021-03-31T10:43:35+05:45*
G04 #@! TF.ProjectId,Power,506F7765722E6B696361645F70636200,rev?*
G04 #@! TF.SameCoordinates,Original*
G04 #@! TF.FileFunction,Legend,Top*
G04 #@! TF.FilePolarity,Positive*
%FSLAX46Y46*%
G04 Gerber Fmt 4.6, Leading zero omitted, Abs format (unit mm)*
G04 Created by KiCad (PCBNEW (5.0.1)-3) date 3/31/2021 10:43:35 AM*
%MOMM*%
%LPD*%
G01*
G04 APERTURE LIST*
%ADD10C,0.300000*%
%ADD11C,0.200000*%
%ADD12C,0.120000*%
%ADD13C,0.127000*%
%ADD14C,0.150000*%
%ADD15C,0.015000*%
G04 APERTURE END LIST*
D10*
X235714285Y-63178571D02*
X235000000Y-63178571D01*
X234928571Y-63892857D01*
X235000000Y-63821428D01*
X235142857Y-63750000D01*
X235500000Y-63750000D01*
X235642857Y-63821428D01*
X235714285Y-63892857D01*
X235785714Y-64035714D01*
X235785714Y-64392857D01*
X235714285Y-64535714D01*
X235642857Y-64607142D01*
X235500000Y-64678571D01*
X235142857Y-64678571D01*
X235000000Y-64607142D01*
X234928571Y-64535714D01*
X236214285Y-63178571D02*
X236714285Y-64678571D01*
X237214285Y-63178571D01*
X151714285Y-65250000D02*
X152428571Y-65250000D01*
X151571428Y-65678571D02*
X152071428Y-64178571D01*
X152571428Y-65678571D01*
X153928571Y-65535714D02*
X153857142Y-65607142D01*
X153642857Y-65678571D01*
X153500000Y-65678571D01*
X153285714Y-65607142D01*
X153142857Y-65464285D01*
X153071428Y-65321428D01*
X153000000Y-65035714D01*
X153000000Y-64821428D01*
X153071428Y-64535714D01*
X153142857Y-64392857D01*
X153285714Y-64250000D01*
X153500000Y-64178571D01*
X153642857Y-64178571D01*
X153857142Y-64250000D01*
X153928571Y-64321428D01*
X154571428Y-65107142D02*
X155714285Y-65107142D01*
X156428571Y-65678571D02*
X156428571Y-64178571D01*
X157142857Y-65678571D02*
X157142857Y-64178571D01*
X158000000Y-65678571D01*
X158000000Y-64178571D01*
X158714285Y-65678571D02*
X158714285Y-64178571D01*
X159285714Y-64178571D01*
X159428571Y-64250000D01*
X159500000Y-64321428D01*
X159571428Y-64464285D01*
X159571428Y-64678571D01*
X159500000Y-64821428D01*
X159428571Y-64892857D01*
X159285714Y-64964285D01*
X158714285Y-64964285D01*
X160214285Y-64178571D02*
X160214285Y-65392857D01*
X160285714Y-65535714D01*
X160357142Y-65607142D01*
X160500000Y-65678571D01*
X160785714Y-65678571D01*
X160928571Y-65607142D01*
X161000000Y-65535714D01*
X161071428Y-65392857D01*
X161071428Y-64178571D01*
X161571428Y-64178571D02*
X162428571Y-64178571D01*
X162000000Y-65678571D02*
X162000000Y-64178571D01*
X239428571Y-58107142D02*
X240571428Y-58107142D01*
D11*
X190320000Y-70320000D02*
G75*
G02X189920000Y-69920000I0J400000D01*
G01*
X189920000Y-67920000D02*
G75*
G02X190320000Y-67520000I400000J0D01*
G01*
X211120000Y-67520000D02*
G75*
G02X211520000Y-67920000I0J-400000D01*
G01*
X211520000Y-69920000D02*
G75*
G02X211120000Y-70320000I-400000J0D01*
G01*
X190320000Y-70320000D02*
X211120000Y-70320000D01*
X211520000Y-67920000D02*
X211520000Y-69920000D01*
X190320000Y-67520000D02*
X211120000Y-67520000D01*
X189920000Y-69920000D02*
X189920000Y-67920000D01*
D10*
X191205714Y-69598571D02*
X191205714Y-68098571D01*
X191777142Y-68098571D01*
X191920000Y-68170000D01*
X191991428Y-68241428D01*
X192062857Y-68384285D01*
X192062857Y-68598571D01*
X191991428Y-68741428D01*
X191920000Y-68812857D01*
X191777142Y-68884285D01*
X191205714Y-68884285D01*
X192920000Y-69598571D02*
X192777142Y-69527142D01*
X192705714Y-69455714D01*
X192634285Y-69312857D01*
X192634285Y-68884285D01*
X192705714Y-68741428D01*
X192777142Y-68670000D01*
X192920000Y-68598571D01*
X193134285Y-68598571D01*
X193277142Y-68670000D01*
X193348571Y-68741428D01*
X193420000Y-68884285D01*
X193420000Y-69312857D01*
X193348571Y-69455714D01*
X193277142Y-69527142D01*
X193134285Y-69598571D01*
X192920000Y-69598571D01*
X193920000Y-68598571D02*
X194205714Y-69598571D01*
X194491428Y-68884285D01*
X194777142Y-69598571D01*
X195062857Y-68598571D01*
X196205714Y-69527142D02*
X196062857Y-69598571D01*
X195777142Y-69598571D01*
X195634285Y-69527142D01*
X195562857Y-69384285D01*
X195562857Y-68812857D01*
X195634285Y-68670000D01*
X195777142Y-68598571D01*
X196062857Y-68598571D01*
X196205714Y-68670000D01*
X196277142Y-68812857D01*
X196277142Y-68955714D01*
X195562857Y-69098571D01*
X196920000Y-69598571D02*
X196920000Y-68598571D01*
X196920000Y-68884285D02*
X196991428Y-68741428D01*
X197062857Y-68670000D01*
X197205714Y-68598571D01*
X197348571Y-68598571D01*
X199491428Y-68812857D02*
X199705714Y-68884285D01*
X199777142Y-68955714D01*
X199848571Y-69098571D01*
X199848571Y-69312857D01*
X199777142Y-69455714D01*
X199705714Y-69527142D01*
X199562857Y-69598571D01*
X198991428Y-69598571D01*
X198991428Y-68098571D01*
X199491428Y-68098571D01*
X199634285Y-68170000D01*
X199705714Y-68241428D01*
X199777142Y-68384285D01*
X199777142Y-68527142D01*
X199705714Y-68670000D01*
X199634285Y-68741428D01*
X199491428Y-68812857D01*
X198991428Y-68812857D01*
X200705714Y-69598571D02*
X200562857Y-69527142D01*
X200491428Y-69455714D01*
X200420000Y-69312857D01*
X200420000Y-68884285D01*
X200491428Y-68741428D01*
X200562857Y-68670000D01*
X200705714Y-68598571D01*
X200920000Y-68598571D01*
X201062857Y-68670000D01*
X201134285Y-68741428D01*
X201205714Y-68884285D01*
X201205714Y-69312857D01*
X201134285Y-69455714D01*
X201062857Y-69527142D01*
X200920000Y-69598571D01*
X200705714Y-69598571D01*
X202491428Y-69598571D02*
X202491428Y-68812857D01*
X202420000Y-68670000D01*
X202277142Y-68598571D01*
X201991428Y-68598571D01*
X201848571Y-68670000D01*
X202491428Y-69527142D02*
X202348571Y-69598571D01*
X201991428Y-69598571D01*
X201848571Y-69527142D01*
X201777142Y-69384285D01*
X201777142Y-69241428D01*
X201848571Y-69098571D01*
X201991428Y-69027142D01*
X202348571Y-69027142D01*
X202491428Y-68955714D01*
X203205714Y-69598571D02*
X203205714Y-68598571D01*
X203205714Y-68884285D02*
X203277142Y-68741428D01*
X203348571Y-68670000D01*
X203491428Y-68598571D01*
X203634285Y-68598571D01*
X204777142Y-69598571D02*
X204777142Y-68098571D01*
X204777142Y-69527142D02*
X204634285Y-69598571D01*
X204348571Y-69598571D01*
X204205714Y-69527142D01*
X204134285Y-69455714D01*
X204062857Y-69312857D01*
X204062857Y-68884285D01*
X204134285Y-68741428D01*
X204205714Y-68670000D01*
X204348571Y-68598571D01*
X204634285Y-68598571D01*
X204777142Y-68670000D01*
X206491428Y-68598571D02*
X206848571Y-69598571D01*
X207205714Y-68598571D01*
X208562857Y-69598571D02*
X207705714Y-69598571D01*
X208134285Y-69598571D02*
X208134285Y-68098571D01*
X207991428Y-68312857D01*
X207848571Y-68455714D01*
X207705714Y-68527142D01*
X209205714Y-69455714D02*
X209277142Y-69527142D01*
X209205714Y-69598571D01*
X209134285Y-69527142D01*
X209205714Y-69455714D01*
X209205714Y-69598571D01*
X210705714Y-69598571D02*
X209848571Y-69598571D01*
X210277142Y-69598571D02*
X210277142Y-68098571D01*
X210134285Y-68312857D01*
X209991428Y-68455714D01*
X209848571Y-68527142D01*
X239428571Y-61107142D02*
X240571428Y-61107142D01*
X240000000Y-61678571D02*
X240000000Y-60535714D01*
D12*
G04 #@! TO.C,F1*
X174800000Y-43900000D02*
X172000000Y-43900000D01*
X168000000Y-43900000D02*
X165200000Y-43900000D01*
X168000000Y-66500000D02*
X165200000Y-66500000D01*
X165200000Y-66500000D02*
X165200000Y-43900000D01*
X174800000Y-66500000D02*
X174800000Y-43900000D01*
X174800000Y-66500000D02*
X172000000Y-66500000D01*
G04 #@! TO.C,R1*
X235581422Y-47220000D02*
X236098578Y-47220000D01*
X235581422Y-48640000D02*
X236098578Y-48640000D01*
G04 #@! TO.C,J1*
X237330000Y-57130000D02*
X234670000Y-57130000D01*
X237330000Y-59730000D02*
X237330000Y-57130000D01*
X234670000Y-59730000D02*
X234670000Y-57130000D01*
X237330000Y-59730000D02*
X234670000Y-59730000D01*
X237330000Y-61000000D02*
X237330000Y-62330000D01*
X237330000Y-62330000D02*
X236000000Y-62330000D01*
G04 #@! TO.C,D1*
X234851392Y-50977665D02*
G75*
G03X234694484Y-54210000I1078608J-1672335D01*
G01*
X237008608Y-50977665D02*
G75*
G02X237165516Y-54210000I-1078608J-1672335D01*
G01*
X234850163Y-51608870D02*
G75*
G03X234850000Y-53690961I1079837J-1041130D01*
G01*
X237009837Y-51608870D02*
G75*
G02X237010000Y-53690961I-1079837J-1041130D01*
G01*
X234694000Y-54210000D02*
X234850000Y-54210000D01*
X237010000Y-54210000D02*
X237166000Y-54210000D01*
D13*
G04 #@! TO.C,PS1*
X184000000Y-43500000D02*
X184000000Y-66500000D01*
X184000000Y-66500000D02*
X222000000Y-66500000D01*
X222000000Y-66500000D02*
X222000000Y-43500000D01*
X222000000Y-43500000D02*
X184000000Y-43500000D01*
D11*
X183300000Y-51800000D02*
G75*
G03X183300000Y-51800000I-100000J0D01*
G01*
D14*
G04 #@! TO.C,J2*
X146460000Y-62540000D02*
X146460000Y-48570000D01*
X146460000Y-48570000D02*
X162970000Y-48570000D01*
X162970000Y-48570000D02*
X162970000Y-62540000D01*
X162970000Y-62540000D02*
X146460000Y-62540000D01*
G04 #@! TO.C,RV1*
X181130000Y-60840000D02*
X181130000Y-48840000D01*
X177230000Y-60840000D02*
X177230000Y-48840000D01*
X177230000Y-48840000D02*
X181130000Y-48840000D01*
X177230000Y-60840000D02*
X181130000Y-60840000D01*
D12*
G04 #@! TO.C,C3*
X224482789Y-60450000D02*
X224482789Y-61200000D01*
X224107789Y-60825000D02*
X224857789Y-60825000D01*
X232091000Y-62559000D02*
X232091000Y-63441000D01*
X232051000Y-62307000D02*
X232051000Y-63693000D01*
X232011000Y-62123000D02*
X232011000Y-63877000D01*
X231971000Y-61972000D02*
X231971000Y-64028000D01*
X231931000Y-61842000D02*
X231931000Y-64158000D01*
X231891000Y-61725000D02*
X231891000Y-64275000D01*
X231851000Y-61619000D02*
X231851000Y-64381000D01*
X231811000Y-61522000D02*
X231811000Y-64478000D01*
X231771000Y-61431000D02*
X231771000Y-64569000D01*
X231731000Y-61346000D02*
X231731000Y-64654000D01*
X231691000Y-61267000D02*
X231691000Y-64733000D01*
X231651000Y-61191000D02*
X231651000Y-64809000D01*
X231611000Y-61119000D02*
X231611000Y-64881000D01*
X231571000Y-61051000D02*
X231571000Y-64949000D01*
X231531000Y-60986000D02*
X231531000Y-65014000D01*
X231491000Y-60923000D02*
X231491000Y-65077000D01*
X231451000Y-60863000D02*
X231451000Y-65137000D01*
X231411000Y-60805000D02*
X231411000Y-65195000D01*
X231371000Y-60750000D02*
X231371000Y-65250000D01*
X231331000Y-60696000D02*
X231331000Y-65304000D01*
X231291000Y-60645000D02*
X231291000Y-65355000D01*
X231251000Y-60595000D02*
X231251000Y-65405000D01*
X231211000Y-60546000D02*
X231211000Y-65454000D01*
X231171000Y-60500000D02*
X231171000Y-65500000D01*
X231131000Y-60454000D02*
X231131000Y-65546000D01*
X231091000Y-60411000D02*
X231091000Y-65589000D01*
X231051000Y-60368000D02*
X231051000Y-65632000D01*
X231011000Y-60327000D02*
X231011000Y-65673000D01*
X230971000Y-60287000D02*
X230971000Y-65713000D01*
X230931000Y-60248000D02*
X230931000Y-65752000D01*
X230891000Y-60210000D02*
X230891000Y-65790000D01*
X230851000Y-60173000D02*
X230851000Y-65827000D01*
X230811000Y-60137000D02*
X230811000Y-65863000D01*
X230771000Y-60102000D02*
X230771000Y-65898000D01*
X230731000Y-60069000D02*
X230731000Y-65931000D01*
X230691000Y-60036000D02*
X230691000Y-65964000D01*
X230651000Y-60004000D02*
X230651000Y-65996000D01*
X230611000Y-59972000D02*
X230611000Y-66028000D01*
X230571000Y-59942000D02*
X230571000Y-66058000D01*
X230531000Y-64040000D02*
X230531000Y-66088000D01*
X230531000Y-59912000D02*
X230531000Y-61960000D01*
X230491000Y-64040000D02*
X230491000Y-66116000D01*
X230491000Y-59884000D02*
X230491000Y-61960000D01*
X230451000Y-64040000D02*
X230451000Y-66144000D01*
X230451000Y-59856000D02*
X230451000Y-61960000D01*
X230411000Y-64040000D02*
X230411000Y-66172000D01*
X230411000Y-59828000D02*
X230411000Y-61960000D01*
X230371000Y-64040000D02*
X230371000Y-66198000D01*
X230371000Y-59802000D02*
X230371000Y-61960000D01*
X230331000Y-64040000D02*
X230331000Y-66224000D01*
X230331000Y-59776000D02*
X230331000Y-61960000D01*
X230291000Y-64040000D02*
X230291000Y-66249000D01*
X230291000Y-59751000D02*
X230291000Y-61960000D01*
X230251000Y-64040000D02*
X230251000Y-66274000D01*
X230251000Y-59726000D02*
X230251000Y-61960000D01*
X230211000Y-64040000D02*
X230211000Y-66297000D01*
X230211000Y-59703000D02*
X230211000Y-61960000D01*
X230171000Y-64040000D02*
X230171000Y-66321000D01*
X230171000Y-59679000D02*
X230171000Y-61960000D01*
X230131000Y-64040000D02*
X230131000Y-66343000D01*
X230131000Y-59657000D02*
X230131000Y-61960000D01*
X230091000Y-64040000D02*
X230091000Y-66365000D01*
X230091000Y-59635000D02*
X230091000Y-61960000D01*
X230051000Y-64040000D02*
X230051000Y-66386000D01*
X230051000Y-59614000D02*
X230051000Y-61960000D01*
X230011000Y-64040000D02*
X230011000Y-66407000D01*
X230011000Y-59593000D02*
X230011000Y-61960000D01*
X229971000Y-64040000D02*
X229971000Y-66427000D01*
X229971000Y-59573000D02*
X229971000Y-61960000D01*
X229931000Y-64040000D02*
X229931000Y-66447000D01*
X229931000Y-59553000D02*
X229931000Y-61960000D01*
X229891000Y-64040000D02*
X229891000Y-66466000D01*
X229891000Y-59534000D02*
X229891000Y-61960000D01*
X229851000Y-64040000D02*
X229851000Y-66484000D01*
X229851000Y-59516000D02*
X229851000Y-61960000D01*
X229811000Y-64040000D02*
X229811000Y-66502000D01*
X229811000Y-59498000D02*
X229811000Y-61960000D01*
X229771000Y-64040000D02*
X229771000Y-66520000D01*
X229771000Y-59480000D02*
X229771000Y-61960000D01*
X229731000Y-64040000D02*
X229731000Y-66536000D01*
X229731000Y-59464000D02*
X229731000Y-61960000D01*
X229691000Y-64040000D02*
X229691000Y-66553000D01*
X229691000Y-59447000D02*
X229691000Y-61960000D01*
X229651000Y-64040000D02*
X229651000Y-66568000D01*
X229651000Y-59432000D02*
X229651000Y-61960000D01*
X229611000Y-64040000D02*
X229611000Y-66584000D01*
X229611000Y-59416000D02*
X229611000Y-61960000D01*
X229571000Y-64040000D02*
X229571000Y-66598000D01*
X229571000Y-59402000D02*
X229571000Y-61960000D01*
X229531000Y-64040000D02*
X229531000Y-66613000D01*
X229531000Y-59387000D02*
X229531000Y-61960000D01*
X229491000Y-64040000D02*
X229491000Y-66626000D01*
X229491000Y-59374000D02*
X229491000Y-61960000D01*
X229451000Y-64040000D02*
X229451000Y-66640000D01*
X229451000Y-59360000D02*
X229451000Y-61960000D01*
X229411000Y-64040000D02*
X229411000Y-66653000D01*
X229411000Y-59347000D02*
X229411000Y-61960000D01*
X229371000Y-64040000D02*
X229371000Y-66665000D01*
X229371000Y-59335000D02*
X229371000Y-61960000D01*
X229331000Y-64040000D02*
X229331000Y-66677000D01*
X229331000Y-59323000D02*
X229331000Y-61960000D01*
X229291000Y-64040000D02*
X229291000Y-66688000D01*
X229291000Y-59312000D02*
X229291000Y-61960000D01*
X229251000Y-64040000D02*
X229251000Y-66699000D01*
X229251000Y-59301000D02*
X229251000Y-61960000D01*
X229211000Y-64040000D02*
X229211000Y-66710000D01*
X229211000Y-59290000D02*
X229211000Y-61960000D01*
X229171000Y-64040000D02*
X229171000Y-66720000D01*
X229171000Y-59280000D02*
X229171000Y-61960000D01*
X229131000Y-64040000D02*
X229131000Y-66729000D01*
X229131000Y-59271000D02*
X229131000Y-61960000D01*
X229091000Y-64040000D02*
X229091000Y-66738000D01*
X229091000Y-59262000D02*
X229091000Y-61960000D01*
X229051000Y-64040000D02*
X229051000Y-66747000D01*
X229051000Y-59253000D02*
X229051000Y-61960000D01*
X229011000Y-64040000D02*
X229011000Y-66755000D01*
X229011000Y-59245000D02*
X229011000Y-61960000D01*
X228971000Y-64040000D02*
X228971000Y-66763000D01*
X228971000Y-59237000D02*
X228971000Y-61960000D01*
X228930000Y-64040000D02*
X228930000Y-66770000D01*
X228930000Y-59230000D02*
X228930000Y-61960000D01*
X228890000Y-64040000D02*
X228890000Y-66777000D01*
X228890000Y-59223000D02*
X228890000Y-61960000D01*
X228850000Y-64040000D02*
X228850000Y-66784000D01*
X228850000Y-59216000D02*
X228850000Y-61960000D01*
X228810000Y-64040000D02*
X228810000Y-66790000D01*
X228810000Y-59210000D02*
X228810000Y-61960000D01*
X228770000Y-64040000D02*
X228770000Y-66795000D01*
X228770000Y-59205000D02*
X228770000Y-61960000D01*
X228730000Y-64040000D02*
X228730000Y-66801000D01*
X228730000Y-59199000D02*
X228730000Y-61960000D01*
X228690000Y-64040000D02*
X228690000Y-66805000D01*
X228690000Y-59195000D02*
X228690000Y-61960000D01*
X228650000Y-64040000D02*
X228650000Y-66810000D01*
X228650000Y-59190000D02*
X228650000Y-61960000D01*
X228610000Y-64040000D02*
X228610000Y-66814000D01*
X228610000Y-59186000D02*
X228610000Y-61960000D01*
X228570000Y-64040000D02*
X228570000Y-66817000D01*
X228570000Y-59183000D02*
X228570000Y-61960000D01*
X228530000Y-64040000D02*
X228530000Y-66820000D01*
X228530000Y-59180000D02*
X228530000Y-61960000D01*
X228490000Y-64040000D02*
X228490000Y-66823000D01*
X228490000Y-59177000D02*
X228490000Y-61960000D01*
X228450000Y-59175000D02*
X228450000Y-66825000D01*
X228410000Y-59173000D02*
X228410000Y-66827000D01*
X228370000Y-59171000D02*
X228370000Y-66829000D01*
X228330000Y-59170000D02*
X228330000Y-66830000D01*
X228290000Y-59170000D02*
X228290000Y-66830000D01*
X228250000Y-59170000D02*
X228250000Y-66830000D01*
X232120000Y-63000000D02*
G75*
G03X232120000Y-63000000I-3870000J0D01*
G01*
G04 #@! TO.C,C4*
X231620000Y-45000000D02*
G75*
G03X231620000Y-45000000I-3870000J0D01*
G01*
X227750000Y-48830000D02*
X227750000Y-41170000D01*
X227710000Y-48830000D02*
X227710000Y-41170000D01*
X227670000Y-48830000D02*
X227670000Y-41170000D01*
X227630000Y-48829000D02*
X227630000Y-41171000D01*
X227590000Y-48827000D02*
X227590000Y-41173000D01*
X227550000Y-48825000D02*
X227550000Y-41175000D01*
X227510000Y-48823000D02*
X227510000Y-46040000D01*
X227510000Y-43960000D02*
X227510000Y-41177000D01*
X227470000Y-48820000D02*
X227470000Y-46040000D01*
X227470000Y-43960000D02*
X227470000Y-41180000D01*
X227430000Y-48817000D02*
X227430000Y-46040000D01*
X227430000Y-43960000D02*
X227430000Y-41183000D01*
X227390000Y-48814000D02*
X227390000Y-46040000D01*
X227390000Y-43960000D02*
X227390000Y-41186000D01*
X227350000Y-48810000D02*
X227350000Y-46040000D01*
X227350000Y-43960000D02*
X227350000Y-41190000D01*
X227310000Y-48805000D02*
X227310000Y-46040000D01*
X227310000Y-43960000D02*
X227310000Y-41195000D01*
X227270000Y-48801000D02*
X227270000Y-46040000D01*
X227270000Y-43960000D02*
X227270000Y-41199000D01*
X227230000Y-48795000D02*
X227230000Y-46040000D01*
X227230000Y-43960000D02*
X227230000Y-41205000D01*
X227190000Y-48790000D02*
X227190000Y-46040000D01*
X227190000Y-43960000D02*
X227190000Y-41210000D01*
X227150000Y-48784000D02*
X227150000Y-46040000D01*
X227150000Y-43960000D02*
X227150000Y-41216000D01*
X227110000Y-48777000D02*
X227110000Y-46040000D01*
X227110000Y-43960000D02*
X227110000Y-41223000D01*
X227070000Y-48770000D02*
X227070000Y-46040000D01*
X227070000Y-43960000D02*
X227070000Y-41230000D01*
X227029000Y-48763000D02*
X227029000Y-46040000D01*
X227029000Y-43960000D02*
X227029000Y-41237000D01*
X226989000Y-48755000D02*
X226989000Y-46040000D01*
X226989000Y-43960000D02*
X226989000Y-41245000D01*
X226949000Y-48747000D02*
X226949000Y-46040000D01*
X226949000Y-43960000D02*
X226949000Y-41253000D01*
X226909000Y-48738000D02*
X226909000Y-46040000D01*
X226909000Y-43960000D02*
X226909000Y-41262000D01*
X226869000Y-48729000D02*
X226869000Y-46040000D01*
X226869000Y-43960000D02*
X226869000Y-41271000D01*
X226829000Y-48720000D02*
X226829000Y-46040000D01*
X226829000Y-43960000D02*
X226829000Y-41280000D01*
X226789000Y-48710000D02*
X226789000Y-46040000D01*
X226789000Y-43960000D02*
X226789000Y-41290000D01*
X226749000Y-48699000D02*
X226749000Y-46040000D01*
X226749000Y-43960000D02*
X226749000Y-41301000D01*
X226709000Y-48688000D02*
X226709000Y-46040000D01*
X226709000Y-43960000D02*
X226709000Y-41312000D01*
X226669000Y-48677000D02*
X226669000Y-46040000D01*
X226669000Y-43960000D02*
X226669000Y-41323000D01*
X226629000Y-48665000D02*
X226629000Y-46040000D01*
X226629000Y-43960000D02*
X226629000Y-41335000D01*
X226589000Y-48653000D02*
X226589000Y-46040000D01*
X226589000Y-43960000D02*
X226589000Y-41347000D01*
X226549000Y-48640000D02*
X226549000Y-46040000D01*
X226549000Y-43960000D02*
X226549000Y-41360000D01*
X226509000Y-48626000D02*
X226509000Y-46040000D01*
X226509000Y-43960000D02*
X226509000Y-41374000D01*
X226469000Y-48613000D02*
X226469000Y-46040000D01*
X226469000Y-43960000D02*
X226469000Y-41387000D01*
X226429000Y-48598000D02*
X226429000Y-46040000D01*
X226429000Y-43960000D02*
X226429000Y-41402000D01*
X226389000Y-48584000D02*
X226389000Y-46040000D01*
X226389000Y-43960000D02*
X226389000Y-41416000D01*
X226349000Y-48568000D02*
X226349000Y-46040000D01*
X226349000Y-43960000D02*
X226349000Y-41432000D01*
X226309000Y-48553000D02*
X226309000Y-46040000D01*
X226309000Y-43960000D02*
X226309000Y-41447000D01*
X226269000Y-48536000D02*
X226269000Y-46040000D01*
X226269000Y-43960000D02*
X226269000Y-41464000D01*
X226229000Y-48520000D02*
X226229000Y-46040000D01*
X226229000Y-43960000D02*
X226229000Y-41480000D01*
X226189000Y-48502000D02*
X226189000Y-46040000D01*
X226189000Y-43960000D02*
X226189000Y-41498000D01*
X226149000Y-48484000D02*
X226149000Y-46040000D01*
X226149000Y-43960000D02*
X226149000Y-41516000D01*
X226109000Y-48466000D02*
X226109000Y-46040000D01*
X226109000Y-43960000D02*
X226109000Y-41534000D01*
X226069000Y-48447000D02*
X226069000Y-46040000D01*
X226069000Y-43960000D02*
X226069000Y-41553000D01*
X226029000Y-48427000D02*
X226029000Y-46040000D01*
X226029000Y-43960000D02*
X226029000Y-41573000D01*
X225989000Y-48407000D02*
X225989000Y-46040000D01*
X225989000Y-43960000D02*
X225989000Y-41593000D01*
X225949000Y-48386000D02*
X225949000Y-46040000D01*
X225949000Y-43960000D02*
X225949000Y-41614000D01*
X225909000Y-48365000D02*
X225909000Y-46040000D01*
X225909000Y-43960000D02*
X225909000Y-41635000D01*
X225869000Y-48343000D02*
X225869000Y-46040000D01*
X225869000Y-43960000D02*
X225869000Y-41657000D01*
X225829000Y-48321000D02*
X225829000Y-46040000D01*
X225829000Y-43960000D02*
X225829000Y-41679000D01*
X225789000Y-48297000D02*
X225789000Y-46040000D01*
X225789000Y-43960000D02*
X225789000Y-41703000D01*
X225749000Y-48274000D02*
X225749000Y-46040000D01*
X225749000Y-43960000D02*
X225749000Y-41726000D01*
X225709000Y-48249000D02*
X225709000Y-46040000D01*
X225709000Y-43960000D02*
X225709000Y-41751000D01*
X225669000Y-48224000D02*
X225669000Y-46040000D01*
X225669000Y-43960000D02*
X225669000Y-41776000D01*
X225629000Y-48198000D02*
X225629000Y-46040000D01*
X225629000Y-43960000D02*
X225629000Y-41802000D01*
X225589000Y-48172000D02*
X225589000Y-46040000D01*
X225589000Y-43960000D02*
X225589000Y-41828000D01*
X225549000Y-48144000D02*
X225549000Y-46040000D01*
X225549000Y-43960000D02*
X225549000Y-41856000D01*
X225509000Y-48116000D02*
X225509000Y-46040000D01*
X225509000Y-43960000D02*
X225509000Y-41884000D01*
X225469000Y-48088000D02*
X225469000Y-46040000D01*
X225469000Y-43960000D02*
X225469000Y-41912000D01*
X225429000Y-48058000D02*
X225429000Y-41942000D01*
X225389000Y-48028000D02*
X225389000Y-41972000D01*
X225349000Y-47996000D02*
X225349000Y-42004000D01*
X225309000Y-47964000D02*
X225309000Y-42036000D01*
X225269000Y-47931000D02*
X225269000Y-42069000D01*
X225229000Y-47898000D02*
X225229000Y-42102000D01*
X225189000Y-47863000D02*
X225189000Y-42137000D01*
X225149000Y-47827000D02*
X225149000Y-42173000D01*
X225109000Y-47790000D02*
X225109000Y-42210000D01*
X225069000Y-47752000D02*
X225069000Y-42248000D01*
X225029000Y-47713000D02*
X225029000Y-42287000D01*
X224989000Y-47673000D02*
X224989000Y-42327000D01*
X224949000Y-47632000D02*
X224949000Y-42368000D01*
X224909000Y-47589000D02*
X224909000Y-42411000D01*
X224869000Y-47546000D02*
X224869000Y-42454000D01*
X224829000Y-47500000D02*
X224829000Y-42500000D01*
X224789000Y-47454000D02*
X224789000Y-42546000D01*
X224749000Y-47405000D02*
X224749000Y-42595000D01*
X224709000Y-47355000D02*
X224709000Y-42645000D01*
X224669000Y-47304000D02*
X224669000Y-42696000D01*
X224629000Y-47250000D02*
X224629000Y-42750000D01*
X224589000Y-47195000D02*
X224589000Y-42805000D01*
X224549000Y-47137000D02*
X224549000Y-42863000D01*
X224509000Y-47077000D02*
X224509000Y-42923000D01*
X224469000Y-47014000D02*
X224469000Y-42986000D01*
X224429000Y-46949000D02*
X224429000Y-43051000D01*
X224389000Y-46881000D02*
X224389000Y-43119000D01*
X224349000Y-46809000D02*
X224349000Y-43191000D01*
X224309000Y-46733000D02*
X224309000Y-43267000D01*
X224269000Y-46654000D02*
X224269000Y-43346000D01*
X224229000Y-46569000D02*
X224229000Y-43431000D01*
X224189000Y-46478000D02*
X224189000Y-43522000D01*
X224149000Y-46381000D02*
X224149000Y-43619000D01*
X224109000Y-46275000D02*
X224109000Y-43725000D01*
X224069000Y-46158000D02*
X224069000Y-43842000D01*
X224029000Y-46028000D02*
X224029000Y-43972000D01*
X223989000Y-45877000D02*
X223989000Y-44123000D01*
X223949000Y-45693000D02*
X223949000Y-44307000D01*
X223909000Y-45441000D02*
X223909000Y-44559000D01*
X231892211Y-47175000D02*
X231142211Y-47175000D01*
X231517211Y-47550000D02*
X231517211Y-46800000D01*
G04 #@! TO.C,F1*
D14*
X173596666Y-68358571D02*
X173263333Y-68358571D01*
X173263333Y-68882380D02*
X173263333Y-67882380D01*
X173739523Y-67882380D01*
X174644285Y-68882380D02*
X174072857Y-68882380D01*
X174358571Y-68882380D02*
X174358571Y-67882380D01*
X174263333Y-68025238D01*
X174168095Y-68120476D01*
X174072857Y-68168095D01*
G04 #@! TO.C,R1*
X238403333Y-48532380D02*
X238070000Y-48056190D01*
X237831904Y-48532380D02*
X237831904Y-47532380D01*
X238212857Y-47532380D01*
X238308095Y-47580000D01*
X238355714Y-47627619D01*
X238403333Y-47722857D01*
X238403333Y-47865714D01*
X238355714Y-47960952D01*
X238308095Y-48008571D01*
X238212857Y-48056190D01*
X237831904Y-48056190D01*
X239355714Y-48532380D02*
X238784285Y-48532380D01*
X239070000Y-48532380D02*
X239070000Y-47532380D01*
X238974761Y-47675238D01*
X238879523Y-47770476D01*
X238784285Y-47818095D01*
G04 #@! TO.C,J1*
X235666666Y-55452380D02*
X235666666Y-56166666D01*
X235619047Y-56309523D01*
X235523809Y-56404761D01*
X235380952Y-56452380D01*
X235285714Y-56452380D01*
X236666666Y-56452380D02*
X236095238Y-56452380D01*
X236380952Y-56452380D02*
X236380952Y-55452380D01*
X236285714Y-55595238D01*
X236190476Y-55690476D01*
X236095238Y-55738095D01*
G04 #@! TO.C,D1*
X238581904Y-53452380D02*
X238581904Y-52452380D01*
X238820000Y-52452380D01*
X238962857Y-52500000D01*
X239058095Y-52595238D01*
X239105714Y-52690476D01*
X239153333Y-52880952D01*
X239153333Y-53023809D01*
X239105714Y-53214285D01*
X239058095Y-53309523D01*
X238962857Y-53404761D01*
X238820000Y-53452380D01*
X238581904Y-53452380D01*
X240105714Y-53452380D02*
X239534285Y-53452380D01*
X239820000Y-53452380D02*
X239820000Y-52452380D01*
X239724761Y-52595238D01*
X239629523Y-52690476D01*
X239534285Y-52738095D01*
G04 #@! TO.C,PS1*
D15*
X183865714Y-42912380D02*
X183865714Y-41912380D01*
X184246666Y-41912380D01*
X184341904Y-41960000D01*
X184389523Y-42007619D01*
X184437142Y-42102857D01*
X184437142Y-42245714D01*
X184389523Y-42340952D01*
X184341904Y-42388571D01*
X184246666Y-42436190D01*
X183865714Y-42436190D01*
X184818095Y-42864761D02*
X184960952Y-42912380D01*
X185199047Y-42912380D01*
X185294285Y-42864761D01*
X185341904Y-42817142D01*
X185389523Y-42721904D01*
X185389523Y-42626666D01*
X185341904Y-42531428D01*
X185294285Y-42483809D01*
X185199047Y-42436190D01*
X185008571Y-42388571D01*
X184913333Y-42340952D01*
X184865714Y-42293333D01*
X184818095Y-42198095D01*
X184818095Y-42102857D01*
X184865714Y-42007619D01*
X184913333Y-41960000D01*
X185008571Y-41912380D01*
X185246666Y-41912380D01*
X185389523Y-41960000D01*
X186341904Y-42912380D02*
X185770476Y-42912380D01*
X186056190Y-42912380D02*
X186056190Y-41912380D01*
X185960952Y-42055238D01*
X185865714Y-42150476D01*
X185770476Y-42198095D01*
G04 #@! TO.C,J2*
D14*
X154666666Y-46452380D02*
X154666666Y-47166666D01*
X154619047Y-47309523D01*
X154523809Y-47404761D01*
X154380952Y-47452380D01*
X154285714Y-47452380D01*
X155095238Y-46547619D02*
X155142857Y-46500000D01*
X155238095Y-46452380D01*
X155476190Y-46452380D01*
X155571428Y-46500000D01*
X155619047Y-46547619D01*
X155666666Y-46642857D01*
X155666666Y-46738095D01*
X155619047Y-46880952D01*
X155047619Y-47452380D01*
X155666666Y-47452380D01*
G04 #@! TO.C,RV1*
X178524761Y-62672380D02*
X178191428Y-62196190D01*
X177953333Y-62672380D02*
X177953333Y-61672380D01*
X178334285Y-61672380D01*
X178429523Y-61720000D01*
X178477142Y-61767619D01*
X178524761Y-61862857D01*
X178524761Y-62005714D01*
X178477142Y-62100952D01*
X178429523Y-62148571D01*
X178334285Y-62196190D01*
X177953333Y-62196190D01*
X178810476Y-61672380D02*
X179143809Y-62672380D01*
X179477142Y-61672380D01*
X180334285Y-62672380D02*
X179762857Y-62672380D01*
X180048571Y-62672380D02*
X180048571Y-61672380D01*
X179953333Y-61815238D01*
X179858095Y-61910476D01*
X179762857Y-61958095D01*
G04 #@! TO.C,C3*
X228083333Y-58357142D02*
X228035714Y-58404761D01*
X227892857Y-58452380D01*
X227797619Y-58452380D01*
X227654761Y-58404761D01*
X227559523Y-58309523D01*
X227511904Y-58214285D01*
X227464285Y-58023809D01*
X227464285Y-57880952D01*
X227511904Y-57690476D01*
X227559523Y-57595238D01*
X227654761Y-57500000D01*
X227797619Y-57452380D01*
X227892857Y-57452380D01*
X228035714Y-57500000D01*
X228083333Y-57547619D01*
X228416666Y-57452380D02*
X229035714Y-57452380D01*
X228702380Y-57833333D01*
X228845238Y-57833333D01*
X228940476Y-57880952D01*
X228988095Y-57928571D01*
X229035714Y-58023809D01*
X229035714Y-58261904D01*
X228988095Y-58357142D01*
X228940476Y-58404761D01*
X228845238Y-58452380D01*
X228559523Y-58452380D01*
X228464285Y-58404761D01*
X228416666Y-58357142D01*
G04 #@! TO.C,C4*
X227583333Y-50357142D02*
X227535714Y-50404761D01*
X227392857Y-50452380D01*
X227297619Y-50452380D01*
X227154761Y-50404761D01*
X227059523Y-50309523D01*
X227011904Y-50214285D01*
X226964285Y-50023809D01*
X226964285Y-49880952D01*
X227011904Y-49690476D01*
X227059523Y-49595238D01*
X227154761Y-49500000D01*
X227297619Y-49452380D01*
X227392857Y-49452380D01*
X227535714Y-49500000D01*
X227583333Y-49547619D01*
X228440476Y-49785714D02*
X228440476Y-50452380D01*
X228202380Y-49404761D02*
X227964285Y-50119047D01*
X228583333Y-50119047D01*
G04 #@! TD*
M02*
