G04 #@! TF.GenerationSoftware,KiCad,Pcbnew,(5.0.1)-3*
G04 #@! TF.CreationDate,2021-02-16T20:13:23+05:45*
G04 #@! TF.ProjectId,Power,506F7765722E6B696361645F70636200,rev?*
G04 #@! TF.SameCoordinates,Original*
G04 #@! TF.FileFunction,Profile,NP*
%FSLAX46Y46*%
G04 Gerber Fmt 4.6, Leading zero omitted, Abs format (unit mm)*
G04 Created by KiCad (PCBNEW (5.0.1)-3) date 2/16/2021 8:13:23 PM*
%MOMM*%
%LPD*%
G01*
G04 APERTURE LIST*
%ADD10C,0.200000*%
%ADD11C,0.150000*%
G04 APERTURE END LIST*
D10*
X186750000Y-55500000D02*
X186750000Y-54500000D01*
X188750000Y-55500000D02*
X186750000Y-55500000D01*
X188750000Y-54500000D02*
X188750000Y-55500000D01*
X186750000Y-54500000D02*
X188750000Y-54500000D01*
X178500000Y-57250000D02*
X178500000Y-55500000D01*
X182750000Y-57250000D02*
X178500000Y-57250000D01*
X182750000Y-55500000D02*
X182750000Y-57250000D01*
X178500000Y-55500000D02*
X182750000Y-55500000D01*
D11*
X239000000Y-40000000D02*
G75*
G02X242000000Y-43000000I0J-3000000D01*
G01*
X242000000Y-68000000D02*
G75*
G02X239000000Y-71000000I-3000000J0D01*
G01*
X148000000Y-71000000D02*
G75*
G02X145000000Y-68000000I0J3000000D01*
G01*
X145000000Y-43000000D02*
G75*
G02X148000000Y-40000000I3000000J0D01*
G01*
X145000000Y-68000000D02*
X145000000Y-43000000D01*
X239000000Y-71000000D02*
X148000000Y-71000000D01*
X242000000Y-43000000D02*
X242000000Y-68000000D01*
X148000000Y-40000000D02*
X239000000Y-40000000D01*
X204000000Y-65000000D02*
X204000000Y-60000000D01*
X205000000Y-65000000D02*
X204000000Y-65000000D01*
X205000000Y-60000000D02*
X205000000Y-65000000D01*
X204000000Y-60000000D02*
X205000000Y-60000000D01*
X204000000Y-57000000D02*
X204000000Y-52000000D01*
X205000000Y-57000000D02*
X204000000Y-57000000D01*
X205000000Y-52000000D02*
X205000000Y-57000000D01*
X204000000Y-52000000D02*
X205000000Y-52000000D01*
X204000000Y-49000000D02*
X204000000Y-43000000D01*
X205000000Y-49000000D02*
X204000000Y-49000000D01*
X205000000Y-43000000D02*
X205000000Y-49000000D01*
X204000000Y-43000000D02*
X205000000Y-43000000D01*
M02*
