M48
;DRILL file {KiCad (5.0.1)-3} date 2/16/2021 8:13:26 PM
;FORMAT={-:-/ absolute / metric / decimal}
FMAT,2
METRIC,TZ
T1C0.600
T2C0.800
T3C0.900
T4C1.000
T5C1.200
T6C1.360
T7C1.500
%
G90
G05
M71
T1
X180.48Y-58.59
X181.78Y-53.59
T2
X225.5Y-60.5
X228.Y-60.5
X225.5Y-47.5
X228.Y-47.5
T3
X238.Y-50.46
X238.Y-53.
T4
X234.Y-58.46
X234.Y-61.
T5
X187.5Y-52.
X187.5Y-58.
X216.9Y-46.
X216.9Y-64.
T6
X149.Y-51.
X149.Y-60.
X160.5Y-51.
X160.5Y-60.
T7
X172.Y-43.9
X172.Y-66.5
T0
M30
