G04 #@! TF.GenerationSoftware,KiCad,Pcbnew,(5.0.1)-3*
G04 #@! TF.CreationDate,2021-02-16T20:13:23+05:45*
G04 #@! TF.ProjectId,Power,506F7765722E6B696361645F70636200,rev?*
G04 #@! TF.SameCoordinates,Original*
G04 #@! TF.FileFunction,Legend,Top*
G04 #@! TF.FilePolarity,Positive*
%FSLAX46Y46*%
G04 Gerber Fmt 4.6, Leading zero omitted, Abs format (unit mm)*
G04 Created by KiCad (PCBNEW (5.0.1)-3) date 2/16/2021 8:13:23 PM*
%MOMM*%
%LPD*%
G01*
G04 APERTURE LIST*
%ADD10C,0.200000*%
%ADD11C,0.300000*%
%ADD12C,0.120000*%
%ADD13C,0.150000*%
G04 APERTURE END LIST*
D10*
X191400000Y-69400000D02*
G75*
G02X191000000Y-69000000I0J400000D01*
G01*
X191000000Y-67000000D02*
G75*
G02X191400000Y-66600000I400000J0D01*
G01*
X212200000Y-66600000D02*
G75*
G02X212600000Y-67000000I0J-400000D01*
G01*
X212600000Y-69000000D02*
G75*
G02X212200000Y-69400000I-400000J0D01*
G01*
X191400000Y-69400000D02*
X212200000Y-69400000D01*
X212600000Y-67000000D02*
X212600000Y-69000000D01*
X191400000Y-66600000D02*
X212200000Y-66600000D01*
X191000000Y-69000000D02*
X191000000Y-67000000D01*
D11*
X192285714Y-68678571D02*
X192285714Y-67178571D01*
X192857142Y-67178571D01*
X193000000Y-67250000D01*
X193071428Y-67321428D01*
X193142857Y-67464285D01*
X193142857Y-67678571D01*
X193071428Y-67821428D01*
X193000000Y-67892857D01*
X192857142Y-67964285D01*
X192285714Y-67964285D01*
X194000000Y-68678571D02*
X193857142Y-68607142D01*
X193785714Y-68535714D01*
X193714285Y-68392857D01*
X193714285Y-67964285D01*
X193785714Y-67821428D01*
X193857142Y-67750000D01*
X194000000Y-67678571D01*
X194214285Y-67678571D01*
X194357142Y-67750000D01*
X194428571Y-67821428D01*
X194500000Y-67964285D01*
X194500000Y-68392857D01*
X194428571Y-68535714D01*
X194357142Y-68607142D01*
X194214285Y-68678571D01*
X194000000Y-68678571D01*
X195000000Y-67678571D02*
X195285714Y-68678571D01*
X195571428Y-67964285D01*
X195857142Y-68678571D01*
X196142857Y-67678571D01*
X197285714Y-68607142D02*
X197142857Y-68678571D01*
X196857142Y-68678571D01*
X196714285Y-68607142D01*
X196642857Y-68464285D01*
X196642857Y-67892857D01*
X196714285Y-67750000D01*
X196857142Y-67678571D01*
X197142857Y-67678571D01*
X197285714Y-67750000D01*
X197357142Y-67892857D01*
X197357142Y-68035714D01*
X196642857Y-68178571D01*
X198000000Y-68678571D02*
X198000000Y-67678571D01*
X198000000Y-67964285D02*
X198071428Y-67821428D01*
X198142857Y-67750000D01*
X198285714Y-67678571D01*
X198428571Y-67678571D01*
X200571428Y-67892857D02*
X200785714Y-67964285D01*
X200857142Y-68035714D01*
X200928571Y-68178571D01*
X200928571Y-68392857D01*
X200857142Y-68535714D01*
X200785714Y-68607142D01*
X200642857Y-68678571D01*
X200071428Y-68678571D01*
X200071428Y-67178571D01*
X200571428Y-67178571D01*
X200714285Y-67250000D01*
X200785714Y-67321428D01*
X200857142Y-67464285D01*
X200857142Y-67607142D01*
X200785714Y-67750000D01*
X200714285Y-67821428D01*
X200571428Y-67892857D01*
X200071428Y-67892857D01*
X201785714Y-68678571D02*
X201642857Y-68607142D01*
X201571428Y-68535714D01*
X201500000Y-68392857D01*
X201500000Y-67964285D01*
X201571428Y-67821428D01*
X201642857Y-67750000D01*
X201785714Y-67678571D01*
X202000000Y-67678571D01*
X202142857Y-67750000D01*
X202214285Y-67821428D01*
X202285714Y-67964285D01*
X202285714Y-68392857D01*
X202214285Y-68535714D01*
X202142857Y-68607142D01*
X202000000Y-68678571D01*
X201785714Y-68678571D01*
X203571428Y-68678571D02*
X203571428Y-67892857D01*
X203500000Y-67750000D01*
X203357142Y-67678571D01*
X203071428Y-67678571D01*
X202928571Y-67750000D01*
X203571428Y-68607142D02*
X203428571Y-68678571D01*
X203071428Y-68678571D01*
X202928571Y-68607142D01*
X202857142Y-68464285D01*
X202857142Y-68321428D01*
X202928571Y-68178571D01*
X203071428Y-68107142D01*
X203428571Y-68107142D01*
X203571428Y-68035714D01*
X204285714Y-68678571D02*
X204285714Y-67678571D01*
X204285714Y-67964285D02*
X204357142Y-67821428D01*
X204428571Y-67750000D01*
X204571428Y-67678571D01*
X204714285Y-67678571D01*
X205857142Y-68678571D02*
X205857142Y-67178571D01*
X205857142Y-68607142D02*
X205714285Y-68678571D01*
X205428571Y-68678571D01*
X205285714Y-68607142D01*
X205214285Y-68535714D01*
X205142857Y-68392857D01*
X205142857Y-67964285D01*
X205214285Y-67821428D01*
X205285714Y-67750000D01*
X205428571Y-67678571D01*
X205714285Y-67678571D01*
X205857142Y-67750000D01*
X207571428Y-67678571D02*
X207928571Y-68678571D01*
X208285714Y-67678571D01*
X209642857Y-68678571D02*
X208785714Y-68678571D01*
X209214285Y-68678571D02*
X209214285Y-67178571D01*
X209071428Y-67392857D01*
X208928571Y-67535714D01*
X208785714Y-67607142D01*
X210285714Y-68535714D02*
X210357142Y-68607142D01*
X210285714Y-68678571D01*
X210214285Y-68607142D01*
X210285714Y-68535714D01*
X210285714Y-68678571D01*
X211285714Y-67178571D02*
X211428571Y-67178571D01*
X211571428Y-67250000D01*
X211642857Y-67321428D01*
X211714285Y-67464285D01*
X211785714Y-67750000D01*
X211785714Y-68107142D01*
X211714285Y-68392857D01*
X211642857Y-68535714D01*
X211571428Y-68607142D01*
X211428571Y-68678571D01*
X211285714Y-68678571D01*
X211142857Y-68607142D01*
X211071428Y-68535714D01*
X211000000Y-68392857D01*
X210928571Y-68107142D01*
X210928571Y-67750000D01*
X211000000Y-67464285D01*
X211071428Y-67321428D01*
X211142857Y-67250000D01*
X211285714Y-67178571D01*
X231428571Y-61107142D02*
X232571428Y-61107142D01*
X232000000Y-61678571D02*
X232000000Y-60535714D01*
D12*
G04 #@! TO.C,F1*
X176800000Y-43900000D02*
X174000000Y-43900000D01*
X170000000Y-43900000D02*
X167200000Y-43900000D01*
X170000000Y-66500000D02*
X167200000Y-66500000D01*
X167200000Y-66500000D02*
X167200000Y-43900000D01*
X176800000Y-66500000D02*
X176800000Y-43900000D01*
X176800000Y-66500000D02*
X174000000Y-66500000D01*
G04 #@! TO.C,R1*
X235710000Y-48178922D02*
X235710000Y-48696078D01*
X234290000Y-48178922D02*
X234290000Y-48696078D01*
D13*
G04 #@! TO.C,RV1*
X182830000Y-59590000D02*
X182830000Y-52590000D01*
X179430000Y-59590000D02*
X179430000Y-52590000D01*
X179430000Y-52590000D02*
X182830000Y-52590000D01*
X179430000Y-59590000D02*
X182830000Y-59590000D01*
D12*
G04 #@! TO.C,J1*
X235330000Y-57130000D02*
X232670000Y-57130000D01*
X235330000Y-59730000D02*
X235330000Y-57130000D01*
X232670000Y-59730000D02*
X232670000Y-57130000D01*
X235330000Y-59730000D02*
X232670000Y-59730000D01*
X235330000Y-61000000D02*
X235330000Y-62330000D01*
X235330000Y-62330000D02*
X234000000Y-62330000D01*
G04 #@! TO.C,C1*
X230620000Y-47500000D02*
G75*
G03X230620000Y-47500000I-3870000J0D01*
G01*
X226750000Y-43670000D02*
X226750000Y-51330000D01*
X226790000Y-43670000D02*
X226790000Y-51330000D01*
X226830000Y-43670000D02*
X226830000Y-51330000D01*
X226870000Y-43671000D02*
X226870000Y-51329000D01*
X226910000Y-43673000D02*
X226910000Y-51327000D01*
X226950000Y-43675000D02*
X226950000Y-51325000D01*
X226990000Y-43677000D02*
X226990000Y-46460000D01*
X226990000Y-48540000D02*
X226990000Y-51323000D01*
X227030000Y-43680000D02*
X227030000Y-46460000D01*
X227030000Y-48540000D02*
X227030000Y-51320000D01*
X227070000Y-43683000D02*
X227070000Y-46460000D01*
X227070000Y-48540000D02*
X227070000Y-51317000D01*
X227110000Y-43686000D02*
X227110000Y-46460000D01*
X227110000Y-48540000D02*
X227110000Y-51314000D01*
X227150000Y-43690000D02*
X227150000Y-46460000D01*
X227150000Y-48540000D02*
X227150000Y-51310000D01*
X227190000Y-43695000D02*
X227190000Y-46460000D01*
X227190000Y-48540000D02*
X227190000Y-51305000D01*
X227230000Y-43699000D02*
X227230000Y-46460000D01*
X227230000Y-48540000D02*
X227230000Y-51301000D01*
X227270000Y-43705000D02*
X227270000Y-46460000D01*
X227270000Y-48540000D02*
X227270000Y-51295000D01*
X227310000Y-43710000D02*
X227310000Y-46460000D01*
X227310000Y-48540000D02*
X227310000Y-51290000D01*
X227350000Y-43716000D02*
X227350000Y-46460000D01*
X227350000Y-48540000D02*
X227350000Y-51284000D01*
X227390000Y-43723000D02*
X227390000Y-46460000D01*
X227390000Y-48540000D02*
X227390000Y-51277000D01*
X227430000Y-43730000D02*
X227430000Y-46460000D01*
X227430000Y-48540000D02*
X227430000Y-51270000D01*
X227471000Y-43737000D02*
X227471000Y-46460000D01*
X227471000Y-48540000D02*
X227471000Y-51263000D01*
X227511000Y-43745000D02*
X227511000Y-46460000D01*
X227511000Y-48540000D02*
X227511000Y-51255000D01*
X227551000Y-43753000D02*
X227551000Y-46460000D01*
X227551000Y-48540000D02*
X227551000Y-51247000D01*
X227591000Y-43762000D02*
X227591000Y-46460000D01*
X227591000Y-48540000D02*
X227591000Y-51238000D01*
X227631000Y-43771000D02*
X227631000Y-46460000D01*
X227631000Y-48540000D02*
X227631000Y-51229000D01*
X227671000Y-43780000D02*
X227671000Y-46460000D01*
X227671000Y-48540000D02*
X227671000Y-51220000D01*
X227711000Y-43790000D02*
X227711000Y-46460000D01*
X227711000Y-48540000D02*
X227711000Y-51210000D01*
X227751000Y-43801000D02*
X227751000Y-46460000D01*
X227751000Y-48540000D02*
X227751000Y-51199000D01*
X227791000Y-43812000D02*
X227791000Y-46460000D01*
X227791000Y-48540000D02*
X227791000Y-51188000D01*
X227831000Y-43823000D02*
X227831000Y-46460000D01*
X227831000Y-48540000D02*
X227831000Y-51177000D01*
X227871000Y-43835000D02*
X227871000Y-46460000D01*
X227871000Y-48540000D02*
X227871000Y-51165000D01*
X227911000Y-43847000D02*
X227911000Y-46460000D01*
X227911000Y-48540000D02*
X227911000Y-51153000D01*
X227951000Y-43860000D02*
X227951000Y-46460000D01*
X227951000Y-48540000D02*
X227951000Y-51140000D01*
X227991000Y-43874000D02*
X227991000Y-46460000D01*
X227991000Y-48540000D02*
X227991000Y-51126000D01*
X228031000Y-43887000D02*
X228031000Y-46460000D01*
X228031000Y-48540000D02*
X228031000Y-51113000D01*
X228071000Y-43902000D02*
X228071000Y-46460000D01*
X228071000Y-48540000D02*
X228071000Y-51098000D01*
X228111000Y-43916000D02*
X228111000Y-46460000D01*
X228111000Y-48540000D02*
X228111000Y-51084000D01*
X228151000Y-43932000D02*
X228151000Y-46460000D01*
X228151000Y-48540000D02*
X228151000Y-51068000D01*
X228191000Y-43947000D02*
X228191000Y-46460000D01*
X228191000Y-48540000D02*
X228191000Y-51053000D01*
X228231000Y-43964000D02*
X228231000Y-46460000D01*
X228231000Y-48540000D02*
X228231000Y-51036000D01*
X228271000Y-43980000D02*
X228271000Y-46460000D01*
X228271000Y-48540000D02*
X228271000Y-51020000D01*
X228311000Y-43998000D02*
X228311000Y-46460000D01*
X228311000Y-48540000D02*
X228311000Y-51002000D01*
X228351000Y-44016000D02*
X228351000Y-46460000D01*
X228351000Y-48540000D02*
X228351000Y-50984000D01*
X228391000Y-44034000D02*
X228391000Y-46460000D01*
X228391000Y-48540000D02*
X228391000Y-50966000D01*
X228431000Y-44053000D02*
X228431000Y-46460000D01*
X228431000Y-48540000D02*
X228431000Y-50947000D01*
X228471000Y-44073000D02*
X228471000Y-46460000D01*
X228471000Y-48540000D02*
X228471000Y-50927000D01*
X228511000Y-44093000D02*
X228511000Y-46460000D01*
X228511000Y-48540000D02*
X228511000Y-50907000D01*
X228551000Y-44114000D02*
X228551000Y-46460000D01*
X228551000Y-48540000D02*
X228551000Y-50886000D01*
X228591000Y-44135000D02*
X228591000Y-46460000D01*
X228591000Y-48540000D02*
X228591000Y-50865000D01*
X228631000Y-44157000D02*
X228631000Y-46460000D01*
X228631000Y-48540000D02*
X228631000Y-50843000D01*
X228671000Y-44179000D02*
X228671000Y-46460000D01*
X228671000Y-48540000D02*
X228671000Y-50821000D01*
X228711000Y-44203000D02*
X228711000Y-46460000D01*
X228711000Y-48540000D02*
X228711000Y-50797000D01*
X228751000Y-44226000D02*
X228751000Y-46460000D01*
X228751000Y-48540000D02*
X228751000Y-50774000D01*
X228791000Y-44251000D02*
X228791000Y-46460000D01*
X228791000Y-48540000D02*
X228791000Y-50749000D01*
X228831000Y-44276000D02*
X228831000Y-46460000D01*
X228831000Y-48540000D02*
X228831000Y-50724000D01*
X228871000Y-44302000D02*
X228871000Y-46460000D01*
X228871000Y-48540000D02*
X228871000Y-50698000D01*
X228911000Y-44328000D02*
X228911000Y-46460000D01*
X228911000Y-48540000D02*
X228911000Y-50672000D01*
X228951000Y-44356000D02*
X228951000Y-46460000D01*
X228951000Y-48540000D02*
X228951000Y-50644000D01*
X228991000Y-44384000D02*
X228991000Y-46460000D01*
X228991000Y-48540000D02*
X228991000Y-50616000D01*
X229031000Y-44412000D02*
X229031000Y-46460000D01*
X229031000Y-48540000D02*
X229031000Y-50588000D01*
X229071000Y-44442000D02*
X229071000Y-50558000D01*
X229111000Y-44472000D02*
X229111000Y-50528000D01*
X229151000Y-44504000D02*
X229151000Y-50496000D01*
X229191000Y-44536000D02*
X229191000Y-50464000D01*
X229231000Y-44569000D02*
X229231000Y-50431000D01*
X229271000Y-44602000D02*
X229271000Y-50398000D01*
X229311000Y-44637000D02*
X229311000Y-50363000D01*
X229351000Y-44673000D02*
X229351000Y-50327000D01*
X229391000Y-44710000D02*
X229391000Y-50290000D01*
X229431000Y-44748000D02*
X229431000Y-50252000D01*
X229471000Y-44787000D02*
X229471000Y-50213000D01*
X229511000Y-44827000D02*
X229511000Y-50173000D01*
X229551000Y-44868000D02*
X229551000Y-50132000D01*
X229591000Y-44911000D02*
X229591000Y-50089000D01*
X229631000Y-44954000D02*
X229631000Y-50046000D01*
X229671000Y-45000000D02*
X229671000Y-50000000D01*
X229711000Y-45046000D02*
X229711000Y-49954000D01*
X229751000Y-45095000D02*
X229751000Y-49905000D01*
X229791000Y-45145000D02*
X229791000Y-49855000D01*
X229831000Y-45196000D02*
X229831000Y-49804000D01*
X229871000Y-45250000D02*
X229871000Y-49750000D01*
X229911000Y-45305000D02*
X229911000Y-49695000D01*
X229951000Y-45363000D02*
X229951000Y-49637000D01*
X229991000Y-45423000D02*
X229991000Y-49577000D01*
X230031000Y-45486000D02*
X230031000Y-49514000D01*
X230071000Y-45551000D02*
X230071000Y-49449000D01*
X230111000Y-45619000D02*
X230111000Y-49381000D01*
X230151000Y-45691000D02*
X230151000Y-49309000D01*
X230191000Y-45767000D02*
X230191000Y-49233000D01*
X230231000Y-45846000D02*
X230231000Y-49154000D01*
X230271000Y-45931000D02*
X230271000Y-49069000D01*
X230311000Y-46022000D02*
X230311000Y-48978000D01*
X230351000Y-46119000D02*
X230351000Y-48881000D01*
X230391000Y-46225000D02*
X230391000Y-48775000D01*
X230431000Y-46342000D02*
X230431000Y-48658000D01*
X230471000Y-46472000D02*
X230471000Y-48528000D01*
X230511000Y-46623000D02*
X230511000Y-48377000D01*
X230551000Y-46807000D02*
X230551000Y-48193000D01*
X230591000Y-47059000D02*
X230591000Y-47941000D01*
X222607789Y-45325000D02*
X223357789Y-45325000D01*
X222982789Y-44950000D02*
X222982789Y-45700000D01*
G04 #@! TO.C,C2*
X222982789Y-57950000D02*
X222982789Y-58700000D01*
X222607789Y-58325000D02*
X223357789Y-58325000D01*
X230591000Y-60059000D02*
X230591000Y-60941000D01*
X230551000Y-59807000D02*
X230551000Y-61193000D01*
X230511000Y-59623000D02*
X230511000Y-61377000D01*
X230471000Y-59472000D02*
X230471000Y-61528000D01*
X230431000Y-59342000D02*
X230431000Y-61658000D01*
X230391000Y-59225000D02*
X230391000Y-61775000D01*
X230351000Y-59119000D02*
X230351000Y-61881000D01*
X230311000Y-59022000D02*
X230311000Y-61978000D01*
X230271000Y-58931000D02*
X230271000Y-62069000D01*
X230231000Y-58846000D02*
X230231000Y-62154000D01*
X230191000Y-58767000D02*
X230191000Y-62233000D01*
X230151000Y-58691000D02*
X230151000Y-62309000D01*
X230111000Y-58619000D02*
X230111000Y-62381000D01*
X230071000Y-58551000D02*
X230071000Y-62449000D01*
X230031000Y-58486000D02*
X230031000Y-62514000D01*
X229991000Y-58423000D02*
X229991000Y-62577000D01*
X229951000Y-58363000D02*
X229951000Y-62637000D01*
X229911000Y-58305000D02*
X229911000Y-62695000D01*
X229871000Y-58250000D02*
X229871000Y-62750000D01*
X229831000Y-58196000D02*
X229831000Y-62804000D01*
X229791000Y-58145000D02*
X229791000Y-62855000D01*
X229751000Y-58095000D02*
X229751000Y-62905000D01*
X229711000Y-58046000D02*
X229711000Y-62954000D01*
X229671000Y-58000000D02*
X229671000Y-63000000D01*
X229631000Y-57954000D02*
X229631000Y-63046000D01*
X229591000Y-57911000D02*
X229591000Y-63089000D01*
X229551000Y-57868000D02*
X229551000Y-63132000D01*
X229511000Y-57827000D02*
X229511000Y-63173000D01*
X229471000Y-57787000D02*
X229471000Y-63213000D01*
X229431000Y-57748000D02*
X229431000Y-63252000D01*
X229391000Y-57710000D02*
X229391000Y-63290000D01*
X229351000Y-57673000D02*
X229351000Y-63327000D01*
X229311000Y-57637000D02*
X229311000Y-63363000D01*
X229271000Y-57602000D02*
X229271000Y-63398000D01*
X229231000Y-57569000D02*
X229231000Y-63431000D01*
X229191000Y-57536000D02*
X229191000Y-63464000D01*
X229151000Y-57504000D02*
X229151000Y-63496000D01*
X229111000Y-57472000D02*
X229111000Y-63528000D01*
X229071000Y-57442000D02*
X229071000Y-63558000D01*
X229031000Y-61540000D02*
X229031000Y-63588000D01*
X229031000Y-57412000D02*
X229031000Y-59460000D01*
X228991000Y-61540000D02*
X228991000Y-63616000D01*
X228991000Y-57384000D02*
X228991000Y-59460000D01*
X228951000Y-61540000D02*
X228951000Y-63644000D01*
X228951000Y-57356000D02*
X228951000Y-59460000D01*
X228911000Y-61540000D02*
X228911000Y-63672000D01*
X228911000Y-57328000D02*
X228911000Y-59460000D01*
X228871000Y-61540000D02*
X228871000Y-63698000D01*
X228871000Y-57302000D02*
X228871000Y-59460000D01*
X228831000Y-61540000D02*
X228831000Y-63724000D01*
X228831000Y-57276000D02*
X228831000Y-59460000D01*
X228791000Y-61540000D02*
X228791000Y-63749000D01*
X228791000Y-57251000D02*
X228791000Y-59460000D01*
X228751000Y-61540000D02*
X228751000Y-63774000D01*
X228751000Y-57226000D02*
X228751000Y-59460000D01*
X228711000Y-61540000D02*
X228711000Y-63797000D01*
X228711000Y-57203000D02*
X228711000Y-59460000D01*
X228671000Y-61540000D02*
X228671000Y-63821000D01*
X228671000Y-57179000D02*
X228671000Y-59460000D01*
X228631000Y-61540000D02*
X228631000Y-63843000D01*
X228631000Y-57157000D02*
X228631000Y-59460000D01*
X228591000Y-61540000D02*
X228591000Y-63865000D01*
X228591000Y-57135000D02*
X228591000Y-59460000D01*
X228551000Y-61540000D02*
X228551000Y-63886000D01*
X228551000Y-57114000D02*
X228551000Y-59460000D01*
X228511000Y-61540000D02*
X228511000Y-63907000D01*
X228511000Y-57093000D02*
X228511000Y-59460000D01*
X228471000Y-61540000D02*
X228471000Y-63927000D01*
X228471000Y-57073000D02*
X228471000Y-59460000D01*
X228431000Y-61540000D02*
X228431000Y-63947000D01*
X228431000Y-57053000D02*
X228431000Y-59460000D01*
X228391000Y-61540000D02*
X228391000Y-63966000D01*
X228391000Y-57034000D02*
X228391000Y-59460000D01*
X228351000Y-61540000D02*
X228351000Y-63984000D01*
X228351000Y-57016000D02*
X228351000Y-59460000D01*
X228311000Y-61540000D02*
X228311000Y-64002000D01*
X228311000Y-56998000D02*
X228311000Y-59460000D01*
X228271000Y-61540000D02*
X228271000Y-64020000D01*
X228271000Y-56980000D02*
X228271000Y-59460000D01*
X228231000Y-61540000D02*
X228231000Y-64036000D01*
X228231000Y-56964000D02*
X228231000Y-59460000D01*
X228191000Y-61540000D02*
X228191000Y-64053000D01*
X228191000Y-56947000D02*
X228191000Y-59460000D01*
X228151000Y-61540000D02*
X228151000Y-64068000D01*
X228151000Y-56932000D02*
X228151000Y-59460000D01*
X228111000Y-61540000D02*
X228111000Y-64084000D01*
X228111000Y-56916000D02*
X228111000Y-59460000D01*
X228071000Y-61540000D02*
X228071000Y-64098000D01*
X228071000Y-56902000D02*
X228071000Y-59460000D01*
X228031000Y-61540000D02*
X228031000Y-64113000D01*
X228031000Y-56887000D02*
X228031000Y-59460000D01*
X227991000Y-61540000D02*
X227991000Y-64126000D01*
X227991000Y-56874000D02*
X227991000Y-59460000D01*
X227951000Y-61540000D02*
X227951000Y-64140000D01*
X227951000Y-56860000D02*
X227951000Y-59460000D01*
X227911000Y-61540000D02*
X227911000Y-64153000D01*
X227911000Y-56847000D02*
X227911000Y-59460000D01*
X227871000Y-61540000D02*
X227871000Y-64165000D01*
X227871000Y-56835000D02*
X227871000Y-59460000D01*
X227831000Y-61540000D02*
X227831000Y-64177000D01*
X227831000Y-56823000D02*
X227831000Y-59460000D01*
X227791000Y-61540000D02*
X227791000Y-64188000D01*
X227791000Y-56812000D02*
X227791000Y-59460000D01*
X227751000Y-61540000D02*
X227751000Y-64199000D01*
X227751000Y-56801000D02*
X227751000Y-59460000D01*
X227711000Y-61540000D02*
X227711000Y-64210000D01*
X227711000Y-56790000D02*
X227711000Y-59460000D01*
X227671000Y-61540000D02*
X227671000Y-64220000D01*
X227671000Y-56780000D02*
X227671000Y-59460000D01*
X227631000Y-61540000D02*
X227631000Y-64229000D01*
X227631000Y-56771000D02*
X227631000Y-59460000D01*
X227591000Y-61540000D02*
X227591000Y-64238000D01*
X227591000Y-56762000D02*
X227591000Y-59460000D01*
X227551000Y-61540000D02*
X227551000Y-64247000D01*
X227551000Y-56753000D02*
X227551000Y-59460000D01*
X227511000Y-61540000D02*
X227511000Y-64255000D01*
X227511000Y-56745000D02*
X227511000Y-59460000D01*
X227471000Y-61540000D02*
X227471000Y-64263000D01*
X227471000Y-56737000D02*
X227471000Y-59460000D01*
X227430000Y-61540000D02*
X227430000Y-64270000D01*
X227430000Y-56730000D02*
X227430000Y-59460000D01*
X227390000Y-61540000D02*
X227390000Y-64277000D01*
X227390000Y-56723000D02*
X227390000Y-59460000D01*
X227350000Y-61540000D02*
X227350000Y-64284000D01*
X227350000Y-56716000D02*
X227350000Y-59460000D01*
X227310000Y-61540000D02*
X227310000Y-64290000D01*
X227310000Y-56710000D02*
X227310000Y-59460000D01*
X227270000Y-61540000D02*
X227270000Y-64295000D01*
X227270000Y-56705000D02*
X227270000Y-59460000D01*
X227230000Y-61540000D02*
X227230000Y-64301000D01*
X227230000Y-56699000D02*
X227230000Y-59460000D01*
X227190000Y-61540000D02*
X227190000Y-64305000D01*
X227190000Y-56695000D02*
X227190000Y-59460000D01*
X227150000Y-61540000D02*
X227150000Y-64310000D01*
X227150000Y-56690000D02*
X227150000Y-59460000D01*
X227110000Y-61540000D02*
X227110000Y-64314000D01*
X227110000Y-56686000D02*
X227110000Y-59460000D01*
X227070000Y-61540000D02*
X227070000Y-64317000D01*
X227070000Y-56683000D02*
X227070000Y-59460000D01*
X227030000Y-61540000D02*
X227030000Y-64320000D01*
X227030000Y-56680000D02*
X227030000Y-59460000D01*
X226990000Y-61540000D02*
X226990000Y-64323000D01*
X226990000Y-56677000D02*
X226990000Y-59460000D01*
X226950000Y-56675000D02*
X226950000Y-64325000D01*
X226910000Y-56673000D02*
X226910000Y-64327000D01*
X226870000Y-56671000D02*
X226870000Y-64329000D01*
X226830000Y-56670000D02*
X226830000Y-64330000D01*
X226790000Y-56670000D02*
X226790000Y-64330000D01*
X226750000Y-56670000D02*
X226750000Y-64330000D01*
X230620000Y-60500000D02*
G75*
G03X230620000Y-60500000I-3870000J0D01*
G01*
G04 #@! TO.C,D1*
X236921392Y-50057665D02*
G75*
G03X236764484Y-53290000I1078608J-1672335D01*
G01*
X239078608Y-50057665D02*
G75*
G02X239235516Y-53290000I-1078608J-1672335D01*
G01*
X236920163Y-50688870D02*
G75*
G03X236920000Y-52770961I1079837J-1041130D01*
G01*
X239079837Y-50688870D02*
G75*
G02X239080000Y-52770961I-1079837J-1041130D01*
G01*
X236764000Y-53290000D02*
X236920000Y-53290000D01*
X239080000Y-53290000D02*
X239236000Y-53290000D01*
D13*
G04 #@! TO.C,J2*
X146460000Y-62540000D02*
X146460000Y-48570000D01*
X146460000Y-48570000D02*
X162970000Y-48570000D01*
X162970000Y-48570000D02*
X162970000Y-62540000D01*
X162970000Y-62540000D02*
X146460000Y-62540000D01*
G04 #@! TO.C,PS1*
X185500000Y-66000000D02*
X219500000Y-66000000D01*
X219500000Y-44000000D02*
X219500000Y-66000000D01*
X185500000Y-44000000D02*
X219500000Y-44000000D01*
X185500000Y-66000000D02*
X185500000Y-44000000D01*
G04 #@! TO.C,F1*
X165928571Y-55583333D02*
X165928571Y-55916666D01*
X166452380Y-55916666D02*
X165452380Y-55916666D01*
X165452380Y-55440476D01*
X166452380Y-54535714D02*
X166452380Y-55107142D01*
X166452380Y-54821428D02*
X165452380Y-54821428D01*
X165595238Y-54916666D01*
X165690476Y-55011904D01*
X165738095Y-55107142D01*
G04 #@! TO.C,R1*
X237102380Y-48604166D02*
X236626190Y-48937500D01*
X237102380Y-49175595D02*
X236102380Y-49175595D01*
X236102380Y-48794642D01*
X236150000Y-48699404D01*
X236197619Y-48651785D01*
X236292857Y-48604166D01*
X236435714Y-48604166D01*
X236530952Y-48651785D01*
X236578571Y-48699404D01*
X236626190Y-48794642D01*
X236626190Y-49175595D01*
X237102380Y-47651785D02*
X237102380Y-48223214D01*
X237102380Y-47937500D02*
X236102380Y-47937500D01*
X236245238Y-48032738D01*
X236340476Y-48127976D01*
X236388095Y-48223214D01*
G04 #@! TO.C,RV1*
X184282380Y-56685238D02*
X183806190Y-57018571D01*
X184282380Y-57256666D02*
X183282380Y-57256666D01*
X183282380Y-56875714D01*
X183330000Y-56780476D01*
X183377619Y-56732857D01*
X183472857Y-56685238D01*
X183615714Y-56685238D01*
X183710952Y-56732857D01*
X183758571Y-56780476D01*
X183806190Y-56875714D01*
X183806190Y-57256666D01*
X183282380Y-56399523D02*
X184282380Y-56066190D01*
X183282380Y-55732857D01*
X184282380Y-54875714D02*
X184282380Y-55447142D01*
X184282380Y-55161428D02*
X183282380Y-55161428D01*
X183425238Y-55256666D01*
X183520476Y-55351904D01*
X183568095Y-55447142D01*
G04 #@! TO.C,J1*
X233666666Y-62782380D02*
X233666666Y-63496666D01*
X233619047Y-63639523D01*
X233523809Y-63734761D01*
X233380952Y-63782380D01*
X233285714Y-63782380D01*
X234666666Y-63782380D02*
X234095238Y-63782380D01*
X234380952Y-63782380D02*
X234380952Y-62782380D01*
X234285714Y-62925238D01*
X234190476Y-63020476D01*
X234095238Y-63068095D01*
G04 #@! TO.C,C1*
X226583333Y-42857142D02*
X226535714Y-42904761D01*
X226392857Y-42952380D01*
X226297619Y-42952380D01*
X226154761Y-42904761D01*
X226059523Y-42809523D01*
X226011904Y-42714285D01*
X225964285Y-42523809D01*
X225964285Y-42380952D01*
X226011904Y-42190476D01*
X226059523Y-42095238D01*
X226154761Y-42000000D01*
X226297619Y-41952380D01*
X226392857Y-41952380D01*
X226535714Y-42000000D01*
X226583333Y-42047619D01*
X227535714Y-42952380D02*
X226964285Y-42952380D01*
X227250000Y-42952380D02*
X227250000Y-41952380D01*
X227154761Y-42095238D01*
X227059523Y-42190476D01*
X226964285Y-42238095D01*
G04 #@! TO.C,C2*
X226583333Y-55857142D02*
X226535714Y-55904761D01*
X226392857Y-55952380D01*
X226297619Y-55952380D01*
X226154761Y-55904761D01*
X226059523Y-55809523D01*
X226011904Y-55714285D01*
X225964285Y-55523809D01*
X225964285Y-55380952D01*
X226011904Y-55190476D01*
X226059523Y-55095238D01*
X226154761Y-55000000D01*
X226297619Y-54952380D01*
X226392857Y-54952380D01*
X226535714Y-55000000D01*
X226583333Y-55047619D01*
X226964285Y-55047619D02*
X227011904Y-55000000D01*
X227107142Y-54952380D01*
X227345238Y-54952380D01*
X227440476Y-55000000D01*
X227488095Y-55047619D01*
X227535714Y-55142857D01*
X227535714Y-55238095D01*
X227488095Y-55380952D01*
X226916666Y-55952380D01*
X227535714Y-55952380D01*
G04 #@! TO.C,D1*
X235492380Y-52468095D02*
X234492380Y-52468095D01*
X234492380Y-52230000D01*
X234540000Y-52087142D01*
X234635238Y-51991904D01*
X234730476Y-51944285D01*
X234920952Y-51896666D01*
X235063809Y-51896666D01*
X235254285Y-51944285D01*
X235349523Y-51991904D01*
X235444761Y-52087142D01*
X235492380Y-52230000D01*
X235492380Y-52468095D01*
X235492380Y-50944285D02*
X235492380Y-51515714D01*
X235492380Y-51230000D02*
X234492380Y-51230000D01*
X234635238Y-51325238D01*
X234730476Y-51420476D01*
X234778095Y-51515714D01*
G04 #@! TO.C,J2*
X154666666Y-46452380D02*
X154666666Y-47166666D01*
X154619047Y-47309523D01*
X154523809Y-47404761D01*
X154380952Y-47452380D01*
X154285714Y-47452380D01*
X155095238Y-46547619D02*
X155142857Y-46500000D01*
X155238095Y-46452380D01*
X155476190Y-46452380D01*
X155571428Y-46500000D01*
X155619047Y-46547619D01*
X155666666Y-46642857D01*
X155666666Y-46738095D01*
X155619047Y-46880952D01*
X155047619Y-47452380D01*
X155666666Y-47452380D01*
G04 #@! TO.C,PS1*
X188452380Y-56214285D02*
X187452380Y-56214285D01*
X187452380Y-55833333D01*
X187500000Y-55738095D01*
X187547619Y-55690476D01*
X187642857Y-55642857D01*
X187785714Y-55642857D01*
X187880952Y-55690476D01*
X187928571Y-55738095D01*
X187976190Y-55833333D01*
X187976190Y-56214285D01*
X188404761Y-55261904D02*
X188452380Y-55119047D01*
X188452380Y-54880952D01*
X188404761Y-54785714D01*
X188357142Y-54738095D01*
X188261904Y-54690476D01*
X188166666Y-54690476D01*
X188071428Y-54738095D01*
X188023809Y-54785714D01*
X187976190Y-54880952D01*
X187928571Y-55071428D01*
X187880952Y-55166666D01*
X187833333Y-55214285D01*
X187738095Y-55261904D01*
X187642857Y-55261904D01*
X187547619Y-55214285D01*
X187500000Y-55166666D01*
X187452380Y-55071428D01*
X187452380Y-54833333D01*
X187500000Y-54690476D01*
X188452380Y-53738095D02*
X188452380Y-54309523D01*
X188452380Y-54023809D02*
X187452380Y-54023809D01*
X187595238Y-54119047D01*
X187690476Y-54214285D01*
X187738095Y-54309523D01*
G04 #@! TD*
M02*
