G04 #@! TF.GenerationSoftware,KiCad,Pcbnew,(5.0.1)-3*
G04 #@! TF.CreationDate,2021-02-16T20:13:23+05:45*
G04 #@! TF.ProjectId,Power,506F7765722E6B696361645F70636200,rev?*
G04 #@! TF.SameCoordinates,Original*
G04 #@! TF.FileFunction,Soldermask,Top*
G04 #@! TF.FilePolarity,Negative*
%FSLAX46Y46*%
G04 Gerber Fmt 4.6, Leading zero omitted, Abs format (unit mm)*
G04 Created by KiCad (PCBNEW (5.0.1)-3) date 2/16/2021 8:13:23 PM*
%MOMM*%
%LPD*%
G01*
G04 APERTURE LIST*
%ADD10C,0.100000*%
G04 APERTURE END LIST*
D10*
G36*
X239448903Y-65743213D02*
X239671177Y-65787426D01*
X240089932Y-65960880D01*
X240466802Y-66212696D01*
X240787304Y-66533198D01*
X241039120Y-66910068D01*
X241212574Y-67328823D01*
X241301000Y-67773371D01*
X241301000Y-68226629D01*
X241212574Y-68671177D01*
X241039120Y-69089932D01*
X240787304Y-69466802D01*
X240466802Y-69787304D01*
X240089932Y-70039120D01*
X239671177Y-70212574D01*
X239448903Y-70256787D01*
X239226630Y-70301000D01*
X238773370Y-70301000D01*
X238551097Y-70256787D01*
X238328823Y-70212574D01*
X237910068Y-70039120D01*
X237533198Y-69787304D01*
X237212696Y-69466802D01*
X236960880Y-69089932D01*
X236787426Y-68671177D01*
X236699000Y-68226629D01*
X236699000Y-67773371D01*
X236787426Y-67328823D01*
X236960880Y-66910068D01*
X237212696Y-66533198D01*
X237533198Y-66212696D01*
X237910068Y-65960880D01*
X238328823Y-65787426D01*
X238551097Y-65743213D01*
X238773370Y-65699000D01*
X239226630Y-65699000D01*
X239448903Y-65743213D01*
X239448903Y-65743213D01*
G37*
G36*
X148448903Y-65743213D02*
X148671177Y-65787426D01*
X149089932Y-65960880D01*
X149466802Y-66212696D01*
X149787304Y-66533198D01*
X150039120Y-66910068D01*
X150212574Y-67328823D01*
X150301000Y-67773371D01*
X150301000Y-68226629D01*
X150212574Y-68671177D01*
X150039120Y-69089932D01*
X149787304Y-69466802D01*
X149466802Y-69787304D01*
X149089932Y-70039120D01*
X148671177Y-70212574D01*
X148448903Y-70256787D01*
X148226630Y-70301000D01*
X147773370Y-70301000D01*
X147551097Y-70256787D01*
X147328823Y-70212574D01*
X146910068Y-70039120D01*
X146533198Y-69787304D01*
X146212696Y-69466802D01*
X145960880Y-69089932D01*
X145787426Y-68671177D01*
X145699000Y-68226629D01*
X145699000Y-67773371D01*
X145787426Y-67328823D01*
X145960880Y-66910068D01*
X146212696Y-66533198D01*
X146533198Y-66212696D01*
X146910068Y-65960880D01*
X147328823Y-65787426D01*
X147551097Y-65743213D01*
X147773370Y-65699000D01*
X148226630Y-65699000D01*
X148448903Y-65743213D01*
X148448903Y-65743213D01*
G37*
G36*
X172352527Y-64988736D02*
X172452410Y-65008604D01*
X172734674Y-65125521D01*
X172988705Y-65295259D01*
X173204741Y-65511295D01*
X173374479Y-65765326D01*
X173491396Y-66047590D01*
X173551000Y-66347240D01*
X173551000Y-66652760D01*
X173491396Y-66952410D01*
X173374479Y-67234674D01*
X173204741Y-67488705D01*
X172988705Y-67704741D01*
X172734674Y-67874479D01*
X172452410Y-67991396D01*
X172352527Y-68011264D01*
X172152762Y-68051000D01*
X171847238Y-68051000D01*
X171647473Y-68011264D01*
X171547590Y-67991396D01*
X171265326Y-67874479D01*
X171011295Y-67704741D01*
X170795259Y-67488705D01*
X170625521Y-67234674D01*
X170508604Y-66952410D01*
X170449000Y-66652760D01*
X170449000Y-66347240D01*
X170508604Y-66047590D01*
X170625521Y-65765326D01*
X170795259Y-65511295D01*
X171011295Y-65295259D01*
X171265326Y-65125521D01*
X171547590Y-65008604D01*
X171647473Y-64988736D01*
X171847238Y-64949000D01*
X172152762Y-64949000D01*
X172352527Y-64988736D01*
X172352527Y-64988736D01*
G37*
G36*
X217206565Y-62989389D02*
X217397834Y-63068615D01*
X217569976Y-63183637D01*
X217716363Y-63330024D01*
X217831385Y-63502166D01*
X217910611Y-63693435D01*
X217951000Y-63896484D01*
X217951000Y-64103516D01*
X217910611Y-64306565D01*
X217831385Y-64497834D01*
X217716363Y-64669976D01*
X217569976Y-64816363D01*
X217397834Y-64931385D01*
X217206565Y-65010611D01*
X217003516Y-65051000D01*
X216796484Y-65051000D01*
X216593435Y-65010611D01*
X216402166Y-64931385D01*
X216230024Y-64816363D01*
X216083637Y-64669976D01*
X215968615Y-64497834D01*
X215889389Y-64306565D01*
X215849000Y-64103516D01*
X215849000Y-63896484D01*
X215889389Y-63693435D01*
X215968615Y-63502166D01*
X216083637Y-63330024D01*
X216230024Y-63183637D01*
X216402166Y-63068615D01*
X216593435Y-62989389D01*
X216796484Y-62949000D01*
X217003516Y-62949000D01*
X217206565Y-62989389D01*
X217206565Y-62989389D01*
G37*
G36*
X234901000Y-61901000D02*
X233099000Y-61901000D01*
X233099000Y-60099000D01*
X234901000Y-60099000D01*
X234901000Y-61901000D01*
X234901000Y-61901000D01*
G37*
G36*
X150551000Y-61551000D02*
X147449000Y-61551000D01*
X147449000Y-58449000D01*
X150551000Y-58449000D01*
X150551000Y-61551000D01*
X150551000Y-61551000D01*
G37*
G36*
X160852527Y-58488736D02*
X160952410Y-58508604D01*
X161234674Y-58625521D01*
X161488705Y-58795259D01*
X161704741Y-59011295D01*
X161874479Y-59265326D01*
X161933699Y-59408297D01*
X161991396Y-59547591D01*
X162051000Y-59847238D01*
X162051000Y-60152762D01*
X162011264Y-60352527D01*
X161991396Y-60452410D01*
X161874479Y-60734674D01*
X161704741Y-60988705D01*
X161488705Y-61204741D01*
X161234674Y-61374479D01*
X160952410Y-61491396D01*
X160852527Y-61511264D01*
X160652762Y-61551000D01*
X160347238Y-61551000D01*
X160147473Y-61511264D01*
X160047590Y-61491396D01*
X159765326Y-61374479D01*
X159511295Y-61204741D01*
X159295259Y-60988705D01*
X159125521Y-60734674D01*
X159008604Y-60452410D01*
X158988736Y-60352527D01*
X158949000Y-60152762D01*
X158949000Y-59847238D01*
X159008604Y-59547591D01*
X159066301Y-59408297D01*
X159125521Y-59265326D01*
X159295259Y-59011295D01*
X159511295Y-58795259D01*
X159765326Y-58625521D01*
X160047590Y-58508604D01*
X160147473Y-58488736D01*
X160347238Y-58449000D01*
X160652762Y-58449000D01*
X160852527Y-58488736D01*
X160852527Y-58488736D01*
G37*
G36*
X226351000Y-61351000D02*
X224649000Y-61351000D01*
X224649000Y-59649000D01*
X226351000Y-59649000D01*
X226351000Y-61351000D01*
X226351000Y-61351000D01*
G37*
G36*
X228248228Y-59681703D02*
X228403100Y-59745853D01*
X228542481Y-59838985D01*
X228661015Y-59957519D01*
X228754147Y-60096900D01*
X228818297Y-60251772D01*
X228851000Y-60416184D01*
X228851000Y-60583816D01*
X228818297Y-60748228D01*
X228754147Y-60903100D01*
X228661015Y-61042481D01*
X228542481Y-61161015D01*
X228403100Y-61254147D01*
X228248228Y-61318297D01*
X228083816Y-61351000D01*
X227916184Y-61351000D01*
X227751772Y-61318297D01*
X227596900Y-61254147D01*
X227457519Y-61161015D01*
X227338985Y-61042481D01*
X227245853Y-60903100D01*
X227181703Y-60748228D01*
X227149000Y-60583816D01*
X227149000Y-60416184D01*
X227181703Y-60251772D01*
X227245853Y-60096900D01*
X227338985Y-59957519D01*
X227457519Y-59838985D01*
X227596900Y-59745853D01*
X227751772Y-59681703D01*
X227916184Y-59649000D01*
X228083816Y-59649000D01*
X228248228Y-59681703D01*
X228248228Y-59681703D01*
G37*
G36*
X180728228Y-57771703D02*
X180883100Y-57835853D01*
X181022481Y-57928985D01*
X181141015Y-58047519D01*
X181234147Y-58186900D01*
X181298297Y-58341772D01*
X181331000Y-58506184D01*
X181331000Y-58673816D01*
X181298297Y-58838228D01*
X181234147Y-58993100D01*
X181141015Y-59132481D01*
X181022481Y-59251015D01*
X180883100Y-59344147D01*
X180728228Y-59408297D01*
X180563816Y-59441000D01*
X180396184Y-59441000D01*
X180231772Y-59408297D01*
X180076900Y-59344147D01*
X179937519Y-59251015D01*
X179818985Y-59132481D01*
X179725853Y-58993100D01*
X179661703Y-58838228D01*
X179629000Y-58673816D01*
X179629000Y-58506184D01*
X179661703Y-58341772D01*
X179725853Y-58186900D01*
X179818985Y-58047519D01*
X179937519Y-57928985D01*
X180076900Y-57835853D01*
X180231772Y-57771703D01*
X180396184Y-57739000D01*
X180563816Y-57739000D01*
X180728228Y-57771703D01*
X180728228Y-57771703D01*
G37*
G36*
X234110442Y-57565518D02*
X234176627Y-57572037D01*
X234289853Y-57606384D01*
X234346467Y-57623557D01*
X234477198Y-57693435D01*
X234502991Y-57707222D01*
X234538729Y-57736552D01*
X234640186Y-57819814D01*
X234703108Y-57896486D01*
X234752778Y-57957009D01*
X234752779Y-57957011D01*
X234836443Y-58113533D01*
X234836443Y-58113534D01*
X234887963Y-58283373D01*
X234905359Y-58460000D01*
X234887963Y-58636627D01*
X234853616Y-58749853D01*
X234836443Y-58806467D01*
X234831153Y-58816363D01*
X234752778Y-58962991D01*
X234728068Y-58993100D01*
X234640186Y-59100186D01*
X234538729Y-59183448D01*
X234502991Y-59212778D01*
X234502989Y-59212779D01*
X234346467Y-59296443D01*
X234289853Y-59313616D01*
X234176627Y-59347963D01*
X234110442Y-59354482D01*
X234044260Y-59361000D01*
X233955740Y-59361000D01*
X233889558Y-59354482D01*
X233823373Y-59347963D01*
X233710147Y-59313616D01*
X233653533Y-59296443D01*
X233497011Y-59212779D01*
X233497009Y-59212778D01*
X233461271Y-59183448D01*
X233359814Y-59100186D01*
X233271932Y-58993100D01*
X233247222Y-58962991D01*
X233168847Y-58816363D01*
X233163557Y-58806467D01*
X233146384Y-58749853D01*
X233112037Y-58636627D01*
X233094641Y-58460000D01*
X233112037Y-58283373D01*
X233163557Y-58113534D01*
X233163557Y-58113533D01*
X233247221Y-57957011D01*
X233247222Y-57957009D01*
X233296892Y-57896486D01*
X233359814Y-57819814D01*
X233461271Y-57736552D01*
X233497009Y-57707222D01*
X233522802Y-57693435D01*
X233653533Y-57623557D01*
X233710147Y-57606384D01*
X233823373Y-57572037D01*
X233889558Y-57565518D01*
X233955740Y-57559000D01*
X234044260Y-57559000D01*
X234110442Y-57565518D01*
X234110442Y-57565518D01*
G37*
G36*
X187806565Y-56989389D02*
X187997834Y-57068615D01*
X188169976Y-57183637D01*
X188316363Y-57330024D01*
X188431385Y-57502166D01*
X188510611Y-57693435D01*
X188551000Y-57896484D01*
X188551000Y-58103516D01*
X188510611Y-58306565D01*
X188431385Y-58497834D01*
X188316363Y-58669976D01*
X188169976Y-58816363D01*
X187997834Y-58931385D01*
X187806565Y-59010611D01*
X187603516Y-59051000D01*
X187396484Y-59051000D01*
X187193435Y-59010611D01*
X187002166Y-58931385D01*
X186830024Y-58816363D01*
X186683637Y-58669976D01*
X186568615Y-58497834D01*
X186489389Y-58306565D01*
X186449000Y-58103516D01*
X186449000Y-57896484D01*
X186489389Y-57693435D01*
X186568615Y-57502166D01*
X186683637Y-57330024D01*
X186830024Y-57183637D01*
X187002166Y-57068615D01*
X187193435Y-56989389D01*
X187396484Y-56949000D01*
X187603516Y-56949000D01*
X187806565Y-56989389D01*
X187806565Y-56989389D01*
G37*
G36*
X182028228Y-52771703D02*
X182183100Y-52835853D01*
X182322481Y-52928985D01*
X182441015Y-53047519D01*
X182534147Y-53186900D01*
X182598297Y-53341772D01*
X182631000Y-53506184D01*
X182631000Y-53673816D01*
X182598297Y-53838228D01*
X182534147Y-53993100D01*
X182441015Y-54132481D01*
X182322481Y-54251015D01*
X182183100Y-54344147D01*
X182028228Y-54408297D01*
X181863816Y-54441000D01*
X181696184Y-54441000D01*
X181531772Y-54408297D01*
X181376900Y-54344147D01*
X181237519Y-54251015D01*
X181118985Y-54132481D01*
X181025853Y-53993100D01*
X180961703Y-53838228D01*
X180929000Y-53673816D01*
X180929000Y-53506184D01*
X180961703Y-53341772D01*
X181025853Y-53186900D01*
X181118985Y-53047519D01*
X181237519Y-52928985D01*
X181376900Y-52835853D01*
X181531772Y-52771703D01*
X181696184Y-52739000D01*
X181863816Y-52739000D01*
X182028228Y-52771703D01*
X182028228Y-52771703D01*
G37*
G36*
X238951000Y-53951000D02*
X237049000Y-53951000D01*
X237049000Y-52049000D01*
X238951000Y-52049000D01*
X238951000Y-53951000D01*
X238951000Y-53951000D01*
G37*
G36*
X187806565Y-50989389D02*
X187997834Y-51068615D01*
X188169976Y-51183637D01*
X188316363Y-51330024D01*
X188431385Y-51502166D01*
X188510611Y-51693435D01*
X188551000Y-51896484D01*
X188551000Y-52103516D01*
X188510611Y-52306565D01*
X188431385Y-52497834D01*
X188316363Y-52669976D01*
X188169976Y-52816363D01*
X187997834Y-52931385D01*
X187806565Y-53010611D01*
X187603516Y-53051000D01*
X187396484Y-53051000D01*
X187193435Y-53010611D01*
X187002166Y-52931385D01*
X186830024Y-52816363D01*
X186683637Y-52669976D01*
X186568615Y-52497834D01*
X186489389Y-52306565D01*
X186449000Y-52103516D01*
X186449000Y-51896484D01*
X186489389Y-51693435D01*
X186568615Y-51502166D01*
X186683637Y-51330024D01*
X186830024Y-51183637D01*
X187002166Y-51068615D01*
X187193435Y-50989389D01*
X187396484Y-50949000D01*
X187603516Y-50949000D01*
X187806565Y-50989389D01*
X187806565Y-50989389D01*
G37*
G36*
X160852527Y-49488736D02*
X160952410Y-49508604D01*
X161234674Y-49625521D01*
X161488705Y-49795259D01*
X161704741Y-50011295D01*
X161874479Y-50265326D01*
X161991396Y-50547590D01*
X161991396Y-50547591D01*
X162051000Y-50847238D01*
X162051000Y-51152762D01*
X162041864Y-51198690D01*
X161991396Y-51452410D01*
X161874479Y-51734674D01*
X161704741Y-51988705D01*
X161488705Y-52204741D01*
X161234674Y-52374479D01*
X160952410Y-52491396D01*
X160852527Y-52511264D01*
X160652762Y-52551000D01*
X160347238Y-52551000D01*
X160147473Y-52511264D01*
X160047590Y-52491396D01*
X159765326Y-52374479D01*
X159511295Y-52204741D01*
X159295259Y-51988705D01*
X159125521Y-51734674D01*
X159008604Y-51452410D01*
X158958136Y-51198690D01*
X158949000Y-51152762D01*
X158949000Y-50847238D01*
X159008604Y-50547591D01*
X159008604Y-50547590D01*
X159125521Y-50265326D01*
X159295259Y-50011295D01*
X159511295Y-49795259D01*
X159765326Y-49625521D01*
X160047590Y-49508604D01*
X160147473Y-49488736D01*
X160347238Y-49449000D01*
X160652762Y-49449000D01*
X160852527Y-49488736D01*
X160852527Y-49488736D01*
G37*
G36*
X149352527Y-49488736D02*
X149452410Y-49508604D01*
X149734674Y-49625521D01*
X149988705Y-49795259D01*
X150204741Y-50011295D01*
X150374479Y-50265326D01*
X150491396Y-50547590D01*
X150491396Y-50547591D01*
X150551000Y-50847238D01*
X150551000Y-51152762D01*
X150541864Y-51198690D01*
X150491396Y-51452410D01*
X150374479Y-51734674D01*
X150204741Y-51988705D01*
X149988705Y-52204741D01*
X149734674Y-52374479D01*
X149452410Y-52491396D01*
X149352527Y-52511264D01*
X149152762Y-52551000D01*
X148847238Y-52551000D01*
X148647473Y-52511264D01*
X148547590Y-52491396D01*
X148265326Y-52374479D01*
X148011295Y-52204741D01*
X147795259Y-51988705D01*
X147625521Y-51734674D01*
X147508604Y-51452410D01*
X147458136Y-51198690D01*
X147449000Y-51152762D01*
X147449000Y-50847238D01*
X147508604Y-50547591D01*
X147508604Y-50547590D01*
X147625521Y-50265326D01*
X147795259Y-50011295D01*
X148011295Y-49795259D01*
X148265326Y-49625521D01*
X148547590Y-49508604D01*
X148647473Y-49488736D01*
X148847238Y-49449000D01*
X149152762Y-49449000D01*
X149352527Y-49488736D01*
X149352527Y-49488736D01*
G37*
G36*
X238277396Y-49545546D02*
X238450466Y-49617234D01*
X238606230Y-49721312D01*
X238738688Y-49853770D01*
X238842766Y-50009534D01*
X238914454Y-50182604D01*
X238951000Y-50366333D01*
X238951000Y-50553667D01*
X238914454Y-50737396D01*
X238842766Y-50910466D01*
X238738688Y-51066230D01*
X238606230Y-51198688D01*
X238450466Y-51302766D01*
X238277396Y-51374454D01*
X238093667Y-51411000D01*
X237906333Y-51411000D01*
X237722604Y-51374454D01*
X237549534Y-51302766D01*
X237393770Y-51198688D01*
X237261312Y-51066230D01*
X237157234Y-50910466D01*
X237085546Y-50737396D01*
X237049000Y-50553667D01*
X237049000Y-50366333D01*
X237085546Y-50182604D01*
X237157234Y-50009534D01*
X237261312Y-49853770D01*
X237393770Y-49721312D01*
X237549534Y-49617234D01*
X237722604Y-49545546D01*
X237906333Y-49509000D01*
X238093667Y-49509000D01*
X238277396Y-49545546D01*
X238277396Y-49545546D01*
G37*
G36*
X235584466Y-48841065D02*
X235623137Y-48852796D01*
X235658779Y-48871848D01*
X235690017Y-48897483D01*
X235715652Y-48928721D01*
X235734704Y-48964363D01*
X235746435Y-49003034D01*
X235751000Y-49049388D01*
X235751000Y-49700612D01*
X235746435Y-49746966D01*
X235734704Y-49785637D01*
X235715652Y-49821279D01*
X235690017Y-49852517D01*
X235658779Y-49878152D01*
X235623137Y-49897204D01*
X235584466Y-49908935D01*
X235538112Y-49913500D01*
X234461888Y-49913500D01*
X234415534Y-49908935D01*
X234376863Y-49897204D01*
X234341221Y-49878152D01*
X234309983Y-49852517D01*
X234284348Y-49821279D01*
X234265296Y-49785637D01*
X234253565Y-49746966D01*
X234249000Y-49700612D01*
X234249000Y-49049388D01*
X234253565Y-49003034D01*
X234265296Y-48964363D01*
X234284348Y-48928721D01*
X234309983Y-48897483D01*
X234341221Y-48871848D01*
X234376863Y-48852796D01*
X234415534Y-48841065D01*
X234461888Y-48836500D01*
X235538112Y-48836500D01*
X235584466Y-48841065D01*
X235584466Y-48841065D01*
G37*
G36*
X226351000Y-48351000D02*
X224649000Y-48351000D01*
X224649000Y-46649000D01*
X226351000Y-46649000D01*
X226351000Y-48351000D01*
X226351000Y-48351000D01*
G37*
G36*
X228248228Y-46681703D02*
X228403100Y-46745853D01*
X228542481Y-46838985D01*
X228661015Y-46957519D01*
X228754147Y-47096900D01*
X228818297Y-47251772D01*
X228851000Y-47416184D01*
X228851000Y-47583816D01*
X228818297Y-47748228D01*
X228754147Y-47903100D01*
X228661015Y-48042481D01*
X228542481Y-48161015D01*
X228403100Y-48254147D01*
X228248228Y-48318297D01*
X228083816Y-48351000D01*
X227916184Y-48351000D01*
X227751772Y-48318297D01*
X227596900Y-48254147D01*
X227457519Y-48161015D01*
X227338985Y-48042481D01*
X227245853Y-47903100D01*
X227181703Y-47748228D01*
X227149000Y-47583816D01*
X227149000Y-47416184D01*
X227181703Y-47251772D01*
X227245853Y-47096900D01*
X227338985Y-46957519D01*
X227457519Y-46838985D01*
X227596900Y-46745853D01*
X227751772Y-46681703D01*
X227916184Y-46649000D01*
X228083816Y-46649000D01*
X228248228Y-46681703D01*
X228248228Y-46681703D01*
G37*
G36*
X235584466Y-46966065D02*
X235623137Y-46977796D01*
X235658779Y-46996848D01*
X235690017Y-47022483D01*
X235715652Y-47053721D01*
X235734704Y-47089363D01*
X235746435Y-47128034D01*
X235751000Y-47174388D01*
X235751000Y-47825612D01*
X235746435Y-47871966D01*
X235734704Y-47910637D01*
X235715652Y-47946279D01*
X235690017Y-47977517D01*
X235658779Y-48003152D01*
X235623137Y-48022204D01*
X235584466Y-48033935D01*
X235538112Y-48038500D01*
X234461888Y-48038500D01*
X234415534Y-48033935D01*
X234376863Y-48022204D01*
X234341221Y-48003152D01*
X234309983Y-47977517D01*
X234284348Y-47946279D01*
X234265296Y-47910637D01*
X234253565Y-47871966D01*
X234249000Y-47825612D01*
X234249000Y-47174388D01*
X234253565Y-47128034D01*
X234265296Y-47089363D01*
X234284348Y-47053721D01*
X234309983Y-47022483D01*
X234341221Y-46996848D01*
X234376863Y-46977796D01*
X234415534Y-46966065D01*
X234461888Y-46961500D01*
X235538112Y-46961500D01*
X235584466Y-46966065D01*
X235584466Y-46966065D01*
G37*
G36*
X217206565Y-44989389D02*
X217397834Y-45068615D01*
X217569976Y-45183637D01*
X217716363Y-45330024D01*
X217831385Y-45502166D01*
X217910611Y-45693435D01*
X217951000Y-45896484D01*
X217951000Y-46103516D01*
X217910611Y-46306565D01*
X217831385Y-46497834D01*
X217716363Y-46669976D01*
X217569976Y-46816363D01*
X217397834Y-46931385D01*
X217206565Y-47010611D01*
X217003516Y-47051000D01*
X216796484Y-47051000D01*
X216593435Y-47010611D01*
X216402166Y-46931385D01*
X216230024Y-46816363D01*
X216083637Y-46669976D01*
X215968615Y-46497834D01*
X215889389Y-46306565D01*
X215849000Y-46103516D01*
X215849000Y-45896484D01*
X215889389Y-45693435D01*
X215968615Y-45502166D01*
X216083637Y-45330024D01*
X216230024Y-45183637D01*
X216402166Y-45068615D01*
X216593435Y-44989389D01*
X216796484Y-44949000D01*
X217003516Y-44949000D01*
X217206565Y-44989389D01*
X217206565Y-44989389D01*
G37*
G36*
X172352527Y-42388736D02*
X172452410Y-42408604D01*
X172734674Y-42525521D01*
X172988705Y-42695259D01*
X173204741Y-42911295D01*
X173374479Y-43165326D01*
X173491396Y-43447590D01*
X173491396Y-43447591D01*
X173551000Y-43747238D01*
X173551000Y-44052762D01*
X173543606Y-44089932D01*
X173491396Y-44352410D01*
X173374479Y-44634674D01*
X173204741Y-44888705D01*
X172988705Y-45104741D01*
X172734674Y-45274479D01*
X172452410Y-45391396D01*
X172352527Y-45411264D01*
X172152762Y-45451000D01*
X171847238Y-45451000D01*
X171647473Y-45411264D01*
X171547590Y-45391396D01*
X171265326Y-45274479D01*
X171011295Y-45104741D01*
X170795259Y-44888705D01*
X170625521Y-44634674D01*
X170508604Y-44352410D01*
X170456394Y-44089932D01*
X170449000Y-44052762D01*
X170449000Y-43747238D01*
X170508604Y-43447591D01*
X170508604Y-43447590D01*
X170625521Y-43165326D01*
X170795259Y-42911295D01*
X171011295Y-42695259D01*
X171265326Y-42525521D01*
X171547590Y-42408604D01*
X171647473Y-42388736D01*
X171847238Y-42349000D01*
X172152762Y-42349000D01*
X172352527Y-42388736D01*
X172352527Y-42388736D01*
G37*
G36*
X239448903Y-40743213D02*
X239671177Y-40787426D01*
X240089932Y-40960880D01*
X240466802Y-41212696D01*
X240787304Y-41533198D01*
X241039120Y-41910068D01*
X241212574Y-42328823D01*
X241301000Y-42773371D01*
X241301000Y-43226629D01*
X241212574Y-43671177D01*
X241039120Y-44089932D01*
X240787304Y-44466802D01*
X240466802Y-44787304D01*
X240089932Y-45039120D01*
X239671177Y-45212574D01*
X239448903Y-45256787D01*
X239226630Y-45301000D01*
X238773370Y-45301000D01*
X238551097Y-45256787D01*
X238328823Y-45212574D01*
X237910068Y-45039120D01*
X237533198Y-44787304D01*
X237212696Y-44466802D01*
X236960880Y-44089932D01*
X236787426Y-43671177D01*
X236699000Y-43226629D01*
X236699000Y-42773371D01*
X236787426Y-42328823D01*
X236960880Y-41910068D01*
X237212696Y-41533198D01*
X237533198Y-41212696D01*
X237910068Y-40960880D01*
X238328823Y-40787426D01*
X238551097Y-40743213D01*
X238773370Y-40699000D01*
X239226630Y-40699000D01*
X239448903Y-40743213D01*
X239448903Y-40743213D01*
G37*
G36*
X148448903Y-40743213D02*
X148671177Y-40787426D01*
X149089932Y-40960880D01*
X149466802Y-41212696D01*
X149787304Y-41533198D01*
X150039120Y-41910068D01*
X150212574Y-42328823D01*
X150301000Y-42773371D01*
X150301000Y-43226629D01*
X150212574Y-43671177D01*
X150039120Y-44089932D01*
X149787304Y-44466802D01*
X149466802Y-44787304D01*
X149089932Y-45039120D01*
X148671177Y-45212574D01*
X148448903Y-45256787D01*
X148226630Y-45301000D01*
X147773370Y-45301000D01*
X147551097Y-45256787D01*
X147328823Y-45212574D01*
X146910068Y-45039120D01*
X146533198Y-44787304D01*
X146212696Y-44466802D01*
X145960880Y-44089932D01*
X145787426Y-43671177D01*
X145699000Y-43226629D01*
X145699000Y-42773371D01*
X145787426Y-42328823D01*
X145960880Y-41910068D01*
X146212696Y-41533198D01*
X146533198Y-41212696D01*
X146910068Y-40960880D01*
X147328823Y-40787426D01*
X147551097Y-40743213D01*
X147773370Y-40699000D01*
X148226630Y-40699000D01*
X148448903Y-40743213D01*
X148448903Y-40743213D01*
G37*
M02*
