G04 #@! TF.GenerationSoftware,KiCad,Pcbnew,(5.0.1)-3*
G04 #@! TF.CreationDate,2021-02-16T20:13:23+05:45*
G04 #@! TF.ProjectId,Power,506F7765722E6B696361645F70636200,rev?*
G04 #@! TF.SameCoordinates,Original*
G04 #@! TF.FileFunction,Paste,Top*
G04 #@! TF.FilePolarity,Positive*
%FSLAX46Y46*%
G04 Gerber Fmt 4.6, Leading zero omitted, Abs format (unit mm)*
G04 Created by KiCad (PCBNEW (5.0.1)-3) date 2/16/2021 8:13:23 PM*
%MOMM*%
%LPD*%
G01*
G04 APERTURE LIST*
%ADD10C,0.100000*%
%ADD11C,0.975000*%
G04 APERTURE END LIST*
D10*
G04 #@! TO.C,R1*
G36*
X235480142Y-47013674D02*
X235503803Y-47017184D01*
X235527007Y-47022996D01*
X235549529Y-47031054D01*
X235571153Y-47041282D01*
X235591670Y-47053579D01*
X235610883Y-47067829D01*
X235628607Y-47083893D01*
X235644671Y-47101617D01*
X235658921Y-47120830D01*
X235671218Y-47141347D01*
X235681446Y-47162971D01*
X235689504Y-47185493D01*
X235695316Y-47208697D01*
X235698826Y-47232358D01*
X235700000Y-47256250D01*
X235700000Y-47743750D01*
X235698826Y-47767642D01*
X235695316Y-47791303D01*
X235689504Y-47814507D01*
X235681446Y-47837029D01*
X235671218Y-47858653D01*
X235658921Y-47879170D01*
X235644671Y-47898383D01*
X235628607Y-47916107D01*
X235610883Y-47932171D01*
X235591670Y-47946421D01*
X235571153Y-47958718D01*
X235549529Y-47968946D01*
X235527007Y-47977004D01*
X235503803Y-47982816D01*
X235480142Y-47986326D01*
X235456250Y-47987500D01*
X234543750Y-47987500D01*
X234519858Y-47986326D01*
X234496197Y-47982816D01*
X234472993Y-47977004D01*
X234450471Y-47968946D01*
X234428847Y-47958718D01*
X234408330Y-47946421D01*
X234389117Y-47932171D01*
X234371393Y-47916107D01*
X234355329Y-47898383D01*
X234341079Y-47879170D01*
X234328782Y-47858653D01*
X234318554Y-47837029D01*
X234310496Y-47814507D01*
X234304684Y-47791303D01*
X234301174Y-47767642D01*
X234300000Y-47743750D01*
X234300000Y-47256250D01*
X234301174Y-47232358D01*
X234304684Y-47208697D01*
X234310496Y-47185493D01*
X234318554Y-47162971D01*
X234328782Y-47141347D01*
X234341079Y-47120830D01*
X234355329Y-47101617D01*
X234371393Y-47083893D01*
X234389117Y-47067829D01*
X234408330Y-47053579D01*
X234428847Y-47041282D01*
X234450471Y-47031054D01*
X234472993Y-47022996D01*
X234496197Y-47017184D01*
X234519858Y-47013674D01*
X234543750Y-47012500D01*
X235456250Y-47012500D01*
X235480142Y-47013674D01*
X235480142Y-47013674D01*
G37*
D11*
X235000000Y-47500000D03*
D10*
G36*
X235480142Y-48888674D02*
X235503803Y-48892184D01*
X235527007Y-48897996D01*
X235549529Y-48906054D01*
X235571153Y-48916282D01*
X235591670Y-48928579D01*
X235610883Y-48942829D01*
X235628607Y-48958893D01*
X235644671Y-48976617D01*
X235658921Y-48995830D01*
X235671218Y-49016347D01*
X235681446Y-49037971D01*
X235689504Y-49060493D01*
X235695316Y-49083697D01*
X235698826Y-49107358D01*
X235700000Y-49131250D01*
X235700000Y-49618750D01*
X235698826Y-49642642D01*
X235695316Y-49666303D01*
X235689504Y-49689507D01*
X235681446Y-49712029D01*
X235671218Y-49733653D01*
X235658921Y-49754170D01*
X235644671Y-49773383D01*
X235628607Y-49791107D01*
X235610883Y-49807171D01*
X235591670Y-49821421D01*
X235571153Y-49833718D01*
X235549529Y-49843946D01*
X235527007Y-49852004D01*
X235503803Y-49857816D01*
X235480142Y-49861326D01*
X235456250Y-49862500D01*
X234543750Y-49862500D01*
X234519858Y-49861326D01*
X234496197Y-49857816D01*
X234472993Y-49852004D01*
X234450471Y-49843946D01*
X234428847Y-49833718D01*
X234408330Y-49821421D01*
X234389117Y-49807171D01*
X234371393Y-49791107D01*
X234355329Y-49773383D01*
X234341079Y-49754170D01*
X234328782Y-49733653D01*
X234318554Y-49712029D01*
X234310496Y-49689507D01*
X234304684Y-49666303D01*
X234301174Y-49642642D01*
X234300000Y-49618750D01*
X234300000Y-49131250D01*
X234301174Y-49107358D01*
X234304684Y-49083697D01*
X234310496Y-49060493D01*
X234318554Y-49037971D01*
X234328782Y-49016347D01*
X234341079Y-48995830D01*
X234355329Y-48976617D01*
X234371393Y-48958893D01*
X234389117Y-48942829D01*
X234408330Y-48928579D01*
X234428847Y-48916282D01*
X234450471Y-48906054D01*
X234472993Y-48897996D01*
X234496197Y-48892184D01*
X234519858Y-48888674D01*
X234543750Y-48887500D01*
X235456250Y-48887500D01*
X235480142Y-48888674D01*
X235480142Y-48888674D01*
G37*
D11*
X235000000Y-49375000D03*
G04 #@! TD*
M02*
