M48
;DRILL file {KiCad (5.0.1)-3} date 2/17/2021 1:04:14 PM
;FORMAT={-:-/ absolute / metric / decimal}
FMAT,2
METRIC,TZ
T1C0.400
T2C0.750
T3C0.800
T4C1.000
T5C1.320
T6C1.500
T7C1.520
T8C1.700
T9C2.000
%
G90
G05
M71
T1
X87.64Y-93.97
X92.87Y-70.93
X95.11Y-85.13
X95.15Y-78.04
X97.66Y-87.68
X98.32Y-76.46
X108.37Y-94.45
X112.09Y-75.
X112.65Y-92.73
X113.6Y-58.92
X114.42Y-77.12
T2
X121.5Y-84.21
X121.5Y-85.48
X121.5Y-86.75
X97.Y-89.71
X97.Y-90.98
X97.Y-92.25
T3
X102.Y-77.25
X102.Y-79.79
X102.Y-82.33
X102.Y-84.87
X102.Y-87.41
X102.Y-89.95
X102.Y-92.49
X109.62Y-77.25
X109.62Y-79.79
X109.62Y-82.33
X109.62Y-84.87
X109.62Y-87.41
X109.62Y-89.95
X109.62Y-92.49
X115.5Y-90.75
X115.5Y-93.29
X123.12Y-90.75
X123.12Y-93.29
X83.Y-77.25
X83.Y-79.79
X83.Y-82.33
X83.Y-84.87
X83.Y-87.41
X83.Y-89.95
X83.Y-92.49
X90.62Y-77.25
X90.62Y-79.79
X90.62Y-82.33
X90.62Y-84.87
X90.62Y-87.41
X90.62Y-89.95
X90.62Y-92.49
T4
X71.46Y-82.5
X74.Y-82.5
X71.25Y-92.25
X73.79Y-92.25
X71.25Y-86.75
X73.79Y-86.75
X71.46Y-78.
X74.Y-78.
T5
X108.Y-53.9
X108.Y-66.1
X120.Y-53.9
X120.Y-66.1
T6
X61.17Y-70.16
X101.81Y-52.38
X101.81Y-70.16
T7
X62.75Y-76.25
X62.75Y-81.33
X120.Y-73.92
X120.Y-79.
X65.Y-87.
X65.Y-92.08
T8
X114.Y-51.9
T9
X61.17Y-52.38
T0
M30
