G04 #@! TF.GenerationSoftware,KiCad,Pcbnew,(5.0.1)-3*
G04 #@! TF.CreationDate,2021-02-17T13:04:11+05:45*
G04 #@! TF.ProjectId,Logic-circuit,4C6F6769632D636972637569742E6B69,rev?*
G04 #@! TF.SameCoordinates,Original*
G04 #@! TF.FileFunction,Legend,Top*
G04 #@! TF.FilePolarity,Positive*
%FSLAX46Y46*%
G04 Gerber Fmt 4.6, Leading zero omitted, Abs format (unit mm)*
G04 Created by KiCad (PCBNEW (5.0.1)-3) date 2/17/2021 1:04:11 PM*
%MOMM*%
%LPD*%
G01*
G04 APERTURE LIST*
%ADD10C,0.250000*%
%ADD11C,0.120000*%
%ADD12C,0.127000*%
%ADD13C,0.300000*%
%ADD14C,0.150000*%
%ADD15C,0.200000*%
%ADD16C,0.100000*%
G04 APERTURE END LIST*
D10*
X61480000Y-88091904D02*
X61432380Y-88187142D01*
X61432380Y-88330000D01*
X61480000Y-88472857D01*
X61575238Y-88568095D01*
X61670476Y-88615714D01*
X61860952Y-88663333D01*
X62003809Y-88663333D01*
X62194285Y-88615714D01*
X62289523Y-88568095D01*
X62384761Y-88472857D01*
X62432380Y-88330000D01*
X62432380Y-88234761D01*
X62384761Y-88091904D01*
X62337142Y-88044285D01*
X62003809Y-88044285D01*
X62003809Y-88234761D01*
X62432380Y-87615714D02*
X61432380Y-87615714D01*
X62432380Y-87044285D01*
X61432380Y-87044285D01*
X62432380Y-86568095D02*
X61432380Y-86568095D01*
X61432380Y-86330000D01*
X61480000Y-86187142D01*
X61575238Y-86091904D01*
X61670476Y-86044285D01*
X61860952Y-85996666D01*
X62003809Y-85996666D01*
X62194285Y-86044285D01*
X62289523Y-86091904D01*
X62384761Y-86187142D01*
X62432380Y-86330000D01*
X62432380Y-86568095D01*
X62622380Y-92639047D02*
X62622380Y-93210476D01*
X62622380Y-92924761D02*
X61622380Y-92924761D01*
X61765238Y-93020000D01*
X61860476Y-93115238D01*
X61908095Y-93210476D01*
X61717619Y-92258095D02*
X61670000Y-92210476D01*
X61622380Y-92115238D01*
X61622380Y-91877142D01*
X61670000Y-91781904D01*
X61717619Y-91734285D01*
X61812857Y-91686666D01*
X61908095Y-91686666D01*
X62050952Y-91734285D01*
X62622380Y-92305714D01*
X62622380Y-91686666D01*
X61622380Y-91400952D02*
X62622380Y-91067619D01*
X61622380Y-90734285D01*
X71433333Y-85012380D02*
X71433333Y-84012380D01*
X72004761Y-85012380D01*
X72004761Y-84012380D01*
X72480952Y-84488571D02*
X72814285Y-84488571D01*
X72957142Y-85012380D02*
X72480952Y-85012380D01*
X72480952Y-84012380D01*
X72957142Y-84012380D01*
X73338095Y-84726666D02*
X73814285Y-84726666D01*
X73242857Y-85012380D02*
X73576190Y-84012380D01*
X73909523Y-85012380D01*
X70940476Y-89000000D02*
X70845238Y-88952380D01*
X70702380Y-88952380D01*
X70559523Y-89000000D01*
X70464285Y-89095238D01*
X70416666Y-89190476D01*
X70369047Y-89380952D01*
X70369047Y-89523809D01*
X70416666Y-89714285D01*
X70464285Y-89809523D01*
X70559523Y-89904761D01*
X70702380Y-89952380D01*
X70797619Y-89952380D01*
X70940476Y-89904761D01*
X70988095Y-89857142D01*
X70988095Y-89523809D01*
X70797619Y-89523809D01*
X71416666Y-89428571D02*
X71750000Y-89428571D01*
X71892857Y-89952380D02*
X71416666Y-89952380D01*
X71416666Y-88952380D01*
X71892857Y-88952380D01*
X72321428Y-89952380D02*
X72321428Y-88952380D01*
X72892857Y-89952380D01*
X72892857Y-88952380D01*
X73369047Y-89571428D02*
X74130952Y-89571428D01*
X74559523Y-89047619D02*
X74607142Y-89000000D01*
X74702380Y-88952380D01*
X74940476Y-88952380D01*
X75035714Y-89000000D01*
X75083333Y-89047619D01*
X75130952Y-89142857D01*
X75130952Y-89238095D01*
X75083333Y-89380952D01*
X74511904Y-89952380D01*
X75130952Y-89952380D01*
X70870476Y-79700000D02*
X70775238Y-79652380D01*
X70632380Y-79652380D01*
X70489523Y-79700000D01*
X70394285Y-79795238D01*
X70346666Y-79890476D01*
X70299047Y-80080952D01*
X70299047Y-80223809D01*
X70346666Y-80414285D01*
X70394285Y-80509523D01*
X70489523Y-80604761D01*
X70632380Y-80652380D01*
X70727619Y-80652380D01*
X70870476Y-80604761D01*
X70918095Y-80557142D01*
X70918095Y-80223809D01*
X70727619Y-80223809D01*
X71346666Y-80128571D02*
X71680000Y-80128571D01*
X71822857Y-80652380D02*
X71346666Y-80652380D01*
X71346666Y-79652380D01*
X71822857Y-79652380D01*
X72251428Y-80652380D02*
X72251428Y-79652380D01*
X72822857Y-80652380D01*
X72822857Y-79652380D01*
X73299047Y-80271428D02*
X74060952Y-80271428D01*
X75060952Y-80652380D02*
X74489523Y-80652380D01*
X74775238Y-80652380D02*
X74775238Y-79652380D01*
X74680000Y-79795238D01*
X74584761Y-79890476D01*
X74489523Y-79938095D01*
X69892857Y-94928571D02*
X70035714Y-94976190D01*
X70083333Y-95023809D01*
X70130952Y-95119047D01*
X70130952Y-95261904D01*
X70083333Y-95357142D01*
X70035714Y-95404761D01*
X69940476Y-95452380D01*
X69559523Y-95452380D01*
X69559523Y-94452380D01*
X69892857Y-94452380D01*
X69988095Y-94500000D01*
X70035714Y-94547619D01*
X70083333Y-94642857D01*
X70083333Y-94738095D01*
X70035714Y-94833333D01*
X69988095Y-94880952D01*
X69892857Y-94928571D01*
X69559523Y-94928571D01*
X70559523Y-94452380D02*
X70559523Y-95261904D01*
X70607142Y-95357142D01*
X70654761Y-95404761D01*
X70750000Y-95452380D01*
X70940476Y-95452380D01*
X71035714Y-95404761D01*
X71083333Y-95357142D01*
X71130952Y-95261904D01*
X71130952Y-94452380D01*
X71559523Y-95404761D02*
X71702380Y-95452380D01*
X71940476Y-95452380D01*
X72035714Y-95404761D01*
X72083333Y-95357142D01*
X72130952Y-95261904D01*
X72130952Y-95166666D01*
X72083333Y-95071428D01*
X72035714Y-95023809D01*
X71940476Y-94976190D01*
X71750000Y-94928571D01*
X71654761Y-94880952D01*
X71607142Y-94833333D01*
X71559523Y-94738095D01*
X71559523Y-94642857D01*
X71607142Y-94547619D01*
X71654761Y-94500000D01*
X71750000Y-94452380D01*
X71988095Y-94452380D01*
X72130952Y-94500000D01*
X72892857Y-94928571D02*
X73035714Y-94976190D01*
X73083333Y-95023809D01*
X73130952Y-95119047D01*
X73130952Y-95261904D01*
X73083333Y-95357142D01*
X73035714Y-95404761D01*
X72940476Y-95452380D01*
X72559523Y-95452380D01*
X72559523Y-94452380D01*
X72892857Y-94452380D01*
X72988095Y-94500000D01*
X73035714Y-94547619D01*
X73083333Y-94642857D01*
X73083333Y-94738095D01*
X73035714Y-94833333D01*
X72988095Y-94880952D01*
X72892857Y-94928571D01*
X72559523Y-94928571D01*
X73511904Y-95166666D02*
X73988095Y-95166666D01*
X73416666Y-95452380D02*
X73750000Y-94452380D01*
X74083333Y-95452380D01*
X74988095Y-95452380D02*
X74654761Y-94976190D01*
X74416666Y-95452380D02*
X74416666Y-94452380D01*
X74797619Y-94452380D01*
X74892857Y-94500000D01*
X74940476Y-94547619D01*
X74988095Y-94642857D01*
X74988095Y-94785714D01*
X74940476Y-94880952D01*
X74892857Y-94928571D01*
X74797619Y-94976190D01*
X74416666Y-94976190D01*
X62250000Y-94928571D02*
X62392857Y-94976190D01*
X62440476Y-95023809D01*
X62488095Y-95119047D01*
X62488095Y-95261904D01*
X62440476Y-95357142D01*
X62392857Y-95404761D01*
X62297619Y-95452380D01*
X61916666Y-95452380D01*
X61916666Y-94452380D01*
X62250000Y-94452380D01*
X62345238Y-94500000D01*
X62392857Y-94547619D01*
X62440476Y-94642857D01*
X62440476Y-94738095D01*
X62392857Y-94833333D01*
X62345238Y-94880952D01*
X62250000Y-94928571D01*
X61916666Y-94928571D01*
X62869047Y-95166666D02*
X63345238Y-95166666D01*
X62773809Y-95452380D02*
X63107142Y-94452380D01*
X63440476Y-95452380D01*
X63630952Y-94452380D02*
X64202380Y-94452380D01*
X63916666Y-95452380D02*
X63916666Y-94452380D01*
X64392857Y-94452380D02*
X64964285Y-94452380D01*
X64678571Y-95452380D02*
X64678571Y-94452380D01*
X65297619Y-94928571D02*
X65630952Y-94928571D01*
X65773809Y-95452380D02*
X65297619Y-95452380D01*
X65297619Y-94452380D01*
X65773809Y-94452380D01*
X66773809Y-95452380D02*
X66440476Y-94976190D01*
X66202380Y-95452380D02*
X66202380Y-94452380D01*
X66583333Y-94452380D01*
X66678571Y-94500000D01*
X66726190Y-94547619D01*
X66773809Y-94642857D01*
X66773809Y-94785714D01*
X66726190Y-94880952D01*
X66678571Y-94928571D01*
X66583333Y-94976190D01*
X66202380Y-94976190D01*
X67392857Y-94976190D02*
X67392857Y-95452380D01*
X67059523Y-94452380D02*
X67392857Y-94976190D01*
X67726190Y-94452380D01*
D11*
G04 #@! TO.C,Q1*
X98850000Y-92780000D02*
X98850000Y-89180000D01*
X98838478Y-92818478D02*
G75*
G02X94400000Y-90980000I-1838478J1838478D01*
G01*
X98838478Y-89141522D02*
G75*
G03X94400000Y-90980000I-1838478J-1838478D01*
G01*
G04 #@! TO.C,U1*
X87810000Y-75920000D02*
G75*
G02X85810000Y-75920000I-1000000J0D01*
G01*
X85810000Y-75920000D02*
X84160000Y-75920000D01*
X84160000Y-75920000D02*
X84160000Y-93820000D01*
X84160000Y-93820000D02*
X89460000Y-93820000D01*
X89460000Y-93820000D02*
X89460000Y-75920000D01*
X89460000Y-75920000D02*
X87810000Y-75920000D01*
G04 #@! TO.C,U2*
X108460000Y-75920000D02*
X106810000Y-75920000D01*
X108460000Y-93820000D02*
X108460000Y-75920000D01*
X103160000Y-93820000D02*
X108460000Y-93820000D01*
X103160000Y-75920000D02*
X103160000Y-93820000D01*
X104810000Y-75920000D02*
X103160000Y-75920000D01*
X106810000Y-75920000D02*
G75*
G02X104810000Y-75920000I-1000000J0D01*
G01*
G04 #@! TO.C,J1*
X75330000Y-79330000D02*
X75330000Y-76670000D01*
X72730000Y-79330000D02*
X75330000Y-79330000D01*
X72730000Y-76670000D02*
X75330000Y-76670000D01*
X72730000Y-79330000D02*
X72730000Y-76670000D01*
X71460000Y-79330000D02*
X70130000Y-79330000D01*
X70130000Y-79330000D02*
X70130000Y-78000000D01*
G04 #@! TO.C,J2*
X69920000Y-88080000D02*
X69920000Y-86750000D01*
X71250000Y-88080000D02*
X69920000Y-88080000D01*
X72520000Y-88080000D02*
X72520000Y-85420000D01*
X72520000Y-85420000D02*
X75120000Y-85420000D01*
X72520000Y-88080000D02*
X75120000Y-88080000D01*
X75120000Y-88080000D02*
X75120000Y-85420000D01*
G04 #@! TO.C,J3*
X75330000Y-83830000D02*
X75330000Y-81170000D01*
X72730000Y-83830000D02*
X75330000Y-83830000D01*
X72730000Y-81170000D02*
X75330000Y-81170000D01*
X72730000Y-83830000D02*
X72730000Y-81170000D01*
X71460000Y-83830000D02*
X70130000Y-83830000D01*
X70130000Y-83830000D02*
X70130000Y-82500000D01*
G04 #@! TO.C,J4*
X69920000Y-93580000D02*
X69920000Y-92250000D01*
X71250000Y-93580000D02*
X69920000Y-93580000D01*
X72520000Y-93580000D02*
X72520000Y-90920000D01*
X72520000Y-90920000D02*
X75120000Y-90920000D01*
X72520000Y-93580000D02*
X75120000Y-93580000D01*
X75120000Y-93580000D02*
X75120000Y-90920000D01*
G04 #@! TO.C,R1*
X78040000Y-77946078D02*
X78040000Y-77428922D01*
X79460000Y-77946078D02*
X79460000Y-77428922D01*
G04 #@! TO.C,R2*
X79460000Y-83071078D02*
X79460000Y-82553922D01*
X78040000Y-83071078D02*
X78040000Y-82553922D01*
G04 #@! TO.C,R3*
X78040000Y-88071078D02*
X78040000Y-87553922D01*
X79460000Y-88071078D02*
X79460000Y-87553922D01*
G04 #@! TO.C,R4*
X79460000Y-93071078D02*
X79460000Y-92553922D01*
X78040000Y-93071078D02*
X78040000Y-92553922D01*
G04 #@! TO.C,R5*
X97470000Y-84048578D02*
X97470000Y-83531422D01*
X96050000Y-84048578D02*
X96050000Y-83531422D01*
G04 #@! TO.C,R6*
X96040000Y-80178578D02*
X96040000Y-79661422D01*
X97460000Y-80178578D02*
X97460000Y-79661422D01*
G04 #@! TO.C,D1*
X112900000Y-74000000D02*
X112900000Y-72000000D01*
X112900000Y-72000000D02*
X109000000Y-72000000D01*
X112900000Y-74000000D02*
X109000000Y-74000000D01*
G04 #@! TO.C,J5*
X58940000Y-73710000D02*
X58940000Y-83870000D01*
X66560000Y-73710000D02*
X58940000Y-73710000D01*
X66560000Y-83870000D02*
X66560000Y-73710000D01*
X58940000Y-83870000D02*
X66560000Y-83870000D01*
X60210000Y-83870000D02*
X60210000Y-73710000D01*
G04 #@! TO.C,J6*
X122540000Y-71380000D02*
X122540000Y-81540000D01*
X123810000Y-71380000D02*
X116190000Y-71380000D01*
X116190000Y-71380000D02*
X116190000Y-81540000D01*
X116190000Y-81540000D02*
X123810000Y-81540000D01*
X123810000Y-81540000D02*
X123810000Y-71380000D01*
D12*
G04 #@! TO.C,K1*
X106250000Y-50450000D02*
X121750000Y-50450000D01*
X121750000Y-50450000D02*
X121750000Y-69550000D01*
X121750000Y-69550000D02*
X106250000Y-69550000D01*
X106250000Y-69550000D02*
X106250000Y-50450000D01*
D13*
X120219000Y-49800000D02*
G75*
G03X120219000Y-49800000I-100000J0D01*
G01*
D11*
G04 #@! TO.C,Q2*
X123350000Y-87280000D02*
X123350000Y-83680000D01*
X123338478Y-87318478D02*
G75*
G02X118900000Y-85480000I-1838478J1838478D01*
G01*
X123338478Y-83641522D02*
G75*
G03X118900000Y-85480000I-1838478J-1838478D01*
G01*
G04 #@! TO.C,R7*
X116446578Y-86460000D02*
X115929422Y-86460000D01*
X116446578Y-85040000D02*
X115929422Y-85040000D01*
D14*
G04 #@! TO.C,U3*
X104350000Y-49840000D02*
X58630000Y-49840000D01*
X58630000Y-72700000D02*
X58630000Y-49840000D01*
X104350000Y-72700000D02*
X58630000Y-72700000D01*
X104350000Y-49840000D02*
X104350000Y-72700000D01*
D11*
G04 #@! TO.C,U4*
X120310000Y-89420000D02*
G75*
G02X118310000Y-89420000I-1000000J0D01*
G01*
X118310000Y-89420000D02*
X116660000Y-89420000D01*
X116660000Y-89420000D02*
X116660000Y-94620000D01*
X116660000Y-94620000D02*
X121960000Y-94620000D01*
X121960000Y-94620000D02*
X121960000Y-89420000D01*
X121960000Y-89420000D02*
X120310000Y-89420000D01*
G04 #@! TO.C,Q1*
D14*
X93344761Y-91527619D02*
X93249523Y-91480000D01*
X93154285Y-91384761D01*
X93011428Y-91241904D01*
X92916190Y-91194285D01*
X92820952Y-91194285D01*
X92868571Y-91432380D02*
X92773333Y-91384761D01*
X92678095Y-91289523D01*
X92630476Y-91099047D01*
X92630476Y-90765714D01*
X92678095Y-90575238D01*
X92773333Y-90480000D01*
X92868571Y-90432380D01*
X93059047Y-90432380D01*
X93154285Y-90480000D01*
X93249523Y-90575238D01*
X93297142Y-90765714D01*
X93297142Y-91099047D01*
X93249523Y-91289523D01*
X93154285Y-91384761D01*
X93059047Y-91432380D01*
X92868571Y-91432380D01*
X94249523Y-91432380D02*
X93678095Y-91432380D01*
X93963809Y-91432380D02*
X93963809Y-90432380D01*
X93868571Y-90575238D01*
X93773333Y-90670476D01*
X93678095Y-90718095D01*
G04 #@! TO.C,U1*
D15*
X86048095Y-74202380D02*
X86048095Y-75011904D01*
X86095714Y-75107142D01*
X86143333Y-75154761D01*
X86238571Y-75202380D01*
X86429047Y-75202380D01*
X86524285Y-75154761D01*
X86571904Y-75107142D01*
X86619523Y-75011904D01*
X86619523Y-74202380D01*
X87619523Y-75202380D02*
X87048095Y-75202380D01*
X87333809Y-75202380D02*
X87333809Y-74202380D01*
X87238571Y-74345238D01*
X87143333Y-74440476D01*
X87048095Y-74488095D01*
G04 #@! TO.C,U2*
X105048095Y-74202380D02*
X105048095Y-75011904D01*
X105095714Y-75107142D01*
X105143333Y-75154761D01*
X105238571Y-75202380D01*
X105429047Y-75202380D01*
X105524285Y-75154761D01*
X105571904Y-75107142D01*
X105619523Y-75011904D01*
X105619523Y-74202380D01*
X106048095Y-74297619D02*
X106095714Y-74250000D01*
X106190952Y-74202380D01*
X106429047Y-74202380D01*
X106524285Y-74250000D01*
X106571904Y-74297619D01*
X106619523Y-74392857D01*
X106619523Y-74488095D01*
X106571904Y-74630952D01*
X106000476Y-75202380D01*
X106619523Y-75202380D01*
G04 #@! TO.C,J1*
D14*
X68626666Y-77452380D02*
X68626666Y-78166666D01*
X68579047Y-78309523D01*
X68483809Y-78404761D01*
X68340952Y-78452380D01*
X68245714Y-78452380D01*
X69626666Y-78452380D02*
X69055238Y-78452380D01*
X69340952Y-78452380D02*
X69340952Y-77452380D01*
X69245714Y-77595238D01*
X69150476Y-77690476D01*
X69055238Y-77738095D01*
G04 #@! TO.C,J2*
X68416666Y-86202380D02*
X68416666Y-86916666D01*
X68369047Y-87059523D01*
X68273809Y-87154761D01*
X68130952Y-87202380D01*
X68035714Y-87202380D01*
X68845238Y-86297619D02*
X68892857Y-86250000D01*
X68988095Y-86202380D01*
X69226190Y-86202380D01*
X69321428Y-86250000D01*
X69369047Y-86297619D01*
X69416666Y-86392857D01*
X69416666Y-86488095D01*
X69369047Y-86630952D01*
X68797619Y-87202380D01*
X69416666Y-87202380D01*
G04 #@! TO.C,J3*
X68126666Y-81952380D02*
X68126666Y-82666666D01*
X68079047Y-82809523D01*
X67983809Y-82904761D01*
X67840952Y-82952380D01*
X67745714Y-82952380D01*
X68507619Y-81952380D02*
X69126666Y-81952380D01*
X68793333Y-82333333D01*
X68936190Y-82333333D01*
X69031428Y-82380952D01*
X69079047Y-82428571D01*
X69126666Y-82523809D01*
X69126666Y-82761904D01*
X69079047Y-82857142D01*
X69031428Y-82904761D01*
X68936190Y-82952380D01*
X68650476Y-82952380D01*
X68555238Y-82904761D01*
X68507619Y-82857142D01*
G04 #@! TO.C,J4*
X68416666Y-91702380D02*
X68416666Y-92416666D01*
X68369047Y-92559523D01*
X68273809Y-92654761D01*
X68130952Y-92702380D01*
X68035714Y-92702380D01*
X69321428Y-92035714D02*
X69321428Y-92702380D01*
X69083333Y-91654761D02*
X68845238Y-92369047D01*
X69464285Y-92369047D01*
G04 #@! TO.C,R1*
X78583333Y-75202380D02*
X78250000Y-74726190D01*
X78011904Y-75202380D02*
X78011904Y-74202380D01*
X78392857Y-74202380D01*
X78488095Y-74250000D01*
X78535714Y-74297619D01*
X78583333Y-74392857D01*
X78583333Y-74535714D01*
X78535714Y-74630952D01*
X78488095Y-74678571D01*
X78392857Y-74726190D01*
X78011904Y-74726190D01*
X79535714Y-75202380D02*
X78964285Y-75202380D01*
X79250000Y-75202380D02*
X79250000Y-74202380D01*
X79154761Y-74345238D01*
X79059523Y-74440476D01*
X78964285Y-74488095D01*
G04 #@! TO.C,R2*
X78583333Y-80702380D02*
X78250000Y-80226190D01*
X78011904Y-80702380D02*
X78011904Y-79702380D01*
X78392857Y-79702380D01*
X78488095Y-79750000D01*
X78535714Y-79797619D01*
X78583333Y-79892857D01*
X78583333Y-80035714D01*
X78535714Y-80130952D01*
X78488095Y-80178571D01*
X78392857Y-80226190D01*
X78011904Y-80226190D01*
X78964285Y-79797619D02*
X79011904Y-79750000D01*
X79107142Y-79702380D01*
X79345238Y-79702380D01*
X79440476Y-79750000D01*
X79488095Y-79797619D01*
X79535714Y-79892857D01*
X79535714Y-79988095D01*
X79488095Y-80130952D01*
X78916666Y-80702380D01*
X79535714Y-80702380D01*
G04 #@! TO.C,R3*
X78583333Y-85952380D02*
X78250000Y-85476190D01*
X78011904Y-85952380D02*
X78011904Y-84952380D01*
X78392857Y-84952380D01*
X78488095Y-85000000D01*
X78535714Y-85047619D01*
X78583333Y-85142857D01*
X78583333Y-85285714D01*
X78535714Y-85380952D01*
X78488095Y-85428571D01*
X78392857Y-85476190D01*
X78011904Y-85476190D01*
X78916666Y-84952380D02*
X79535714Y-84952380D01*
X79202380Y-85333333D01*
X79345238Y-85333333D01*
X79440476Y-85380952D01*
X79488095Y-85428571D01*
X79535714Y-85523809D01*
X79535714Y-85761904D01*
X79488095Y-85857142D01*
X79440476Y-85904761D01*
X79345238Y-85952380D01*
X79059523Y-85952380D01*
X78964285Y-85904761D01*
X78916666Y-85857142D01*
G04 #@! TO.C,R4*
X78583333Y-90952380D02*
X78250000Y-90476190D01*
X78011904Y-90952380D02*
X78011904Y-89952380D01*
X78392857Y-89952380D01*
X78488095Y-90000000D01*
X78535714Y-90047619D01*
X78583333Y-90142857D01*
X78583333Y-90285714D01*
X78535714Y-90380952D01*
X78488095Y-90428571D01*
X78392857Y-90476190D01*
X78011904Y-90476190D01*
X79440476Y-90285714D02*
X79440476Y-90952380D01*
X79202380Y-89904761D02*
X78964285Y-90619047D01*
X79583333Y-90619047D01*
G04 #@! TO.C,R5*
X98952380Y-83876666D02*
X98476190Y-84210000D01*
X98952380Y-84448095D02*
X97952380Y-84448095D01*
X97952380Y-84067142D01*
X98000000Y-83971904D01*
X98047619Y-83924285D01*
X98142857Y-83876666D01*
X98285714Y-83876666D01*
X98380952Y-83924285D01*
X98428571Y-83971904D01*
X98476190Y-84067142D01*
X98476190Y-84448095D01*
X97952380Y-82971904D02*
X97952380Y-83448095D01*
X98428571Y-83495714D01*
X98380952Y-83448095D01*
X98333333Y-83352857D01*
X98333333Y-83114761D01*
X98380952Y-83019523D01*
X98428571Y-82971904D01*
X98523809Y-82924285D01*
X98761904Y-82924285D01*
X98857142Y-82971904D01*
X98904761Y-83019523D01*
X98952380Y-83114761D01*
X98952380Y-83352857D01*
X98904761Y-83448095D01*
X98857142Y-83495714D01*
G04 #@! TO.C,R6*
X98952380Y-80086666D02*
X98476190Y-80420000D01*
X98952380Y-80658095D02*
X97952380Y-80658095D01*
X97952380Y-80277142D01*
X98000000Y-80181904D01*
X98047619Y-80134285D01*
X98142857Y-80086666D01*
X98285714Y-80086666D01*
X98380952Y-80134285D01*
X98428571Y-80181904D01*
X98476190Y-80277142D01*
X98476190Y-80658095D01*
X97952380Y-79229523D02*
X97952380Y-79420000D01*
X98000000Y-79515238D01*
X98047619Y-79562857D01*
X98190476Y-79658095D01*
X98380952Y-79705714D01*
X98761904Y-79705714D01*
X98857142Y-79658095D01*
X98904761Y-79610476D01*
X98952380Y-79515238D01*
X98952380Y-79324761D01*
X98904761Y-79229523D01*
X98857142Y-79181904D01*
X98761904Y-79134285D01*
X98523809Y-79134285D01*
X98428571Y-79181904D01*
X98380952Y-79229523D01*
X98333333Y-79324761D01*
X98333333Y-79515238D01*
X98380952Y-79610476D01*
X98428571Y-79658095D01*
X98523809Y-79705714D01*
G04 #@! TO.C,D1*
X113511904Y-73452380D02*
X113511904Y-72452380D01*
X113750000Y-72452380D01*
X113892857Y-72500000D01*
X113988095Y-72595238D01*
X114035714Y-72690476D01*
X114083333Y-72880952D01*
X114083333Y-73023809D01*
X114035714Y-73214285D01*
X113988095Y-73309523D01*
X113892857Y-73404761D01*
X113750000Y-73452380D01*
X113511904Y-73452380D01*
X115035714Y-73452380D02*
X114464285Y-73452380D01*
X114750000Y-73452380D02*
X114750000Y-72452380D01*
X114654761Y-72595238D01*
X114559523Y-72690476D01*
X114464285Y-72738095D01*
G04 #@! TO.C,J5*
X67496666Y-78242380D02*
X67496666Y-78956666D01*
X67449047Y-79099523D01*
X67353809Y-79194761D01*
X67210952Y-79242380D01*
X67115714Y-79242380D01*
X68449047Y-78242380D02*
X67972857Y-78242380D01*
X67925238Y-78718571D01*
X67972857Y-78670952D01*
X68068095Y-78623333D01*
X68306190Y-78623333D01*
X68401428Y-78670952D01*
X68449047Y-78718571D01*
X68496666Y-78813809D01*
X68496666Y-79051904D01*
X68449047Y-79147142D01*
X68401428Y-79194761D01*
X68306190Y-79242380D01*
X68068095Y-79242380D01*
X67972857Y-79194761D01*
X67925238Y-79147142D01*
G04 #@! TO.C,J6*
X114586666Y-75912380D02*
X114586666Y-76626666D01*
X114539047Y-76769523D01*
X114443809Y-76864761D01*
X114300952Y-76912380D01*
X114205714Y-76912380D01*
X115491428Y-75912380D02*
X115300952Y-75912380D01*
X115205714Y-75960000D01*
X115158095Y-76007619D01*
X115062857Y-76150476D01*
X115015238Y-76340952D01*
X115015238Y-76721904D01*
X115062857Y-76817142D01*
X115110476Y-76864761D01*
X115205714Y-76912380D01*
X115396190Y-76912380D01*
X115491428Y-76864761D01*
X115539047Y-76817142D01*
X115586666Y-76721904D01*
X115586666Y-76483809D01*
X115539047Y-76388571D01*
X115491428Y-76340952D01*
X115396190Y-76293333D01*
X115205714Y-76293333D01*
X115110476Y-76340952D01*
X115062857Y-76388571D01*
X115015238Y-76483809D01*
G04 #@! TO.C,K1*
D16*
X122511835Y-57452423D02*
X122511835Y-56452329D01*
X123083317Y-57452423D02*
X122654705Y-56880941D01*
X123083317Y-56452329D02*
X122511835Y-57023811D01*
X124035788Y-57452423D02*
X123464305Y-57452423D01*
X123750047Y-57452423D02*
X123750047Y-56452329D01*
X123654799Y-56595200D01*
X123559552Y-56690447D01*
X123464305Y-56738070D01*
G04 #@! TO.C,Q2*
D14*
X124404761Y-86297619D02*
X124309523Y-86250000D01*
X124214285Y-86154761D01*
X124071428Y-86011904D01*
X123976190Y-85964285D01*
X123880952Y-85964285D01*
X123928571Y-86202380D02*
X123833333Y-86154761D01*
X123738095Y-86059523D01*
X123690476Y-85869047D01*
X123690476Y-85535714D01*
X123738095Y-85345238D01*
X123833333Y-85250000D01*
X123928571Y-85202380D01*
X124119047Y-85202380D01*
X124214285Y-85250000D01*
X124309523Y-85345238D01*
X124357142Y-85535714D01*
X124357142Y-85869047D01*
X124309523Y-86059523D01*
X124214285Y-86154761D01*
X124119047Y-86202380D01*
X123928571Y-86202380D01*
X124738095Y-85297619D02*
X124785714Y-85250000D01*
X124880952Y-85202380D01*
X125119047Y-85202380D01*
X125214285Y-85250000D01*
X125261904Y-85297619D01*
X125309523Y-85392857D01*
X125309523Y-85488095D01*
X125261904Y-85630952D01*
X124690476Y-86202380D01*
X125309523Y-86202380D01*
G04 #@! TO.C,R7*
X113083833Y-86202380D02*
X112750500Y-85726190D01*
X112512404Y-86202380D02*
X112512404Y-85202380D01*
X112893357Y-85202380D01*
X112988595Y-85250000D01*
X113036214Y-85297619D01*
X113083833Y-85392857D01*
X113083833Y-85535714D01*
X113036214Y-85630952D01*
X112988595Y-85678571D01*
X112893357Y-85726190D01*
X112512404Y-85726190D01*
X113417166Y-85202380D02*
X114083833Y-85202380D01*
X113655261Y-86202380D01*
G04 #@! TO.C,U3*
D16*
X99140476Y-73061904D02*
X99140476Y-73709523D01*
X99178571Y-73785714D01*
X99216666Y-73823809D01*
X99292857Y-73861904D01*
X99445238Y-73861904D01*
X99521428Y-73823809D01*
X99559523Y-73785714D01*
X99597619Y-73709523D01*
X99597619Y-73061904D01*
X99902380Y-73061904D02*
X100397619Y-73061904D01*
X100130952Y-73366666D01*
X100245238Y-73366666D01*
X100321428Y-73404761D01*
X100359523Y-73442857D01*
X100397619Y-73519047D01*
X100397619Y-73709523D01*
X100359523Y-73785714D01*
X100321428Y-73823809D01*
X100245238Y-73861904D01*
X100016666Y-73861904D01*
X99940476Y-73823809D01*
X99902380Y-73785714D01*
G04 #@! TO.C,U4*
D14*
X114738095Y-87952380D02*
X114738095Y-88761904D01*
X114785714Y-88857142D01*
X114833333Y-88904761D01*
X114928571Y-88952380D01*
X115119047Y-88952380D01*
X115214285Y-88904761D01*
X115261904Y-88857142D01*
X115309523Y-88761904D01*
X115309523Y-87952380D01*
X116214285Y-88285714D02*
X116214285Y-88952380D01*
X115976190Y-87904761D02*
X115738095Y-88619047D01*
X116357142Y-88619047D01*
G04 #@! TO.C,J7*
X58892380Y-88513333D02*
X59606666Y-88513333D01*
X59749523Y-88560952D01*
X59844761Y-88656190D01*
X59892380Y-88799047D01*
X59892380Y-88894285D01*
X58892380Y-88132380D02*
X58892380Y-87465714D01*
X59892380Y-87894285D01*
G04 #@! TD*
M02*
