M48
;DRILL file {KiCad (5.0.1)-3} date 6/13/2021 8:30:21 AM
;FORMAT={-:-/ absolute / metric / decimal}
FMAT,2
METRIC,TZ
T1C0.400
T2C0.750
T3C0.762
T4C0.800
T5C0.900
T6C0.990
T7C1.000
T8C1.100
T9C1.200
T10C1.320
T11C1.500
T12C1.520
T13C1.700
T14C2.000
%
G90
G05
M71
T1
X100.75Y-105.
X103.47Y-92.97
X105.53Y-96.515
X106.6Y-80.97
X109.18Y-82.88
X110.35Y-91.79
X115.47Y-91.53
X159.308Y-101.854
X173.Y-101.75
X173.Y-103.75
T2
X180.63Y-103.31
X181.9Y-103.31
X183.17Y-103.31
X102.16Y-86.43
X102.16Y-87.7
X102.16Y-88.97
T4
X109.11Y-77.48
X109.11Y-87.64
X171.85Y-110.32
X171.85Y-112.32
X106.75Y-102.46
X109.25Y-102.46
X101.32Y-79.47
X101.32Y-81.47
X112.13Y-77.51
X112.13Y-87.67
X150.68Y-66.59
X150.68Y-69.13
X150.68Y-71.67
X150.68Y-74.21
X150.68Y-76.75
X150.68Y-79.29
X150.68Y-81.83
X150.68Y-84.37
X150.68Y-86.91
X150.68Y-89.45
X150.68Y-91.99
X150.68Y-94.53
X150.68Y-97.07
X150.68Y-99.61
X150.68Y-102.15
X165.92Y-66.59
X165.92Y-69.13
X165.92Y-71.67
X165.92Y-74.21
X165.92Y-76.75
X165.92Y-79.29
X165.92Y-81.83
X165.92Y-84.37
X165.92Y-86.91
X165.92Y-89.45
X165.92Y-91.99
X165.92Y-94.53
X165.92Y-97.07
X165.92Y-99.61
X165.92Y-102.15
X112.14Y-90.55
X112.14Y-98.17
X106.37Y-65.87
X116.53Y-65.87
X106.37Y-62.87
X116.53Y-62.87
X96.98Y-100.21
X96.98Y-102.71
X106.37Y-69.87
X116.53Y-69.87
X178.Y-110.19
X178.Y-112.19
X100.32Y-92.97
X100.32Y-95.47
X106.24Y-90.57
X108.74Y-90.57
X172.24Y-93.38
X172.24Y-95.92
X179.86Y-93.38
X179.86Y-95.92
X99.39Y-100.17
X99.39Y-102.67
T5
X120.92Y-71.7
X120.92Y-74.24
X123.62Y-110.56
X126.16Y-110.56
T6
X96.97Y-107.76
X96.97Y-112.26
X103.47Y-107.76
X103.47Y-112.26
T7
X137.Y-111.5
X139.54Y-111.5
X146.Y-111.5
X148.54Y-111.5
X162.83Y-111.59
X165.37Y-111.59
X154.Y-111.59
X156.54Y-111.59
T8
X96.32Y-84.47
X96.32Y-94.63
X92.32Y-87.39
X92.32Y-89.93
X92.32Y-92.47
T9
X118.32Y-78.07
X118.32Y-100.47
T10
X172.41Y-74.17
X172.41Y-86.37
X184.41Y-74.17
X184.41Y-86.37
T11
X126.59Y-62.61
X144.37Y-62.61
X144.37Y-103.25
T12
X173.14Y-65.62
X178.22Y-65.62
X183.3Y-65.62
X109.4Y-110.8
X114.48Y-110.8
T13
X178.41Y-88.37
T14
X126.59Y-103.25
T3
X96.38Y-69.261G85X96.38Y-71.499
G05
X98.891Y-75.21G85X101.129Y-75.21
G05
X102.74Y-69.331G85X102.74Y-71.569
G05
T0
M30
