G04 #@! TF.GenerationSoftware,KiCad,Pcbnew,(5.0.1)-3*
G04 #@! TF.CreationDate,2021-06-13T08:30:18+05:45*
G04 #@! TF.ProjectId,Logic-circuit,4C6F6769632D636972637569742E6B69,rev?*
G04 #@! TF.SameCoordinates,Original*
G04 #@! TF.FileFunction,Copper,L2,Bot,Signal*
G04 #@! TF.FilePolarity,Positive*
%FSLAX46Y46*%
G04 Gerber Fmt 4.6, Leading zero omitted, Abs format (unit mm)*
G04 Created by KiCad (PCBNEW (5.0.1)-3) date 6/13/2021 8:30:18 AM*
%MOMM*%
%LPD*%
G01*
G04 APERTURE LIST*
G04 #@! TA.AperFunction,ComponentPad*
%ADD10R,1.600000X1.600000*%
G04 #@! TD*
G04 #@! TA.AperFunction,ComponentPad*
%ADD11O,1.600000X1.600000*%
G04 #@! TD*
G04 #@! TA.AperFunction,ComponentPad*
%ADD12C,1.600000*%
G04 #@! TD*
G04 #@! TA.AperFunction,ComponentPad*
%ADD13R,2.200000X2.200000*%
G04 #@! TD*
G04 #@! TA.AperFunction,ComponentPad*
%ADD14O,2.200000X2.200000*%
G04 #@! TD*
G04 #@! TA.AperFunction,ComponentPad*
%ADD15R,1.800000X1.800000*%
G04 #@! TD*
G04 #@! TA.AperFunction,ComponentPad*
%ADD16C,1.800000*%
G04 #@! TD*
G04 #@! TA.AperFunction,ComponentPad*
%ADD17R,3.000000X3.000000*%
G04 #@! TD*
G04 #@! TA.AperFunction,ComponentPad*
%ADD18C,3.000000*%
G04 #@! TD*
G04 #@! TA.AperFunction,ComponentPad*
%ADD19R,1.700000X1.700000*%
G04 #@! TD*
G04 #@! TA.AperFunction,ComponentPad*
%ADD20O,1.700000X1.700000*%
G04 #@! TD*
G04 #@! TA.AperFunction,ComponentPad*
%ADD21R,1.980000X1.980000*%
G04 #@! TD*
G04 #@! TA.AperFunction,ComponentPad*
%ADD22C,2.300000*%
G04 #@! TD*
G04 #@! TA.AperFunction,ComponentPad*
%ADD23C,1.980000*%
G04 #@! TD*
G04 #@! TA.AperFunction,ComponentPad*
%ADD24O,1.500000X1.050000*%
G04 #@! TD*
G04 #@! TA.AperFunction,ComponentPad*
%ADD25R,1.500000X1.050000*%
G04 #@! TD*
G04 #@! TA.AperFunction,ComponentPad*
%ADD26R,1.050000X1.500000*%
G04 #@! TD*
G04 #@! TA.AperFunction,ComponentPad*
%ADD27O,1.050000X1.500000*%
G04 #@! TD*
G04 #@! TA.AperFunction,ComponentPad*
%ADD28C,2.400000*%
G04 #@! TD*
G04 #@! TA.AperFunction,ComponentPad*
%ADD29O,2.400000X2.400000*%
G04 #@! TD*
G04 #@! TA.AperFunction,ComponentPad*
%ADD30O,1.524000X3.500000*%
G04 #@! TD*
G04 #@! TA.AperFunction,ComponentPad*
%ADD31O,3.500000X1.524000*%
G04 #@! TD*
G04 #@! TA.AperFunction,ComponentPad*
%ADD32R,2.000000X1.905000*%
G04 #@! TD*
G04 #@! TA.AperFunction,ComponentPad*
%ADD33O,2.000000X1.905000*%
G04 #@! TD*
G04 #@! TA.AperFunction,ComponentPad*
%ADD34C,1.498000*%
G04 #@! TD*
G04 #@! TA.AperFunction,ComponentPad*
%ADD35R,1.498000X1.498000*%
G04 #@! TD*
G04 #@! TA.AperFunction,ViaPad*
%ADD36C,0.800000*%
G04 #@! TD*
G04 #@! TA.AperFunction,Conductor*
%ADD37C,0.600000*%
G04 #@! TD*
G04 #@! TA.AperFunction,Conductor*
%ADD38C,1.000000*%
G04 #@! TD*
G04 #@! TA.AperFunction,Conductor*
%ADD39C,1.500000*%
G04 #@! TD*
G04 #@! TA.AperFunction,Conductor*
%ADD40C,0.254000*%
G04 #@! TD*
G04 APERTURE END LIST*
D10*
G04 #@! TO.P,A1,1*
G04 #@! TO.N,N/C*
X165920000Y-102150000D03*
D11*
G04 #@! TO.P,A1,17*
X150680000Y-69130000D03*
G04 #@! TO.P,A1,2*
X165920000Y-99610000D03*
G04 #@! TO.P,A1,18*
X150680000Y-71670000D03*
G04 #@! TO.P,A1,3*
X165920000Y-97070000D03*
G04 #@! TO.P,A1,19*
X150680000Y-74210000D03*
G04 #@! TO.P,A1,4*
G04 #@! TO.N,GND*
X165920000Y-94530000D03*
G04 #@! TO.P,A1,20*
G04 #@! TO.N,N/C*
X150680000Y-76750000D03*
G04 #@! TO.P,A1,5*
X165920000Y-91990000D03*
G04 #@! TO.P,A1,21*
X150680000Y-79290000D03*
G04 #@! TO.P,A1,6*
X165920000Y-89450000D03*
G04 #@! TO.P,A1,22*
X150680000Y-81830000D03*
G04 #@! TO.P,A1,7*
G04 #@! TO.N,GEN1*
X165920000Y-86910000D03*
G04 #@! TO.P,A1,23*
G04 #@! TO.N,N/C*
X150680000Y-84370000D03*
G04 #@! TO.P,A1,8*
G04 #@! TO.N,GEN2*
X165920000Y-84370000D03*
G04 #@! TO.P,A1,24*
G04 #@! TO.N,N/C*
X150680000Y-86910000D03*
G04 #@! TO.P,A1,9*
G04 #@! TO.N,NEA*
X165920000Y-81830000D03*
G04 #@! TO.P,A1,25*
G04 #@! TO.N,N/C*
X150680000Y-89450000D03*
G04 #@! TO.P,A1,10*
G04 #@! TO.N,BUSBAR*
X165920000Y-79290000D03*
G04 #@! TO.P,A1,26*
G04 #@! TO.N,N/C*
X150680000Y-91990000D03*
G04 #@! TO.P,A1,11*
G04 #@! TO.N,LOGIC-OUTPUT*
X165920000Y-76750000D03*
G04 #@! TO.P,A1,27*
G04 #@! TO.N,N/C*
X150680000Y-94530000D03*
G04 #@! TO.P,A1,12*
G04 #@! TO.N,Net-(A1-Pad12)*
X165920000Y-74210000D03*
G04 #@! TO.P,A1,28*
G04 #@! TO.N,N/C*
X150680000Y-97070000D03*
G04 #@! TO.P,A1,13*
X165920000Y-71670000D03*
G04 #@! TO.P,A1,29*
G04 #@! TO.N,GND*
X150680000Y-99610000D03*
G04 #@! TO.P,A1,14*
G04 #@! TO.N,N/C*
X165920000Y-69130000D03*
G04 #@! TO.P,A1,30*
G04 #@! TO.N,7V*
X150680000Y-102150000D03*
G04 #@! TO.P,A1,15*
G04 #@! TO.N,N/C*
X165920000Y-66590000D03*
G04 #@! TO.P,A1,16*
X150680000Y-66590000D03*
G04 #@! TD*
D10*
G04 #@! TO.P,C1,1*
G04 #@! TO.N,Net-(C1-Pad1)*
X101320000Y-81470000D03*
D12*
G04 #@! TO.P,C1,2*
G04 #@! TO.N,GND*
X101320000Y-79470000D03*
G04 #@! TD*
G04 #@! TO.P,C2,1*
G04 #@! TO.N,Net-(C2-Pad1)*
X100320000Y-92970000D03*
G04 #@! TO.P,C2,2*
G04 #@! TO.N,GND*
X100320000Y-95470000D03*
G04 #@! TD*
G04 #@! TO.P,C3,1*
G04 #@! TO.N,Net-(C3-Pad1)*
X99390000Y-100170000D03*
G04 #@! TO.P,C3,2*
G04 #@! TO.N,GND*
X99390000Y-102670000D03*
G04 #@! TD*
G04 #@! TO.P,C4,2*
G04 #@! TO.N,GND*
X96980000Y-102710000D03*
G04 #@! TO.P,C4,1*
G04 #@! TO.N,BAT*
X96980000Y-100210000D03*
G04 #@! TD*
G04 #@! TO.P,C5,2*
G04 #@! TO.N,GND*
X106750000Y-102460000D03*
G04 #@! TO.P,C5,1*
G04 #@! TO.N,Net-(C1-Pad1)*
X109250000Y-102460000D03*
G04 #@! TD*
G04 #@! TO.P,C6,1*
G04 #@! TO.N,Net-(C6-Pad1)*
X106240000Y-90570000D03*
G04 #@! TO.P,C6,2*
G04 #@! TO.N,Net-(C6-Pad2)*
X108740000Y-90570000D03*
G04 #@! TD*
D10*
G04 #@! TO.P,C7,1*
G04 #@! TO.N,7V*
X178000000Y-110190000D03*
D12*
G04 #@! TO.P,C7,2*
G04 #@! TO.N,GND*
X178000000Y-112190000D03*
G04 #@! TD*
G04 #@! TO.P,C8,2*
G04 #@! TO.N,GND*
X171850000Y-112320000D03*
D10*
G04 #@! TO.P,C8,1*
G04 #@! TO.N,5V*
X171850000Y-110320000D03*
G04 #@! TD*
D13*
G04 #@! TO.P,D1,1*
G04 #@! TO.N,Net-(D1-Pad1)*
X96320000Y-84470000D03*
D14*
G04 #@! TO.P,D1,2*
G04 #@! TO.N,Net-(C1-Pad1)*
X96320000Y-94630000D03*
G04 #@! TD*
D15*
G04 #@! TO.P,D2,1*
G04 #@! TO.N,Net-(D2-Pad1)*
X120920000Y-74240000D03*
D16*
G04 #@! TO.P,D2,2*
G04 #@! TO.N,Net-(C1-Pad1)*
X120920000Y-71700000D03*
G04 #@! TD*
D10*
G04 #@! TO.P,D3,1*
G04 #@! TO.N,Net-(D3-Pad1)*
X112140000Y-98170000D03*
D11*
G04 #@! TO.P,D3,2*
G04 #@! TO.N,Net-(D3-Pad2)*
X112140000Y-90550000D03*
G04 #@! TD*
D17*
G04 #@! TO.P,J1,1*
G04 #@! TO.N,BAT*
X114480000Y-110800000D03*
D18*
G04 #@! TO.P,J1,2*
G04 #@! TO.N,GND*
X109400000Y-110800000D03*
G04 #@! TD*
D19*
G04 #@! TO.P,J3,1*
G04 #@! TO.N,GND*
X154000000Y-111590000D03*
D20*
G04 #@! TO.P,J3,2*
G04 #@! TO.N,GEN1*
X156540000Y-111590000D03*
G04 #@! TD*
G04 #@! TO.P,J4,2*
G04 #@! TO.N,GEN2*
X148540000Y-111500000D03*
D19*
G04 #@! TO.P,J4,1*
G04 #@! TO.N,GND*
X146000000Y-111500000D03*
G04 #@! TD*
G04 #@! TO.P,J6,1*
G04 #@! TO.N,GND*
X162830000Y-111590000D03*
D20*
G04 #@! TO.P,J6,2*
G04 #@! TO.N,NEA*
X165370000Y-111590000D03*
G04 #@! TD*
G04 #@! TO.P,J7,2*
G04 #@! TO.N,BUSBAR*
X139540000Y-111500000D03*
D19*
G04 #@! TO.P,J7,1*
G04 #@! TO.N,GND*
X137000000Y-111500000D03*
G04 #@! TD*
D21*
G04 #@! TO.P,K1,A1*
G04 #@! TO.N,5V*
X172410000Y-86370000D03*
D22*
G04 #@! TO.P,K1,COM*
G04 #@! TO.N,Net-(J5-Pad2)*
X178410000Y-88370000D03*
D23*
G04 #@! TO.P,K1,A2*
G04 #@! TO.N,Net-(D4-Pad2)*
X184410000Y-86370000D03*
G04 #@! TO.P,K1,NO*
G04 #@! TO.N,Net-(J5-Pad1)*
X184410000Y-74170000D03*
G04 #@! TO.P,K1,NC*
G04 #@! TO.N,Net-(J5-Pad3)*
X172410000Y-74170000D03*
G04 #@! TD*
D24*
G04 #@! TO.P,Q1,2*
G04 #@! TO.N,Net-(D3-Pad2)*
X102160000Y-87700000D03*
G04 #@! TO.P,Q1,3*
G04 #@! TO.N,GND*
X102160000Y-88970000D03*
D25*
G04 #@! TO.P,Q1,1*
G04 #@! TO.N,Net-(Q1-Pad1)*
X102160000Y-86430000D03*
G04 #@! TD*
D26*
G04 #@! TO.P,Q2,1*
G04 #@! TO.N,Net-(D4-Pad2)*
X180630000Y-103310000D03*
D27*
G04 #@! TO.P,Q2,3*
G04 #@! TO.N,GND*
X183170000Y-103310000D03*
G04 #@! TO.P,Q2,2*
G04 #@! TO.N,Net-(Q2-Pad2)*
X181900000Y-103310000D03*
G04 #@! TD*
D28*
G04 #@! TO.P,R1,1*
G04 #@! TO.N,BAT*
X118320000Y-100470000D03*
D29*
G04 #@! TO.P,R1,2*
G04 #@! TO.N,Net-(C1-Pad1)*
X118320000Y-78070000D03*
G04 #@! TD*
D12*
G04 #@! TO.P,R2,1*
G04 #@! TO.N,Net-(C1-Pad1)*
X106370000Y-69870000D03*
D11*
G04 #@! TO.P,R2,2*
G04 #@! TO.N,Net-(C3-Pad1)*
X116530000Y-69870000D03*
G04 #@! TD*
D12*
G04 #@! TO.P,R3,1*
G04 #@! TO.N,Net-(C3-Pad1)*
X106370000Y-62870000D03*
D11*
G04 #@! TO.P,R3,2*
G04 #@! TO.N,Net-(C2-Pad1)*
X116530000Y-62870000D03*
G04 #@! TD*
D12*
G04 #@! TO.P,R4,1*
G04 #@! TO.N,Net-(D2-Pad1)*
X112130000Y-77510000D03*
D11*
G04 #@! TO.P,R4,2*
G04 #@! TO.N,Net-(Q1-Pad1)*
X112130000Y-87670000D03*
G04 #@! TD*
G04 #@! TO.P,R5,2*
G04 #@! TO.N,Net-(D3-Pad2)*
X116530000Y-65870000D03*
D12*
G04 #@! TO.P,R5,1*
G04 #@! TO.N,Net-(C2-Pad1)*
X106370000Y-65870000D03*
G04 #@! TD*
D11*
G04 #@! TO.P,R6,2*
G04 #@! TO.N,GND*
X109110000Y-77480000D03*
D12*
G04 #@! TO.P,R6,1*
G04 #@! TO.N,Net-(C2-Pad1)*
X109110000Y-87640000D03*
G04 #@! TD*
D10*
G04 #@! TO.P,U5,1*
G04 #@! TO.N,LOGIC-OUTPUT*
X172240000Y-93380000D03*
D11*
G04 #@! TO.P,U5,3*
G04 #@! TO.N,Net-(R9-Pad2)*
X179860000Y-95920000D03*
G04 #@! TO.P,U5,2*
G04 #@! TO.N,GND*
X172240000Y-95920000D03*
G04 #@! TO.P,U5,4*
G04 #@! TO.N,5V*
X179860000Y-93380000D03*
G04 #@! TD*
D30*
G04 #@! TO.P,J2,1*
G04 #@! TO.N,Net-(D1-Pad1)*
X102740000Y-70450000D03*
G04 #@! TO.P,J2,2*
G04 #@! TO.N,GND*
X96380000Y-70380000D03*
D31*
G04 #@! TO.P,J2,3*
G04 #@! TO.N,N/C*
X100010000Y-75210000D03*
G04 #@! TD*
D18*
G04 #@! TO.P,U2,4*
G04 #@! TO.N,GND*
X144370000Y-103250000D03*
G04 #@! TO.P,U2,3*
G04 #@! TO.N,BAT*
X126590000Y-103250000D03*
G04 #@! TO.P,U2,2*
G04 #@! TO.N,GND*
X144370000Y-62610000D03*
G04 #@! TO.P,U2,1*
G04 #@! TO.N,7V*
X126590000Y-62610000D03*
G04 #@! TD*
D32*
G04 #@! TO.P,U1,1*
G04 #@! TO.N,Net-(C2-Pad1)*
X92320000Y-92470000D03*
D33*
G04 #@! TO.P,U1,2*
G04 #@! TO.N,Net-(C1-Pad1)*
X92320000Y-89930000D03*
G04 #@! TO.P,U1,3*
G04 #@! TO.N,Net-(D1-Pad1)*
X92320000Y-87390000D03*
G04 #@! TD*
D15*
G04 #@! TO.P,D5,1*
G04 #@! TO.N,Net-(D5-Pad1)*
X126160000Y-110560000D03*
D16*
G04 #@! TO.P,D5,2*
G04 #@! TO.N,Net-(A1-Pad12)*
X123620000Y-110560000D03*
G04 #@! TD*
D17*
G04 #@! TO.P,J5,1*
G04 #@! TO.N,Net-(J5-Pad1)*
X183300000Y-65620000D03*
D18*
G04 #@! TO.P,J5,2*
G04 #@! TO.N,Net-(J5-Pad2)*
X178220000Y-65620000D03*
G04 #@! TO.P,J5,3*
G04 #@! TO.N,Net-(J5-Pad3)*
X173140000Y-65620000D03*
G04 #@! TD*
D34*
G04 #@! TO.P,SW1,3*
G04 #@! TO.N,N/C*
X96970000Y-112260000D03*
D35*
G04 #@! TO.P,SW1,1*
G04 #@! TO.N,GND*
X96970000Y-107760000D03*
D34*
G04 #@! TO.P,SW1,4*
G04 #@! TO.N,N/C*
X103470000Y-112260000D03*
G04 #@! TO.P,SW1,2*
G04 #@! TO.N,Net-(C6-Pad1)*
X103470000Y-107760000D03*
G04 #@! TD*
D36*
G04 #@! TO.N,GEN2*
X159307500Y-101854400D03*
G04 #@! TO.N,Net-(C2-Pad1)*
X106600000Y-80970000D03*
X109180000Y-82880000D03*
G04 #@! TO.N,Net-(C3-Pad1)*
X100750000Y-105000000D03*
G04 #@! TO.N,Net-(C6-Pad2)*
X110350000Y-91790000D03*
X115470000Y-91530000D03*
G04 #@! TO.N,Net-(C6-Pad1)*
X103470000Y-92970000D03*
G04 #@! TO.N,BAT*
X105530300Y-96515000D03*
G04 #@! TO.N,5V*
X173000000Y-101750000D03*
X173000000Y-103750000D03*
G04 #@! TD*
D37*
G04 #@! TO.N,GND*
X96380000Y-70380000D02*
X96380000Y-74530000D01*
X96380000Y-74530000D02*
X101320000Y-79470000D01*
G04 #@! TO.N,LOGIC-OUTPUT*
X172240000Y-91980000D02*
X172240000Y-93380000D01*
X170000000Y-89740000D02*
X172240000Y-91980000D01*
X170000000Y-77250000D02*
X170000000Y-89740000D01*
X165920000Y-76750000D02*
X169500000Y-76750000D01*
X169500000Y-76750000D02*
X170000000Y-77250000D01*
G04 #@! TO.N,GEN1*
X156540000Y-111590000D02*
X156540000Y-110140000D01*
X164788630Y-86910000D02*
X164698630Y-87000000D01*
X165920000Y-86910000D02*
X164788630Y-86910000D01*
X164698630Y-87000000D02*
X161500000Y-87000000D01*
X160750000Y-87750000D02*
X160750000Y-105930000D01*
X161500000Y-87000000D02*
X160750000Y-87750000D01*
X160750000Y-105930000D02*
X156540000Y-110140000D01*
G04 #@! TO.N,GEN2*
X159307500Y-101854400D02*
X159307500Y-90982500D01*
X164788630Y-84370000D02*
X164658630Y-84500000D01*
X165920000Y-84370000D02*
X164788630Y-84370000D01*
X164658630Y-84500000D02*
X160250000Y-84500000D01*
X159307500Y-85442500D02*
X159307500Y-90982500D01*
X160250000Y-84500000D02*
X159307500Y-85442500D01*
G04 #@! TO.N,NEA*
X165920000Y-81830000D02*
X167830000Y-81830000D01*
X167830000Y-81830000D02*
X168500000Y-82500000D01*
X168500000Y-82500000D02*
X168500000Y-110750000D01*
X167660000Y-111590000D02*
X165370000Y-111590000D01*
X168500000Y-110750000D02*
X167660000Y-111590000D01*
G04 #@! TO.N,BUSBAR*
X140990000Y-111500000D02*
X139540000Y-111500000D01*
X159960000Y-79290000D02*
X158300000Y-80950000D01*
X165920000Y-79290000D02*
X159960000Y-79290000D01*
X158300000Y-80950000D02*
X158300000Y-103657400D01*
X158300000Y-103657400D02*
X149069700Y-112887700D01*
X149069700Y-112887700D02*
X142377700Y-112887700D01*
X142377700Y-112887700D02*
X140990000Y-111500000D01*
G04 #@! TO.N,Net-(C1-Pad1)*
X101320000Y-81470000D02*
X101320000Y-82870000D01*
X101320000Y-82870000D02*
X96320000Y-87870000D01*
X96320000Y-87870000D02*
X96320000Y-89930000D01*
X106370000Y-69870000D02*
X106370000Y-76420000D01*
X106370000Y-76420000D02*
X101320000Y-81470000D01*
X96320000Y-93780000D02*
X96320000Y-89930000D01*
X93920000Y-89930000D02*
X96320000Y-89930000D01*
X96320000Y-94630000D02*
X96320000Y-93780000D01*
X118320000Y-78070000D02*
X118638200Y-77751800D01*
X118638200Y-77751800D02*
X118638200Y-73981800D01*
X118638200Y-73981800D02*
X120920000Y-71700000D01*
X92320000Y-89930000D02*
X93920000Y-89930000D01*
X118320000Y-86227300D02*
X118320000Y-78070000D01*
X109250000Y-103591370D02*
X111008630Y-105350000D01*
X109250000Y-102460000D02*
X109250000Y-103591370D01*
X111008630Y-105350000D02*
X119370000Y-105350000D01*
X119370000Y-105350000D02*
X122070000Y-102650000D01*
X122070000Y-92490000D02*
X118320000Y-88740000D01*
X122070000Y-102650000D02*
X122070000Y-92490000D01*
X118320000Y-88740000D02*
X118320000Y-86227300D01*
G04 #@! TO.N,Net-(C2-Pad1)*
X106370000Y-65870000D02*
X107698200Y-67198200D01*
X107698200Y-67198200D02*
X107698200Y-78551800D01*
X100320000Y-85930000D02*
X100320000Y-92970000D01*
X106570000Y-81000000D02*
X106600000Y-80970000D01*
X105250000Y-81000000D02*
X106570000Y-81000000D01*
X105250000Y-81000000D02*
X100320000Y-85930000D01*
X107698200Y-78551800D02*
X105250000Y-81000000D01*
X109180000Y-87570000D02*
X109110000Y-87640000D01*
X109180000Y-82880000D02*
X109180000Y-87570000D01*
G04 #@! TO.N,Net-(C3-Pad1)*
X106370000Y-62870000D02*
X108130000Y-62870000D01*
X108130000Y-62870000D02*
X115130000Y-69870000D01*
X116530000Y-69870000D02*
X115130000Y-69870000D01*
X94750000Y-105000000D02*
X100750000Y-105000000D01*
X94250000Y-98250000D02*
X94250000Y-104500000D01*
X95250000Y-97250000D02*
X94250000Y-98250000D01*
X102428100Y-96321900D02*
X101500000Y-97250000D01*
X101500000Y-97250000D02*
X95250000Y-97250000D01*
X115130000Y-69870000D02*
X110605100Y-74394900D01*
X110605100Y-74394900D02*
X110605100Y-78810400D01*
X104729700Y-84685800D02*
X104729700Y-89524500D01*
X94250000Y-104500000D02*
X94750000Y-105000000D01*
X104729700Y-89524500D02*
X102428100Y-91826100D01*
X110605100Y-78810400D02*
X104729700Y-84685800D01*
X102428100Y-91826100D02*
X102428100Y-96321900D01*
G04 #@! TO.N,Net-(C6-Pad2)*
X113744315Y-92690000D02*
X113090000Y-92690000D01*
X114904315Y-91530000D02*
X113744315Y-92690000D01*
X115470000Y-91530000D02*
X114904315Y-91530000D01*
X111250000Y-92690000D02*
X111610000Y-92690000D01*
X110350000Y-91790000D02*
X111250000Y-92690000D01*
X111360000Y-92690000D02*
X111610000Y-92690000D01*
X111610000Y-92690000D02*
X113090000Y-92690000D01*
G04 #@! TO.N,Net-(C6-Pad1)*
X103470000Y-107760000D02*
X103470000Y-94335100D01*
X105996270Y-91945100D02*
X105860000Y-91945100D01*
X106240000Y-91701370D02*
X105996270Y-91945100D01*
X106240000Y-90570000D02*
X106240000Y-91701370D01*
X103470000Y-94335100D02*
X105860000Y-91945100D01*
X105860000Y-91945100D02*
X106030000Y-91775100D01*
X103840000Y-92970000D02*
X106240000Y-90570000D01*
X103470000Y-92970000D02*
X103840000Y-92970000D01*
G04 #@! TO.N,Net-(D1-Pad1)*
X102740000Y-70450000D02*
X102740000Y-68100000D01*
X102740000Y-68100000D02*
X99640000Y-65000000D01*
X99640000Y-65000000D02*
X96000000Y-65000000D01*
X96000000Y-65000000D02*
X92000000Y-69000000D01*
X96320000Y-82770000D02*
X96320000Y-84470000D01*
X92000000Y-78450000D02*
X96320000Y-82770000D01*
X92000000Y-69000000D02*
X92000000Y-78450000D01*
X96320000Y-84470000D02*
X92530000Y-84470000D01*
X92320000Y-84680000D02*
X92320000Y-87390000D01*
X92530000Y-84470000D02*
X92320000Y-84680000D01*
G04 #@! TO.N,Net-(D3-Pad2)*
X116530000Y-67270000D02*
X116530000Y-65870000D01*
X113271370Y-90550000D02*
X114920000Y-88901370D01*
X114920000Y-88901370D02*
X114920000Y-78651800D01*
X114920000Y-78651800D02*
X117837800Y-75734000D01*
X112140000Y-90550000D02*
X113271370Y-90550000D01*
X117837800Y-75734000D02*
X117837800Y-68577800D01*
X117837800Y-68577800D02*
X116530000Y-67270000D01*
D38*
G04 #@! TO.N,BAT*
X116400000Y-102390000D02*
X118320000Y-100470000D01*
X112480000Y-102390000D02*
X116400000Y-102390000D01*
D37*
X106605000Y-96515000D02*
X112480000Y-102390000D01*
X105530300Y-96515000D02*
X106605000Y-96515000D01*
G04 #@! TO.N,7V*
X126590000Y-62610000D02*
X126590000Y-78060000D01*
X126590000Y-78060000D02*
X150680000Y-102150000D01*
G04 #@! TO.N,5V*
X173000000Y-101750000D02*
X173000000Y-103750000D01*
X172410000Y-88540000D02*
X177250000Y-93380000D01*
X172410000Y-86370000D02*
X172410000Y-88540000D01*
X177250000Y-93380000D02*
X179860000Y-93380000D01*
D39*
G04 #@! TO.N,Net-(J5-Pad1)*
X183300000Y-73060000D02*
X184410000Y-74170000D01*
X183300000Y-65620000D02*
X183300000Y-73060000D01*
D37*
G04 #@! TO.N,Net-(A1-Pad12)*
X164748630Y-74250000D02*
X164788630Y-74210000D01*
X158250000Y-74250000D02*
X164748630Y-74250000D01*
X155982000Y-103018000D02*
X155982000Y-76518000D01*
X153500000Y-105500000D02*
X155982000Y-103018000D01*
X148750000Y-105500000D02*
X153500000Y-105500000D01*
X164788630Y-74210000D02*
X165920000Y-74210000D01*
X147533100Y-104283100D02*
X148750000Y-105500000D01*
X123620000Y-110560000D02*
X123620000Y-107630000D01*
X123620000Y-107630000D02*
X125000000Y-106250000D01*
X155982000Y-76518000D02*
X158250000Y-74250000D01*
X147533100Y-101283100D02*
X147533100Y-104283100D01*
X130250000Y-106250000D02*
X138250000Y-98250000D01*
X125000000Y-106250000D02*
X130250000Y-106250000D01*
X138250000Y-98250000D02*
X144500000Y-98250000D01*
X144500000Y-98250000D02*
X147533100Y-101283100D01*
G04 #@! TO.N,Net-(J5-Pad2)*
X178220000Y-88180000D02*
X178410000Y-88370000D01*
D39*
X178220000Y-65620000D02*
X178220000Y-88180000D01*
G04 #@! TO.N,Net-(J5-Pad3)*
X173140000Y-67741320D02*
X173150000Y-67751320D01*
X173150000Y-67751320D02*
X172410000Y-68491320D01*
X172410000Y-68491320D02*
X172410000Y-74170000D01*
X173140000Y-65620000D02*
X173140000Y-67741320D01*
G04 #@! TD*
D40*
G04 #@! TO.N,GND*
G36*
X89927612Y-60735000D02*
X125537626Y-60735000D01*
X125380620Y-60800034D01*
X124780034Y-61400620D01*
X124455000Y-62185322D01*
X124455000Y-63034678D01*
X124780034Y-63819380D01*
X125380620Y-64419966D01*
X125655000Y-64533618D01*
X125655001Y-77967909D01*
X125636683Y-78060000D01*
X125709250Y-78424818D01*
X125836929Y-78615903D01*
X125915904Y-78734097D01*
X125993970Y-78786259D01*
X144505484Y-97297774D01*
X144500000Y-97296683D01*
X144407914Y-97315000D01*
X138342080Y-97315000D01*
X138249999Y-97296684D01*
X138157918Y-97315000D01*
X138157914Y-97315000D01*
X137885181Y-97369250D01*
X137575903Y-97575903D01*
X137523741Y-97653969D01*
X129862711Y-105315000D01*
X127183673Y-105315000D01*
X127799380Y-105059966D01*
X128399966Y-104459380D01*
X128725000Y-103674678D01*
X128725000Y-102825322D01*
X128399966Y-102040620D01*
X127799380Y-101440034D01*
X127014678Y-101115000D01*
X126165322Y-101115000D01*
X125380620Y-101440034D01*
X124780034Y-102040620D01*
X124455000Y-102825322D01*
X124455000Y-103674678D01*
X124780034Y-104459380D01*
X125380620Y-105059966D01*
X125996327Y-105315000D01*
X125092086Y-105315000D01*
X125000000Y-105296683D01*
X124907914Y-105315000D01*
X124635181Y-105369250D01*
X124325903Y-105575903D01*
X124273741Y-105653969D01*
X123023970Y-106903741D01*
X122945904Y-106955903D01*
X122893742Y-107033969D01*
X122893741Y-107033970D01*
X122739250Y-107265182D01*
X122666683Y-107630000D01*
X122685001Y-107722090D01*
X122685000Y-109324183D01*
X122318690Y-109690493D01*
X122085000Y-110254670D01*
X122085000Y-110865330D01*
X122318690Y-111429507D01*
X122750493Y-111861310D01*
X123314670Y-112095000D01*
X123925330Y-112095000D01*
X124489507Y-111861310D01*
X124658725Y-111692092D01*
X124661843Y-111707765D01*
X124802191Y-111917809D01*
X125012235Y-112058157D01*
X125260000Y-112107440D01*
X127060000Y-112107440D01*
X127307765Y-112058157D01*
X127517809Y-111917809D01*
X127606048Y-111785750D01*
X135515000Y-111785750D01*
X135515000Y-112476309D01*
X135611673Y-112709698D01*
X135790301Y-112888327D01*
X136023690Y-112985000D01*
X136714250Y-112985000D01*
X136873000Y-112826250D01*
X136873000Y-111627000D01*
X135673750Y-111627000D01*
X135515000Y-111785750D01*
X127606048Y-111785750D01*
X127658157Y-111707765D01*
X127707440Y-111460000D01*
X127707440Y-110523691D01*
X135515000Y-110523691D01*
X135515000Y-111214250D01*
X135673750Y-111373000D01*
X136873000Y-111373000D01*
X136873000Y-110173750D01*
X136714250Y-110015000D01*
X136023690Y-110015000D01*
X135790301Y-110111673D01*
X135611673Y-110290302D01*
X135515000Y-110523691D01*
X127707440Y-110523691D01*
X127707440Y-109660000D01*
X127658157Y-109412235D01*
X127517809Y-109202191D01*
X127307765Y-109061843D01*
X127060000Y-109012560D01*
X125260000Y-109012560D01*
X125012235Y-109061843D01*
X124802191Y-109202191D01*
X124661843Y-109412235D01*
X124658725Y-109427908D01*
X124555000Y-109324183D01*
X124555000Y-108017289D01*
X125387290Y-107185000D01*
X130157914Y-107185000D01*
X130250000Y-107203317D01*
X130342086Y-107185000D01*
X130614819Y-107130750D01*
X130924097Y-106924097D01*
X130976261Y-106846028D01*
X133058319Y-104763970D01*
X143035635Y-104763970D01*
X143195418Y-105082739D01*
X143986187Y-105392723D01*
X144835387Y-105376497D01*
X145544582Y-105082739D01*
X145704365Y-104763970D01*
X144370000Y-103429605D01*
X143035635Y-104763970D01*
X133058319Y-104763970D01*
X134956102Y-102866187D01*
X142227277Y-102866187D01*
X142243503Y-103715387D01*
X142537261Y-104424582D01*
X142856030Y-104584365D01*
X144190395Y-103250000D01*
X144549605Y-103250000D01*
X145883970Y-104584365D01*
X146202739Y-104424582D01*
X146512723Y-103633813D01*
X146496497Y-102784613D01*
X146202739Y-102075418D01*
X145883970Y-101915635D01*
X144549605Y-103250000D01*
X144190395Y-103250000D01*
X142856030Y-101915635D01*
X142537261Y-102075418D01*
X142227277Y-102866187D01*
X134956102Y-102866187D01*
X136086259Y-101736030D01*
X143035635Y-101736030D01*
X144370000Y-103070395D01*
X145704365Y-101736030D01*
X145544582Y-101417261D01*
X144753813Y-101107277D01*
X143904613Y-101123503D01*
X143195418Y-101417261D01*
X143035635Y-101736030D01*
X136086259Y-101736030D01*
X138637290Y-99185000D01*
X144112711Y-99185000D01*
X146598100Y-101670390D01*
X146598101Y-104191010D01*
X146579783Y-104283100D01*
X146652350Y-104647918D01*
X146652351Y-104647919D01*
X146859004Y-104957197D01*
X146937070Y-105009359D01*
X148023741Y-106096031D01*
X148075903Y-106174097D01*
X148385181Y-106380750D01*
X148657914Y-106435000D01*
X148657918Y-106435000D01*
X148749999Y-106453316D01*
X148842080Y-106435000D01*
X153407914Y-106435000D01*
X153500000Y-106453317D01*
X153592086Y-106435000D01*
X153864819Y-106380750D01*
X154174097Y-106174097D01*
X154226261Y-106096028D01*
X156578031Y-103744259D01*
X156656097Y-103692097D01*
X156862750Y-103382819D01*
X156889959Y-103246030D01*
X156935317Y-103018001D01*
X156917000Y-102925915D01*
X156917000Y-76905289D01*
X158637290Y-75185000D01*
X164656544Y-75185000D01*
X164748630Y-75203317D01*
X164840716Y-75185000D01*
X164845040Y-75184140D01*
X164885423Y-75244577D01*
X165237758Y-75480000D01*
X164885423Y-75715423D01*
X164568260Y-76190091D01*
X164456887Y-76750000D01*
X164568260Y-77309909D01*
X164885423Y-77784577D01*
X165237758Y-78020000D01*
X164885423Y-78255423D01*
X164818888Y-78355000D01*
X160052086Y-78355000D01*
X159960000Y-78336683D01*
X159867914Y-78355000D01*
X159595181Y-78409250D01*
X159285903Y-78615903D01*
X159233739Y-78693972D01*
X157703972Y-80223739D01*
X157625903Y-80275903D01*
X157419251Y-80585181D01*
X157419250Y-80585182D01*
X157346683Y-80950000D01*
X157365000Y-81042086D01*
X157365001Y-103270109D01*
X149848993Y-110786118D01*
X149610625Y-110429375D01*
X149119418Y-110101161D01*
X148686256Y-110015000D01*
X148393744Y-110015000D01*
X147960582Y-110101161D01*
X147469375Y-110429375D01*
X147454904Y-110451033D01*
X147388327Y-110290302D01*
X147209699Y-110111673D01*
X146976310Y-110015000D01*
X146285750Y-110015000D01*
X146127000Y-110173750D01*
X146127000Y-111373000D01*
X146147000Y-111373000D01*
X146147000Y-111627000D01*
X146127000Y-111627000D01*
X146127000Y-111647000D01*
X145873000Y-111647000D01*
X145873000Y-111627000D01*
X144673750Y-111627000D01*
X144515000Y-111785750D01*
X144515000Y-111952700D01*
X142764990Y-111952700D01*
X141716261Y-110903972D01*
X141664097Y-110825903D01*
X141354819Y-110619250D01*
X141082086Y-110565000D01*
X140990000Y-110546683D01*
X140897914Y-110565000D01*
X140701247Y-110565000D01*
X140673646Y-110523691D01*
X144515000Y-110523691D01*
X144515000Y-111214250D01*
X144673750Y-111373000D01*
X145873000Y-111373000D01*
X145873000Y-110173750D01*
X145714250Y-110015000D01*
X145023690Y-110015000D01*
X144790301Y-110111673D01*
X144611673Y-110290302D01*
X144515000Y-110523691D01*
X140673646Y-110523691D01*
X140610625Y-110429375D01*
X140119418Y-110101161D01*
X139686256Y-110015000D01*
X139393744Y-110015000D01*
X138960582Y-110101161D01*
X138469375Y-110429375D01*
X138454904Y-110451033D01*
X138388327Y-110290302D01*
X138209699Y-110111673D01*
X137976310Y-110015000D01*
X137285750Y-110015000D01*
X137127000Y-110173750D01*
X137127000Y-111373000D01*
X137147000Y-111373000D01*
X137147000Y-111627000D01*
X137127000Y-111627000D01*
X137127000Y-112826250D01*
X137285750Y-112985000D01*
X137976310Y-112985000D01*
X138209699Y-112888327D01*
X138388327Y-112709698D01*
X138454904Y-112548967D01*
X138469375Y-112570625D01*
X138960582Y-112898839D01*
X139393744Y-112985000D01*
X139686256Y-112985000D01*
X140119418Y-112898839D01*
X140610625Y-112570625D01*
X140661779Y-112494068D01*
X141651441Y-113483731D01*
X141703603Y-113561797D01*
X141853546Y-113661986D01*
X142012881Y-113768450D01*
X142377699Y-113841017D01*
X142469785Y-113822700D01*
X148977614Y-113822700D01*
X149069700Y-113841017D01*
X149161786Y-113822700D01*
X149434519Y-113768450D01*
X149743797Y-113561797D01*
X149795961Y-113483728D01*
X151403939Y-111875750D01*
X152515000Y-111875750D01*
X152515000Y-112566309D01*
X152611673Y-112799698D01*
X152790301Y-112978327D01*
X153023690Y-113075000D01*
X153714250Y-113075000D01*
X153873000Y-112916250D01*
X153873000Y-111717000D01*
X152673750Y-111717000D01*
X152515000Y-111875750D01*
X151403939Y-111875750D01*
X152515000Y-110764689D01*
X152515000Y-111304250D01*
X152673750Y-111463000D01*
X153873000Y-111463000D01*
X153873000Y-110263750D01*
X153714250Y-110105000D01*
X153174689Y-110105000D01*
X158896031Y-104383659D01*
X158974097Y-104331497D01*
X159180750Y-104022219D01*
X159235000Y-103749486D01*
X159235000Y-103749482D01*
X159253316Y-103657401D01*
X159235000Y-103565320D01*
X159235000Y-102889400D01*
X159513374Y-102889400D01*
X159815001Y-102764462D01*
X159815001Y-105542709D01*
X155943970Y-109413741D01*
X155865904Y-109465903D01*
X155813742Y-109543969D01*
X155813741Y-109543970D01*
X155659250Y-109775182D01*
X155586683Y-110140000D01*
X155605001Y-110232090D01*
X155605001Y-110428753D01*
X155469375Y-110519375D01*
X155454904Y-110541033D01*
X155388327Y-110380302D01*
X155209699Y-110201673D01*
X154976310Y-110105000D01*
X154285750Y-110105000D01*
X154127000Y-110263750D01*
X154127000Y-111463000D01*
X154147000Y-111463000D01*
X154147000Y-111717000D01*
X154127000Y-111717000D01*
X154127000Y-112916250D01*
X154285750Y-113075000D01*
X154976310Y-113075000D01*
X155209699Y-112978327D01*
X155388327Y-112799698D01*
X155454904Y-112638967D01*
X155469375Y-112660625D01*
X155960582Y-112988839D01*
X156393744Y-113075000D01*
X156686256Y-113075000D01*
X157119418Y-112988839D01*
X157610625Y-112660625D01*
X157938839Y-112169418D01*
X157997252Y-111875750D01*
X161345000Y-111875750D01*
X161345000Y-112566309D01*
X161441673Y-112799698D01*
X161620301Y-112978327D01*
X161853690Y-113075000D01*
X162544250Y-113075000D01*
X162703000Y-112916250D01*
X162703000Y-111717000D01*
X161503750Y-111717000D01*
X161345000Y-111875750D01*
X157997252Y-111875750D01*
X158054092Y-111590000D01*
X157938839Y-111010582D01*
X157673645Y-110613691D01*
X161345000Y-110613691D01*
X161345000Y-111304250D01*
X161503750Y-111463000D01*
X162703000Y-111463000D01*
X162703000Y-110263750D01*
X162544250Y-110105000D01*
X161853690Y-110105000D01*
X161620301Y-110201673D01*
X161441673Y-110380302D01*
X161345000Y-110613691D01*
X157673645Y-110613691D01*
X157610625Y-110519375D01*
X157534068Y-110468221D01*
X161346031Y-106656259D01*
X161424097Y-106604097D01*
X161630750Y-106294819D01*
X161685000Y-106022086D01*
X161703317Y-105930001D01*
X161685000Y-105837915D01*
X161685000Y-97070000D01*
X164456887Y-97070000D01*
X164568260Y-97629909D01*
X164885423Y-98104577D01*
X165237758Y-98340000D01*
X164885423Y-98575423D01*
X164568260Y-99050091D01*
X164456887Y-99610000D01*
X164568260Y-100169909D01*
X164885423Y-100644577D01*
X165006106Y-100725215D01*
X164872235Y-100751843D01*
X164662191Y-100892191D01*
X164521843Y-101102235D01*
X164472560Y-101350000D01*
X164472560Y-102950000D01*
X164521843Y-103197765D01*
X164662191Y-103407809D01*
X164872235Y-103548157D01*
X165120000Y-103597440D01*
X166720000Y-103597440D01*
X166967765Y-103548157D01*
X167177809Y-103407809D01*
X167318157Y-103197765D01*
X167367440Y-102950000D01*
X167367440Y-101350000D01*
X167318157Y-101102235D01*
X167177809Y-100892191D01*
X166967765Y-100751843D01*
X166833894Y-100725215D01*
X166954577Y-100644577D01*
X167271740Y-100169909D01*
X167383113Y-99610000D01*
X167271740Y-99050091D01*
X166954577Y-98575423D01*
X166602242Y-98340000D01*
X166954577Y-98104577D01*
X167271740Y-97629909D01*
X167383113Y-97070000D01*
X167271740Y-96510091D01*
X166954577Y-96035423D01*
X166570892Y-95779053D01*
X166775134Y-95682389D01*
X167151041Y-95267423D01*
X167311904Y-94879039D01*
X167189915Y-94657000D01*
X166047000Y-94657000D01*
X166047000Y-94677000D01*
X165793000Y-94677000D01*
X165793000Y-94657000D01*
X164650085Y-94657000D01*
X164528096Y-94879039D01*
X164688959Y-95267423D01*
X165064866Y-95682389D01*
X165269108Y-95779053D01*
X164885423Y-96035423D01*
X164568260Y-96510091D01*
X164456887Y-97070000D01*
X161685000Y-97070000D01*
X161685000Y-88137289D01*
X161887290Y-87935000D01*
X164606544Y-87935000D01*
X164698630Y-87953317D01*
X164790716Y-87935000D01*
X164868664Y-87919495D01*
X164885423Y-87944577D01*
X165237758Y-88180000D01*
X164885423Y-88415423D01*
X164568260Y-88890091D01*
X164456887Y-89450000D01*
X164568260Y-90009909D01*
X164885423Y-90484577D01*
X165237758Y-90720000D01*
X164885423Y-90955423D01*
X164568260Y-91430091D01*
X164456887Y-91990000D01*
X164568260Y-92549909D01*
X164885423Y-93024577D01*
X165269108Y-93280947D01*
X165064866Y-93377611D01*
X164688959Y-93792577D01*
X164528096Y-94180961D01*
X164650085Y-94403000D01*
X165793000Y-94403000D01*
X165793000Y-94383000D01*
X166047000Y-94383000D01*
X166047000Y-94403000D01*
X167189915Y-94403000D01*
X167311904Y-94180961D01*
X167151041Y-93792577D01*
X166775134Y-93377611D01*
X166570892Y-93280947D01*
X166954577Y-93024577D01*
X167271740Y-92549909D01*
X167383113Y-91990000D01*
X167271740Y-91430091D01*
X166954577Y-90955423D01*
X166602242Y-90720000D01*
X166954577Y-90484577D01*
X167271740Y-90009909D01*
X167383113Y-89450000D01*
X167271740Y-88890091D01*
X166954577Y-88415423D01*
X166602242Y-88180000D01*
X166954577Y-87944577D01*
X167271740Y-87469909D01*
X167383113Y-86910000D01*
X167271740Y-86350091D01*
X166954577Y-85875423D01*
X166602242Y-85640000D01*
X166954577Y-85404577D01*
X167271740Y-84929909D01*
X167383113Y-84370000D01*
X167271740Y-83810091D01*
X166954577Y-83335423D01*
X166602242Y-83100000D01*
X166954577Y-82864577D01*
X167021112Y-82765000D01*
X167442711Y-82765000D01*
X167565000Y-82887290D01*
X167565001Y-110362709D01*
X167272711Y-110655000D01*
X166531247Y-110655000D01*
X166440625Y-110519375D01*
X165949418Y-110191161D01*
X165516256Y-110105000D01*
X165223744Y-110105000D01*
X164790582Y-110191161D01*
X164299375Y-110519375D01*
X164284904Y-110541033D01*
X164218327Y-110380302D01*
X164039699Y-110201673D01*
X163806310Y-110105000D01*
X163115750Y-110105000D01*
X162957000Y-110263750D01*
X162957000Y-111463000D01*
X162977000Y-111463000D01*
X162977000Y-111717000D01*
X162957000Y-111717000D01*
X162957000Y-112916250D01*
X163115750Y-113075000D01*
X163806310Y-113075000D01*
X164039699Y-112978327D01*
X164218327Y-112799698D01*
X164284904Y-112638967D01*
X164299375Y-112660625D01*
X164790582Y-112988839D01*
X165223744Y-113075000D01*
X165516256Y-113075000D01*
X165949418Y-112988839D01*
X166440625Y-112660625D01*
X166531247Y-112525000D01*
X167567914Y-112525000D01*
X167660000Y-112543317D01*
X167752086Y-112525000D01*
X168024819Y-112470750D01*
X168334097Y-112264097D01*
X168386261Y-112186028D01*
X168873000Y-111699289D01*
X168873000Y-114265000D01*
X89927612Y-114265000D01*
X89906013Y-114269296D01*
X89639973Y-114231197D01*
X89308888Y-114080661D01*
X89033361Y-113843251D01*
X88835544Y-113538056D01*
X88724300Y-113166083D01*
X88722141Y-113137033D01*
X88735000Y-113072388D01*
X88735000Y-112154887D01*
X88765000Y-112154887D01*
X88765000Y-112845113D01*
X89029138Y-113482799D01*
X89517201Y-113970862D01*
X90154887Y-114235000D01*
X90845113Y-114235000D01*
X91482799Y-113970862D01*
X91970862Y-113482799D01*
X92235000Y-112845113D01*
X92235000Y-112154887D01*
X92164509Y-111984705D01*
X95586000Y-111984705D01*
X95586000Y-112535295D01*
X95796702Y-113043973D01*
X96186027Y-113433298D01*
X96694705Y-113644000D01*
X97245295Y-113644000D01*
X97753973Y-113433298D01*
X98143298Y-113043973D01*
X98354000Y-112535295D01*
X98354000Y-111984705D01*
X102086000Y-111984705D01*
X102086000Y-112535295D01*
X102296702Y-113043973D01*
X102686027Y-113433298D01*
X103194705Y-113644000D01*
X103745295Y-113644000D01*
X104253973Y-113433298D01*
X104643298Y-113043973D01*
X104854000Y-112535295D01*
X104854000Y-112313970D01*
X108065635Y-112313970D01*
X108225418Y-112632739D01*
X109016187Y-112942723D01*
X109865387Y-112926497D01*
X110574582Y-112632739D01*
X110734365Y-112313970D01*
X109400000Y-110979605D01*
X108065635Y-112313970D01*
X104854000Y-112313970D01*
X104854000Y-111984705D01*
X104643298Y-111476027D01*
X104253973Y-111086702D01*
X103745295Y-110876000D01*
X103194705Y-110876000D01*
X102686027Y-111086702D01*
X102296702Y-111476027D01*
X102086000Y-111984705D01*
X98354000Y-111984705D01*
X98143298Y-111476027D01*
X97753973Y-111086702D01*
X97245295Y-110876000D01*
X96694705Y-110876000D01*
X96186027Y-111086702D01*
X95796702Y-111476027D01*
X95586000Y-111984705D01*
X92164509Y-111984705D01*
X91970862Y-111517201D01*
X91482799Y-111029138D01*
X90845113Y-110765000D01*
X90154887Y-110765000D01*
X89517201Y-111029138D01*
X89029138Y-111517201D01*
X88765000Y-112154887D01*
X88735000Y-112154887D01*
X88735000Y-110416187D01*
X107257277Y-110416187D01*
X107273503Y-111265387D01*
X107567261Y-111974582D01*
X107886030Y-112134365D01*
X109220395Y-110800000D01*
X109579605Y-110800000D01*
X110913970Y-112134365D01*
X111232739Y-111974582D01*
X111542723Y-111183813D01*
X111526497Y-110334613D01*
X111232739Y-109625418D01*
X110913970Y-109465635D01*
X109579605Y-110800000D01*
X109220395Y-110800000D01*
X107886030Y-109465635D01*
X107567261Y-109625418D01*
X107257277Y-110416187D01*
X88735000Y-110416187D01*
X88735000Y-109286030D01*
X108065635Y-109286030D01*
X109400000Y-110620395D01*
X110720395Y-109300000D01*
X112332560Y-109300000D01*
X112332560Y-112300000D01*
X112381843Y-112547765D01*
X112522191Y-112757809D01*
X112732235Y-112898157D01*
X112980000Y-112947440D01*
X115980000Y-112947440D01*
X116227765Y-112898157D01*
X116437809Y-112757809D01*
X116578157Y-112547765D01*
X116627440Y-112300000D01*
X116627440Y-109300000D01*
X116578157Y-109052235D01*
X116437809Y-108842191D01*
X116227765Y-108701843D01*
X115980000Y-108652560D01*
X112980000Y-108652560D01*
X112732235Y-108701843D01*
X112522191Y-108842191D01*
X112381843Y-109052235D01*
X112332560Y-109300000D01*
X110720395Y-109300000D01*
X110734365Y-109286030D01*
X110574582Y-108967261D01*
X109783813Y-108657277D01*
X108934613Y-108673503D01*
X108225418Y-108967261D01*
X108065635Y-109286030D01*
X88735000Y-109286030D01*
X88735000Y-108045750D01*
X95586000Y-108045750D01*
X95586000Y-108635310D01*
X95682673Y-108868699D01*
X95861302Y-109047327D01*
X96094691Y-109144000D01*
X96684250Y-109144000D01*
X96843000Y-108985250D01*
X96843000Y-107887000D01*
X97097000Y-107887000D01*
X97097000Y-108985250D01*
X97255750Y-109144000D01*
X97845309Y-109144000D01*
X98078698Y-109047327D01*
X98257327Y-108868699D01*
X98354000Y-108635310D01*
X98354000Y-108045750D01*
X98195250Y-107887000D01*
X97097000Y-107887000D01*
X96843000Y-107887000D01*
X95744750Y-107887000D01*
X95586000Y-108045750D01*
X88735000Y-108045750D01*
X88735000Y-106884690D01*
X95586000Y-106884690D01*
X95586000Y-107474250D01*
X95744750Y-107633000D01*
X96843000Y-107633000D01*
X96843000Y-106534750D01*
X97097000Y-106534750D01*
X97097000Y-107633000D01*
X98195250Y-107633000D01*
X98354000Y-107474250D01*
X98354000Y-106884690D01*
X98257327Y-106651301D01*
X98078698Y-106472673D01*
X97845309Y-106376000D01*
X97255750Y-106376000D01*
X97097000Y-106534750D01*
X96843000Y-106534750D01*
X96684250Y-106376000D01*
X96094691Y-106376000D01*
X95861302Y-106472673D01*
X95682673Y-106651301D01*
X95586000Y-106884690D01*
X88735000Y-106884690D01*
X88735000Y-87390000D01*
X90653900Y-87390000D01*
X90777109Y-88009411D01*
X91127977Y-88534523D01*
X91315767Y-88660000D01*
X91127977Y-88785477D01*
X90777109Y-89310589D01*
X90653900Y-89930000D01*
X90777109Y-90549411D01*
X91039088Y-90941491D01*
X90862191Y-91059691D01*
X90721843Y-91269735D01*
X90672560Y-91517500D01*
X90672560Y-93422500D01*
X90721843Y-93670265D01*
X90862191Y-93880309D01*
X91072235Y-94020657D01*
X91320000Y-94069940D01*
X93320000Y-94069940D01*
X93567765Y-94020657D01*
X93777809Y-93880309D01*
X93918157Y-93670265D01*
X93967440Y-93422500D01*
X93967440Y-91517500D01*
X93918157Y-91269735D01*
X93777809Y-91059691D01*
X93600912Y-90941491D01*
X93652022Y-90865000D01*
X95385001Y-90865000D01*
X95385000Y-93168081D01*
X95069135Y-93379135D01*
X94685666Y-93953037D01*
X94551010Y-94630000D01*
X94685666Y-95306963D01*
X95069135Y-95880865D01*
X95643037Y-96264334D01*
X95897753Y-96315000D01*
X95342086Y-96315000D01*
X95250000Y-96296683D01*
X95157914Y-96315000D01*
X94885181Y-96369250D01*
X94575903Y-96575903D01*
X94523739Y-96653972D01*
X93653972Y-97523739D01*
X93575903Y-97575903D01*
X93369251Y-97885181D01*
X93369250Y-97885182D01*
X93296683Y-98250000D01*
X93315000Y-98342086D01*
X93315001Y-104407910D01*
X93296683Y-104500000D01*
X93369250Y-104864818D01*
X93523741Y-105096030D01*
X93575904Y-105174097D01*
X93653970Y-105226259D01*
X94023739Y-105596028D01*
X94075903Y-105674097D01*
X94385181Y-105880750D01*
X94632783Y-105930001D01*
X94750000Y-105953317D01*
X94842086Y-105935000D01*
X100302704Y-105935000D01*
X100544126Y-106035000D01*
X100955874Y-106035000D01*
X101336280Y-105877431D01*
X101627431Y-105586280D01*
X101785000Y-105205874D01*
X101785000Y-104794126D01*
X101627431Y-104413720D01*
X101336280Y-104122569D01*
X100955874Y-103965000D01*
X100544126Y-103965000D01*
X100302704Y-104065000D01*
X99803273Y-104065000D01*
X100144005Y-103923864D01*
X100218139Y-103677745D01*
X99390000Y-102849605D01*
X98561861Y-103677745D01*
X98635995Y-103923864D01*
X99028651Y-104065000D01*
X97489842Y-104065000D01*
X97734005Y-103963864D01*
X97808139Y-103717745D01*
X96980000Y-102889605D01*
X96151861Y-103717745D01*
X96225995Y-103963864D01*
X96507366Y-104065000D01*
X95185000Y-104065000D01*
X95185000Y-102493223D01*
X95533035Y-102493223D01*
X95560222Y-103063454D01*
X95726136Y-103464005D01*
X95972255Y-103538139D01*
X96800395Y-102710000D01*
X97159605Y-102710000D01*
X97987745Y-103538139D01*
X98233864Y-103464005D01*
X98237290Y-103454474D01*
X98382255Y-103498139D01*
X99210395Y-102670000D01*
X99569605Y-102670000D01*
X100397745Y-103498139D01*
X100643864Y-103424005D01*
X100836965Y-102886777D01*
X100809778Y-102316546D01*
X100643864Y-101915995D01*
X100397745Y-101841861D01*
X99569605Y-102670000D01*
X99210395Y-102670000D01*
X98382255Y-101841861D01*
X98136136Y-101915995D01*
X98132710Y-101925526D01*
X97987745Y-101881861D01*
X97159605Y-102710000D01*
X96800395Y-102710000D01*
X95972255Y-101881861D01*
X95726136Y-101955995D01*
X95533035Y-102493223D01*
X95185000Y-102493223D01*
X95185000Y-99924561D01*
X95545000Y-99924561D01*
X95545000Y-100495439D01*
X95763466Y-101022862D01*
X96167138Y-101426534D01*
X96232299Y-101453525D01*
X96225995Y-101456136D01*
X96151861Y-101702255D01*
X96980000Y-102530395D01*
X97808139Y-101702255D01*
X97734005Y-101456136D01*
X97727254Y-101453710D01*
X97792862Y-101426534D01*
X98196534Y-101022862D01*
X98201493Y-101010889D01*
X98577138Y-101386534D01*
X98642299Y-101413525D01*
X98635995Y-101416136D01*
X98561861Y-101662255D01*
X99390000Y-102490395D01*
X100218139Y-101662255D01*
X100144005Y-101416136D01*
X100137254Y-101413710D01*
X100202862Y-101386534D01*
X100606534Y-100982862D01*
X100825000Y-100455439D01*
X100825000Y-99884561D01*
X100606534Y-99357138D01*
X100202862Y-98953466D01*
X99675439Y-98735000D01*
X99104561Y-98735000D01*
X98577138Y-98953466D01*
X98173466Y-99357138D01*
X98168507Y-99369111D01*
X97792862Y-98993466D01*
X97265439Y-98775000D01*
X96694561Y-98775000D01*
X96167138Y-98993466D01*
X95763466Y-99397138D01*
X95545000Y-99924561D01*
X95185000Y-99924561D01*
X95185000Y-98637289D01*
X95637289Y-98185000D01*
X101407914Y-98185000D01*
X101500000Y-98203317D01*
X101592086Y-98185000D01*
X101864819Y-98130750D01*
X102174097Y-97924097D01*
X102226261Y-97846028D01*
X102535001Y-97537288D01*
X102535000Y-106737729D01*
X102296702Y-106976027D01*
X102086000Y-107484705D01*
X102086000Y-108035295D01*
X102296702Y-108543973D01*
X102686027Y-108933298D01*
X103194705Y-109144000D01*
X103745295Y-109144000D01*
X104253973Y-108933298D01*
X104643298Y-108543973D01*
X104854000Y-108035295D01*
X104854000Y-107484705D01*
X104643298Y-106976027D01*
X104405000Y-106737729D01*
X104405000Y-103467745D01*
X105921861Y-103467745D01*
X105995995Y-103713864D01*
X106533223Y-103906965D01*
X107103454Y-103879778D01*
X107504005Y-103713864D01*
X107578139Y-103467745D01*
X106750000Y-102639605D01*
X105921861Y-103467745D01*
X104405000Y-103467745D01*
X104405000Y-102243223D01*
X105303035Y-102243223D01*
X105330222Y-102813454D01*
X105496136Y-103214005D01*
X105742255Y-103288139D01*
X106570395Y-102460000D01*
X105742255Y-101631861D01*
X105496136Y-101705995D01*
X105303035Y-102243223D01*
X104405000Y-102243223D01*
X104405000Y-101452255D01*
X105921861Y-101452255D01*
X106750000Y-102280395D01*
X107578139Y-101452255D01*
X107504005Y-101206136D01*
X106966777Y-101013035D01*
X106396546Y-101040222D01*
X105995995Y-101206136D01*
X105921861Y-101452255D01*
X104405000Y-101452255D01*
X104405000Y-94722389D01*
X106286754Y-92840636D01*
X106361089Y-92825850D01*
X106670367Y-92619197D01*
X106722531Y-92541128D01*
X106836028Y-92427631D01*
X106914097Y-92375467D01*
X107120750Y-92066189D01*
X107175000Y-91793456D01*
X107175000Y-91793453D01*
X107193316Y-91701371D01*
X107184143Y-91655253D01*
X107456534Y-91382862D01*
X107490000Y-91302068D01*
X107523466Y-91382862D01*
X107927138Y-91786534D01*
X108454561Y-92005000D01*
X109025439Y-92005000D01*
X109315000Y-91885060D01*
X109315000Y-91995874D01*
X109472569Y-92376280D01*
X109763720Y-92667431D01*
X110005141Y-92767431D01*
X110523741Y-93286030D01*
X110575903Y-93364097D01*
X110885181Y-93570750D01*
X111157914Y-93625000D01*
X111157917Y-93625000D01*
X111249999Y-93643316D01*
X111342081Y-93625000D01*
X113652229Y-93625000D01*
X113744315Y-93643317D01*
X113836401Y-93625000D01*
X114109134Y-93570750D01*
X114418412Y-93364097D01*
X114470576Y-93286028D01*
X115212846Y-92543759D01*
X115264126Y-92565000D01*
X115675874Y-92565000D01*
X116056280Y-92407431D01*
X116347431Y-92116280D01*
X116505000Y-91735874D01*
X116505000Y-91324126D01*
X116347431Y-90943720D01*
X116056280Y-90652569D01*
X115675874Y-90495000D01*
X115264126Y-90495000D01*
X115022704Y-90595000D01*
X114996401Y-90595000D01*
X114904315Y-90576683D01*
X114812229Y-90595000D01*
X114539496Y-90649250D01*
X114403620Y-90740040D01*
X115516031Y-89627629D01*
X115594097Y-89575467D01*
X115800750Y-89266189D01*
X115855000Y-88993456D01*
X115855000Y-88993455D01*
X115873317Y-88901370D01*
X115855000Y-88809284D01*
X115855000Y-79039089D01*
X116511274Y-78382815D01*
X116591469Y-78785981D01*
X116997039Y-79392961D01*
X117385001Y-79652188D01*
X117385000Y-86319385D01*
X117385001Y-86319390D01*
X117385000Y-88647914D01*
X117366683Y-88740000D01*
X117417099Y-88993456D01*
X117439250Y-89104818D01*
X117645903Y-89414097D01*
X117723972Y-89466261D01*
X121135001Y-92877291D01*
X121135000Y-102262711D01*
X118982711Y-104415000D01*
X111395920Y-104415000D01*
X110360158Y-103379238D01*
X110466534Y-103272862D01*
X110685000Y-102745439D01*
X110685000Y-102174561D01*
X110503081Y-101735370D01*
X111363748Y-102596037D01*
X111410854Y-102832855D01*
X111661711Y-103208289D01*
X112037145Y-103459146D01*
X112368217Y-103525000D01*
X116288217Y-103525000D01*
X116400000Y-103547235D01*
X116511783Y-103525000D01*
X116842855Y-103459146D01*
X117218289Y-103208289D01*
X117281613Y-103113518D01*
X118090131Y-102305000D01*
X118685004Y-102305000D01*
X119359444Y-102025638D01*
X119875638Y-101509444D01*
X120155000Y-100835004D01*
X120155000Y-100104996D01*
X119875638Y-99430556D01*
X119359444Y-98914362D01*
X118685004Y-98635000D01*
X117954996Y-98635000D01*
X117280556Y-98914362D01*
X116764362Y-99430556D01*
X116485000Y-100104996D01*
X116485000Y-100699869D01*
X115929869Y-101255000D01*
X112667289Y-101255000D01*
X108782289Y-97370000D01*
X110692560Y-97370000D01*
X110692560Y-98970000D01*
X110741843Y-99217765D01*
X110882191Y-99427809D01*
X111092235Y-99568157D01*
X111340000Y-99617440D01*
X112940000Y-99617440D01*
X113187765Y-99568157D01*
X113397809Y-99427809D01*
X113538157Y-99217765D01*
X113587440Y-98970000D01*
X113587440Y-97370000D01*
X113538157Y-97122235D01*
X113397809Y-96912191D01*
X113187765Y-96771843D01*
X112940000Y-96722560D01*
X111340000Y-96722560D01*
X111092235Y-96771843D01*
X110882191Y-96912191D01*
X110741843Y-97122235D01*
X110692560Y-97370000D01*
X108782289Y-97370000D01*
X107331261Y-95918972D01*
X107279097Y-95840903D01*
X106969819Y-95634250D01*
X106697086Y-95580000D01*
X106605000Y-95561683D01*
X106512914Y-95580000D01*
X105977596Y-95580000D01*
X105736174Y-95480000D01*
X105324426Y-95480000D01*
X104944020Y-95637569D01*
X104652869Y-95928720D01*
X104495300Y-96309126D01*
X104495300Y-96720874D01*
X104652869Y-97101280D01*
X104944020Y-97392431D01*
X105324426Y-97550000D01*
X105736174Y-97550000D01*
X105977596Y-97450000D01*
X106217711Y-97450000D01*
X109974630Y-101206919D01*
X109535439Y-101025000D01*
X108964561Y-101025000D01*
X108437138Y-101243466D01*
X108033466Y-101647138D01*
X108006475Y-101712299D01*
X108003864Y-101705995D01*
X107757745Y-101631861D01*
X106929605Y-102460000D01*
X107757745Y-103288139D01*
X108003864Y-103214005D01*
X108006290Y-103207254D01*
X108033466Y-103272862D01*
X108305856Y-103545252D01*
X108296683Y-103591370D01*
X108369250Y-103956188D01*
X108485239Y-104129778D01*
X108575904Y-104265467D01*
X108653970Y-104317629D01*
X110282371Y-105946031D01*
X110334533Y-106024097D01*
X110643811Y-106230750D01*
X110916544Y-106285000D01*
X110916547Y-106285000D01*
X111008629Y-106303316D01*
X111100711Y-106285000D01*
X119277914Y-106285000D01*
X119370000Y-106303317D01*
X119462086Y-106285000D01*
X119734819Y-106230750D01*
X120044097Y-106024097D01*
X120096261Y-105946028D01*
X122666028Y-103376261D01*
X122744097Y-103324097D01*
X122950750Y-103014819D01*
X123005000Y-102742086D01*
X123005000Y-102742085D01*
X123023317Y-102650000D01*
X123005000Y-102557914D01*
X123005000Y-92582086D01*
X123023317Y-92490000D01*
X122985007Y-92297400D01*
X122950750Y-92125181D01*
X122744097Y-91815903D01*
X122666031Y-91763741D01*
X119255000Y-88352711D01*
X119255000Y-79652188D01*
X119642961Y-79392961D01*
X120048531Y-78785981D01*
X120190949Y-78070000D01*
X120048531Y-77354019D01*
X119642961Y-76747039D01*
X119573200Y-76700426D01*
X119573200Y-75605165D01*
X119772235Y-75738157D01*
X120020000Y-75787440D01*
X121820000Y-75787440D01*
X122067765Y-75738157D01*
X122277809Y-75597809D01*
X122418157Y-75387765D01*
X122467440Y-75140000D01*
X122467440Y-73340000D01*
X122418157Y-73092235D01*
X122277809Y-72882191D01*
X122067765Y-72741843D01*
X122052092Y-72738725D01*
X122221310Y-72569507D01*
X122455000Y-72005330D01*
X122455000Y-71394670D01*
X122221310Y-70830493D01*
X121789507Y-70398690D01*
X121225330Y-70165000D01*
X120614670Y-70165000D01*
X120050493Y-70398690D01*
X119618690Y-70830493D01*
X119385000Y-71394670D01*
X119385000Y-71912711D01*
X118772800Y-72524911D01*
X118772800Y-68669880D01*
X118791116Y-68577799D01*
X118772800Y-68485718D01*
X118772800Y-68485714D01*
X118718550Y-68212981D01*
X118511897Y-67903703D01*
X118433831Y-67851541D01*
X117517993Y-66935704D01*
X117564577Y-66904577D01*
X117881740Y-66429909D01*
X117993113Y-65870000D01*
X117881740Y-65310091D01*
X117564577Y-64835423D01*
X117089909Y-64518260D01*
X116671333Y-64435000D01*
X116388667Y-64435000D01*
X115970091Y-64518260D01*
X115495423Y-64835423D01*
X115178260Y-65310091D01*
X115066887Y-65870000D01*
X115178260Y-66429909D01*
X115495423Y-66904577D01*
X115595000Y-66971112D01*
X115595000Y-67177914D01*
X115576683Y-67270000D01*
X115595000Y-67362085D01*
X115649250Y-67634818D01*
X115855903Y-67944097D01*
X115933972Y-67996261D01*
X116375358Y-68437647D01*
X115970091Y-68518260D01*
X115495423Y-68835423D01*
X115464297Y-68882007D01*
X109452290Y-62870000D01*
X115066887Y-62870000D01*
X115178260Y-63429909D01*
X115495423Y-63904577D01*
X115970091Y-64221740D01*
X116388667Y-64305000D01*
X116671333Y-64305000D01*
X117089909Y-64221740D01*
X117564577Y-63904577D01*
X117881740Y-63429909D01*
X117993113Y-62870000D01*
X117881740Y-62310091D01*
X117564577Y-61835423D01*
X117089909Y-61518260D01*
X116671333Y-61435000D01*
X116388667Y-61435000D01*
X115970091Y-61518260D01*
X115495423Y-61835423D01*
X115178260Y-62310091D01*
X115066887Y-62870000D01*
X109452290Y-62870000D01*
X108856261Y-62273972D01*
X108804097Y-62195903D01*
X108494819Y-61989250D01*
X108222086Y-61935000D01*
X108130000Y-61916683D01*
X108037914Y-61935000D01*
X107464396Y-61935000D01*
X107182862Y-61653466D01*
X106655439Y-61435000D01*
X106084561Y-61435000D01*
X105557138Y-61653466D01*
X105153466Y-62057138D01*
X104935000Y-62584561D01*
X104935000Y-63155439D01*
X105153466Y-63682862D01*
X105557138Y-64086534D01*
X106084561Y-64305000D01*
X106655439Y-64305000D01*
X107182862Y-64086534D01*
X107464396Y-63805000D01*
X107742711Y-63805000D01*
X113807710Y-69870000D01*
X110009072Y-73668639D01*
X109931003Y-73720803D01*
X109756611Y-73981800D01*
X109724350Y-74030082D01*
X109651783Y-74394900D01*
X109670100Y-74486986D01*
X109670100Y-76175515D01*
X109459039Y-76088096D01*
X109237000Y-76210085D01*
X109237000Y-77353000D01*
X109257000Y-77353000D01*
X109257000Y-77607000D01*
X109237000Y-77607000D01*
X109237000Y-78749915D01*
X109305604Y-78787606D01*
X107545400Y-80547811D01*
X107477431Y-80383720D01*
X107333000Y-80239289D01*
X108294228Y-79278061D01*
X108372297Y-79225897D01*
X108578950Y-78916619D01*
X108601021Y-78805659D01*
X108760961Y-78871904D01*
X108983000Y-78749915D01*
X108983000Y-77607000D01*
X108963000Y-77607000D01*
X108963000Y-77353000D01*
X108983000Y-77353000D01*
X108983000Y-76210085D01*
X108760961Y-76088096D01*
X108633200Y-76141013D01*
X108633200Y-67290280D01*
X108651516Y-67198199D01*
X108633200Y-67106118D01*
X108633200Y-67106114D01*
X108578950Y-66833381D01*
X108372297Y-66524103D01*
X108294231Y-66471941D01*
X107805000Y-65982710D01*
X107805000Y-65584561D01*
X107586534Y-65057138D01*
X107182862Y-64653466D01*
X106655439Y-64435000D01*
X106084561Y-64435000D01*
X105557138Y-64653466D01*
X105153466Y-65057138D01*
X104935000Y-65584561D01*
X104935000Y-66155439D01*
X105153466Y-66682862D01*
X105557138Y-67086534D01*
X106084561Y-67305000D01*
X106482710Y-67305000D01*
X106763200Y-67585490D01*
X106763200Y-68479636D01*
X106655439Y-68435000D01*
X106084561Y-68435000D01*
X105557138Y-68653466D01*
X105153466Y-69057138D01*
X104935000Y-69584561D01*
X104935000Y-70155439D01*
X105153466Y-70682862D01*
X105435000Y-70964396D01*
X105435001Y-76032709D01*
X102625956Y-78841755D01*
X102573864Y-78715995D01*
X102327745Y-78641861D01*
X101499605Y-79470000D01*
X101513748Y-79484143D01*
X101334143Y-79663748D01*
X101320000Y-79649605D01*
X101305858Y-79663748D01*
X101126252Y-79484142D01*
X101140395Y-79470000D01*
X100312255Y-78641861D01*
X100066136Y-78715995D01*
X99873035Y-79253223D01*
X99900222Y-79823454D01*
X100061605Y-80213067D01*
X99921843Y-80422235D01*
X99872560Y-80670000D01*
X99872560Y-82270000D01*
X99921843Y-82517765D01*
X100062191Y-82727809D01*
X100108775Y-82758935D01*
X98067440Y-84800271D01*
X98067440Y-83370000D01*
X98018157Y-83122235D01*
X97877809Y-82912191D01*
X97667765Y-82771843D01*
X97420000Y-82722560D01*
X97263881Y-82722560D01*
X97254247Y-82674126D01*
X97200750Y-82405181D01*
X96994097Y-82095903D01*
X96916028Y-82043739D01*
X93334544Y-78462255D01*
X100491861Y-78462255D01*
X101320000Y-79290395D01*
X102148139Y-78462255D01*
X102074005Y-78216136D01*
X101536777Y-78023035D01*
X100966546Y-78050222D01*
X100565995Y-78216136D01*
X100491861Y-78462255D01*
X93334544Y-78462255D01*
X92935000Y-78062711D01*
X92935000Y-75210000D01*
X97597632Y-75210000D01*
X97706056Y-75755082D01*
X98014820Y-76217180D01*
X98476918Y-76525944D01*
X98884412Y-76607000D01*
X101135588Y-76607000D01*
X101543082Y-76525944D01*
X102005180Y-76217180D01*
X102313944Y-75755082D01*
X102422368Y-75210000D01*
X102313944Y-74664918D01*
X102005180Y-74202820D01*
X101543082Y-73894056D01*
X101135588Y-73813000D01*
X98884412Y-73813000D01*
X98476918Y-73894056D01*
X98014820Y-74202820D01*
X97706056Y-74664918D01*
X97597632Y-75210000D01*
X92935000Y-75210000D01*
X92935000Y-70507000D01*
X94983000Y-70507000D01*
X94983000Y-71495000D01*
X95137941Y-72019941D01*
X95481974Y-72445630D01*
X95962723Y-72707260D01*
X96036930Y-72722220D01*
X96253000Y-72599720D01*
X96253000Y-70507000D01*
X96507000Y-70507000D01*
X96507000Y-72599720D01*
X96723070Y-72722220D01*
X96797277Y-72707260D01*
X97278026Y-72445630D01*
X97622059Y-72019941D01*
X97777000Y-71495000D01*
X97777000Y-70507000D01*
X96507000Y-70507000D01*
X96253000Y-70507000D01*
X94983000Y-70507000D01*
X92935000Y-70507000D01*
X92935000Y-69387289D01*
X93057289Y-69265000D01*
X94983000Y-69265000D01*
X94983000Y-70253000D01*
X96253000Y-70253000D01*
X96253000Y-68160280D01*
X96507000Y-68160280D01*
X96507000Y-70253000D01*
X97777000Y-70253000D01*
X97777000Y-69265000D01*
X97622059Y-68740059D01*
X97278026Y-68314370D01*
X96797277Y-68052740D01*
X96723070Y-68037780D01*
X96507000Y-68160280D01*
X96253000Y-68160280D01*
X96036930Y-68037780D01*
X95962723Y-68052740D01*
X95481974Y-68314370D01*
X95137941Y-68740059D01*
X94983000Y-69265000D01*
X93057289Y-69265000D01*
X96387290Y-65935000D01*
X99252711Y-65935000D01*
X101756625Y-68438915D01*
X101732821Y-68454820D01*
X101424057Y-68916918D01*
X101343001Y-69324412D01*
X101343000Y-71575587D01*
X101424056Y-71983081D01*
X101732820Y-72445179D01*
X102194918Y-72753944D01*
X102740000Y-72862368D01*
X103285081Y-72753944D01*
X103747179Y-72445180D01*
X104055944Y-71983082D01*
X104137000Y-71575588D01*
X104137000Y-69324412D01*
X104055944Y-68916918D01*
X103747180Y-68454820D01*
X103675000Y-68406591D01*
X103675000Y-68192085D01*
X103693317Y-68099999D01*
X103620750Y-67735181D01*
X103466259Y-67503969D01*
X103414097Y-67425903D01*
X103336031Y-67373741D01*
X100366261Y-64403972D01*
X100314097Y-64325903D01*
X100004819Y-64119250D01*
X99732086Y-64065000D01*
X99640000Y-64046683D01*
X99547914Y-64065000D01*
X96092081Y-64065000D01*
X95999999Y-64046684D01*
X95907917Y-64065000D01*
X95907914Y-64065000D01*
X95635181Y-64119250D01*
X95325903Y-64325903D01*
X95273741Y-64403969D01*
X91403972Y-68273739D01*
X91325903Y-68325903D01*
X91219121Y-68485714D01*
X91119250Y-68635182D01*
X91046683Y-69000000D01*
X91065000Y-69092086D01*
X91065001Y-78357910D01*
X91046683Y-78450000D01*
X91119250Y-78814818D01*
X91192993Y-78925182D01*
X91325904Y-79124097D01*
X91403970Y-79176259D01*
X94995022Y-82767311D01*
X94972235Y-82771843D01*
X94762191Y-82912191D01*
X94621843Y-83122235D01*
X94572560Y-83370000D01*
X94572560Y-83535000D01*
X92622086Y-83535000D01*
X92530000Y-83516683D01*
X92437914Y-83535000D01*
X92165181Y-83589250D01*
X91855903Y-83795903D01*
X91803739Y-83873972D01*
X91723972Y-83953739D01*
X91645903Y-84005903D01*
X91559522Y-84135182D01*
X91439250Y-84315182D01*
X91366683Y-84680000D01*
X91385000Y-84772086D01*
X91385001Y-86073740D01*
X91127977Y-86245477D01*
X90777109Y-86770589D01*
X90653900Y-87390000D01*
X88735000Y-87390000D01*
X88735000Y-62154887D01*
X88765000Y-62154887D01*
X88765000Y-62845113D01*
X89029138Y-63482799D01*
X89517201Y-63970862D01*
X90154887Y-64235000D01*
X90845113Y-64235000D01*
X91482799Y-63970862D01*
X91970862Y-63482799D01*
X92235000Y-62845113D01*
X92235000Y-62154887D01*
X91970862Y-61517201D01*
X91482799Y-61029138D01*
X90845113Y-60765000D01*
X90154887Y-60765000D01*
X89517201Y-61029138D01*
X89029138Y-61517201D01*
X88765000Y-62154887D01*
X88735000Y-62154887D01*
X88735000Y-61927612D01*
X88730704Y-61906013D01*
X88768803Y-61639973D01*
X88919338Y-61308890D01*
X89156749Y-61033361D01*
X89461944Y-60835544D01*
X89833917Y-60724300D01*
X89862967Y-60722141D01*
X89927612Y-60735000D01*
X89927612Y-60735000D01*
G37*
X89927612Y-60735000D02*
X125537626Y-60735000D01*
X125380620Y-60800034D01*
X124780034Y-61400620D01*
X124455000Y-62185322D01*
X124455000Y-63034678D01*
X124780034Y-63819380D01*
X125380620Y-64419966D01*
X125655000Y-64533618D01*
X125655001Y-77967909D01*
X125636683Y-78060000D01*
X125709250Y-78424818D01*
X125836929Y-78615903D01*
X125915904Y-78734097D01*
X125993970Y-78786259D01*
X144505484Y-97297774D01*
X144500000Y-97296683D01*
X144407914Y-97315000D01*
X138342080Y-97315000D01*
X138249999Y-97296684D01*
X138157918Y-97315000D01*
X138157914Y-97315000D01*
X137885181Y-97369250D01*
X137575903Y-97575903D01*
X137523741Y-97653969D01*
X129862711Y-105315000D01*
X127183673Y-105315000D01*
X127799380Y-105059966D01*
X128399966Y-104459380D01*
X128725000Y-103674678D01*
X128725000Y-102825322D01*
X128399966Y-102040620D01*
X127799380Y-101440034D01*
X127014678Y-101115000D01*
X126165322Y-101115000D01*
X125380620Y-101440034D01*
X124780034Y-102040620D01*
X124455000Y-102825322D01*
X124455000Y-103674678D01*
X124780034Y-104459380D01*
X125380620Y-105059966D01*
X125996327Y-105315000D01*
X125092086Y-105315000D01*
X125000000Y-105296683D01*
X124907914Y-105315000D01*
X124635181Y-105369250D01*
X124325903Y-105575903D01*
X124273741Y-105653969D01*
X123023970Y-106903741D01*
X122945904Y-106955903D01*
X122893742Y-107033969D01*
X122893741Y-107033970D01*
X122739250Y-107265182D01*
X122666683Y-107630000D01*
X122685001Y-107722090D01*
X122685000Y-109324183D01*
X122318690Y-109690493D01*
X122085000Y-110254670D01*
X122085000Y-110865330D01*
X122318690Y-111429507D01*
X122750493Y-111861310D01*
X123314670Y-112095000D01*
X123925330Y-112095000D01*
X124489507Y-111861310D01*
X124658725Y-111692092D01*
X124661843Y-111707765D01*
X124802191Y-111917809D01*
X125012235Y-112058157D01*
X125260000Y-112107440D01*
X127060000Y-112107440D01*
X127307765Y-112058157D01*
X127517809Y-111917809D01*
X127606048Y-111785750D01*
X135515000Y-111785750D01*
X135515000Y-112476309D01*
X135611673Y-112709698D01*
X135790301Y-112888327D01*
X136023690Y-112985000D01*
X136714250Y-112985000D01*
X136873000Y-112826250D01*
X136873000Y-111627000D01*
X135673750Y-111627000D01*
X135515000Y-111785750D01*
X127606048Y-111785750D01*
X127658157Y-111707765D01*
X127707440Y-111460000D01*
X127707440Y-110523691D01*
X135515000Y-110523691D01*
X135515000Y-111214250D01*
X135673750Y-111373000D01*
X136873000Y-111373000D01*
X136873000Y-110173750D01*
X136714250Y-110015000D01*
X136023690Y-110015000D01*
X135790301Y-110111673D01*
X135611673Y-110290302D01*
X135515000Y-110523691D01*
X127707440Y-110523691D01*
X127707440Y-109660000D01*
X127658157Y-109412235D01*
X127517809Y-109202191D01*
X127307765Y-109061843D01*
X127060000Y-109012560D01*
X125260000Y-109012560D01*
X125012235Y-109061843D01*
X124802191Y-109202191D01*
X124661843Y-109412235D01*
X124658725Y-109427908D01*
X124555000Y-109324183D01*
X124555000Y-108017289D01*
X125387290Y-107185000D01*
X130157914Y-107185000D01*
X130250000Y-107203317D01*
X130342086Y-107185000D01*
X130614819Y-107130750D01*
X130924097Y-106924097D01*
X130976261Y-106846028D01*
X133058319Y-104763970D01*
X143035635Y-104763970D01*
X143195418Y-105082739D01*
X143986187Y-105392723D01*
X144835387Y-105376497D01*
X145544582Y-105082739D01*
X145704365Y-104763970D01*
X144370000Y-103429605D01*
X143035635Y-104763970D01*
X133058319Y-104763970D01*
X134956102Y-102866187D01*
X142227277Y-102866187D01*
X142243503Y-103715387D01*
X142537261Y-104424582D01*
X142856030Y-104584365D01*
X144190395Y-103250000D01*
X144549605Y-103250000D01*
X145883970Y-104584365D01*
X146202739Y-104424582D01*
X146512723Y-103633813D01*
X146496497Y-102784613D01*
X146202739Y-102075418D01*
X145883970Y-101915635D01*
X144549605Y-103250000D01*
X144190395Y-103250000D01*
X142856030Y-101915635D01*
X142537261Y-102075418D01*
X142227277Y-102866187D01*
X134956102Y-102866187D01*
X136086259Y-101736030D01*
X143035635Y-101736030D01*
X144370000Y-103070395D01*
X145704365Y-101736030D01*
X145544582Y-101417261D01*
X144753813Y-101107277D01*
X143904613Y-101123503D01*
X143195418Y-101417261D01*
X143035635Y-101736030D01*
X136086259Y-101736030D01*
X138637290Y-99185000D01*
X144112711Y-99185000D01*
X146598100Y-101670390D01*
X146598101Y-104191010D01*
X146579783Y-104283100D01*
X146652350Y-104647918D01*
X146652351Y-104647919D01*
X146859004Y-104957197D01*
X146937070Y-105009359D01*
X148023741Y-106096031D01*
X148075903Y-106174097D01*
X148385181Y-106380750D01*
X148657914Y-106435000D01*
X148657918Y-106435000D01*
X148749999Y-106453316D01*
X148842080Y-106435000D01*
X153407914Y-106435000D01*
X153500000Y-106453317D01*
X153592086Y-106435000D01*
X153864819Y-106380750D01*
X154174097Y-106174097D01*
X154226261Y-106096028D01*
X156578031Y-103744259D01*
X156656097Y-103692097D01*
X156862750Y-103382819D01*
X156889959Y-103246030D01*
X156935317Y-103018001D01*
X156917000Y-102925915D01*
X156917000Y-76905289D01*
X158637290Y-75185000D01*
X164656544Y-75185000D01*
X164748630Y-75203317D01*
X164840716Y-75185000D01*
X164845040Y-75184140D01*
X164885423Y-75244577D01*
X165237758Y-75480000D01*
X164885423Y-75715423D01*
X164568260Y-76190091D01*
X164456887Y-76750000D01*
X164568260Y-77309909D01*
X164885423Y-77784577D01*
X165237758Y-78020000D01*
X164885423Y-78255423D01*
X164818888Y-78355000D01*
X160052086Y-78355000D01*
X159960000Y-78336683D01*
X159867914Y-78355000D01*
X159595181Y-78409250D01*
X159285903Y-78615903D01*
X159233739Y-78693972D01*
X157703972Y-80223739D01*
X157625903Y-80275903D01*
X157419251Y-80585181D01*
X157419250Y-80585182D01*
X157346683Y-80950000D01*
X157365000Y-81042086D01*
X157365001Y-103270109D01*
X149848993Y-110786118D01*
X149610625Y-110429375D01*
X149119418Y-110101161D01*
X148686256Y-110015000D01*
X148393744Y-110015000D01*
X147960582Y-110101161D01*
X147469375Y-110429375D01*
X147454904Y-110451033D01*
X147388327Y-110290302D01*
X147209699Y-110111673D01*
X146976310Y-110015000D01*
X146285750Y-110015000D01*
X146127000Y-110173750D01*
X146127000Y-111373000D01*
X146147000Y-111373000D01*
X146147000Y-111627000D01*
X146127000Y-111627000D01*
X146127000Y-111647000D01*
X145873000Y-111647000D01*
X145873000Y-111627000D01*
X144673750Y-111627000D01*
X144515000Y-111785750D01*
X144515000Y-111952700D01*
X142764990Y-111952700D01*
X141716261Y-110903972D01*
X141664097Y-110825903D01*
X141354819Y-110619250D01*
X141082086Y-110565000D01*
X140990000Y-110546683D01*
X140897914Y-110565000D01*
X140701247Y-110565000D01*
X140673646Y-110523691D01*
X144515000Y-110523691D01*
X144515000Y-111214250D01*
X144673750Y-111373000D01*
X145873000Y-111373000D01*
X145873000Y-110173750D01*
X145714250Y-110015000D01*
X145023690Y-110015000D01*
X144790301Y-110111673D01*
X144611673Y-110290302D01*
X144515000Y-110523691D01*
X140673646Y-110523691D01*
X140610625Y-110429375D01*
X140119418Y-110101161D01*
X139686256Y-110015000D01*
X139393744Y-110015000D01*
X138960582Y-110101161D01*
X138469375Y-110429375D01*
X138454904Y-110451033D01*
X138388327Y-110290302D01*
X138209699Y-110111673D01*
X137976310Y-110015000D01*
X137285750Y-110015000D01*
X137127000Y-110173750D01*
X137127000Y-111373000D01*
X137147000Y-111373000D01*
X137147000Y-111627000D01*
X137127000Y-111627000D01*
X137127000Y-112826250D01*
X137285750Y-112985000D01*
X137976310Y-112985000D01*
X138209699Y-112888327D01*
X138388327Y-112709698D01*
X138454904Y-112548967D01*
X138469375Y-112570625D01*
X138960582Y-112898839D01*
X139393744Y-112985000D01*
X139686256Y-112985000D01*
X140119418Y-112898839D01*
X140610625Y-112570625D01*
X140661779Y-112494068D01*
X141651441Y-113483731D01*
X141703603Y-113561797D01*
X141853546Y-113661986D01*
X142012881Y-113768450D01*
X142377699Y-113841017D01*
X142469785Y-113822700D01*
X148977614Y-113822700D01*
X149069700Y-113841017D01*
X149161786Y-113822700D01*
X149434519Y-113768450D01*
X149743797Y-113561797D01*
X149795961Y-113483728D01*
X151403939Y-111875750D01*
X152515000Y-111875750D01*
X152515000Y-112566309D01*
X152611673Y-112799698D01*
X152790301Y-112978327D01*
X153023690Y-113075000D01*
X153714250Y-113075000D01*
X153873000Y-112916250D01*
X153873000Y-111717000D01*
X152673750Y-111717000D01*
X152515000Y-111875750D01*
X151403939Y-111875750D01*
X152515000Y-110764689D01*
X152515000Y-111304250D01*
X152673750Y-111463000D01*
X153873000Y-111463000D01*
X153873000Y-110263750D01*
X153714250Y-110105000D01*
X153174689Y-110105000D01*
X158896031Y-104383659D01*
X158974097Y-104331497D01*
X159180750Y-104022219D01*
X159235000Y-103749486D01*
X159235000Y-103749482D01*
X159253316Y-103657401D01*
X159235000Y-103565320D01*
X159235000Y-102889400D01*
X159513374Y-102889400D01*
X159815001Y-102764462D01*
X159815001Y-105542709D01*
X155943970Y-109413741D01*
X155865904Y-109465903D01*
X155813742Y-109543969D01*
X155813741Y-109543970D01*
X155659250Y-109775182D01*
X155586683Y-110140000D01*
X155605001Y-110232090D01*
X155605001Y-110428753D01*
X155469375Y-110519375D01*
X155454904Y-110541033D01*
X155388327Y-110380302D01*
X155209699Y-110201673D01*
X154976310Y-110105000D01*
X154285750Y-110105000D01*
X154127000Y-110263750D01*
X154127000Y-111463000D01*
X154147000Y-111463000D01*
X154147000Y-111717000D01*
X154127000Y-111717000D01*
X154127000Y-112916250D01*
X154285750Y-113075000D01*
X154976310Y-113075000D01*
X155209699Y-112978327D01*
X155388327Y-112799698D01*
X155454904Y-112638967D01*
X155469375Y-112660625D01*
X155960582Y-112988839D01*
X156393744Y-113075000D01*
X156686256Y-113075000D01*
X157119418Y-112988839D01*
X157610625Y-112660625D01*
X157938839Y-112169418D01*
X157997252Y-111875750D01*
X161345000Y-111875750D01*
X161345000Y-112566309D01*
X161441673Y-112799698D01*
X161620301Y-112978327D01*
X161853690Y-113075000D01*
X162544250Y-113075000D01*
X162703000Y-112916250D01*
X162703000Y-111717000D01*
X161503750Y-111717000D01*
X161345000Y-111875750D01*
X157997252Y-111875750D01*
X158054092Y-111590000D01*
X157938839Y-111010582D01*
X157673645Y-110613691D01*
X161345000Y-110613691D01*
X161345000Y-111304250D01*
X161503750Y-111463000D01*
X162703000Y-111463000D01*
X162703000Y-110263750D01*
X162544250Y-110105000D01*
X161853690Y-110105000D01*
X161620301Y-110201673D01*
X161441673Y-110380302D01*
X161345000Y-110613691D01*
X157673645Y-110613691D01*
X157610625Y-110519375D01*
X157534068Y-110468221D01*
X161346031Y-106656259D01*
X161424097Y-106604097D01*
X161630750Y-106294819D01*
X161685000Y-106022086D01*
X161703317Y-105930001D01*
X161685000Y-105837915D01*
X161685000Y-97070000D01*
X164456887Y-97070000D01*
X164568260Y-97629909D01*
X164885423Y-98104577D01*
X165237758Y-98340000D01*
X164885423Y-98575423D01*
X164568260Y-99050091D01*
X164456887Y-99610000D01*
X164568260Y-100169909D01*
X164885423Y-100644577D01*
X165006106Y-100725215D01*
X164872235Y-100751843D01*
X164662191Y-100892191D01*
X164521843Y-101102235D01*
X164472560Y-101350000D01*
X164472560Y-102950000D01*
X164521843Y-103197765D01*
X164662191Y-103407809D01*
X164872235Y-103548157D01*
X165120000Y-103597440D01*
X166720000Y-103597440D01*
X166967765Y-103548157D01*
X167177809Y-103407809D01*
X167318157Y-103197765D01*
X167367440Y-102950000D01*
X167367440Y-101350000D01*
X167318157Y-101102235D01*
X167177809Y-100892191D01*
X166967765Y-100751843D01*
X166833894Y-100725215D01*
X166954577Y-100644577D01*
X167271740Y-100169909D01*
X167383113Y-99610000D01*
X167271740Y-99050091D01*
X166954577Y-98575423D01*
X166602242Y-98340000D01*
X166954577Y-98104577D01*
X167271740Y-97629909D01*
X167383113Y-97070000D01*
X167271740Y-96510091D01*
X166954577Y-96035423D01*
X166570892Y-95779053D01*
X166775134Y-95682389D01*
X167151041Y-95267423D01*
X167311904Y-94879039D01*
X167189915Y-94657000D01*
X166047000Y-94657000D01*
X166047000Y-94677000D01*
X165793000Y-94677000D01*
X165793000Y-94657000D01*
X164650085Y-94657000D01*
X164528096Y-94879039D01*
X164688959Y-95267423D01*
X165064866Y-95682389D01*
X165269108Y-95779053D01*
X164885423Y-96035423D01*
X164568260Y-96510091D01*
X164456887Y-97070000D01*
X161685000Y-97070000D01*
X161685000Y-88137289D01*
X161887290Y-87935000D01*
X164606544Y-87935000D01*
X164698630Y-87953317D01*
X164790716Y-87935000D01*
X164868664Y-87919495D01*
X164885423Y-87944577D01*
X165237758Y-88180000D01*
X164885423Y-88415423D01*
X164568260Y-88890091D01*
X164456887Y-89450000D01*
X164568260Y-90009909D01*
X164885423Y-90484577D01*
X165237758Y-90720000D01*
X164885423Y-90955423D01*
X164568260Y-91430091D01*
X164456887Y-91990000D01*
X164568260Y-92549909D01*
X164885423Y-93024577D01*
X165269108Y-93280947D01*
X165064866Y-93377611D01*
X164688959Y-93792577D01*
X164528096Y-94180961D01*
X164650085Y-94403000D01*
X165793000Y-94403000D01*
X165793000Y-94383000D01*
X166047000Y-94383000D01*
X166047000Y-94403000D01*
X167189915Y-94403000D01*
X167311904Y-94180961D01*
X167151041Y-93792577D01*
X166775134Y-93377611D01*
X166570892Y-93280947D01*
X166954577Y-93024577D01*
X167271740Y-92549909D01*
X167383113Y-91990000D01*
X167271740Y-91430091D01*
X166954577Y-90955423D01*
X166602242Y-90720000D01*
X166954577Y-90484577D01*
X167271740Y-90009909D01*
X167383113Y-89450000D01*
X167271740Y-88890091D01*
X166954577Y-88415423D01*
X166602242Y-88180000D01*
X166954577Y-87944577D01*
X167271740Y-87469909D01*
X167383113Y-86910000D01*
X167271740Y-86350091D01*
X166954577Y-85875423D01*
X166602242Y-85640000D01*
X166954577Y-85404577D01*
X167271740Y-84929909D01*
X167383113Y-84370000D01*
X167271740Y-83810091D01*
X166954577Y-83335423D01*
X166602242Y-83100000D01*
X166954577Y-82864577D01*
X167021112Y-82765000D01*
X167442711Y-82765000D01*
X167565000Y-82887290D01*
X167565001Y-110362709D01*
X167272711Y-110655000D01*
X166531247Y-110655000D01*
X166440625Y-110519375D01*
X165949418Y-110191161D01*
X165516256Y-110105000D01*
X165223744Y-110105000D01*
X164790582Y-110191161D01*
X164299375Y-110519375D01*
X164284904Y-110541033D01*
X164218327Y-110380302D01*
X164039699Y-110201673D01*
X163806310Y-110105000D01*
X163115750Y-110105000D01*
X162957000Y-110263750D01*
X162957000Y-111463000D01*
X162977000Y-111463000D01*
X162977000Y-111717000D01*
X162957000Y-111717000D01*
X162957000Y-112916250D01*
X163115750Y-113075000D01*
X163806310Y-113075000D01*
X164039699Y-112978327D01*
X164218327Y-112799698D01*
X164284904Y-112638967D01*
X164299375Y-112660625D01*
X164790582Y-112988839D01*
X165223744Y-113075000D01*
X165516256Y-113075000D01*
X165949418Y-112988839D01*
X166440625Y-112660625D01*
X166531247Y-112525000D01*
X167567914Y-112525000D01*
X167660000Y-112543317D01*
X167752086Y-112525000D01*
X168024819Y-112470750D01*
X168334097Y-112264097D01*
X168386261Y-112186028D01*
X168873000Y-111699289D01*
X168873000Y-114265000D01*
X89927612Y-114265000D01*
X89906013Y-114269296D01*
X89639973Y-114231197D01*
X89308888Y-114080661D01*
X89033361Y-113843251D01*
X88835544Y-113538056D01*
X88724300Y-113166083D01*
X88722141Y-113137033D01*
X88735000Y-113072388D01*
X88735000Y-112154887D01*
X88765000Y-112154887D01*
X88765000Y-112845113D01*
X89029138Y-113482799D01*
X89517201Y-113970862D01*
X90154887Y-114235000D01*
X90845113Y-114235000D01*
X91482799Y-113970862D01*
X91970862Y-113482799D01*
X92235000Y-112845113D01*
X92235000Y-112154887D01*
X92164509Y-111984705D01*
X95586000Y-111984705D01*
X95586000Y-112535295D01*
X95796702Y-113043973D01*
X96186027Y-113433298D01*
X96694705Y-113644000D01*
X97245295Y-113644000D01*
X97753973Y-113433298D01*
X98143298Y-113043973D01*
X98354000Y-112535295D01*
X98354000Y-111984705D01*
X102086000Y-111984705D01*
X102086000Y-112535295D01*
X102296702Y-113043973D01*
X102686027Y-113433298D01*
X103194705Y-113644000D01*
X103745295Y-113644000D01*
X104253973Y-113433298D01*
X104643298Y-113043973D01*
X104854000Y-112535295D01*
X104854000Y-112313970D01*
X108065635Y-112313970D01*
X108225418Y-112632739D01*
X109016187Y-112942723D01*
X109865387Y-112926497D01*
X110574582Y-112632739D01*
X110734365Y-112313970D01*
X109400000Y-110979605D01*
X108065635Y-112313970D01*
X104854000Y-112313970D01*
X104854000Y-111984705D01*
X104643298Y-111476027D01*
X104253973Y-111086702D01*
X103745295Y-110876000D01*
X103194705Y-110876000D01*
X102686027Y-111086702D01*
X102296702Y-111476027D01*
X102086000Y-111984705D01*
X98354000Y-111984705D01*
X98143298Y-111476027D01*
X97753973Y-111086702D01*
X97245295Y-110876000D01*
X96694705Y-110876000D01*
X96186027Y-111086702D01*
X95796702Y-111476027D01*
X95586000Y-111984705D01*
X92164509Y-111984705D01*
X91970862Y-111517201D01*
X91482799Y-111029138D01*
X90845113Y-110765000D01*
X90154887Y-110765000D01*
X89517201Y-111029138D01*
X89029138Y-111517201D01*
X88765000Y-112154887D01*
X88735000Y-112154887D01*
X88735000Y-110416187D01*
X107257277Y-110416187D01*
X107273503Y-111265387D01*
X107567261Y-111974582D01*
X107886030Y-112134365D01*
X109220395Y-110800000D01*
X109579605Y-110800000D01*
X110913970Y-112134365D01*
X111232739Y-111974582D01*
X111542723Y-111183813D01*
X111526497Y-110334613D01*
X111232739Y-109625418D01*
X110913970Y-109465635D01*
X109579605Y-110800000D01*
X109220395Y-110800000D01*
X107886030Y-109465635D01*
X107567261Y-109625418D01*
X107257277Y-110416187D01*
X88735000Y-110416187D01*
X88735000Y-109286030D01*
X108065635Y-109286030D01*
X109400000Y-110620395D01*
X110720395Y-109300000D01*
X112332560Y-109300000D01*
X112332560Y-112300000D01*
X112381843Y-112547765D01*
X112522191Y-112757809D01*
X112732235Y-112898157D01*
X112980000Y-112947440D01*
X115980000Y-112947440D01*
X116227765Y-112898157D01*
X116437809Y-112757809D01*
X116578157Y-112547765D01*
X116627440Y-112300000D01*
X116627440Y-109300000D01*
X116578157Y-109052235D01*
X116437809Y-108842191D01*
X116227765Y-108701843D01*
X115980000Y-108652560D01*
X112980000Y-108652560D01*
X112732235Y-108701843D01*
X112522191Y-108842191D01*
X112381843Y-109052235D01*
X112332560Y-109300000D01*
X110720395Y-109300000D01*
X110734365Y-109286030D01*
X110574582Y-108967261D01*
X109783813Y-108657277D01*
X108934613Y-108673503D01*
X108225418Y-108967261D01*
X108065635Y-109286030D01*
X88735000Y-109286030D01*
X88735000Y-108045750D01*
X95586000Y-108045750D01*
X95586000Y-108635310D01*
X95682673Y-108868699D01*
X95861302Y-109047327D01*
X96094691Y-109144000D01*
X96684250Y-109144000D01*
X96843000Y-108985250D01*
X96843000Y-107887000D01*
X97097000Y-107887000D01*
X97097000Y-108985250D01*
X97255750Y-109144000D01*
X97845309Y-109144000D01*
X98078698Y-109047327D01*
X98257327Y-108868699D01*
X98354000Y-108635310D01*
X98354000Y-108045750D01*
X98195250Y-107887000D01*
X97097000Y-107887000D01*
X96843000Y-107887000D01*
X95744750Y-107887000D01*
X95586000Y-108045750D01*
X88735000Y-108045750D01*
X88735000Y-106884690D01*
X95586000Y-106884690D01*
X95586000Y-107474250D01*
X95744750Y-107633000D01*
X96843000Y-107633000D01*
X96843000Y-106534750D01*
X97097000Y-106534750D01*
X97097000Y-107633000D01*
X98195250Y-107633000D01*
X98354000Y-107474250D01*
X98354000Y-106884690D01*
X98257327Y-106651301D01*
X98078698Y-106472673D01*
X97845309Y-106376000D01*
X97255750Y-106376000D01*
X97097000Y-106534750D01*
X96843000Y-106534750D01*
X96684250Y-106376000D01*
X96094691Y-106376000D01*
X95861302Y-106472673D01*
X95682673Y-106651301D01*
X95586000Y-106884690D01*
X88735000Y-106884690D01*
X88735000Y-87390000D01*
X90653900Y-87390000D01*
X90777109Y-88009411D01*
X91127977Y-88534523D01*
X91315767Y-88660000D01*
X91127977Y-88785477D01*
X90777109Y-89310589D01*
X90653900Y-89930000D01*
X90777109Y-90549411D01*
X91039088Y-90941491D01*
X90862191Y-91059691D01*
X90721843Y-91269735D01*
X90672560Y-91517500D01*
X90672560Y-93422500D01*
X90721843Y-93670265D01*
X90862191Y-93880309D01*
X91072235Y-94020657D01*
X91320000Y-94069940D01*
X93320000Y-94069940D01*
X93567765Y-94020657D01*
X93777809Y-93880309D01*
X93918157Y-93670265D01*
X93967440Y-93422500D01*
X93967440Y-91517500D01*
X93918157Y-91269735D01*
X93777809Y-91059691D01*
X93600912Y-90941491D01*
X93652022Y-90865000D01*
X95385001Y-90865000D01*
X95385000Y-93168081D01*
X95069135Y-93379135D01*
X94685666Y-93953037D01*
X94551010Y-94630000D01*
X94685666Y-95306963D01*
X95069135Y-95880865D01*
X95643037Y-96264334D01*
X95897753Y-96315000D01*
X95342086Y-96315000D01*
X95250000Y-96296683D01*
X95157914Y-96315000D01*
X94885181Y-96369250D01*
X94575903Y-96575903D01*
X94523739Y-96653972D01*
X93653972Y-97523739D01*
X93575903Y-97575903D01*
X93369251Y-97885181D01*
X93369250Y-97885182D01*
X93296683Y-98250000D01*
X93315000Y-98342086D01*
X93315001Y-104407910D01*
X93296683Y-104500000D01*
X93369250Y-104864818D01*
X93523741Y-105096030D01*
X93575904Y-105174097D01*
X93653970Y-105226259D01*
X94023739Y-105596028D01*
X94075903Y-105674097D01*
X94385181Y-105880750D01*
X94632783Y-105930001D01*
X94750000Y-105953317D01*
X94842086Y-105935000D01*
X100302704Y-105935000D01*
X100544126Y-106035000D01*
X100955874Y-106035000D01*
X101336280Y-105877431D01*
X101627431Y-105586280D01*
X101785000Y-105205874D01*
X101785000Y-104794126D01*
X101627431Y-104413720D01*
X101336280Y-104122569D01*
X100955874Y-103965000D01*
X100544126Y-103965000D01*
X100302704Y-104065000D01*
X99803273Y-104065000D01*
X100144005Y-103923864D01*
X100218139Y-103677745D01*
X99390000Y-102849605D01*
X98561861Y-103677745D01*
X98635995Y-103923864D01*
X99028651Y-104065000D01*
X97489842Y-104065000D01*
X97734005Y-103963864D01*
X97808139Y-103717745D01*
X96980000Y-102889605D01*
X96151861Y-103717745D01*
X96225995Y-103963864D01*
X96507366Y-104065000D01*
X95185000Y-104065000D01*
X95185000Y-102493223D01*
X95533035Y-102493223D01*
X95560222Y-103063454D01*
X95726136Y-103464005D01*
X95972255Y-103538139D01*
X96800395Y-102710000D01*
X97159605Y-102710000D01*
X97987745Y-103538139D01*
X98233864Y-103464005D01*
X98237290Y-103454474D01*
X98382255Y-103498139D01*
X99210395Y-102670000D01*
X99569605Y-102670000D01*
X100397745Y-103498139D01*
X100643864Y-103424005D01*
X100836965Y-102886777D01*
X100809778Y-102316546D01*
X100643864Y-101915995D01*
X100397745Y-101841861D01*
X99569605Y-102670000D01*
X99210395Y-102670000D01*
X98382255Y-101841861D01*
X98136136Y-101915995D01*
X98132710Y-101925526D01*
X97987745Y-101881861D01*
X97159605Y-102710000D01*
X96800395Y-102710000D01*
X95972255Y-101881861D01*
X95726136Y-101955995D01*
X95533035Y-102493223D01*
X95185000Y-102493223D01*
X95185000Y-99924561D01*
X95545000Y-99924561D01*
X95545000Y-100495439D01*
X95763466Y-101022862D01*
X96167138Y-101426534D01*
X96232299Y-101453525D01*
X96225995Y-101456136D01*
X96151861Y-101702255D01*
X96980000Y-102530395D01*
X97808139Y-101702255D01*
X97734005Y-101456136D01*
X97727254Y-101453710D01*
X97792862Y-101426534D01*
X98196534Y-101022862D01*
X98201493Y-101010889D01*
X98577138Y-101386534D01*
X98642299Y-101413525D01*
X98635995Y-101416136D01*
X98561861Y-101662255D01*
X99390000Y-102490395D01*
X100218139Y-101662255D01*
X100144005Y-101416136D01*
X100137254Y-101413710D01*
X100202862Y-101386534D01*
X100606534Y-100982862D01*
X100825000Y-100455439D01*
X100825000Y-99884561D01*
X100606534Y-99357138D01*
X100202862Y-98953466D01*
X99675439Y-98735000D01*
X99104561Y-98735000D01*
X98577138Y-98953466D01*
X98173466Y-99357138D01*
X98168507Y-99369111D01*
X97792862Y-98993466D01*
X97265439Y-98775000D01*
X96694561Y-98775000D01*
X96167138Y-98993466D01*
X95763466Y-99397138D01*
X95545000Y-99924561D01*
X95185000Y-99924561D01*
X95185000Y-98637289D01*
X95637289Y-98185000D01*
X101407914Y-98185000D01*
X101500000Y-98203317D01*
X101592086Y-98185000D01*
X101864819Y-98130750D01*
X102174097Y-97924097D01*
X102226261Y-97846028D01*
X102535001Y-97537288D01*
X102535000Y-106737729D01*
X102296702Y-106976027D01*
X102086000Y-107484705D01*
X102086000Y-108035295D01*
X102296702Y-108543973D01*
X102686027Y-108933298D01*
X103194705Y-109144000D01*
X103745295Y-109144000D01*
X104253973Y-108933298D01*
X104643298Y-108543973D01*
X104854000Y-108035295D01*
X104854000Y-107484705D01*
X104643298Y-106976027D01*
X104405000Y-106737729D01*
X104405000Y-103467745D01*
X105921861Y-103467745D01*
X105995995Y-103713864D01*
X106533223Y-103906965D01*
X107103454Y-103879778D01*
X107504005Y-103713864D01*
X107578139Y-103467745D01*
X106750000Y-102639605D01*
X105921861Y-103467745D01*
X104405000Y-103467745D01*
X104405000Y-102243223D01*
X105303035Y-102243223D01*
X105330222Y-102813454D01*
X105496136Y-103214005D01*
X105742255Y-103288139D01*
X106570395Y-102460000D01*
X105742255Y-101631861D01*
X105496136Y-101705995D01*
X105303035Y-102243223D01*
X104405000Y-102243223D01*
X104405000Y-101452255D01*
X105921861Y-101452255D01*
X106750000Y-102280395D01*
X107578139Y-101452255D01*
X107504005Y-101206136D01*
X106966777Y-101013035D01*
X106396546Y-101040222D01*
X105995995Y-101206136D01*
X105921861Y-101452255D01*
X104405000Y-101452255D01*
X104405000Y-94722389D01*
X106286754Y-92840636D01*
X106361089Y-92825850D01*
X106670367Y-92619197D01*
X106722531Y-92541128D01*
X106836028Y-92427631D01*
X106914097Y-92375467D01*
X107120750Y-92066189D01*
X107175000Y-91793456D01*
X107175000Y-91793453D01*
X107193316Y-91701371D01*
X107184143Y-91655253D01*
X107456534Y-91382862D01*
X107490000Y-91302068D01*
X107523466Y-91382862D01*
X107927138Y-91786534D01*
X108454561Y-92005000D01*
X109025439Y-92005000D01*
X109315000Y-91885060D01*
X109315000Y-91995874D01*
X109472569Y-92376280D01*
X109763720Y-92667431D01*
X110005141Y-92767431D01*
X110523741Y-93286030D01*
X110575903Y-93364097D01*
X110885181Y-93570750D01*
X111157914Y-93625000D01*
X111157917Y-93625000D01*
X111249999Y-93643316D01*
X111342081Y-93625000D01*
X113652229Y-93625000D01*
X113744315Y-93643317D01*
X113836401Y-93625000D01*
X114109134Y-93570750D01*
X114418412Y-93364097D01*
X114470576Y-93286028D01*
X115212846Y-92543759D01*
X115264126Y-92565000D01*
X115675874Y-92565000D01*
X116056280Y-92407431D01*
X116347431Y-92116280D01*
X116505000Y-91735874D01*
X116505000Y-91324126D01*
X116347431Y-90943720D01*
X116056280Y-90652569D01*
X115675874Y-90495000D01*
X115264126Y-90495000D01*
X115022704Y-90595000D01*
X114996401Y-90595000D01*
X114904315Y-90576683D01*
X114812229Y-90595000D01*
X114539496Y-90649250D01*
X114403620Y-90740040D01*
X115516031Y-89627629D01*
X115594097Y-89575467D01*
X115800750Y-89266189D01*
X115855000Y-88993456D01*
X115855000Y-88993455D01*
X115873317Y-88901370D01*
X115855000Y-88809284D01*
X115855000Y-79039089D01*
X116511274Y-78382815D01*
X116591469Y-78785981D01*
X116997039Y-79392961D01*
X117385001Y-79652188D01*
X117385000Y-86319385D01*
X117385001Y-86319390D01*
X117385000Y-88647914D01*
X117366683Y-88740000D01*
X117417099Y-88993456D01*
X117439250Y-89104818D01*
X117645903Y-89414097D01*
X117723972Y-89466261D01*
X121135001Y-92877291D01*
X121135000Y-102262711D01*
X118982711Y-104415000D01*
X111395920Y-104415000D01*
X110360158Y-103379238D01*
X110466534Y-103272862D01*
X110685000Y-102745439D01*
X110685000Y-102174561D01*
X110503081Y-101735370D01*
X111363748Y-102596037D01*
X111410854Y-102832855D01*
X111661711Y-103208289D01*
X112037145Y-103459146D01*
X112368217Y-103525000D01*
X116288217Y-103525000D01*
X116400000Y-103547235D01*
X116511783Y-103525000D01*
X116842855Y-103459146D01*
X117218289Y-103208289D01*
X117281613Y-103113518D01*
X118090131Y-102305000D01*
X118685004Y-102305000D01*
X119359444Y-102025638D01*
X119875638Y-101509444D01*
X120155000Y-100835004D01*
X120155000Y-100104996D01*
X119875638Y-99430556D01*
X119359444Y-98914362D01*
X118685004Y-98635000D01*
X117954996Y-98635000D01*
X117280556Y-98914362D01*
X116764362Y-99430556D01*
X116485000Y-100104996D01*
X116485000Y-100699869D01*
X115929869Y-101255000D01*
X112667289Y-101255000D01*
X108782289Y-97370000D01*
X110692560Y-97370000D01*
X110692560Y-98970000D01*
X110741843Y-99217765D01*
X110882191Y-99427809D01*
X111092235Y-99568157D01*
X111340000Y-99617440D01*
X112940000Y-99617440D01*
X113187765Y-99568157D01*
X113397809Y-99427809D01*
X113538157Y-99217765D01*
X113587440Y-98970000D01*
X113587440Y-97370000D01*
X113538157Y-97122235D01*
X113397809Y-96912191D01*
X113187765Y-96771843D01*
X112940000Y-96722560D01*
X111340000Y-96722560D01*
X111092235Y-96771843D01*
X110882191Y-96912191D01*
X110741843Y-97122235D01*
X110692560Y-97370000D01*
X108782289Y-97370000D01*
X107331261Y-95918972D01*
X107279097Y-95840903D01*
X106969819Y-95634250D01*
X106697086Y-95580000D01*
X106605000Y-95561683D01*
X106512914Y-95580000D01*
X105977596Y-95580000D01*
X105736174Y-95480000D01*
X105324426Y-95480000D01*
X104944020Y-95637569D01*
X104652869Y-95928720D01*
X104495300Y-96309126D01*
X104495300Y-96720874D01*
X104652869Y-97101280D01*
X104944020Y-97392431D01*
X105324426Y-97550000D01*
X105736174Y-97550000D01*
X105977596Y-97450000D01*
X106217711Y-97450000D01*
X109974630Y-101206919D01*
X109535439Y-101025000D01*
X108964561Y-101025000D01*
X108437138Y-101243466D01*
X108033466Y-101647138D01*
X108006475Y-101712299D01*
X108003864Y-101705995D01*
X107757745Y-101631861D01*
X106929605Y-102460000D01*
X107757745Y-103288139D01*
X108003864Y-103214005D01*
X108006290Y-103207254D01*
X108033466Y-103272862D01*
X108305856Y-103545252D01*
X108296683Y-103591370D01*
X108369250Y-103956188D01*
X108485239Y-104129778D01*
X108575904Y-104265467D01*
X108653970Y-104317629D01*
X110282371Y-105946031D01*
X110334533Y-106024097D01*
X110643811Y-106230750D01*
X110916544Y-106285000D01*
X110916547Y-106285000D01*
X111008629Y-106303316D01*
X111100711Y-106285000D01*
X119277914Y-106285000D01*
X119370000Y-106303317D01*
X119462086Y-106285000D01*
X119734819Y-106230750D01*
X120044097Y-106024097D01*
X120096261Y-105946028D01*
X122666028Y-103376261D01*
X122744097Y-103324097D01*
X122950750Y-103014819D01*
X123005000Y-102742086D01*
X123005000Y-102742085D01*
X123023317Y-102650000D01*
X123005000Y-102557914D01*
X123005000Y-92582086D01*
X123023317Y-92490000D01*
X122985007Y-92297400D01*
X122950750Y-92125181D01*
X122744097Y-91815903D01*
X122666031Y-91763741D01*
X119255000Y-88352711D01*
X119255000Y-79652188D01*
X119642961Y-79392961D01*
X120048531Y-78785981D01*
X120190949Y-78070000D01*
X120048531Y-77354019D01*
X119642961Y-76747039D01*
X119573200Y-76700426D01*
X119573200Y-75605165D01*
X119772235Y-75738157D01*
X120020000Y-75787440D01*
X121820000Y-75787440D01*
X122067765Y-75738157D01*
X122277809Y-75597809D01*
X122418157Y-75387765D01*
X122467440Y-75140000D01*
X122467440Y-73340000D01*
X122418157Y-73092235D01*
X122277809Y-72882191D01*
X122067765Y-72741843D01*
X122052092Y-72738725D01*
X122221310Y-72569507D01*
X122455000Y-72005330D01*
X122455000Y-71394670D01*
X122221310Y-70830493D01*
X121789507Y-70398690D01*
X121225330Y-70165000D01*
X120614670Y-70165000D01*
X120050493Y-70398690D01*
X119618690Y-70830493D01*
X119385000Y-71394670D01*
X119385000Y-71912711D01*
X118772800Y-72524911D01*
X118772800Y-68669880D01*
X118791116Y-68577799D01*
X118772800Y-68485718D01*
X118772800Y-68485714D01*
X118718550Y-68212981D01*
X118511897Y-67903703D01*
X118433831Y-67851541D01*
X117517993Y-66935704D01*
X117564577Y-66904577D01*
X117881740Y-66429909D01*
X117993113Y-65870000D01*
X117881740Y-65310091D01*
X117564577Y-64835423D01*
X117089909Y-64518260D01*
X116671333Y-64435000D01*
X116388667Y-64435000D01*
X115970091Y-64518260D01*
X115495423Y-64835423D01*
X115178260Y-65310091D01*
X115066887Y-65870000D01*
X115178260Y-66429909D01*
X115495423Y-66904577D01*
X115595000Y-66971112D01*
X115595000Y-67177914D01*
X115576683Y-67270000D01*
X115595000Y-67362085D01*
X115649250Y-67634818D01*
X115855903Y-67944097D01*
X115933972Y-67996261D01*
X116375358Y-68437647D01*
X115970091Y-68518260D01*
X115495423Y-68835423D01*
X115464297Y-68882007D01*
X109452290Y-62870000D01*
X115066887Y-62870000D01*
X115178260Y-63429909D01*
X115495423Y-63904577D01*
X115970091Y-64221740D01*
X116388667Y-64305000D01*
X116671333Y-64305000D01*
X117089909Y-64221740D01*
X117564577Y-63904577D01*
X117881740Y-63429909D01*
X117993113Y-62870000D01*
X117881740Y-62310091D01*
X117564577Y-61835423D01*
X117089909Y-61518260D01*
X116671333Y-61435000D01*
X116388667Y-61435000D01*
X115970091Y-61518260D01*
X115495423Y-61835423D01*
X115178260Y-62310091D01*
X115066887Y-62870000D01*
X109452290Y-62870000D01*
X108856261Y-62273972D01*
X108804097Y-62195903D01*
X108494819Y-61989250D01*
X108222086Y-61935000D01*
X108130000Y-61916683D01*
X108037914Y-61935000D01*
X107464396Y-61935000D01*
X107182862Y-61653466D01*
X106655439Y-61435000D01*
X106084561Y-61435000D01*
X105557138Y-61653466D01*
X105153466Y-62057138D01*
X104935000Y-62584561D01*
X104935000Y-63155439D01*
X105153466Y-63682862D01*
X105557138Y-64086534D01*
X106084561Y-64305000D01*
X106655439Y-64305000D01*
X107182862Y-64086534D01*
X107464396Y-63805000D01*
X107742711Y-63805000D01*
X113807710Y-69870000D01*
X110009072Y-73668639D01*
X109931003Y-73720803D01*
X109756611Y-73981800D01*
X109724350Y-74030082D01*
X109651783Y-74394900D01*
X109670100Y-74486986D01*
X109670100Y-76175515D01*
X109459039Y-76088096D01*
X109237000Y-76210085D01*
X109237000Y-77353000D01*
X109257000Y-77353000D01*
X109257000Y-77607000D01*
X109237000Y-77607000D01*
X109237000Y-78749915D01*
X109305604Y-78787606D01*
X107545400Y-80547811D01*
X107477431Y-80383720D01*
X107333000Y-80239289D01*
X108294228Y-79278061D01*
X108372297Y-79225897D01*
X108578950Y-78916619D01*
X108601021Y-78805659D01*
X108760961Y-78871904D01*
X108983000Y-78749915D01*
X108983000Y-77607000D01*
X108963000Y-77607000D01*
X108963000Y-77353000D01*
X108983000Y-77353000D01*
X108983000Y-76210085D01*
X108760961Y-76088096D01*
X108633200Y-76141013D01*
X108633200Y-67290280D01*
X108651516Y-67198199D01*
X108633200Y-67106118D01*
X108633200Y-67106114D01*
X108578950Y-66833381D01*
X108372297Y-66524103D01*
X108294231Y-66471941D01*
X107805000Y-65982710D01*
X107805000Y-65584561D01*
X107586534Y-65057138D01*
X107182862Y-64653466D01*
X106655439Y-64435000D01*
X106084561Y-64435000D01*
X105557138Y-64653466D01*
X105153466Y-65057138D01*
X104935000Y-65584561D01*
X104935000Y-66155439D01*
X105153466Y-66682862D01*
X105557138Y-67086534D01*
X106084561Y-67305000D01*
X106482710Y-67305000D01*
X106763200Y-67585490D01*
X106763200Y-68479636D01*
X106655439Y-68435000D01*
X106084561Y-68435000D01*
X105557138Y-68653466D01*
X105153466Y-69057138D01*
X104935000Y-69584561D01*
X104935000Y-70155439D01*
X105153466Y-70682862D01*
X105435000Y-70964396D01*
X105435001Y-76032709D01*
X102625956Y-78841755D01*
X102573864Y-78715995D01*
X102327745Y-78641861D01*
X101499605Y-79470000D01*
X101513748Y-79484143D01*
X101334143Y-79663748D01*
X101320000Y-79649605D01*
X101305858Y-79663748D01*
X101126252Y-79484142D01*
X101140395Y-79470000D01*
X100312255Y-78641861D01*
X100066136Y-78715995D01*
X99873035Y-79253223D01*
X99900222Y-79823454D01*
X100061605Y-80213067D01*
X99921843Y-80422235D01*
X99872560Y-80670000D01*
X99872560Y-82270000D01*
X99921843Y-82517765D01*
X100062191Y-82727809D01*
X100108775Y-82758935D01*
X98067440Y-84800271D01*
X98067440Y-83370000D01*
X98018157Y-83122235D01*
X97877809Y-82912191D01*
X97667765Y-82771843D01*
X97420000Y-82722560D01*
X97263881Y-82722560D01*
X97254247Y-82674126D01*
X97200750Y-82405181D01*
X96994097Y-82095903D01*
X96916028Y-82043739D01*
X93334544Y-78462255D01*
X100491861Y-78462255D01*
X101320000Y-79290395D01*
X102148139Y-78462255D01*
X102074005Y-78216136D01*
X101536777Y-78023035D01*
X100966546Y-78050222D01*
X100565995Y-78216136D01*
X100491861Y-78462255D01*
X93334544Y-78462255D01*
X92935000Y-78062711D01*
X92935000Y-75210000D01*
X97597632Y-75210000D01*
X97706056Y-75755082D01*
X98014820Y-76217180D01*
X98476918Y-76525944D01*
X98884412Y-76607000D01*
X101135588Y-76607000D01*
X101543082Y-76525944D01*
X102005180Y-76217180D01*
X102313944Y-75755082D01*
X102422368Y-75210000D01*
X102313944Y-74664918D01*
X102005180Y-74202820D01*
X101543082Y-73894056D01*
X101135588Y-73813000D01*
X98884412Y-73813000D01*
X98476918Y-73894056D01*
X98014820Y-74202820D01*
X97706056Y-74664918D01*
X97597632Y-75210000D01*
X92935000Y-75210000D01*
X92935000Y-70507000D01*
X94983000Y-70507000D01*
X94983000Y-71495000D01*
X95137941Y-72019941D01*
X95481974Y-72445630D01*
X95962723Y-72707260D01*
X96036930Y-72722220D01*
X96253000Y-72599720D01*
X96253000Y-70507000D01*
X96507000Y-70507000D01*
X96507000Y-72599720D01*
X96723070Y-72722220D01*
X96797277Y-72707260D01*
X97278026Y-72445630D01*
X97622059Y-72019941D01*
X97777000Y-71495000D01*
X97777000Y-70507000D01*
X96507000Y-70507000D01*
X96253000Y-70507000D01*
X94983000Y-70507000D01*
X92935000Y-70507000D01*
X92935000Y-69387289D01*
X93057289Y-69265000D01*
X94983000Y-69265000D01*
X94983000Y-70253000D01*
X96253000Y-70253000D01*
X96253000Y-68160280D01*
X96507000Y-68160280D01*
X96507000Y-70253000D01*
X97777000Y-70253000D01*
X97777000Y-69265000D01*
X97622059Y-68740059D01*
X97278026Y-68314370D01*
X96797277Y-68052740D01*
X96723070Y-68037780D01*
X96507000Y-68160280D01*
X96253000Y-68160280D01*
X96036930Y-68037780D01*
X95962723Y-68052740D01*
X95481974Y-68314370D01*
X95137941Y-68740059D01*
X94983000Y-69265000D01*
X93057289Y-69265000D01*
X96387290Y-65935000D01*
X99252711Y-65935000D01*
X101756625Y-68438915D01*
X101732821Y-68454820D01*
X101424057Y-68916918D01*
X101343001Y-69324412D01*
X101343000Y-71575587D01*
X101424056Y-71983081D01*
X101732820Y-72445179D01*
X102194918Y-72753944D01*
X102740000Y-72862368D01*
X103285081Y-72753944D01*
X103747179Y-72445180D01*
X104055944Y-71983082D01*
X104137000Y-71575588D01*
X104137000Y-69324412D01*
X104055944Y-68916918D01*
X103747180Y-68454820D01*
X103675000Y-68406591D01*
X103675000Y-68192085D01*
X103693317Y-68099999D01*
X103620750Y-67735181D01*
X103466259Y-67503969D01*
X103414097Y-67425903D01*
X103336031Y-67373741D01*
X100366261Y-64403972D01*
X100314097Y-64325903D01*
X100004819Y-64119250D01*
X99732086Y-64065000D01*
X99640000Y-64046683D01*
X99547914Y-64065000D01*
X96092081Y-64065000D01*
X95999999Y-64046684D01*
X95907917Y-64065000D01*
X95907914Y-64065000D01*
X95635181Y-64119250D01*
X95325903Y-64325903D01*
X95273741Y-64403969D01*
X91403972Y-68273739D01*
X91325903Y-68325903D01*
X91219121Y-68485714D01*
X91119250Y-68635182D01*
X91046683Y-69000000D01*
X91065000Y-69092086D01*
X91065001Y-78357910D01*
X91046683Y-78450000D01*
X91119250Y-78814818D01*
X91192993Y-78925182D01*
X91325904Y-79124097D01*
X91403970Y-79176259D01*
X94995022Y-82767311D01*
X94972235Y-82771843D01*
X94762191Y-82912191D01*
X94621843Y-83122235D01*
X94572560Y-83370000D01*
X94572560Y-83535000D01*
X92622086Y-83535000D01*
X92530000Y-83516683D01*
X92437914Y-83535000D01*
X92165181Y-83589250D01*
X91855903Y-83795903D01*
X91803739Y-83873972D01*
X91723972Y-83953739D01*
X91645903Y-84005903D01*
X91559522Y-84135182D01*
X91439250Y-84315182D01*
X91366683Y-84680000D01*
X91385000Y-84772086D01*
X91385001Y-86073740D01*
X91127977Y-86245477D01*
X90777109Y-86770589D01*
X90653900Y-87390000D01*
X88735000Y-87390000D01*
X88735000Y-62154887D01*
X88765000Y-62154887D01*
X88765000Y-62845113D01*
X89029138Y-63482799D01*
X89517201Y-63970862D01*
X90154887Y-64235000D01*
X90845113Y-64235000D01*
X91482799Y-63970862D01*
X91970862Y-63482799D01*
X92235000Y-62845113D01*
X92235000Y-62154887D01*
X91970862Y-61517201D01*
X91482799Y-61029138D01*
X90845113Y-60765000D01*
X90154887Y-60765000D01*
X89517201Y-61029138D01*
X89029138Y-61517201D01*
X88765000Y-62154887D01*
X88735000Y-62154887D01*
X88735000Y-61927612D01*
X88730704Y-61906013D01*
X88768803Y-61639973D01*
X88919338Y-61308890D01*
X89156749Y-61033361D01*
X89461944Y-60835544D01*
X89833917Y-60724300D01*
X89862967Y-60722141D01*
X89927612Y-60735000D01*
G36*
X99385001Y-91875603D02*
X99103466Y-92157138D01*
X98885000Y-92684561D01*
X98885000Y-93255439D01*
X99103466Y-93782862D01*
X99507138Y-94186534D01*
X99572299Y-94213525D01*
X99565995Y-94216136D01*
X99491861Y-94462255D01*
X100320000Y-95290395D01*
X101148139Y-94462255D01*
X101074005Y-94216136D01*
X101067254Y-94213710D01*
X101132862Y-94186534D01*
X101493100Y-93826296D01*
X101493101Y-94691668D01*
X101327745Y-94641861D01*
X100499605Y-95470000D01*
X100513748Y-95484143D01*
X100334142Y-95663748D01*
X100320000Y-95649605D01*
X100305858Y-95663748D01*
X100126252Y-95484142D01*
X100140395Y-95470000D01*
X99312255Y-94641861D01*
X99066136Y-94715995D01*
X98873035Y-95253223D01*
X98900222Y-95823454D01*
X99066136Y-96224005D01*
X99312253Y-96298139D01*
X99295392Y-96315000D01*
X96742247Y-96315000D01*
X96996963Y-96264334D01*
X97570865Y-95880865D01*
X97954334Y-95306963D01*
X98088990Y-94630000D01*
X97954334Y-93953037D01*
X97570865Y-93379135D01*
X97255000Y-93168081D01*
X97255000Y-90022086D01*
X97273317Y-89930000D01*
X97255000Y-89837914D01*
X97255000Y-88257289D01*
X99385000Y-86127289D01*
X99385001Y-91875603D01*
X99385001Y-91875603D01*
G37*
X99385001Y-91875603D02*
X99103466Y-92157138D01*
X98885000Y-92684561D01*
X98885000Y-93255439D01*
X99103466Y-93782862D01*
X99507138Y-94186534D01*
X99572299Y-94213525D01*
X99565995Y-94216136D01*
X99491861Y-94462255D01*
X100320000Y-95290395D01*
X101148139Y-94462255D01*
X101074005Y-94216136D01*
X101067254Y-94213710D01*
X101132862Y-94186534D01*
X101493100Y-93826296D01*
X101493101Y-94691668D01*
X101327745Y-94641861D01*
X100499605Y-95470000D01*
X100513748Y-95484143D01*
X100334142Y-95663748D01*
X100320000Y-95649605D01*
X100305858Y-95663748D01*
X100126252Y-95484142D01*
X100140395Y-95470000D01*
X99312255Y-94641861D01*
X99066136Y-94715995D01*
X98873035Y-95253223D01*
X98900222Y-95823454D01*
X99066136Y-96224005D01*
X99312253Y-96298139D01*
X99295392Y-96315000D01*
X96742247Y-96315000D01*
X96996963Y-96264334D01*
X97570865Y-95880865D01*
X97954334Y-95306963D01*
X98088990Y-94630000D01*
X97954334Y-93953037D01*
X97570865Y-93379135D01*
X97255000Y-93168081D01*
X97255000Y-90022086D01*
X97273317Y-89930000D01*
X97255000Y-89837914D01*
X97255000Y-88257289D01*
X99385000Y-86127289D01*
X99385001Y-91875603D01*
G36*
X104133672Y-83959539D02*
X104055603Y-84011703D01*
X103904317Y-84238119D01*
X103848950Y-84320982D01*
X103776383Y-84685800D01*
X103794700Y-84777886D01*
X103794701Y-89137209D01*
X103365180Y-89566731D01*
X103495266Y-89337336D01*
X103503964Y-89275810D01*
X103378163Y-89097000D01*
X102287000Y-89097000D01*
X102287000Y-89976593D01*
X102470506Y-90136326D01*
X102910331Y-90014823D01*
X102940998Y-89990912D01*
X101832072Y-91099839D01*
X101754003Y-91152003D01*
X101581427Y-91410282D01*
X101547350Y-91461282D01*
X101474783Y-91826100D01*
X101493100Y-91918186D01*
X101493100Y-92113704D01*
X101255000Y-91875604D01*
X101255000Y-89894230D01*
X101409669Y-90014823D01*
X101849494Y-90136326D01*
X102033000Y-89976593D01*
X102033000Y-89097000D01*
X102013000Y-89097000D01*
X102013000Y-88860000D01*
X102499246Y-88860000D01*
X102584710Y-88843000D01*
X103378163Y-88843000D01*
X103503964Y-88664190D01*
X103495266Y-88602664D01*
X103349146Y-88344996D01*
X103477695Y-88152609D01*
X103567725Y-87700000D01*
X103477843Y-87248133D01*
X103508157Y-87202765D01*
X103557440Y-86955000D01*
X103557440Y-85905000D01*
X103508157Y-85657235D01*
X103367809Y-85447191D01*
X103157765Y-85306843D01*
X102910000Y-85257560D01*
X102314729Y-85257560D01*
X105637290Y-81935000D01*
X106158211Y-81935000D01*
X104133672Y-83959539D01*
X104133672Y-83959539D01*
G37*
X104133672Y-83959539D02*
X104055603Y-84011703D01*
X103904317Y-84238119D01*
X103848950Y-84320982D01*
X103776383Y-84685800D01*
X103794700Y-84777886D01*
X103794701Y-89137209D01*
X103365180Y-89566731D01*
X103495266Y-89337336D01*
X103503964Y-89275810D01*
X103378163Y-89097000D01*
X102287000Y-89097000D01*
X102287000Y-89976593D01*
X102470506Y-90136326D01*
X102910331Y-90014823D01*
X102940998Y-89990912D01*
X101832072Y-91099839D01*
X101754003Y-91152003D01*
X101581427Y-91410282D01*
X101547350Y-91461282D01*
X101474783Y-91826100D01*
X101493100Y-91918186D01*
X101493100Y-92113704D01*
X101255000Y-91875604D01*
X101255000Y-89894230D01*
X101409669Y-90014823D01*
X101849494Y-90136326D01*
X102033000Y-89976593D01*
X102033000Y-89097000D01*
X102013000Y-89097000D01*
X102013000Y-88860000D01*
X102499246Y-88860000D01*
X102584710Y-88843000D01*
X103378163Y-88843000D01*
X103503964Y-88664190D01*
X103495266Y-88602664D01*
X103349146Y-88344996D01*
X103477695Y-88152609D01*
X103567725Y-87700000D01*
X103477843Y-87248133D01*
X103508157Y-87202765D01*
X103557440Y-86955000D01*
X103557440Y-85905000D01*
X103508157Y-85657235D01*
X103367809Y-85447191D01*
X103157765Y-85306843D01*
X102910000Y-85257560D01*
X102314729Y-85257560D01*
X105637290Y-81935000D01*
X106158211Y-81935000D01*
X104133672Y-83959539D01*
G36*
X143195418Y-60777261D02*
X143035635Y-61096030D01*
X144370000Y-62430395D01*
X145704365Y-61096030D01*
X145544582Y-60777261D01*
X145436774Y-60735000D01*
X168873000Y-60735000D01*
X168873000Y-75815000D01*
X167021112Y-75815000D01*
X166954577Y-75715423D01*
X166602242Y-75480000D01*
X166954577Y-75244577D01*
X167271740Y-74769909D01*
X167383113Y-74210000D01*
X167271740Y-73650091D01*
X166954577Y-73175423D01*
X166602242Y-72940000D01*
X166954577Y-72704577D01*
X167271740Y-72229909D01*
X167383113Y-71670000D01*
X167271740Y-71110091D01*
X166954577Y-70635423D01*
X166602242Y-70400000D01*
X166954577Y-70164577D01*
X167271740Y-69689909D01*
X167383113Y-69130000D01*
X167271740Y-68570091D01*
X166954577Y-68095423D01*
X166602242Y-67860000D01*
X166954577Y-67624577D01*
X167271740Y-67149909D01*
X167383113Y-66590000D01*
X167271740Y-66030091D01*
X166954577Y-65555423D01*
X166479909Y-65238260D01*
X166061333Y-65155000D01*
X165778667Y-65155000D01*
X165360091Y-65238260D01*
X164885423Y-65555423D01*
X164568260Y-66030091D01*
X164456887Y-66590000D01*
X164568260Y-67149909D01*
X164885423Y-67624577D01*
X165237758Y-67860000D01*
X164885423Y-68095423D01*
X164568260Y-68570091D01*
X164456887Y-69130000D01*
X164568260Y-69689909D01*
X164885423Y-70164577D01*
X165237758Y-70400000D01*
X164885423Y-70635423D01*
X164568260Y-71110091D01*
X164456887Y-71670000D01*
X164568260Y-72229909D01*
X164885423Y-72704577D01*
X165237758Y-72940000D01*
X164885423Y-73175423D01*
X164826141Y-73264144D01*
X164788630Y-73256683D01*
X164696545Y-73275000D01*
X164696544Y-73275000D01*
X164495451Y-73315000D01*
X158342081Y-73315000D01*
X158249999Y-73296684D01*
X158157917Y-73315000D01*
X158157914Y-73315000D01*
X157885181Y-73369250D01*
X157575903Y-73575903D01*
X157523741Y-73653969D01*
X155385970Y-75791741D01*
X155307904Y-75843903D01*
X155255742Y-75921969D01*
X155255741Y-75921970D01*
X155101250Y-76153182D01*
X155028683Y-76518000D01*
X155047001Y-76610091D01*
X155047000Y-102630710D01*
X153112711Y-104565000D01*
X149137290Y-104565000D01*
X148468100Y-103895811D01*
X148468100Y-101375185D01*
X148486417Y-101283099D01*
X148485326Y-101277616D01*
X149240251Y-102032541D01*
X149216887Y-102150000D01*
X149328260Y-102709909D01*
X149645423Y-103184577D01*
X150120091Y-103501740D01*
X150538667Y-103585000D01*
X150821333Y-103585000D01*
X151239909Y-103501740D01*
X151714577Y-103184577D01*
X152031740Y-102709909D01*
X152143113Y-102150000D01*
X152031740Y-101590091D01*
X151714577Y-101115423D01*
X151330892Y-100859053D01*
X151535134Y-100762389D01*
X151911041Y-100347423D01*
X152071904Y-99959039D01*
X151949915Y-99737000D01*
X150807000Y-99737000D01*
X150807000Y-99757000D01*
X150553000Y-99757000D01*
X150553000Y-99737000D01*
X150533000Y-99737000D01*
X150533000Y-99483000D01*
X150553000Y-99483000D01*
X150553000Y-99463000D01*
X150807000Y-99463000D01*
X150807000Y-99483000D01*
X151949915Y-99483000D01*
X152071904Y-99260961D01*
X151911041Y-98872577D01*
X151535134Y-98457611D01*
X151330892Y-98360947D01*
X151714577Y-98104577D01*
X152031740Y-97629909D01*
X152143113Y-97070000D01*
X152031740Y-96510091D01*
X151714577Y-96035423D01*
X151362242Y-95800000D01*
X151714577Y-95564577D01*
X152031740Y-95089909D01*
X152143113Y-94530000D01*
X152031740Y-93970091D01*
X151714577Y-93495423D01*
X151362242Y-93260000D01*
X151714577Y-93024577D01*
X152031740Y-92549909D01*
X152143113Y-91990000D01*
X152031740Y-91430091D01*
X151714577Y-90955423D01*
X151362242Y-90720000D01*
X151714577Y-90484577D01*
X152031740Y-90009909D01*
X152143113Y-89450000D01*
X152031740Y-88890091D01*
X151714577Y-88415423D01*
X151362242Y-88180000D01*
X151714577Y-87944577D01*
X152031740Y-87469909D01*
X152143113Y-86910000D01*
X152031740Y-86350091D01*
X151714577Y-85875423D01*
X151362242Y-85640000D01*
X151714577Y-85404577D01*
X152031740Y-84929909D01*
X152143113Y-84370000D01*
X152031740Y-83810091D01*
X151714577Y-83335423D01*
X151362242Y-83100000D01*
X151714577Y-82864577D01*
X152031740Y-82389909D01*
X152143113Y-81830000D01*
X152031740Y-81270091D01*
X151714577Y-80795423D01*
X151362242Y-80560000D01*
X151714577Y-80324577D01*
X152031740Y-79849909D01*
X152143113Y-79290000D01*
X152031740Y-78730091D01*
X151714577Y-78255423D01*
X151362242Y-78020000D01*
X151714577Y-77784577D01*
X152031740Y-77309909D01*
X152143113Y-76750000D01*
X152031740Y-76190091D01*
X151714577Y-75715423D01*
X151362242Y-75480000D01*
X151714577Y-75244577D01*
X152031740Y-74769909D01*
X152143113Y-74210000D01*
X152031740Y-73650091D01*
X151714577Y-73175423D01*
X151362242Y-72940000D01*
X151714577Y-72704577D01*
X152031740Y-72229909D01*
X152143113Y-71670000D01*
X152031740Y-71110091D01*
X151714577Y-70635423D01*
X151362242Y-70400000D01*
X151714577Y-70164577D01*
X152031740Y-69689909D01*
X152143113Y-69130000D01*
X152031740Y-68570091D01*
X151714577Y-68095423D01*
X151362242Y-67860000D01*
X151714577Y-67624577D01*
X152031740Y-67149909D01*
X152143113Y-66590000D01*
X152031740Y-66030091D01*
X151714577Y-65555423D01*
X151239909Y-65238260D01*
X150821333Y-65155000D01*
X150538667Y-65155000D01*
X150120091Y-65238260D01*
X149645423Y-65555423D01*
X149328260Y-66030091D01*
X149216887Y-66590000D01*
X149328260Y-67149909D01*
X149645423Y-67624577D01*
X149997758Y-67860000D01*
X149645423Y-68095423D01*
X149328260Y-68570091D01*
X149216887Y-69130000D01*
X149328260Y-69689909D01*
X149645423Y-70164577D01*
X149997758Y-70400000D01*
X149645423Y-70635423D01*
X149328260Y-71110091D01*
X149216887Y-71670000D01*
X149328260Y-72229909D01*
X149645423Y-72704577D01*
X149997758Y-72940000D01*
X149645423Y-73175423D01*
X149328260Y-73650091D01*
X149216887Y-74210000D01*
X149328260Y-74769909D01*
X149645423Y-75244577D01*
X149997758Y-75480000D01*
X149645423Y-75715423D01*
X149328260Y-76190091D01*
X149216887Y-76750000D01*
X149328260Y-77309909D01*
X149645423Y-77784577D01*
X149997758Y-78020000D01*
X149645423Y-78255423D01*
X149328260Y-78730091D01*
X149216887Y-79290000D01*
X149328260Y-79849909D01*
X149645423Y-80324577D01*
X149997758Y-80560000D01*
X149645423Y-80795423D01*
X149328260Y-81270091D01*
X149216887Y-81830000D01*
X149328260Y-82389909D01*
X149645423Y-82864577D01*
X149997758Y-83100000D01*
X149645423Y-83335423D01*
X149328260Y-83810091D01*
X149216887Y-84370000D01*
X149328260Y-84929909D01*
X149645423Y-85404577D01*
X149997758Y-85640000D01*
X149645423Y-85875423D01*
X149328260Y-86350091D01*
X149216887Y-86910000D01*
X149328260Y-87469909D01*
X149645423Y-87944577D01*
X149997758Y-88180000D01*
X149645423Y-88415423D01*
X149328260Y-88890091D01*
X149216887Y-89450000D01*
X149328260Y-90009909D01*
X149645423Y-90484577D01*
X149997758Y-90720000D01*
X149645423Y-90955423D01*
X149328260Y-91430091D01*
X149216887Y-91990000D01*
X149328260Y-92549909D01*
X149645423Y-93024577D01*
X149997758Y-93260000D01*
X149645423Y-93495423D01*
X149328260Y-93970091D01*
X149216887Y-94530000D01*
X149328260Y-95089909D01*
X149645423Y-95564577D01*
X149997758Y-95800000D01*
X149645423Y-96035423D01*
X149328260Y-96510091D01*
X149216887Y-97070000D01*
X149328260Y-97629909D01*
X149645423Y-98104577D01*
X150029108Y-98360947D01*
X149824866Y-98457611D01*
X149448959Y-98872577D01*
X149288096Y-99260961D01*
X149410084Y-99482998D01*
X149335288Y-99482998D01*
X127525000Y-77672711D01*
X127525000Y-64533618D01*
X127799380Y-64419966D01*
X128095376Y-64123970D01*
X143035635Y-64123970D01*
X143195418Y-64442739D01*
X143986187Y-64752723D01*
X144835387Y-64736497D01*
X145544582Y-64442739D01*
X145704365Y-64123970D01*
X144370000Y-62789605D01*
X143035635Y-64123970D01*
X128095376Y-64123970D01*
X128399966Y-63819380D01*
X128725000Y-63034678D01*
X128725000Y-62226187D01*
X142227277Y-62226187D01*
X142243503Y-63075387D01*
X142537261Y-63784582D01*
X142856030Y-63944365D01*
X144190395Y-62610000D01*
X144549605Y-62610000D01*
X145883970Y-63944365D01*
X146202739Y-63784582D01*
X146512723Y-62993813D01*
X146496497Y-62144613D01*
X146202739Y-61435418D01*
X145883970Y-61275635D01*
X144549605Y-62610000D01*
X144190395Y-62610000D01*
X142856030Y-61275635D01*
X142537261Y-61435418D01*
X142227277Y-62226187D01*
X128725000Y-62226187D01*
X128725000Y-62185322D01*
X128399966Y-61400620D01*
X127799380Y-60800034D01*
X127642374Y-60735000D01*
X143297445Y-60735000D01*
X143195418Y-60777261D01*
X143195418Y-60777261D01*
G37*
X143195418Y-60777261D02*
X143035635Y-61096030D01*
X144370000Y-62430395D01*
X145704365Y-61096030D01*
X145544582Y-60777261D01*
X145436774Y-60735000D01*
X168873000Y-60735000D01*
X168873000Y-75815000D01*
X167021112Y-75815000D01*
X166954577Y-75715423D01*
X166602242Y-75480000D01*
X166954577Y-75244577D01*
X167271740Y-74769909D01*
X167383113Y-74210000D01*
X167271740Y-73650091D01*
X166954577Y-73175423D01*
X166602242Y-72940000D01*
X166954577Y-72704577D01*
X167271740Y-72229909D01*
X167383113Y-71670000D01*
X167271740Y-71110091D01*
X166954577Y-70635423D01*
X166602242Y-70400000D01*
X166954577Y-70164577D01*
X167271740Y-69689909D01*
X167383113Y-69130000D01*
X167271740Y-68570091D01*
X166954577Y-68095423D01*
X166602242Y-67860000D01*
X166954577Y-67624577D01*
X167271740Y-67149909D01*
X167383113Y-66590000D01*
X167271740Y-66030091D01*
X166954577Y-65555423D01*
X166479909Y-65238260D01*
X166061333Y-65155000D01*
X165778667Y-65155000D01*
X165360091Y-65238260D01*
X164885423Y-65555423D01*
X164568260Y-66030091D01*
X164456887Y-66590000D01*
X164568260Y-67149909D01*
X164885423Y-67624577D01*
X165237758Y-67860000D01*
X164885423Y-68095423D01*
X164568260Y-68570091D01*
X164456887Y-69130000D01*
X164568260Y-69689909D01*
X164885423Y-70164577D01*
X165237758Y-70400000D01*
X164885423Y-70635423D01*
X164568260Y-71110091D01*
X164456887Y-71670000D01*
X164568260Y-72229909D01*
X164885423Y-72704577D01*
X165237758Y-72940000D01*
X164885423Y-73175423D01*
X164826141Y-73264144D01*
X164788630Y-73256683D01*
X164696545Y-73275000D01*
X164696544Y-73275000D01*
X164495451Y-73315000D01*
X158342081Y-73315000D01*
X158249999Y-73296684D01*
X158157917Y-73315000D01*
X158157914Y-73315000D01*
X157885181Y-73369250D01*
X157575903Y-73575903D01*
X157523741Y-73653969D01*
X155385970Y-75791741D01*
X155307904Y-75843903D01*
X155255742Y-75921969D01*
X155255741Y-75921970D01*
X155101250Y-76153182D01*
X155028683Y-76518000D01*
X155047001Y-76610091D01*
X155047000Y-102630710D01*
X153112711Y-104565000D01*
X149137290Y-104565000D01*
X148468100Y-103895811D01*
X148468100Y-101375185D01*
X148486417Y-101283099D01*
X148485326Y-101277616D01*
X149240251Y-102032541D01*
X149216887Y-102150000D01*
X149328260Y-102709909D01*
X149645423Y-103184577D01*
X150120091Y-103501740D01*
X150538667Y-103585000D01*
X150821333Y-103585000D01*
X151239909Y-103501740D01*
X151714577Y-103184577D01*
X152031740Y-102709909D01*
X152143113Y-102150000D01*
X152031740Y-101590091D01*
X151714577Y-101115423D01*
X151330892Y-100859053D01*
X151535134Y-100762389D01*
X151911041Y-100347423D01*
X152071904Y-99959039D01*
X151949915Y-99737000D01*
X150807000Y-99737000D01*
X150807000Y-99757000D01*
X150553000Y-99757000D01*
X150553000Y-99737000D01*
X150533000Y-99737000D01*
X150533000Y-99483000D01*
X150553000Y-99483000D01*
X150553000Y-99463000D01*
X150807000Y-99463000D01*
X150807000Y-99483000D01*
X151949915Y-99483000D01*
X152071904Y-99260961D01*
X151911041Y-98872577D01*
X151535134Y-98457611D01*
X151330892Y-98360947D01*
X151714577Y-98104577D01*
X152031740Y-97629909D01*
X152143113Y-97070000D01*
X152031740Y-96510091D01*
X151714577Y-96035423D01*
X151362242Y-95800000D01*
X151714577Y-95564577D01*
X152031740Y-95089909D01*
X152143113Y-94530000D01*
X152031740Y-93970091D01*
X151714577Y-93495423D01*
X151362242Y-93260000D01*
X151714577Y-93024577D01*
X152031740Y-92549909D01*
X152143113Y-91990000D01*
X152031740Y-91430091D01*
X151714577Y-90955423D01*
X151362242Y-90720000D01*
X151714577Y-90484577D01*
X152031740Y-90009909D01*
X152143113Y-89450000D01*
X152031740Y-88890091D01*
X151714577Y-88415423D01*
X151362242Y-88180000D01*
X151714577Y-87944577D01*
X152031740Y-87469909D01*
X152143113Y-86910000D01*
X152031740Y-86350091D01*
X151714577Y-85875423D01*
X151362242Y-85640000D01*
X151714577Y-85404577D01*
X152031740Y-84929909D01*
X152143113Y-84370000D01*
X152031740Y-83810091D01*
X151714577Y-83335423D01*
X151362242Y-83100000D01*
X151714577Y-82864577D01*
X152031740Y-82389909D01*
X152143113Y-81830000D01*
X152031740Y-81270091D01*
X151714577Y-80795423D01*
X151362242Y-80560000D01*
X151714577Y-80324577D01*
X152031740Y-79849909D01*
X152143113Y-79290000D01*
X152031740Y-78730091D01*
X151714577Y-78255423D01*
X151362242Y-78020000D01*
X151714577Y-77784577D01*
X152031740Y-77309909D01*
X152143113Y-76750000D01*
X152031740Y-76190091D01*
X151714577Y-75715423D01*
X151362242Y-75480000D01*
X151714577Y-75244577D01*
X152031740Y-74769909D01*
X152143113Y-74210000D01*
X152031740Y-73650091D01*
X151714577Y-73175423D01*
X151362242Y-72940000D01*
X151714577Y-72704577D01*
X152031740Y-72229909D01*
X152143113Y-71670000D01*
X152031740Y-71110091D01*
X151714577Y-70635423D01*
X151362242Y-70400000D01*
X151714577Y-70164577D01*
X152031740Y-69689909D01*
X152143113Y-69130000D01*
X152031740Y-68570091D01*
X151714577Y-68095423D01*
X151362242Y-67860000D01*
X151714577Y-67624577D01*
X152031740Y-67149909D01*
X152143113Y-66590000D01*
X152031740Y-66030091D01*
X151714577Y-65555423D01*
X151239909Y-65238260D01*
X150821333Y-65155000D01*
X150538667Y-65155000D01*
X150120091Y-65238260D01*
X149645423Y-65555423D01*
X149328260Y-66030091D01*
X149216887Y-66590000D01*
X149328260Y-67149909D01*
X149645423Y-67624577D01*
X149997758Y-67860000D01*
X149645423Y-68095423D01*
X149328260Y-68570091D01*
X149216887Y-69130000D01*
X149328260Y-69689909D01*
X149645423Y-70164577D01*
X149997758Y-70400000D01*
X149645423Y-70635423D01*
X149328260Y-71110091D01*
X149216887Y-71670000D01*
X149328260Y-72229909D01*
X149645423Y-72704577D01*
X149997758Y-72940000D01*
X149645423Y-73175423D01*
X149328260Y-73650091D01*
X149216887Y-74210000D01*
X149328260Y-74769909D01*
X149645423Y-75244577D01*
X149997758Y-75480000D01*
X149645423Y-75715423D01*
X149328260Y-76190091D01*
X149216887Y-76750000D01*
X149328260Y-77309909D01*
X149645423Y-77784577D01*
X149997758Y-78020000D01*
X149645423Y-78255423D01*
X149328260Y-78730091D01*
X149216887Y-79290000D01*
X149328260Y-79849909D01*
X149645423Y-80324577D01*
X149997758Y-80560000D01*
X149645423Y-80795423D01*
X149328260Y-81270091D01*
X149216887Y-81830000D01*
X149328260Y-82389909D01*
X149645423Y-82864577D01*
X149997758Y-83100000D01*
X149645423Y-83335423D01*
X149328260Y-83810091D01*
X149216887Y-84370000D01*
X149328260Y-84929909D01*
X149645423Y-85404577D01*
X149997758Y-85640000D01*
X149645423Y-85875423D01*
X149328260Y-86350091D01*
X149216887Y-86910000D01*
X149328260Y-87469909D01*
X149645423Y-87944577D01*
X149997758Y-88180000D01*
X149645423Y-88415423D01*
X149328260Y-88890091D01*
X149216887Y-89450000D01*
X149328260Y-90009909D01*
X149645423Y-90484577D01*
X149997758Y-90720000D01*
X149645423Y-90955423D01*
X149328260Y-91430091D01*
X149216887Y-91990000D01*
X149328260Y-92549909D01*
X149645423Y-93024577D01*
X149997758Y-93260000D01*
X149645423Y-93495423D01*
X149328260Y-93970091D01*
X149216887Y-94530000D01*
X149328260Y-95089909D01*
X149645423Y-95564577D01*
X149997758Y-95800000D01*
X149645423Y-96035423D01*
X149328260Y-96510091D01*
X149216887Y-97070000D01*
X149328260Y-97629909D01*
X149645423Y-98104577D01*
X150029108Y-98360947D01*
X149824866Y-98457611D01*
X149448959Y-98872577D01*
X149288096Y-99260961D01*
X149410084Y-99482998D01*
X149335288Y-99482998D01*
X127525000Y-77672711D01*
X127525000Y-64533618D01*
X127799380Y-64419966D01*
X128095376Y-64123970D01*
X143035635Y-64123970D01*
X143195418Y-64442739D01*
X143986187Y-64752723D01*
X144835387Y-64736497D01*
X145544582Y-64442739D01*
X145704365Y-64123970D01*
X144370000Y-62789605D01*
X143035635Y-64123970D01*
X128095376Y-64123970D01*
X128399966Y-63819380D01*
X128725000Y-63034678D01*
X128725000Y-62226187D01*
X142227277Y-62226187D01*
X142243503Y-63075387D01*
X142537261Y-63784582D01*
X142856030Y-63944365D01*
X144190395Y-62610000D01*
X144549605Y-62610000D01*
X145883970Y-63944365D01*
X146202739Y-63784582D01*
X146512723Y-62993813D01*
X146496497Y-62144613D01*
X146202739Y-61435418D01*
X145883970Y-61275635D01*
X144549605Y-62610000D01*
X144190395Y-62610000D01*
X142856030Y-61275635D01*
X142537261Y-61435418D01*
X142227277Y-62226187D01*
X128725000Y-62226187D01*
X128725000Y-62185322D01*
X128399966Y-61400620D01*
X127799380Y-60800034D01*
X127642374Y-60735000D01*
X143297445Y-60735000D01*
X143195418Y-60777261D01*
G36*
X170841843Y-92332235D02*
X170792560Y-92580000D01*
X170792560Y-94180000D01*
X170841843Y-94427765D01*
X170982191Y-94637809D01*
X171192235Y-94778157D01*
X171347361Y-94809013D01*
X171008959Y-95182577D01*
X170848096Y-95570961D01*
X170970085Y-95793000D01*
X172113000Y-95793000D01*
X172113000Y-95773000D01*
X172367000Y-95773000D01*
X172367000Y-95793000D01*
X173509915Y-95793000D01*
X173631904Y-95570961D01*
X173471041Y-95182577D01*
X173132639Y-94809013D01*
X173287765Y-94778157D01*
X173497809Y-94637809D01*
X173638157Y-94427765D01*
X173687440Y-94180000D01*
X173687440Y-92580000D01*
X173638157Y-92332235D01*
X173501022Y-92127000D01*
X174674711Y-92127000D01*
X176523739Y-93976028D01*
X176575903Y-94054097D01*
X176885181Y-94260750D01*
X177250000Y-94333317D01*
X177342086Y-94315000D01*
X178758888Y-94315000D01*
X178825423Y-94414577D01*
X179177758Y-94650000D01*
X178825423Y-94885423D01*
X178508260Y-95360091D01*
X178396887Y-95920000D01*
X178508260Y-96479909D01*
X178825423Y-96954577D01*
X179300091Y-97271740D01*
X179718667Y-97355000D01*
X180001333Y-97355000D01*
X180419909Y-97271740D01*
X180894577Y-96954577D01*
X181211740Y-96479909D01*
X181323113Y-95920000D01*
X181211740Y-95360091D01*
X180894577Y-94885423D01*
X180542242Y-94650000D01*
X180894577Y-94414577D01*
X181211740Y-93939909D01*
X181323113Y-93380000D01*
X181211740Y-92820091D01*
X180894577Y-92345423D01*
X180567684Y-92127000D01*
X187265001Y-92127000D01*
X187265001Y-113072388D01*
X187269297Y-113093984D01*
X187231197Y-113360027D01*
X187080661Y-113691112D01*
X186843251Y-113966639D01*
X186538056Y-114164456D01*
X186166083Y-114275700D01*
X186137033Y-114277859D01*
X186072388Y-114265000D01*
X169127000Y-114265000D01*
X169127000Y-113327745D01*
X171021861Y-113327745D01*
X171095995Y-113573864D01*
X171633223Y-113766965D01*
X172203454Y-113739778D01*
X172604005Y-113573864D01*
X172678139Y-113327745D01*
X172548140Y-113197745D01*
X177171861Y-113197745D01*
X177245995Y-113443864D01*
X177783223Y-113636965D01*
X178353454Y-113609778D01*
X178754005Y-113443864D01*
X178828139Y-113197745D01*
X178000000Y-112369605D01*
X177171861Y-113197745D01*
X172548140Y-113197745D01*
X171850000Y-112499605D01*
X171021861Y-113327745D01*
X169127000Y-113327745D01*
X169127000Y-111455566D01*
X169174097Y-111424097D01*
X169380750Y-111114819D01*
X169435000Y-110842086D01*
X169435000Y-110842083D01*
X169453316Y-110750001D01*
X169435000Y-110657919D01*
X169435000Y-109520000D01*
X170402560Y-109520000D01*
X170402560Y-111120000D01*
X170451843Y-111367765D01*
X170591995Y-111577516D01*
X170403035Y-112103223D01*
X170430222Y-112673454D01*
X170596136Y-113074005D01*
X170842255Y-113148139D01*
X171670395Y-112320000D01*
X171656252Y-112305858D01*
X171835858Y-112126253D01*
X171850000Y-112140395D01*
X171864143Y-112126253D01*
X172043748Y-112305858D01*
X172029605Y-112320000D01*
X172857745Y-113148139D01*
X173103864Y-113074005D01*
X173296965Y-112536777D01*
X173269778Y-111966546D01*
X173108395Y-111576933D01*
X173248157Y-111367765D01*
X173297440Y-111120000D01*
X173297440Y-109520000D01*
X173271582Y-109390000D01*
X176552560Y-109390000D01*
X176552560Y-110990000D01*
X176601843Y-111237765D01*
X176741995Y-111447516D01*
X176553035Y-111973223D01*
X176580222Y-112543454D01*
X176746136Y-112944005D01*
X176992255Y-113018139D01*
X177820395Y-112190000D01*
X177806252Y-112175858D01*
X177985858Y-111996253D01*
X178000000Y-112010395D01*
X178014143Y-111996253D01*
X178193748Y-112175858D01*
X178179605Y-112190000D01*
X179007745Y-113018139D01*
X179253864Y-112944005D01*
X179446965Y-112406777D01*
X179434956Y-112154887D01*
X183765000Y-112154887D01*
X183765000Y-112845113D01*
X184029138Y-113482799D01*
X184517201Y-113970862D01*
X185154887Y-114235000D01*
X185845113Y-114235000D01*
X186482799Y-113970862D01*
X186970862Y-113482799D01*
X187235000Y-112845113D01*
X187235000Y-112154887D01*
X186970862Y-111517201D01*
X186482799Y-111029138D01*
X185845113Y-110765000D01*
X185154887Y-110765000D01*
X184517201Y-111029138D01*
X184029138Y-111517201D01*
X183765000Y-112154887D01*
X179434956Y-112154887D01*
X179419778Y-111836546D01*
X179258395Y-111446933D01*
X179398157Y-111237765D01*
X179447440Y-110990000D01*
X179447440Y-109390000D01*
X179398157Y-109142235D01*
X179257809Y-108932191D01*
X179047765Y-108791843D01*
X178800000Y-108742560D01*
X177200000Y-108742560D01*
X176952235Y-108791843D01*
X176742191Y-108932191D01*
X176601843Y-109142235D01*
X176552560Y-109390000D01*
X173271582Y-109390000D01*
X173248157Y-109272235D01*
X173107809Y-109062191D01*
X172897765Y-108921843D01*
X172650000Y-108872560D01*
X171050000Y-108872560D01*
X170802235Y-108921843D01*
X170592191Y-109062191D01*
X170451843Y-109272235D01*
X170402560Y-109520000D01*
X169435000Y-109520000D01*
X169435000Y-101544126D01*
X171965000Y-101544126D01*
X171965000Y-101955874D01*
X172065000Y-102197296D01*
X172065001Y-103302702D01*
X171965000Y-103544126D01*
X171965000Y-103955874D01*
X172122569Y-104336280D01*
X172413720Y-104627431D01*
X172794126Y-104785000D01*
X173205874Y-104785000D01*
X173586280Y-104627431D01*
X173877431Y-104336280D01*
X174035000Y-103955874D01*
X174035000Y-103544126D01*
X173935000Y-103302704D01*
X173935000Y-102560000D01*
X179457560Y-102560000D01*
X179457560Y-104060000D01*
X179506843Y-104307765D01*
X179647191Y-104517809D01*
X179857235Y-104658157D01*
X180105000Y-104707440D01*
X181155000Y-104707440D01*
X181402765Y-104658157D01*
X181448134Y-104627842D01*
X181900000Y-104717725D01*
X182352609Y-104627695D01*
X182544996Y-104499146D01*
X182802664Y-104645266D01*
X182864190Y-104653964D01*
X183043000Y-104528163D01*
X183043000Y-103734709D01*
X183060000Y-103649245D01*
X183060000Y-103437000D01*
X183297000Y-103437000D01*
X183297000Y-104528163D01*
X183475810Y-104653964D01*
X183537336Y-104645266D01*
X183934255Y-104420179D01*
X184214823Y-104060331D01*
X184336326Y-103620506D01*
X184176593Y-103437000D01*
X183297000Y-103437000D01*
X183060000Y-103437000D01*
X183060000Y-102970754D01*
X183043000Y-102885290D01*
X183043000Y-102091837D01*
X183297000Y-102091837D01*
X183297000Y-103183000D01*
X184176593Y-103183000D01*
X184336326Y-102999494D01*
X184214823Y-102559669D01*
X183934255Y-102199821D01*
X183537336Y-101974734D01*
X183475810Y-101966036D01*
X183297000Y-102091837D01*
X183043000Y-102091837D01*
X182864190Y-101966036D01*
X182802664Y-101974734D01*
X182544996Y-102120854D01*
X182352608Y-101992305D01*
X181900000Y-101902275D01*
X181448133Y-101992157D01*
X181402765Y-101961843D01*
X181155000Y-101912560D01*
X180105000Y-101912560D01*
X179857235Y-101961843D01*
X179647191Y-102102191D01*
X179506843Y-102312235D01*
X179457560Y-102560000D01*
X173935000Y-102560000D01*
X173935000Y-102197296D01*
X174035000Y-101955874D01*
X174035000Y-101544126D01*
X173877431Y-101163720D01*
X173586280Y-100872569D01*
X173205874Y-100715000D01*
X172794126Y-100715000D01*
X172413720Y-100872569D01*
X172122569Y-101163720D01*
X171965000Y-101544126D01*
X169435000Y-101544126D01*
X169435000Y-96269039D01*
X170848096Y-96269039D01*
X171008959Y-96657423D01*
X171384866Y-97072389D01*
X171890959Y-97311914D01*
X172113000Y-97190629D01*
X172113000Y-96047000D01*
X172367000Y-96047000D01*
X172367000Y-97190629D01*
X172589041Y-97311914D01*
X173095134Y-97072389D01*
X173471041Y-96657423D01*
X173631904Y-96269039D01*
X173509915Y-96047000D01*
X172367000Y-96047000D01*
X172113000Y-96047000D01*
X170970085Y-96047000D01*
X170848096Y-96269039D01*
X169435000Y-96269039D01*
X169435000Y-92127000D01*
X170978978Y-92127000D01*
X170841843Y-92332235D01*
X170841843Y-92332235D01*
G37*
X170841843Y-92332235D02*
X170792560Y-92580000D01*
X170792560Y-94180000D01*
X170841843Y-94427765D01*
X170982191Y-94637809D01*
X171192235Y-94778157D01*
X171347361Y-94809013D01*
X171008959Y-95182577D01*
X170848096Y-95570961D01*
X170970085Y-95793000D01*
X172113000Y-95793000D01*
X172113000Y-95773000D01*
X172367000Y-95773000D01*
X172367000Y-95793000D01*
X173509915Y-95793000D01*
X173631904Y-95570961D01*
X173471041Y-95182577D01*
X173132639Y-94809013D01*
X173287765Y-94778157D01*
X173497809Y-94637809D01*
X173638157Y-94427765D01*
X173687440Y-94180000D01*
X173687440Y-92580000D01*
X173638157Y-92332235D01*
X173501022Y-92127000D01*
X174674711Y-92127000D01*
X176523739Y-93976028D01*
X176575903Y-94054097D01*
X176885181Y-94260750D01*
X177250000Y-94333317D01*
X177342086Y-94315000D01*
X178758888Y-94315000D01*
X178825423Y-94414577D01*
X179177758Y-94650000D01*
X178825423Y-94885423D01*
X178508260Y-95360091D01*
X178396887Y-95920000D01*
X178508260Y-96479909D01*
X178825423Y-96954577D01*
X179300091Y-97271740D01*
X179718667Y-97355000D01*
X180001333Y-97355000D01*
X180419909Y-97271740D01*
X180894577Y-96954577D01*
X181211740Y-96479909D01*
X181323113Y-95920000D01*
X181211740Y-95360091D01*
X180894577Y-94885423D01*
X180542242Y-94650000D01*
X180894577Y-94414577D01*
X181211740Y-93939909D01*
X181323113Y-93380000D01*
X181211740Y-92820091D01*
X180894577Y-92345423D01*
X180567684Y-92127000D01*
X187265001Y-92127000D01*
X187265001Y-113072388D01*
X187269297Y-113093984D01*
X187231197Y-113360027D01*
X187080661Y-113691112D01*
X186843251Y-113966639D01*
X186538056Y-114164456D01*
X186166083Y-114275700D01*
X186137033Y-114277859D01*
X186072388Y-114265000D01*
X169127000Y-114265000D01*
X169127000Y-113327745D01*
X171021861Y-113327745D01*
X171095995Y-113573864D01*
X171633223Y-113766965D01*
X172203454Y-113739778D01*
X172604005Y-113573864D01*
X172678139Y-113327745D01*
X172548140Y-113197745D01*
X177171861Y-113197745D01*
X177245995Y-113443864D01*
X177783223Y-113636965D01*
X178353454Y-113609778D01*
X178754005Y-113443864D01*
X178828139Y-113197745D01*
X178000000Y-112369605D01*
X177171861Y-113197745D01*
X172548140Y-113197745D01*
X171850000Y-112499605D01*
X171021861Y-113327745D01*
X169127000Y-113327745D01*
X169127000Y-111455566D01*
X169174097Y-111424097D01*
X169380750Y-111114819D01*
X169435000Y-110842086D01*
X169435000Y-110842083D01*
X169453316Y-110750001D01*
X169435000Y-110657919D01*
X169435000Y-109520000D01*
X170402560Y-109520000D01*
X170402560Y-111120000D01*
X170451843Y-111367765D01*
X170591995Y-111577516D01*
X170403035Y-112103223D01*
X170430222Y-112673454D01*
X170596136Y-113074005D01*
X170842255Y-113148139D01*
X171670395Y-112320000D01*
X171656252Y-112305858D01*
X171835858Y-112126253D01*
X171850000Y-112140395D01*
X171864143Y-112126253D01*
X172043748Y-112305858D01*
X172029605Y-112320000D01*
X172857745Y-113148139D01*
X173103864Y-113074005D01*
X173296965Y-112536777D01*
X173269778Y-111966546D01*
X173108395Y-111576933D01*
X173248157Y-111367765D01*
X173297440Y-111120000D01*
X173297440Y-109520000D01*
X173271582Y-109390000D01*
X176552560Y-109390000D01*
X176552560Y-110990000D01*
X176601843Y-111237765D01*
X176741995Y-111447516D01*
X176553035Y-111973223D01*
X176580222Y-112543454D01*
X176746136Y-112944005D01*
X176992255Y-113018139D01*
X177820395Y-112190000D01*
X177806252Y-112175858D01*
X177985858Y-111996253D01*
X178000000Y-112010395D01*
X178014143Y-111996253D01*
X178193748Y-112175858D01*
X178179605Y-112190000D01*
X179007745Y-113018139D01*
X179253864Y-112944005D01*
X179446965Y-112406777D01*
X179434956Y-112154887D01*
X183765000Y-112154887D01*
X183765000Y-112845113D01*
X184029138Y-113482799D01*
X184517201Y-113970862D01*
X185154887Y-114235000D01*
X185845113Y-114235000D01*
X186482799Y-113970862D01*
X186970862Y-113482799D01*
X187235000Y-112845113D01*
X187235000Y-112154887D01*
X186970862Y-111517201D01*
X186482799Y-111029138D01*
X185845113Y-110765000D01*
X185154887Y-110765000D01*
X184517201Y-111029138D01*
X184029138Y-111517201D01*
X183765000Y-112154887D01*
X179434956Y-112154887D01*
X179419778Y-111836546D01*
X179258395Y-111446933D01*
X179398157Y-111237765D01*
X179447440Y-110990000D01*
X179447440Y-109390000D01*
X179398157Y-109142235D01*
X179257809Y-108932191D01*
X179047765Y-108791843D01*
X178800000Y-108742560D01*
X177200000Y-108742560D01*
X176952235Y-108791843D01*
X176742191Y-108932191D01*
X176601843Y-109142235D01*
X176552560Y-109390000D01*
X173271582Y-109390000D01*
X173248157Y-109272235D01*
X173107809Y-109062191D01*
X172897765Y-108921843D01*
X172650000Y-108872560D01*
X171050000Y-108872560D01*
X170802235Y-108921843D01*
X170592191Y-109062191D01*
X170451843Y-109272235D01*
X170402560Y-109520000D01*
X169435000Y-109520000D01*
X169435000Y-101544126D01*
X171965000Y-101544126D01*
X171965000Y-101955874D01*
X172065000Y-102197296D01*
X172065001Y-103302702D01*
X171965000Y-103544126D01*
X171965000Y-103955874D01*
X172122569Y-104336280D01*
X172413720Y-104627431D01*
X172794126Y-104785000D01*
X173205874Y-104785000D01*
X173586280Y-104627431D01*
X173877431Y-104336280D01*
X174035000Y-103955874D01*
X174035000Y-103544126D01*
X173935000Y-103302704D01*
X173935000Y-102560000D01*
X179457560Y-102560000D01*
X179457560Y-104060000D01*
X179506843Y-104307765D01*
X179647191Y-104517809D01*
X179857235Y-104658157D01*
X180105000Y-104707440D01*
X181155000Y-104707440D01*
X181402765Y-104658157D01*
X181448134Y-104627842D01*
X181900000Y-104717725D01*
X182352609Y-104627695D01*
X182544996Y-104499146D01*
X182802664Y-104645266D01*
X182864190Y-104653964D01*
X183043000Y-104528163D01*
X183043000Y-103734709D01*
X183060000Y-103649245D01*
X183060000Y-103437000D01*
X183297000Y-103437000D01*
X183297000Y-104528163D01*
X183475810Y-104653964D01*
X183537336Y-104645266D01*
X183934255Y-104420179D01*
X184214823Y-104060331D01*
X184336326Y-103620506D01*
X184176593Y-103437000D01*
X183297000Y-103437000D01*
X183060000Y-103437000D01*
X183060000Y-102970754D01*
X183043000Y-102885290D01*
X183043000Y-102091837D01*
X183297000Y-102091837D01*
X183297000Y-103183000D01*
X184176593Y-103183000D01*
X184336326Y-102999494D01*
X184214823Y-102559669D01*
X183934255Y-102199821D01*
X183537336Y-101974734D01*
X183475810Y-101966036D01*
X183297000Y-102091837D01*
X183043000Y-102091837D01*
X182864190Y-101966036D01*
X182802664Y-101974734D01*
X182544996Y-102120854D01*
X182352608Y-101992305D01*
X181900000Y-101902275D01*
X181448133Y-101992157D01*
X181402765Y-101961843D01*
X181155000Y-101912560D01*
X180105000Y-101912560D01*
X179857235Y-101961843D01*
X179647191Y-102102191D01*
X179506843Y-102312235D01*
X179457560Y-102560000D01*
X173935000Y-102560000D01*
X173935000Y-102197296D01*
X174035000Y-101955874D01*
X174035000Y-101544126D01*
X173877431Y-101163720D01*
X173586280Y-100872569D01*
X173205874Y-100715000D01*
X172794126Y-100715000D01*
X172413720Y-100872569D01*
X172122569Y-101163720D01*
X171965000Y-101544126D01*
X169435000Y-101544126D01*
X169435000Y-96269039D01*
X170848096Y-96269039D01*
X171008959Y-96657423D01*
X171384866Y-97072389D01*
X171890959Y-97311914D01*
X172113000Y-97190629D01*
X172113000Y-96047000D01*
X172367000Y-96047000D01*
X172367000Y-97190629D01*
X172589041Y-97311914D01*
X173095134Y-97072389D01*
X173471041Y-96657423D01*
X173631904Y-96269039D01*
X173509915Y-96047000D01*
X172367000Y-96047000D01*
X172113000Y-96047000D01*
X170970085Y-96047000D01*
X170848096Y-96269039D01*
X169435000Y-96269039D01*
X169435000Y-92127000D01*
X170978978Y-92127000D01*
X170841843Y-92332235D01*
G04 #@! TD*
M02*
